<svg preserveAspectRatio="none" width="100%" height="100%" overflow="visible" style="display: block;" viewBox="0 0 22 22.0006" fill="none" xmlns="http://www.w3.org/2000/svg">
<g id="01 align center">
<path id="Vector" d="M22 2.75H3.8885L3.85 2.42825C3.77121 1.75947 3.44977 1.14284 2.94662 0.695271C2.44346 0.247705 1.79358 0.000313311 1.12017 0L0 0V1.83333H1.12017C1.34469 1.83336 1.56139 1.91579 1.72917 2.06499C1.89696 2.21418 2.00415 2.41977 2.03042 2.64275L3.48333 14.9884C3.56212 15.6572 3.88356 16.2738 4.38672 16.7214C4.88987 17.169 5.53976 17.4164 6.21317 17.4167H18.3333V15.5833H6.21317C5.9885 15.5833 5.77168 15.5007 5.60388 15.3513C5.43608 15.202 5.32898 14.9961 5.30292 14.773L5.18283 13.75H20.0163L22 2.75ZM18.4837 11.9167H4.96742L4.10483 4.58333H19.8064L18.4837 11.9167Z" fill="var(--fill-0, #666666)"/>
<path id="Vector_2" d="M6.4168 22.0006C7.42932 22.0006 8.25013 21.1798 8.25013 20.1673C8.25013 19.1547 7.42932 18.3339 6.4168 18.3339C5.40428 18.3339 4.58347 19.1547 4.58347 20.1673C4.58347 21.1798 5.40428 22.0006 6.4168 22.0006Z" fill="var(--fill-0, #666666)"/>
<path id="Vector_3" d="M15.5833 22.0006C16.5958 22.0006 17.4167 21.1798 17.4167 20.1673C17.4167 19.1547 16.5958 18.3339 15.5833 18.3339C14.5708 18.3339 13.75 19.1547 13.75 20.1673C13.75 21.1798 14.5708 22.0006 15.5833 22.0006Z" fill="var(--fill-0, #666666)"/>
</g>
</svg>
