<svg width="24" height="24" viewBox="0 0 24 24" fill="none" xmlns="http://www.w3.org/2000/svg">
<path d="M19.9 20.975L13.325 14.4C12.825 14.8333 12.242 15.1708 11.576 15.4125C10.91 15.6541 10.2013 15.775 9.45 15.775C7.64733 15.775 6.12167 15.15 4.873 13.9C3.62433 12.65 3 11.1416 3 9.37498C3 7.60831 3.625 6.09998 4.875 4.84998C6.125 3.59998 7.6375 2.97498 9.4125 2.97498C11.1875 2.97498 12.6958 3.59998 13.9375 4.84998C15.1792 6.09998 15.8 7.60956 15.8 9.37873C15.8 10.0929 15.6833 10.7833 15.45 11.45C15.2167 12.1166 14.8667 12.7416 14.4 13.325L21 19.875L19.9 20.975ZM9.425 14.275C10.7792 14.275 11.9303 13.7958 12.8783 12.8375C13.8261 11.8791 14.3 10.725 14.3 9.37498C14.3 8.02498 13.8261 6.87081 12.8783 5.91248C11.9303 4.95414 10.7792 4.47498 9.425 4.47498C8.057 4.47498 6.89417 4.95414 5.9365 5.91248C4.97883 6.87081 4.5 8.02498 4.5 9.37498C4.5 10.725 4.97883 11.8791 5.9365 12.8375C6.89417 13.7958 8.057 14.275 9.425 14.275Z" fill="#666666"/>
</svg>
