<svg width="18" height="14" viewBox="0 0 18 14" fill="none" xmlns="http://www.w3.org/2000/svg">
<path fill-rule="evenodd" clip-rule="evenodd" d="M16.2 0H1.8C1.32261 0 0.864773 0.184374 0.527208 0.512563C0.189642 0.840752 0 1.28587 0 1.75V5.25C0.47739 5.25 0.935227 5.43437 1.27279 5.76256C1.61036 6.09075 1.8 6.53587 1.8 7C1.8 7.97125 0.999 8.75 0 8.75V12.25C0 12.7141 0.189642 13.1592 0.527208 13.4874C0.864773 13.8156 1.32261 14 1.8 14H16.2C17.199 14 18 13.2212 18 12.25V8.75C17.5226 8.75 17.0648 8.56563 16.7272 8.23744C16.3896 7.90925 16.2 7.46413 16.2 7C16.2 6.53587 16.3896 6.09075 16.7272 5.76256C17.0648 5.43437 17.5226 5.25 18 5.25V1.75C18 0.77875 17.199 0 16.2 0ZM8.1 4.8125C8.1 4.08625 7.497 3.5 6.75 3.5C6.003 3.5 5.4 4.08625 5.4 4.8125C5.4 5.53875 6.003 6.125 6.75 6.125C7.497 6.125 8.1 5.53875 8.1 4.8125ZM11.52 3.5L12.6 4.55L6.48 10.5L5.4 9.45L8.46 6.475L11.52 3.5ZM12.6 9.1875C12.6 8.46125 11.997 7.875 11.25 7.875C10.503 7.875 9.9 8.46125 9.9 9.1875C9.9 9.91375 10.503 10.5 11.25 10.5C11.997 10.5 12.6 9.91375 12.6 9.1875Z" fill="#FF5447"/>
</svg>
