<svg width="22" height="22" viewBox="0 0 22 22" fill="none" xmlns="http://www.w3.org/2000/svg">
<g clip-path="url(#clip0_1493_2799)">
<path d="M22 2.75H3.8885L3.85 2.42825C3.77121 1.75947 3.44977 1.14284 2.94662 0.695271C2.44346 0.247705 1.79358 0.000313311 1.12017 0L0 0V1.83333H1.12017C1.34469 1.83336 1.56139 1.91579 1.72917 2.06499C1.89696 2.21418 2.00415 2.41977 2.03042 2.64275L3.48333 14.9884C3.56212 15.6572 3.88356 16.2738 4.38672 16.7214C4.88987 17.169 5.53976 17.4164 6.21317 17.4167H18.3333V15.5833H6.21317C5.9885 15.5833 5.77168 15.5007 5.60388 15.3513C5.43608 15.202 5.32898 14.9961 5.30292 14.773L5.18283 13.75H20.0163L22 2.75ZM18.4837 11.9167H4.96742L4.10483 4.58333H19.8064L18.4837 11.9167Z" fill="#666666"/>
<path d="M6.41634 22.0006C7.42886 22.0006 8.24967 21.1798 8.24967 20.1673C8.24967 19.1548 7.42886 18.334 6.41634 18.334C5.40382 18.334 4.58301 19.1548 4.58301 20.1673C4.58301 21.1798 5.40382 22.0006 6.41634 22.0006Z" fill="#666666"/>
<path d="M15.5833 22.0006C16.5958 22.0006 17.4167 21.1798 17.4167 20.1673C17.4167 19.1548 16.5958 18.334 15.5833 18.334C14.5708 18.334 13.75 19.1548 13.75 20.1673C13.75 21.1798 14.5708 22.0006 15.5833 22.0006Z" fill="#666666"/>
</g>
<defs>
<clipPath id="clip0_1493_2799">
<rect width="22" height="22" fill="white"/>
</clipPath>
</defs>
</svg>
