<svg width="32" height="32" viewBox="0 0 32 32" fill="none" xmlns="http://www.w3.org/2000/svg">
<path d="M21.0065 19.0067H19.9532L19.5798 18.6467C20.8865 17.1267 21.6732 15.1534 21.6732 13.0067C21.6732 8.22003 17.7932 4.34003 13.0065 4.34003C8.21984 4.34003 4.33984 8.22003 4.33984 13.0067C4.33984 17.7934 8.21984 21.6734 13.0065 21.6734C15.1532 21.6734 17.1265 20.8867 18.6465 19.58L19.0065 19.9534V21.0067L25.6732 27.66L27.6598 25.6734L21.0065 19.0067ZM13.0065 19.0067C9.68651 19.0067 7.00651 16.3267 7.00651 13.0067C7.00651 9.68669 9.68651 7.00669 13.0065 7.00669C16.3265 7.00669 19.0065 9.68669 19.0065 13.0067C19.0065 16.3267 16.3265 19.0067 13.0065 19.0067ZM13.6732 9.67336H12.3398V12.34H9.67318V13.6734H12.3398V16.34H13.6732V13.6734H16.3398V12.34H13.6732V9.67336Z" fill="#999999"/>
</svg>
