<svg width="113" height="47" viewBox="0 0 113 47" fill="none" xmlns="http://www.w3.org/2000/svg">
<g clip-path="url(#clip0_1129_285)">
<path d="M77.047 21.6823V26.4071L42.4867 26.3479C41.1985 26.3479 40.1541 25.2703 40.1541 23.9559V21.6231L66.2426 21.6704C66.4167 20.4507 66.6023 19.3613 66.7416 18.2245L45.3184 19.1363C44.6453 19.16 44.065 18.6626 43.9722 17.9876L43.5196 14.6009L67.0201 14.0917C67.0666 13.2746 67.0666 12.4575 67.0666 11.6878L46.5021 11.6523C45.4925 11.6523 44.6801 10.8115 44.6801 9.78129V7.01031L69.318 7.04584C71.2676 7.04584 72.8576 8.66816 72.8576 10.6576V10.776C72.8576 13.997 72.8576 17.4548 72.1264 21.6704H77.0703L77.047 21.6823ZM49.9605 42.3935H72.9968C72.9968 42.3935 73.0316 42.3935 73.0316 42.4172V46.846C73.0316 46.846 73.0084 46.8816 72.9968 46.8816H49.1017C46.3745 46.8816 44.1695 44.6198 44.1695 41.8488V35.62L67.229 35.6556V33.3819L46.2352 33.3464C45.0515 33.3464 44.0998 32.3636 44.0998 31.1557V28.8465L73.0781 28.8939L73.0548 39.9305L49.9605 39.8949V42.3935Z" fill="#494545"/>
<path d="M101.975 27.0347C96.2305 27.9347 91.1126 28.065 83.6388 28.0531H83.5227C81.7123 28.0531 80.2501 26.5492 80.2617 24.7138V15.2877L92.9114 15.3114V11.9483L82.6872 11.9365C81.3294 11.9365 80.2385 10.8115 80.2385 9.42602V7.16425L98.714 7.19977L98.6908 19.7757L86.0991 19.7521V23.2454C92.1918 23.2098 96.5554 23.0322 101.58 22.227L101.975 27.0466V27.0347ZM107.174 30.5873H112.965L112.942 46.9881L91.3795 46.9526C88.1416 46.9526 85.5304 44.2645 85.5304 40.9607V30.5399H91.3795V34.1753L107.174 34.199V30.5636V30.5873ZM107.163 38.8055L91.3679 38.7818V40.5817C91.3679 41.4699 92.0642 42.1922 92.9346 42.1922L107.163 42.2159V38.8055ZM113 8.58526L112.965 28.8702H107.093L107.105 18.5087H100.745V13.7246H107.105L107.116 5.6485H110.134C111.712 5.6485 112.988 6.96294 112.988 8.57342L113 8.58526Z" fill="#494545"/>
<path d="M17.756 46.929C5.39643 46.929 0 39.2081 0 29.4268V18.8758C0 5.29327 8.87799 0 19.2879 0C31.8563 0 37.3456 6.9748 37.3456 13.9615C37.3456 24.1454 27.133 26.644 22.6186 27.9821C21.3188 28.361 16.5374 29.8176 15.4465 30.1373C11.2339 31.3807 10.0385 32.7662 10.0385 34.353C10.0385 37.0529 12.348 39.3857 17.756 39.3857C22.4561 39.3857 25.8912 37.7516 26.4715 32.7425H36.3127C35.3031 40.6765 30.6262 46.929 17.756 46.929ZM18.8701 7.55505C13.404 7.55505 9.82962 11.2852 9.82962 17.6442V24.3112C9.82962 24.3112 17.2221 22.1086 20.3091 21.1613C22.8855 20.356 27.5276 18.6863 27.5276 14.518C27.5276 10.8944 24.6379 7.56689 18.8701 7.56689" fill="#FFB71B"/>
</g>
<defs>
<clipPath id="clip0_1129_285">
<rect width="113" height="47" fill="white"/>
</clipPath>
</defs>
</svg>
