<svg width="214" height="32" viewBox="0 0 214 32" fill="none" xmlns="http://www.w3.org/2000/svg">
<g clip-path="url(#clip0_1625_9141)">
<path d="M93.54 26.3502C93.24 26.4402 91.61 26.8902 89.87 26.8902C86 26.8902 83.94 25.2302 83.94 21.7002V0.490234H86.11C88.37 0.490234 89.11 1.81023 89.11 3.64023V5.25023H93.54V6.50023C93.54 8.27023 92.31 9.28023 90.49 9.28023H89.11V20.8002C89.11 22.0602 89.54 22.9602 91.32 22.9602C92.38 22.9602 93.37 22.6602 93.54 22.6102V26.3602M80.1 8.69023C81.2 8.69023 82.33 9.02024 82.47 9.06024V5.26023C82.29 5.22023 80.17 4.77023 78.15 4.77023C74.73 4.77023 72.33 6.18023 72.33 9.88023V26.3902H77.5V10.9002C77.5 9.53023 78.37 8.70023 80.1 8.70023M50.43 10.7402C50.43 8.62023 49.23 4.77023 42.32 4.77023C38.77 4.77023 37.35 5.70023 36.85 6.05023C36.33 5.75023 34.68 4.77023 31.38 4.77023C25 4.77023 23.27 7.95023 23.27 10.5902V26.3802H28.48V10.9302C28.48 10.0302 28.98 8.69023 31.37 8.69023C33.23 8.69023 34.24 9.63023 34.24 10.9302V26.3802H39.45V10.9302C39.45 9.63023 40.44 8.69023 42.31 8.69023C44.35 8.69023 45.21 9.74023 45.21 10.9302V22.8402C45.21 25.1802 46.57 26.4902 48.72 26.4902H50.42V10.7402M61.44 4.76023C67.96 4.76023 70.33 7.85023 70.33 11.9602V18.6502C70.33 23.3502 67.31 26.8902 61.08 26.8902C54.85 26.8902 51.85 24.0802 51.85 20.3002C51.85 17.2902 53.9 15.3002 58.35 14.0802C59 13.9002 61.16 13.2502 62.14 12.9702C64.39 12.3102 65.11 11.8002 65.11 10.8302C65.11 9.81023 63.86 8.69023 61.32 8.69023C58.28 8.69023 57.33 10.5702 57.31 11.9202H52.58C52.58 7.74023 55.07 4.77023 61.44 4.77023M60.67 22.9602C62.67 22.9602 65.13 21.6902 65.13 18.4702V15.9402C65.13 15.9402 61.18 17.0702 60.08 17.4102C58.11 18.0102 57.16 19.0202 57.16 20.3302C57.16 21.6402 58.24 22.9702 60.67 22.9702" fill="#474C55"/>
<path d="M10.33 26.76C3.14 26.76 0 22.35 0 16.78V10.76C0 3.02 5.17 0 11.22 0C18.54 0 21.73 3.98 21.73 7.96C21.73 13.77 15.79 15.19 13.16 15.96C12.41 16.18 9.62 17.01 8.99 17.19C6.54 17.9 5.84 18.69 5.84 19.6C5.84 21.14 7.18 22.47 10.33 22.47C13.07 22.47 15.07 21.54 15.4 18.68H21.12C20.53 23.2 17.81 26.77 10.32 26.77M10.98 4.31C7.8 4.31 5.72 6.44 5.72 10.06V13.86C5.72 13.86 10.02 12.6 11.82 12.06C13.32 11.6 16.02 10.65 16.02 8.27C16.02 6.2 14.34 4.3 10.98 4.3" fill="#FFB71B"/>
<path d="M103.46 22.47C104.07 23.07 104.96 23.36 106.11 23.36C106.94 23.36 107.65 23.16 108.25 22.74C108.84 22.33 109.21 21.89 109.35 21.43H112.95C112.37 23.22 111.49 24.5 110.3 25.27C109.11 26.04 107.66 26.42 105.98 26.42C104.8 26.42 103.75 26.23 102.81 25.86C101.87 25.49 101.07 24.95 100.42 24.26C99.77 23.57 99.26 22.74 98.9 21.78C98.54 20.82 98.37 19.76 98.37 18.61C98.37 17.46 98.56 16.46 98.92 15.5C99.29 14.54 99.8 13.71 100.48 13.01C101.16 12.31 101.96 11.76 102.89 11.35C103.82 10.95 104.86 10.75 105.99 10.75C107.26 10.75 108.36 10.99 109.3 11.48C110.24 11.97 111.02 12.63 111.62 13.46C112.22 14.28 112.66 15.23 112.93 16.29C113.2 17.35 113.29 18.45 113.22 19.6H102.46C102.52 20.93 102.85 21.89 103.47 22.49M108.09 14.63C107.6 14.09 106.86 13.82 105.85 13.82C105.2 13.82 104.65 13.93 104.22 14.15C103.79 14.37 103.44 14.65 103.18 14.97C102.92 15.3 102.74 15.64 102.64 16.01C102.53 16.38 102.47 16.7 102.45 16.99H109.11C108.92 15.95 108.58 15.16 108.09 14.63Z" fill="#FFB71B"/>
<path d="M122.29 25.9002L127.34 10.9902H123.27L120.12 21.1802H120.06L116.92 10.9902H112.63L117.73 25.9002H122.29Z" fill="#FFB71B"/>
<path d="M131.69 22.3296C132.3 22.9196 133.19 23.2296 134.34 23.2296C135.17 23.2296 135.88 23.0196 136.48 22.6096C137.08 22.1996 137.44 21.7596 137.58 21.2996H141.18C140.6 23.0896 139.72 24.3696 138.53 25.1396C137.34 25.9096 135.9 26.2896 134.21 26.2896C133.03 26.2896 131.98 26.0996 131.04 25.7296C130.1 25.3496 129.3 24.8196 128.65 24.1296C128 23.4396 127.49 22.6096 127.13 21.6496C126.77 20.6896 126.6 19.6296 126.6 18.4796C126.6 17.3296 126.78 16.3296 127.15 15.3596C127.51 14.3996 128.03 13.5696 128.71 12.8696C129.38 12.1696 130.19 11.6196 131.12 11.2096C132.05 10.8096 133.09 10.5996 134.22 10.5996C135.49 10.5996 136.59 10.8396 137.53 11.3396C138.47 11.8296 139.25 12.4896 139.85 13.3096C140.46 14.1396 140.9 15.0796 141.17 16.1296C141.44 17.1896 141.54 18.2896 141.46 19.4496H130.7C130.76 20.7796 131.09 21.7396 131.71 22.3296M136.32 14.4796C135.83 13.9396 135.09 13.6696 134.09 13.6696C133.43 13.6696 132.89 13.7796 132.46 13.9996C132.03 14.2196 131.68 14.4996 131.42 14.8196C131.16 15.1496 130.98 15.4896 130.87 15.8596C130.76 16.2296 130.7 16.5496 130.68 16.8396H137.34C137.15 15.7996 136.81 15.0096 136.32 14.4696" fill="#FFB71B"/>
<path d="M146.6 10.9898V13.7598H146.66C146.85 13.2998 147.11 12.8698 147.44 12.4798C147.77 12.0898 148.14 11.7498 148.57 11.4698C148.99 11.1898 149.45 10.9798 149.93 10.8198C150.41 10.6698 150.91 10.5898 151.43 10.5898C151.7 10.5898 152 10.6398 152.32 10.7298V14.5398C152.13 14.4998 151.9 14.4698 151.62 14.4398C151.35 14.4098 151.09 14.3998 150.84 14.3998C150.09 14.3998 149.46 14.5298 148.94 14.7698C148.42 15.0198 148 15.3598 147.69 15.7998C147.37 16.2298 147.15 16.7398 147.01 17.3198C146.87 17.8998 146.81 18.5198 146.81 19.1898V25.9098H142.72V10.9998H146.61L146.6 10.9898Z" fill="#FFB71B"/>
<path d="M160 30.34C159.21 30.86 158.12 31.12 156.71 31.12C156.29 31.12 155.87 31.11 155.46 31.08C155.05 31.05 154.63 31.02 154.21 30.98V27.61C154.59 27.65 154.99 27.69 155.39 27.73C155.79 27.77 156.2 27.78 156.6 27.76C157.14 27.7 157.54 27.49 157.8 27.12C158.06 26.76 158.19 26.35 158.19 25.91C158.19 25.58 158.13 25.28 158.02 24.99L152.8 11H157.16L160.53 21.21H160.59L163.85 11H168.09L161.86 27.76C161.42 28.97 160.8 29.84 160.01 30.36" fill="#FFB71B"/>
<path d="M178.31 24.0003C177.83 24.8103 177.2 25.3903 176.42 25.7503C175.64 26.1003 174.76 26.2803 173.78 26.2803C172.67 26.2803 171.69 26.0603 170.84 25.6303C169.99 25.2003 169.3 24.6103 168.75 23.8703C168.2 23.1303 167.79 22.2803 167.51 21.3203C167.23 20.3603 167.09 19.3603 167.09 18.3303C167.09 17.3003 167.23 16.3603 167.51 15.4303C167.79 14.5003 168.2 13.6803 168.75 12.9703C169.3 12.2603 169.98 11.6903 170.81 11.2503C171.63 10.8203 172.59 10.6003 173.69 10.6003C174.57 10.6003 175.42 10.7903 176.21 11.1603C177.01 11.5403 177.64 12.0903 178.1 12.8203H178.15V5.32031H182.24V25.9103H178.35V24.0103M178.14 16.6303C178.02 16.0703 177.83 15.5603 177.55 15.1303C177.27 14.7003 176.91 14.3503 176.47 14.0803C176.03 13.8103 175.47 13.6803 174.8 13.6803C174.13 13.6803 173.56 13.8203 173.1 14.0803C172.64 14.3503 172.27 14.7103 171.99 15.1503C171.71 15.5903 171.51 16.1003 171.38 16.6603C171.25 17.2303 171.19 17.8203 171.19 18.4403C171.19 19.0103 171.26 19.5903 171.39 20.1703C171.52 20.7503 171.74 21.2603 172.04 21.7103C172.34 22.1603 172.71 22.5303 173.16 22.8103C173.61 23.0903 174.16 23.2303 174.79 23.2303C175.46 23.2303 176.02 23.0903 176.48 22.8303C176.93 22.5603 177.29 22.2003 177.56 21.7503C177.83 21.3003 178.02 20.7803 178.14 20.2103C178.26 19.6303 178.32 19.0403 178.32 18.4203C178.32 17.8003 178.26 17.2103 178.14 16.6503" fill="#FFB71B"/>
<path d="M184.74 13.1896C185.16 12.5496 185.7 12.0396 186.36 11.6596C187.02 11.2796 187.75 10.9996 188.57 10.8396C189.38 10.6796 190.2 10.5996 191.03 10.5996C191.78 10.5996 192.54 10.6596 193.31 10.7596C194.08 10.8596 194.78 11.0696 195.41 11.3796C196.04 11.6896 196.57 12.1196 196.97 12.6596C197.37 13.2096 197.58 13.9296 197.58 14.8396V22.5896C197.58 23.2596 197.62 23.9096 197.69 24.5196C197.77 25.1396 197.9 25.5996 198.09 25.8996H193.94C193.87 25.6696 193.8 25.4296 193.75 25.1996C193.71 24.9596 193.67 24.7096 193.65 24.4596C193 25.1396 192.23 25.6096 191.34 25.8796C190.46 26.1496 189.55 26.2896 188.63 26.2896C187.92 26.2896 187.26 26.1996 186.64 26.0296C186.02 25.8596 185.49 25.5896 185.02 25.2196C184.56 24.8596 184.2 24.3896 183.94 23.8396C183.68 23.2796 183.55 22.6196 183.55 21.8496C183.55 20.9996 183.7 20.3096 184 19.7596C184.3 19.2096 184.68 18.7796 185.15 18.4496C185.61 18.1196 186.16 17.8796 186.76 17.7196C187.37 17.5496 187.98 17.4296 188.59 17.3296C189.2 17.2396 189.81 17.1596 190.41 17.0996C191 17.0396 191.53 16.9596 191.99 16.8396C192.45 16.7196 192.82 16.5596 193.09 16.3396C193.36 16.1196 193.48 15.7996 193.47 15.3696C193.47 14.9296 193.4 14.5796 193.25 14.3196C193.11 14.0596 192.91 13.8596 192.67 13.7096C192.43 13.5696 192.15 13.4696 191.84 13.4196C191.52 13.3696 191.18 13.3496 190.82 13.3496C190.01 13.3496 189.37 13.5196 188.92 13.8696C188.46 14.2196 188.19 14.7896 188.11 15.5996H184.02C184.08 14.6396 184.32 13.8396 184.74 13.2096M192.83 18.9696C192.57 19.0596 192.29 19.1296 191.99 19.1896C191.69 19.2496 191.38 19.2996 191.05 19.3296C190.72 19.3696 190.39 19.4196 190.07 19.4696C189.77 19.5296 189.46 19.6096 189.16 19.6996C188.86 19.7896 188.6 19.9296 188.38 20.0896C188.16 20.2496 187.98 20.4596 187.85 20.7096C187.72 20.9596 187.65 21.2796 187.65 21.6596C187.65 22.0196 187.72 22.3296 187.85 22.5796C187.98 22.8296 188.17 23.0296 188.4 23.1696C188.63 23.3096 188.9 23.4096 189.21 23.4696C189.52 23.5296 189.83 23.5596 190.16 23.5596C190.97 23.5596 191.59 23.4296 192.03 23.1596C192.47 22.8896 192.8 22.5696 193.01 22.1896C193.22 21.8196 193.35 21.4396 193.4 21.0596C193.45 20.6796 193.47 20.3696 193.47 20.1396V18.6096C193.3 18.7596 193.08 18.8796 192.82 18.9696" fill="#FFB71B"/>
<path d="M205.1 30.34C204.31 30.86 203.21 31.12 201.81 31.12C201.38 31.12 200.97 31.11 200.56 31.08C200.14 31.05 199.73 31.02 199.31 30.98V27.61C199.69 27.65 200.09 27.69 200.49 27.73C200.9 27.77 201.3 27.78 201.7 27.76C202.24 27.7 202.64 27.49 202.9 27.12C203.16 26.76 203.29 26.35 203.29 25.91C203.29 25.58 203.23 25.28 203.11 24.99L197.89 11H202.24L205.62 21.21H205.68L208.94 11H213.18L206.95 27.76C206.51 28.97 205.9 29.84 205.11 30.36" fill="#FFB71B"/>
<path d="M187.29 3.70996C185.27 3.70996 183.93 5.06996 183.93 7.37996V9.80996C183.93 9.80996 186.68 9.00996 187.82 8.65996C188.78 8.36996 190.5 7.75996 190.5 6.23996C190.5 4.91996 189.43 3.70996 187.29 3.70996Z" fill="#B8BE14"/>
</g>
<defs>
<clipPath id="clip0_1625_9141">
<rect width="213.18" height="31.12" fill="white"/>
</clipPath>
</defs>
</svg>
