<svg width="50" height="23" viewBox="0 0 50 23" fill="none" xmlns="http://www.w3.org/2000/svg">
<g clip-path="url(#clip0_1160_13023)">
<path d="M10.0144 19.3812L9.33663 22.7568H0L2.84644 8.10017H6.3108L4.12614 19.3812H10.0183H10.0144ZM14.5671 22.7608L17.4095 8.10017H13.8455L11.003 22.7608H14.5671ZM49.7887 8.10017H46.2247L44.4786 17.1083L40.5398 8.10017H36.9758L34.1333 22.7608H37.6934L39.3677 14.302L43.0035 22.7608H46.9463L49.7847 8.10017H49.7887ZM25.6658 7.86133C21.4758 7.86133 18.0832 11.2528 18.0832 15.4325C18.0832 19.6121 21.4798 22.9996 25.6658 22.9996C29.8517 22.9996 33.2483 19.6121 33.2483 15.4325C33.2483 11.2528 29.8517 7.86133 25.6658 7.86133ZM29.9115 15.4325C29.9115 17.7731 28.0099 19.6718 25.6658 19.6718C23.3216 19.6718 21.416 17.7731 21.416 15.4325C21.416 13.0919 23.3177 11.1891 25.6658 11.1891C28.0139 11.1891 29.9115 13.0879 29.9115 15.4325Z" fill="#00AC5B"/>
<path d="M8.15292 5.01465H2.79492V4.36979H5.09121V3.25124C3.95901 3.14774 3.38095 2.52278 3.38095 1.76647C3.38095 0.89073 4.17827 0.257812 5.47392 0.257812C6.76957 0.257812 7.56689 0.89073 7.56689 1.76647C7.56689 2.49492 6.98883 3.1557 5.84467 3.25522V4.36979H8.15292V5.01465ZM6.81342 1.77045C6.81342 1.23306 6.19151 0.898692 5.47392 0.898692C4.75633 0.898692 4.13442 1.23306 4.13442 1.77045C4.13442 2.24414 4.68856 2.62628 5.47392 2.62628C6.25928 2.62628 6.81342 2.22822 6.81342 1.77045Z" fill="#231F20"/>
<path d="M13.8131 2.74618H8.45508V2.11724H13.8131V2.74618ZM13.1433 3.11638V4.64493H9.94208V5.02309H13.2709V5.60426H9.11686V4.0757H12.3261V3.69755H9.11686V3.11638H13.1393H13.1433ZM13.2031 1.73908H9.12483V0.0234375H9.83046V1.11015H13.2031V1.73908Z" fill="#231F20"/>
<path d="M19.4752 2.90983H14.1172V2.3008H19.4752V2.90983ZM18.8892 0.991173C18.8892 1.62409 18.0719 1.97837 16.7962 1.97837C15.5205 1.97837 14.7032 1.62011 14.7032 0.991173C14.7032 0.402042 15.5125 0 16.7962 0C18.0799 0 18.8892 0.421945 18.8892 0.991173ZM18.8054 3.26809V4.69315H15.5603V5.0116H18.933V5.60073H14.7869V4.17567H18.0241V3.85722H14.7869V3.26809H18.8054ZM18.1038 1.00312C18.1038 0.740395 17.5138 0.529422 16.7962 0.529422C16.0786 0.529422 15.4886 0.728453 15.4886 0.991173C15.4886 1.21409 15.9749 1.45292 16.7962 1.45292C17.6174 1.45292 18.1038 1.23399 18.1038 1.00312Z" fill="#231F20"/>
<path d="M25.5306 4.0555L25.0722 4.58493C24.821 4.42968 24.518 4.23463 24.215 3.88036C23.9758 3.60569 23.8243 3.36686 23.6968 3.10016C23.5612 3.41462 23.3818 3.66938 23.0948 4.00774C22.8556 4.29036 22.6124 4.47347 22.3174 4.68444L21.7832 4.20279C22.2656 3.88832 22.6523 3.52608 22.9234 3.05239C23.2343 2.50704 23.326 1.91393 23.326 1.27305V0.349551H24.0635V1.27703C24.0635 1.76267 24.1552 2.59462 24.526 3.12006C24.8529 3.58181 25.2037 3.85647 25.5346 4.0555H25.5306ZM27.4242 2.92501H26.6508V5.67163H25.9452V0.0390625H26.6508V2.24034H27.4242V2.92501Z" fill="#231F20"/>
<path d="M31.1908 3.14792C30.7842 3.20365 29.8991 3.28326 29.1696 3.28725L27.9258 3.29521V1.48403H29.9231V0.938682H27.9258V0.305764H30.6287V2.105H28.6314V2.67025L29.4606 2.66229C29.9789 2.65433 30.8001 2.58666 31.1908 2.53491V3.14792ZM32.4386 4.6526C32.4386 5.29746 31.721 5.74727 30.3696 5.74727C29.0181 5.74727 28.3005 5.30144 28.3005 4.6526C28.3005 4.00376 29.0261 3.55793 30.3696 3.55793C31.7131 3.55793 32.4386 4.01172 32.4386 4.6526ZM31.6692 4.65658C31.6692 4.33017 31.147 4.159 30.3736 4.159C29.6002 4.159 29.054 4.33017 29.054 4.65658C29.054 4.98299 29.5882 5.15017 30.3736 5.15017C31.1589 5.15017 31.6692 4.97901 31.6692 4.65658ZM33.0605 2.05325H32.311V3.46239H31.6054V0.0390625H32.311V1.39645H33.0605V2.05724V2.05325Z" fill="#231F20"/>
<path d="M36.8323 1.43303H33.4277V0.851856H36.8323V1.43303ZM36.6569 2.45206C36.6569 2.9377 36.0709 3.3079 35.13 3.3079C34.249 3.3079 33.6031 2.92974 33.6031 2.45206C33.6031 1.97439 34.237 1.62011 35.142 1.62011C36.0469 1.62011 36.6569 1.97041 36.6569 2.45206ZM36.023 0.577193H34.233V0.00796509H36.023V0.577193ZM38.0163 5.60471H34.241V3.52683H34.9466V3.98858H37.3107V3.52683H38.0163V5.60471ZM35.9154 2.4441C35.9154 2.26497 35.6283 2.13759 35.142 2.13759C34.6556 2.13759 34.3486 2.25303 34.3486 2.45206C34.3486 2.65109 34.6516 2.76653 35.142 2.76653C35.6323 2.76653 35.9154 2.65906 35.9154 2.44808V2.4441ZM37.3067 5.0116V4.56975H34.9426V5.0116H37.3067ZM38.7459 2.03012H38.0163V3.23226H37.3107V0.03981H38.0163V1.38526H38.7459V2.03012Z" fill="#231F20"/>
<path d="M42.6969 4.21473C42.3381 4.27046 41.7162 4.36201 41.1501 4.37395C40.5282 4.39784 39.4757 4.39386 39.4199 4.39386V0.528678H40.1256V3.72909L41.1661 3.72113C41.6484 3.70919 42.2983 3.63754 42.6929 3.56589V4.21075L42.6969 4.21473ZM43.7932 5.66765H43.0876V0.0390625H43.7932V5.67163V5.66765Z" fill="#231F20"/>
<path d="M48.0988 4.25453C48.0031 4.26648 47.0862 4.41376 46.1733 4.42172L44.9414 4.42968V0.644116H47.5885V1.285H45.647V3.76094H46.4882C47.0304 3.749 47.9991 3.63356 48.0948 3.61366V4.25453H48.0988ZM49.2031 2.25627H50.0004V2.92899H49.2031V5.66765H48.4975V0.0390625H49.2031V2.26025V2.25627Z" fill="#231F20"/>
</g>
<defs>
<clipPath id="clip0_1160_13023">
<rect width="50" height="23" fill="white"/>
</clipPath>
</defs>
</svg>
