<svg width="52" height="22" viewBox="0 0 52 22" fill="none" xmlns="http://www.w3.org/2000/svg">
<g clip-path="url(#clip0_1160_12701)">
<path d="M50.1491 1.78748C48.9533 0.6335 47.3665 0 45.6734 0C43.9803 0 42.3936 0.6335 41.1978 1.78748C40.0049 2.94146 39.3438 4.47911 39.3438 6.10896C39.3438 7.73881 40.002 9.27349 41.1978 10.4245C42.3936 11.5815 43.9832 12.2179 45.6734 12.2179C47.3637 12.2179 48.9561 11.5815 50.1491 10.4245C51.342 9.27349 52.0002 7.73881 52.0002 6.10896C52.0002 4.47911 51.342 2.94146 50.1491 1.78748ZM45.2796 11.5279C44.9433 11.5041 44.6127 11.4476 44.285 11.3584C43.8337 11.2067 43.4054 10.9836 43.0088 10.6951C43.7418 10.4334 44.5035 10.2847 45.2796 10.249V11.5279ZM45.2796 9.61552C44.308 9.65419 43.3566 9.8594 42.454 10.2223C42.3649 10.139 42.2815 10.0498 42.1981 9.95755C41.8877 9.61255 41.6261 9.22888 41.4105 8.81844C42.6782 8.55969 43.9775 8.41693 45.2796 8.39908V9.61552ZM45.2796 7.64959C43.8711 7.67041 42.4683 7.83101 41.1001 8.11951C40.9046 7.58416 40.7839 7.01609 40.7494 6.4272H45.2796V7.64661V7.64959ZM45.2796 5.74016H40.7523C40.7954 5.15425 40.919 4.58618 41.1202 4.05381C42.4827 4.3423 43.8769 4.49993 45.2796 4.52075V5.74314V5.74016ZM45.2796 3.76828C43.9861 3.74747 42.6954 3.60768 41.4364 3.3519C41.6462 2.96228 41.9021 2.59646 42.1981 2.26632C42.2959 2.15925 42.3965 2.05813 42.4971 1.95998C43.3882 2.31391 44.3195 2.51318 45.2796 2.55185V3.77126V3.76828ZM45.2796 1.92132C44.5236 1.8886 43.782 1.74287 43.0663 1.49601C43.7331 1.02609 44.4863 0.740571 45.2796 0.663242V1.92429V1.92132ZM46.0644 0.660268C46.8577 0.737596 47.6137 1.02609 48.2777 1.49304C47.5649 1.73989 46.8204 1.88563 46.0644 1.91835V0.660268ZM46.0644 2.55185C47.0216 2.51318 47.9558 2.31391 48.8469 1.95998C48.9504 2.05813 49.051 2.15925 49.1459 2.26632C49.4419 2.59646 49.6978 2.96228 49.9047 3.3519C48.6457 3.60768 47.355 3.74747 46.0615 3.76828V2.54887L46.0644 2.55185ZM46.0644 4.51778C47.4671 4.49696 48.8641 4.33933 50.2238 4.05083C50.425 4.58321 50.5486 5.15128 50.5917 5.73719H46.0644V4.5148V4.51778ZM47.059 11.3554C46.7341 11.4446 46.4036 11.5011 46.0672 11.5249V10.246C46.8434 10.2817 47.608 10.4304 48.3381 10.6922C47.9414 10.9807 47.5131 11.2037 47.059 11.3554ZM49.1487 9.96053C49.0654 10.0527 48.9791 10.1419 48.8929 10.2252C47.9903 9.86238 47.0388 9.65716 46.0672 9.61849V8.40205C47.3723 8.42287 48.6687 8.56563 49.9363 8.82141C49.7208 9.23185 49.4592 9.61552 49.1487 9.96053ZM50.2468 8.11951C48.8785 7.83101 47.4758 7.67041 46.0672 7.64959V6.43017H50.5975C50.5601 7.01609 50.4423 7.58713 50.2468 8.12248V8.11951Z" fill="white"/>
<path d="M9.90233 19.5076C8.1575 19.5076 7.15717 18.3418 7.1543 16.3044C7.1543 15.2694 7.44462 14.4188 7.9994 13.8478C8.48807 13.3422 9.17221 13.0626 9.92821 13.0626C11.604 13.0626 12.6446 14.2909 12.6446 16.2658C12.6446 17.3365 12.3687 18.1633 11.8225 18.7284C11.1441 19.4303 10.253 19.5047 9.89946 19.5047M9.91671 14.2374C9.72986 14.2374 9.56889 14.3088 9.43379 14.4456C9.0716 14.8233 8.99399 15.6442 8.99399 16.2658C8.99399 17.6458 9.30731 18.318 9.94545 18.318C10.1036 18.318 10.2415 18.2585 10.3565 18.1365C10.7158 17.7648 10.7906 16.9142 10.7906 16.2628C10.7906 15.6531 10.7043 14.2374 9.91383 14.2374H9.91671Z" fill="white"/>
<path d="M17.8015 19.464C17.2812 19.4283 16.7379 19.2201 16.7379 18.4795C16.7379 17.7389 16.7379 15.5113 16.7379 15.4875C16.7379 14.7648 16.4648 14.3811 15.9618 14.3811C15.6025 14.3811 15.0707 14.6666 15.0707 15.5886V19.4045H13.2166V15.0205C13.2166 14.5833 13.162 13.3728 13.1562 13.1676H14.7459L14.835 13.8933H14.8637L14.881 13.8695C15.2776 13.355 15.9819 13.0605 16.6919 13.0605C17.9481 13.0605 18.592 13.8428 18.592 15.3834V19.4015C18.592 19.4015 18.224 19.4907 17.7986 19.461" fill="white"/>
<path d="M44.4822 19.464C43.9619 19.4283 43.4186 19.2201 43.4186 18.4795C43.4186 17.7389 43.4186 15.5113 43.4186 15.4875C43.4186 14.7648 43.1455 14.3811 42.6425 14.3811C42.2832 14.3811 41.7543 14.6666 41.7543 15.5886V19.4045H39.9002V15.0205C39.9002 14.5833 39.8456 13.3728 39.8398 13.1676H41.4295L41.5186 13.8933H41.5473L41.5646 13.8695C41.9584 13.355 42.6655 13.0605 43.3755 13.0605C44.6317 13.0605 45.2756 13.8428 45.2756 15.3834V19.4015C45.2756 19.4015 44.9076 19.4907 44.4822 19.461" fill="white"/>
<path d="M21.4525 22C20.8115 22 19.6933 21.7234 19.6933 21.7234C19.6933 21.7234 19.7709 21.3249 19.8859 21.0185C19.9808 20.7657 20.2165 20.6349 20.6045 20.6914C20.9897 20.7449 21.1248 20.7746 21.3921 20.7746C21.8521 20.7746 22.2028 20.6527 22.4385 20.4058C22.6972 20.1382 22.8208 19.7337 22.8208 19.1745V18.7314H22.792L22.7748 18.7552C22.5362 19.1329 21.967 19.3649 21.4209 19.3649C19.7709 19.3649 19.1816 17.8034 19.1816 16.3431C19.1816 15.2427 19.4921 14.3117 20.0612 13.7258C20.478 13.2916 21.0098 13.0626 21.5962 13.0626C22.1826 13.0626 22.7029 13.3184 22.9789 13.7764L22.9932 13.8032H23.0191L23.1226 13.1667H24.7266C24.7266 13.1667 24.6605 14.2077 24.6605 15.1237V18.7462C24.6633 20.046 24.4018 20.8133 23.7952 21.313C23.229 21.7769 22.4643 22.003 21.4496 22.003M22.0619 14.3802C21.8319 14.3802 21.6336 14.4634 21.4726 14.63C21.0961 15.0196 21.0185 15.7542 21.0185 16.3074C21.0185 17.4525 21.3921 18.1395 22.0159 18.1395C22.2401 18.1395 22.5448 18.0533 22.723 17.6517C22.7834 17.512 22.8179 17.3127 22.8179 17.1223V15.4211C22.8179 15.2546 22.7892 15.0791 22.7403 14.9363C22.6253 14.5883 22.3724 14.3802 22.0619 14.3802Z" fill="white"/>
<path d="M27.8731 19.4783C27.396 19.4783 26.6716 19.4278 26.3554 18.4284C26.2289 18.0269 25.0446 13.7768 24.875 13.1671H26.7291L27.7208 17.1852H27.7639C27.7639 17.1852 28.3244 14.6304 28.5199 13.8363C28.7067 13.0809 29.1494 13.0957 29.5748 13.0957C29.8163 13.0957 30.1009 13.1552 30.1009 13.1552L31.0955 17.1703H31.1472L32.0527 13.1671H33.9096L32.1763 19.4099C32.1044 19.4248 32.0613 19.4605 31.8256 19.4605C31.334 19.4605 30.4573 19.52 30.1727 18.3452C29.8623 17.0722 29.4024 15.3591 29.4024 15.3591H29.3477L28.4078 19.4099C28.4078 19.4099 28.1232 19.4753 27.8702 19.4753" fill="white"/>
<path d="M36.5586 19.5076C34.8138 19.5076 33.8105 18.3418 33.8105 16.3044C33.8105 15.2694 34.1009 14.4188 34.6557 13.8478C35.1443 13.3422 35.8285 13.0626 36.5845 13.0626C38.2603 13.0626 39.3009 14.2909 39.3009 16.2658C39.3009 17.3365 39.0249 18.1633 38.4788 18.7284C37.8004 19.4303 36.9064 19.5047 36.5557 19.5047M36.5701 14.2374C36.3832 14.2374 36.2223 14.3088 36.09 14.4456C35.725 14.8233 35.6502 15.6442 35.6502 16.2658C35.6502 17.6458 35.9636 18.318 36.6017 18.318C36.7598 18.318 36.8978 18.2585 37.0128 18.1365C37.3893 17.7439 37.4468 16.7952 37.4468 16.2628C37.4468 15.6531 37.3606 14.2374 36.5701 14.2374Z" fill="white"/>
<path d="M0 18.2829V10.8831C0 10.8831 1.32803 10.6898 2.51233 10.7761C5.29773 10.9783 6.72349 12.9234 6.72349 15.3504C6.72349 16.9534 5.99049 19.5023 2.18176 19.5023C0.471421 19.5023 0.00287452 18.967 0.00287452 18.2859M1.85406 12.2364C1.85406 12.2364 1.85406 17.1646 1.85406 17.3817C1.85406 17.5988 1.82819 18.0777 2.5037 18.0777C3.43505 18.0777 4.67971 17.4174 4.67971 15.3474C4.67971 14.3124 4.15655 12.4 2.58419 12.2185C2.14439 12.168 1.85694 12.2364 1.85694 12.2364H1.85406Z" fill="white"/>
</g>
<defs>
<clipPath id="clip0_1160_12701">
<rect width="52" height="22" fill="white"/>
</clipPath>
</defs>
</svg>
