<svg width="52" height="13" viewBox="0 0 52 13" fill="none" xmlns="http://www.w3.org/2000/svg">
<g clip-path="url(#clip0_1160_13060)">
<path d="M38.0309 1.74414H37.0273V7.02539H38.0309V1.74414Z" fill="black"/>
<path d="M31.4112 3.77047H30.6002V1.74414H29.5918V8.71441H30.6002V4.61251H31.4112V3.77047Z" fill="black"/>
<path d="M38.032 7.75781H32.7422V11.1063H38.032V7.75781ZM37.0332 10.2667H33.7433V8.59986H37.0332V10.2667Z" fill="black"/>
<path d="M32.1425 1.7427V2.58228H34.963C34.9558 2.85311 34.9269 3.26429 34.8018 3.71486H32.1425V4.5569H34.448C34.0244 5.28076 33.2591 5.948 31.8633 6.16713L32.1425 6.97717C35.247 6.60292 36.0171 4.0891 36.0171 1.74023H32.1425V1.7427Z" fill="black"/>
<path d="M51.9992 1.74414H50.998V11.1101H51.9992V1.74414Z" fill="black"/>
<path d="M43.9924 1.7427V3.23228H42.7073V1.74023H41.7109V3.23228H40.0094V1.74023H39.0059V6.32224H42.7048V4.07186H43.99V6.3247H44.9935V1.7427H44.0862M41.7133 4.06694V5.47527H40.0118V4.06694H41.7133Z" fill="black"/>
<path d="M23.5543 7.37897H17.6172V8.22101H18.5943V11.1066H19.593V8.22101H21.5713V11.1066H22.5772V8.22101H23.5543V7.37897Z" fill="black"/>
<path d="M30.4819 10.267H26.1114V8.3515H25.1055V11.1066H25.1127H30.4819V10.267Z" fill="black"/>
<path d="M44.9968 7.00195H39.707V7.844H44.0005V8.62695H39.707V11.1063H44.9968V10.2667H40.7058V9.469H44.9968V7.00195Z" fill="black"/>
<path d="M49.8625 1.74414H45.9902V2.5788H48.8613V5.036H45.9902V9.48259H49.4871C49.4871 9.48259 50.0213 9.46289 50.1489 9.44319C50.8203 9.34471 51.2559 8.98278 51.2559 8.98278L51.2439 8.00285C51.2439 8.00285 50.7674 8.48297 50.0141 8.62577C49.9179 8.643 49.4678 8.64054 49.4678 8.64054H46.9914V5.87804H49.8625V1.74414Z" fill="black"/>
<path d="M28.7634 5.8738C28.7634 7.0113 27.7912 7.93706 26.5927 7.93706C25.3942 7.93706 24.4219 7.01377 24.4219 5.8738C24.4219 4.73384 25.3942 3.81055 26.5927 3.81055C27.7912 3.81055 28.7634 4.7363 28.7634 5.8738ZM26.5927 4.62551C25.8683 4.62551 25.2786 5.18687 25.2786 5.87627C25.2786 6.56566 25.8683 7.12456 26.5927 7.12456C27.317 7.12456 27.9091 6.56566 27.9091 5.87627C27.9091 5.18687 27.3195 4.62551 26.5927 4.62551Z" fill="black"/>
<path d="M23.2486 4.20616C23.2486 5.62434 22.0646 6.77169 20.5989 6.77169C19.1333 6.77169 17.9492 5.62434 17.9492 4.20616C17.9492 2.78797 19.1357 1.64062 20.5989 1.64062C22.0621 1.64062 23.2486 2.79044 23.2486 4.20616ZM20.5989 2.62055C19.694 2.62055 18.9624 3.3321 18.9624 4.20616C18.9624 5.08021 19.6964 5.79176 20.5989 5.79176C21.5014 5.79176 22.2354 5.08267 22.2354 4.20616C22.2354 3.32964 21.5038 2.62055 20.5989 2.62055Z" fill="black"/>
<path d="M8.19697 13C12.6565 13 16.2736 10.0898 16.2736 6.5C16.2736 2.91023 12.6565 0 8.19697 0C3.73749 0 0 2.91023 0 6.5C0 10.0898 3.73509 13 8.19697 13Z" fill="#009EE2"/>
<path d="M9.44583 4.34856C10.678 2.97469 12.5383 2.4995 13.5684 2.92299C14.3193 3.23075 14.7597 3.96693 14.8174 4.73511C14.9257 6.17299 14.0401 7.58132 12.7477 8.25102C12.1749 8.54647 11.3495 8.41106 10.7719 7.88662C10.5047 7.64534 10.1221 6.93871 10.2809 6.31825C9.35438 7.02488 9.49397 8.4406 10.1052 9.20878C10.9018 10.2158 12.4276 9.93511 13.4384 9.24818C13.4697 9.22602 13.294 9.52147 13.2194 9.6175C12.3434 10.7205 11.3013 11.3213 10.0571 11.0357C8.7455 10.7328 8.22808 8.93795 8.7094 7.74136C9.42658 5.46144 10.9211 5.07734 11.477 4.99609C11.6286 4.97394 12.0763 4.99856 12.0017 5.09212C11.6166 5.56731 11.8404 6.18284 12.2953 6.2764C13.5058 6.52507 14.2807 4.90746 13.7826 3.89306C13.3205 2.95253 11.8428 3.14458 11.0775 3.66409C10.317 4.18113 9.22442 5.13151 8.56501 6.42412C8.16791 7.07659 7.4363 8.7853 6.91887 11.0923H4.10793C4.72403 10.1936 5.42436 9.18416 5.95622 7.74382C7.33041 4.1245 5.06818 3.15689 4.07183 3.57791C3.14769 4.0334 3.0442 5.39496 3.79748 6.13113C4.09831 6.42659 4.64942 6.50537 4.99117 6.33549C5.22942 6.21731 5.43399 5.88984 5.38345 5.37034C5.94178 5.88984 5.74444 6.92147 5.06577 7.2834C3.65308 8.03928 2.15375 7.26863 1.66521 6.1459C1.35957 5.43928 1.3716 4.64647 1.76388 3.92507C2.25002 3.03132 3.22951 2.54628 4.17291 2.48473C5.43158 2.40102 7.07531 3.60992 7.00792 5.54761C7.8358 3.59515 8.16551 1.74609 8.16551 1.74609H11.0438C11.0438 1.74609 10.589 2.14988 9.44824 4.34609L9.44583 4.34856Z" fill="white"/>
<path d="M27.7429 1.74414H25.4277V2.45077H27.7429V1.74414Z" fill="black"/>
<path d="M28.7359 2.72852H24.416V3.57056H28.7359V2.72852Z" fill="black"/>
</g>
<defs>
<clipPath id="clip0_1160_13060">
<rect width="52" height="13" fill="white"/>
</clipPath>
</defs>
</svg>
