<svg width="42" height="17" viewBox="0 0 42 17" fill="none" xmlns="http://www.w3.org/2000/svg">
<g clip-path="url(#clip0_1160_12961)">
<path d="M18.5797 14.6738V11.2883C18.5797 9.19752 17.6895 8.07596 15.5144 8.07596C13.6994 8.07596 12.5322 9.09367 12.3521 10.596C12.3417 10.6687 12.3105 10.8972 12.3694 10.9214C12.4456 10.9387 12.553 10.7518 12.6396 10.6549C13.1383 10.101 13.7722 9.47791 14.9879 9.46407C15.601 9.45714 16.2106 9.67176 16.3803 10.1979C16.4946 10.5545 16.4703 10.6826 16.1621 10.8003C15.691 10.9803 15.2373 11.0322 14.8563 11.1568C13.1176 11.7072 12.127 12.853 12.127 14.3692C12.127 15.8854 13.1002 16.9965 14.316 16.9965C15.1022 16.9965 15.7083 16.7854 16.1136 16.3665C16.2348 16.235 16.3526 16.0965 16.453 15.9442C16.453 16.3388 16.5223 16.8373 17.0176 16.8408C17.3363 16.8477 18.9365 16.8408 18.9365 16.8408L18.8464 16.6642C18.5797 16.1519 18.5866 15.1342 18.5866 14.6669M15.9023 14.8226C15.6425 15.1446 15.2719 15.3419 14.9429 15.3211C14.503 15.2969 14.1601 14.8226 14.1601 14.1892C14.1601 13.2926 14.6658 12.6003 15.5802 12.2818C15.5802 12.2818 16.2764 12.0187 16.5431 11.9218C16.5535 12.0326 16.5569 12.1468 16.5569 12.2507C16.5569 13.6665 16.1725 14.5007 15.9058 14.8192" fill="#EC1C24"/>
<path d="M28.5082 8.67194C28.1826 8.80694 27.9609 9.0631 27.9609 9.46811V16.8448H29.9837V8.125C29.9837 8.125 28.9342 8.49539 28.5082 8.67194Z" fill="#EC1C24"/>
<path d="M39.6546 7.85352C38.6605 7.85698 38.0959 8.31737 37.5071 8.99239C37.1019 8.27237 36.4126 7.85352 35.5848 7.85352C34.8055 7.85352 34.1058 8.26199 33.5967 8.87123C33.6105 8.19622 33.2087 8.05429 32.6234 8.05429H31.709V16.8641H33.6071V11.5609C33.6071 10.2524 34.0435 9.53586 34.847 9.53586C35.5155 9.53586 35.9069 10.2316 35.9069 11.3982V16.8676H37.805V11.5159C37.805 10.204 38.2275 9.53932 39.0727 9.53932C40.0044 9.53932 40.1048 10.8444 40.1048 11.4017V16.8641H42.0029V11.0036C41.9787 8.99239 41.1231 7.85698 39.658 7.8639" fill="#EC1C24"/>
<path d="M8.61405 5.58789C8.61405 5.58789 6.36269 12.7984 6.27956 13.0719C6.23107 12.7881 5.3236 7.2287 5.3236 7.2287C5.11925 6.02405 4.12519 5.58789 3.50866 5.58789H2.73281L0 16.9766H0.81049C1.25037 16.9766 2.23751 16.5231 2.54231 15.4708C2.80208 14.5742 3.69916 10.3718 3.92429 9.30913C4.01089 9.77298 5.31667 16.9766 5.31667 16.9766H6.53241C6.53241 16.9766 8.80455 9.70029 8.93617 9.2849C8.93617 9.72452 8.92924 16.9766 8.92924 16.9766H11.1113V5.58789H8.61059H8.61405Z" fill="#EC1C24"/>
<path d="M24.5664 0.310599C23.7144 0.59099 21.5392 0.746762 21.5773 1.85448C21.6189 3.19066 24.9405 3.67529 27.1572 4.43338C28.9722 5.04955 29.9039 5.60341 29.7099 6.67651C29.5749 7.4173 28.47 7.86731 27.7426 8.08539C27.4967 8.15808 27.0256 8.30001 26.6515 8.8331C26.2186 9.45965 25.2973 10.9412 24.3448 12.492L27.0603 16.8502H24.7604L23.2018 14.3578C22.8069 14.9982 22.4467 15.5175 22.1627 15.9744C21.6951 16.7221 21.4838 16.8571 20.6075 16.8571L19.319 16.8467L22.038 12.4851L19.2913 8.06116L21.5981 8.05424L23.1948 10.6366L24.1681 9.07195C24.5664 8.42463 25.086 8.09577 25.7545 8.1027C26.2359 8.10962 26.8524 8.1927 27.2958 7.96077C28.1201 7.52115 28.5704 7.22345 28.6224 6.51728C28.7159 5.20186 26.7208 5.23994 24.1404 4.80378C21.4249 4.35031 19.1562 3.59567 19.1562 2.18679C19.1562 0.556373 22.7203 -0.236337 24.5664 0.0648239C24.7569 0.0994401 24.75 0.258674 24.5699 0.31406" fill="#EC1C24"/>
</g>
<defs>
<clipPath id="clip0_1160_12961">
<rect width="42" height="17" fill="white"/>
</clipPath>
</defs>
</svg>
