<svg width="56" height="13" viewBox="0 0 56 13" fill="none" xmlns="http://www.w3.org/2000/svg">
<g clip-path="url(#clip0_1160_13176)">
<path d="M28.6959 10.1473C28.4275 11.4923 27.7603 12.3916 26.8516 12.4234C25.8738 12.4592 25.2105 11.6196 24.8309 10.2707C24.4321 8.85009 24.2136 6.69338 24.6047 4.73164C24.9498 2.99273 25.5709 2.28842 26.4643 2.23271C27.5111 2.16506 28.2396 3.12802 28.623 4.68389C29.0525 6.41881 29.018 8.53176 28.692 10.1513L28.6959 10.1473ZM25.8777 1.70348C23.5502 1.97406 21.4184 3.83234 21.5296 7.59267C21.5986 9.89264 22.3271 11.4127 23.8915 12.3518C25.5402 13.3346 29.2442 13.4978 30.9581 10.6925C31.886 9.16843 31.9589 7.14302 31.6483 5.48768C31.3914 4.1069 30.8009 3.02059 29.804 2.36402C28.9796 1.81887 27.5264 1.51247 25.8738 1.70348H25.8777Z" fill="white"/>
<path d="M11.6523 1.96528V1.94141H17.3731C18.811 1.94141 19.5548 2.47064 19.9306 3.15506C20.2067 3.65644 20.4099 4.81438 19.7005 5.82509C19.1676 6.58512 18.2013 6.86366 17.8217 6.97508C18.4966 8.16485 20.709 11.6307 21.587 12.7011C21.587 12.7011 20.8317 12.7847 19.459 12.7489C18.7305 12.729 18.2013 12.53 17.6569 11.6785C17.0472 10.7274 15.8049 8.18077 15.2489 6.94324C15.502 6.90345 15.8471 6.82785 16.1538 6.70847C16.6599 6.50951 17.3425 6.05986 17.3731 4.83825C17.4 3.8355 16.9859 3.18689 16.4797 2.91233C15.9353 2.62185 15.0035 2.62981 14.6891 2.80091C14.6508 3.70419 14.6738 10.0987 14.6738 10.0987C14.6738 10.7911 14.7121 12.0525 14.9729 12.6852V12.7051H11.7597V12.6852C12.0511 12.0446 12.0396 11.1413 12.0818 10.3176C12.1393 9.17159 12.1278 5.52267 12.0741 4.01854C12.0473 3.27841 11.9284 2.29555 11.66 1.97324L11.6523 1.96528Z" fill="white"/>
<path d="M6.57227 0V0.135292C7.97945 0.947046 9.36747 3.4221 9.94645 4.77104H10.165V0H6.57227Z" fill="#FF7F00"/>
<path d="M5.55161 0.167126V0C4.56619 0 3.73798 0.187022 2.88293 0.600857C-0.962874 2.45516 -1.13158 9.85246 3.41207 12.1843C6.16893 13.6009 9.26705 12.8727 10.2256 12.2519L10.54 11.4839C10.54 11.4839 9.46643 11.9216 7.58379 11.2611C5.22186 10.4294 3.72264 7.67983 3.72264 4.51638C3.72264 2.18457 4.47033 0.557086 5.55544 0.167126H5.55161Z" fill="white"/>
<path d="M43.1313 12.6971H40.4397C40.4397 12.6971 39.4619 8.82142 39.2012 7.85448C38.7717 9.25913 37.7748 12.6971 37.7748 12.6971H35.3975C34.6805 9.15965 34.0939 7.07854 33.4382 4.80244C33.0164 3.34208 32.5678 2.43483 32.123 1.96926V1.94141C32.123 1.94141 34.8339 1.94141 35.0256 1.94141C35.2173 1.94141 35.3247 2.06476 35.3707 2.20005C35.7848 3.52114 36.8507 7.74704 37.4757 10.5802C37.6329 10.0908 38.8292 6.53737 38.5992 5.55849C38.2081 3.89121 37.725 2.42687 37.3109 1.96528V1.94141H40.4665C40.5125 2.34728 40.6199 2.83274 40.7579 3.549C41.2027 5.89672 42.1459 9.62123 43.1313 12.6971Z" fill="white"/>
<path d="M42.4688 1.96528V1.94141H45.7969C45.1949 3.37391 44.2019 5.92457 43.8069 7.24168L43.6804 7.21781C43.5884 5.03323 42.9595 2.50645 42.4688 1.9613V1.96528Z" fill="white"/>
<path d="M55.6354 12.7011C55.5703 11.0498 55.5664 5.62215 55.6661 4.03048C55.7083 3.358 55.8272 2.60195 55.9997 1.9613V1.94141H53.9637V1.96528C54.1592 2.48258 54.3126 3.28637 54.3586 4.03446C54.4008 4.77061 54.4085 7.70725 54.4085 9.29494C52.6447 6.41401 50.1332 1.94141 50.1332 1.94141H46.8242V1.96926C47.2345 2.55022 47.3879 3.55696 47.4147 4.54777C47.4377 5.45901 47.4799 8.60256 47.3303 10.4807C47.2767 11.1492 47.131 12.0485 46.9392 12.6772V12.7011H49.0673V12.6812C48.8832 12.0804 48.7299 11.2368 48.6877 10.5245C48.6378 9.64909 48.634 4.54777 48.634 4.54777C49.5887 6.1872 53.2773 12.7011 53.2773 12.7011H55.6239H55.6354Z" fill="white"/>
</g>
<defs>
<clipPath id="clip0_1160_13176">
<rect width="56" height="13" fill="white"/>
</clipPath>
</defs>
</svg>
