<svg width="53" height="10" viewBox="0 0 53 10" fill="none" xmlns="http://www.w3.org/2000/svg">
<g clip-path="url(#clip0_1160_12906)">
<path d="M22.4675 6.98202V6.07025C24.9077 5.80262 26.7298 4.82507 26.7298 3.6502C26.7298 2.26667 24.2347 1.16211 21.1664 1.16211C18.098 1.16211 15.6154 2.26667 15.6154 3.6502C15.6154 4.80012 17.3652 5.76406 19.7331 6.04984V6.98202L15.568 6.96841C15.568 6.96841 14.9424 6.96842 14.9249 7.49461C14.9249 7.49461 14.8701 8.07524 15.5406 8.07524H27.1137V6.98429H22.4725L22.4675 6.98202ZM18.2874 3.65474C18.2874 2.87452 19.5312 2.25533 21.0642 2.25533C22.5971 2.25533 23.8434 2.87452 23.8434 3.65474C23.8434 4.43496 22.5946 5.06095 21.0642 5.06095C19.5337 5.06095 18.2874 4.43496 18.2874 3.65474Z" fill="#EE1A2F"/>
<path d="M35.641 5.13242H31.2864V6.9673H36.476L36.471 8.0764H30.1971C28.6966 8.0333 28.8088 6.6974 28.8088 6.6974V4.00971H33.1035V2.65566H29.2499H29.3073C28.6318 2.65566 28.6866 2.0773 28.6866 2.0773C28.7066 1.53977 29.3322 1.54884 29.3322 1.54884H34.7436C34.7436 1.54884 35.6559 1.57379 35.6235 2.24514L35.6434 5.13242H35.641Z" fill="#EE1A2F"/>
<path d="M53.0001 5.98816V4.94711H48.4486V4.66133C50.7767 4.47308 52.509 3.80173 52.509 2.99655C52.509 2.04849 50.0912 1.27734 47.115 1.27734C44.1389 1.27734 41.7261 2.04849 41.7261 2.99655C41.7261 3.78131 43.3762 4.44586 45.632 4.64319V4.95391L41.5416 4.94711C41.5416 4.94711 40.9633 4.92216 40.8935 5.41434C40.8935 5.41434 40.8412 5.98816 41.5117 5.98816H42.2595V7.12221C42.2595 7.12221 42.1274 8.0748 43.8024 8.0748H52.1526V7.02014H44.7895V5.98816H53.005H53.0001ZM44.5103 2.99655C44.5103 2.62459 45.6768 2.31613 47.115 2.31613C48.5533 2.31613 49.7173 2.62686 49.7173 2.99655C49.7173 3.36625 48.5508 3.67471 47.115 3.67471C45.6793 3.67471 44.5103 3.37759 44.5103 2.99655Z" fill="#EE1A2F"/>
<path d="M38.2294 1.45611C38.2294 1.45611 39.6228 1.27693 39.6228 2.51758V8.07439H36.9931V2.44273C36.9931 2.44273 36.9134 1.52416 38.2294 1.45611Z" fill="#EE1A2F"/>
<path d="M5.7205 10C8.89108 10 11.4485 7.75913 11.4485 5.00567C11.4485 2.25221 8.89108 0 5.7205 0C2.54992 0 0 2.2386 0 5.00567C0 7.77274 2.56488 10 5.7205 10Z" fill="#EE1A2F"/>
<path d="M12.8437 0.208984L12.3103 1.54942H10.6602L11.9987 2.49068L11.5101 3.83566L12.9359 3.02595L14.3567 3.83566L13.8058 2.41357L15.1319 1.54942H13.5042L12.8437 0.208984Z" fill="#EE1A2F"/>
<path d="M7.86245 0.580616L7.58826 1.71693C7.58826 1.71693 6.65354 1.81219 6.21484 1.96415L7.41627 2.64004L7.20939 3.63573L8.38839 2.87365L9.71943 3.43387L9.13616 2.33158L9.69949 1.54455C9.69949 1.54455 8.8545 1.5627 8.52049 1.61033L7.85996 0.57608L7.86245 0.580616Z" fill="#FDFDFD"/>
<path d="M4.58933 7.375L4.32512 7.92388C4.32512 7.92388 3.96868 7.93068 3.73438 7.91707L4.16559 8.30265L3.93877 8.83792L4.60928 8.50904L5.27729 8.82204L5.03551 8.30265L5.43432 7.85583C5.43432 7.85583 5.03551 7.9012 4.87598 7.9012L4.58684 7.375H4.58933Z" fill="#FDFDFD"/>
<path d="M4.18517 1.60156L4.06054 2.63581C4.06054 2.63581 3.4025 2.89664 3.08594 3.13252L4.06054 3.4115L3.95585 4.30966L4.90054 3.52037L6.0247 3.84924L5.43645 2.93066L5.87016 2.04838C5.87016 2.04838 5.36417 2.15044 4.85568 2.33642L4.18766 1.60156H4.18517Z" fill="#FDFDFD"/>
<path d="M1.33313 3.24789L1.56494 4.12564C1.56494 4.12564 1.19355 4.43184 0.994141 4.69267L1.78429 4.70627L1.9488 5.4298L2.47474 4.6337L3.47676 4.58607L2.724 4.05533L2.78631 3.27284C2.78631 3.27284 2.4548 3.44522 2.1183 3.69471L1.33563 3.25016L1.33313 3.24789Z" fill="#FDFDFD"/>
<path d="M1.60987 6.18823L0.807256 6.61689C0.617819 7.32907 1.01165 7.86207 1.01165 7.86207C1.01165 7.86207 0.500667 7.18392 0.37853 6.87999C0.263871 6.57607 0.0420298 5.99997 0.101852 5.87069C0.37853 5.32408 0.767374 4.94531 0.767374 4.94531C0.767374 4.94531 0.585415 5.6212 0.607848 6.01585L1.60987 6.18823Z" fill="#FDFDFD"/>
<path d="M3.41201 7.91719C3.41201 7.91719 3.08548 8.09864 2.72156 8.14173L2.75895 8.9333L2.14079 8.18936C2.14079 8.18936 1.565 8.2438 1.4279 8.18709L1.72951 7.86956C1.72951 7.86956 1.45283 7.57244 1.30078 7.2413C1.30078 7.2413 1.77188 7.54523 2.07847 7.60873L2.55705 7.12109L2.7066 7.80832C2.7066 7.80832 3.08548 7.89905 3.38708 7.89905" fill="#FDFDFD"/>
</g>
<defs>
<clipPath id="clip0_1160_12906">
<rect width="53" height="10" fill="white"/>
</clipPath>
</defs>
</svg>
