<svg width="44" height="20" viewBox="0 0 44 20" fill="none" xmlns="http://www.w3.org/2000/svg">
<g clip-path="url(#clip0_1160_12843)">
<path d="M38.637 5.08137C36.481 5.08137 34.9633 5.68113 34.0991 6.87161C34.069 6.13623 33.9997 5.40386 33.9305 4.67149C33.8913 4.27667 33.6564 3.13743 33.2349 2.42616C32.8344 1.75106 32.3586 1.12116 31.7473 0.614828C31.4793 0.394816 31.1571 0.18686 30.8199 0.0874021C30.6151 0.0271248 30.4073 0 30.2056 0C29.5702 0 29.0101 0.289331 28.6668 0.79566C28.2483 1.4135 28.2603 2.29656 28.697 2.89934C28.7843 3.02291 28.8897 3.12538 28.9951 3.20976V3.74322C28.9951 3.74322 28.9951 3.74322 28.9951 3.74623V5.23207C28.6819 5.16878 28.3748 5.14165 28.0375 5.14165C26.4084 5.14165 25.1678 5.76251 24.4301 6.88367C24.4301 6.15431 24.4301 5.33755 24.4301 4.42435C24.4301 4.39421 24.4301 4.36709 24.4301 4.33996C24.409 4.09885 24.3457 3.87281 24.2434 3.6739C23.7405 2.70946 22.6414 2.3689 21.8555 2.3689C21.0695 2.3689 19.9644 2.71248 19.4676 3.67089C19.314 3.96022 19.2929 4.24051 19.2809 4.40928V4.44244C19.2809 4.44244 19.2748 4.46353 19.2748 4.47559C19.2748 4.50271 19.2748 4.51778 19.2748 7.05847C18.4558 5.72936 16.911 5.07535 14.6135 5.07535C14.5834 5.07535 14.5532 5.07535 14.5231 5.07836H14.493C12.2527 5.07836 11.2891 5.77456 10.9699 6.00362L10.9458 6.0217C10.9458 6.0217 10.9307 6.03074 10.9217 6.03978C10.6055 6.27486 9.98522 6.81736 9.82261 7.5226C9.03969 6.14527 7.54914 5.13261 5.25459 5.13261H5.22447C1.71038 5.14165 0 6.64858 0 9.73177V11.5883C0 11.7631 0.0150561 12.3116 0.0391459 12.7426C0.0602245 13.6046 0.141528 14.4665 0.222831 15.3255C0.261976 15.7233 0.496852 16.8596 0.918423 17.5678C1.31892 18.2459 1.7977 18.8758 2.40597 19.3791C2.67397 19.6022 2.99617 19.8101 3.33342 19.9096C3.53819 19.9668 3.74596 19.997 3.94771 19.997C4.58308 19.997 5.14317 19.7077 5.48645 19.2013C5.90501 18.5865 5.89296 17.7004 5.45634 17.0976C5.36901 16.9741 5.26362 16.8746 5.15522 16.7902V16.2568C5.15522 16.2568 5.15522 16.2568 5.15522 16.2538V14.7649C5.46838 14.8282 5.77553 14.8583 6.10977 14.8583C7.87435 14.8583 9.18122 14.129 9.88886 12.827C10.4249 13.8336 11.6745 14.8312 14.5412 14.8312C14.6496 14.8312 15.3783 14.8101 15.7005 14.777C17.4079 14.6082 18.5883 13.9813 19.2718 12.8903V13.1133C19.2718 13.1525 19.2718 13.1947 19.2779 13.2339C19.308 13.5051 19.4103 13.7462 19.576 13.9542C20.2294 14.774 21.4821 14.8373 21.8524 14.8373C22.2228 14.8373 23.4815 14.7709 24.1319 13.9451C24.3698 13.6438 24.406 13.3243 24.424 13.1736C24.427 13.1163 24.4301 12.9898 24.4331 12.6432C25.2401 13.9331 26.7005 14.8644 28.8987 14.8644H28.9288C31.4462 14.8553 33.0391 14.0808 33.7408 12.5075C34.4936 14.0597 36.1076 14.8222 38.6189 14.8222C42.2926 14.8222 44.003 13.2881 44.003 9.99096C44.003 6.69379 42.2505 5.07836 38.643 5.07836" fill="#171714"/>
<path d="M23.3518 4.42482C23.3458 4.33742 23.3247 4.25303 23.2856 4.17467C23.0236 3.67135 22.3852 3.44531 21.8522 3.44531C21.3192 3.44531 20.6778 3.67135 20.4189 4.17467C20.3647 4.28015 20.3586 4.41879 20.3496 4.53332C20.3496 4.55743 20.3526 13.1168 20.3526 13.1168C20.3586 13.1741 20.3767 13.2313 20.4189 13.2796C20.6778 13.6111 21.3222 13.7618 21.8522 13.7618C22.3822 13.7618 23.0236 13.6111 23.2856 13.2796C23.3398 13.2132 23.3428 13.1198 23.3548 13.0445C23.3548 13.0294 23.3548 4.42482 23.3548 4.42482" fill="#7AC143"/>
<path d="M34.3184 9.9977C34.3184 7.43893 35.4957 6.16406 38.6365 6.16406C41.7772 6.16406 42.9184 7.43893 42.9184 9.9977C42.9184 12.5565 41.7772 13.75 38.6154 13.75C35.4536 13.75 34.3184 12.5715 34.3184 9.9977ZM39.8259 9.43712C39.8259 9.22012 39.8169 8.99408 39.7566 8.79517C39.6482 8.3672 39.3652 7.94827 38.6365 7.94827C37.9077 7.94827 37.6036 8.3672 37.4952 8.79517C37.435 8.99709 37.4229 9.22313 37.4229 9.43712C37.4109 9.63905 37.4229 9.82892 37.4229 9.99468C37.4229 10.1604 37.4109 10.3503 37.4229 10.5522C37.4229 10.7662 37.435 10.9923 37.4952 11.1972C37.6036 11.6252 37.9017 12.0411 38.6365 12.0411C39.3712 12.0411 39.6482 11.6252 39.7566 11.1972C39.8169 10.9953 39.8259 10.7662 39.8259 10.5522C39.8379 10.3503 39.8259 10.1484 39.8259 9.99468C39.8259 9.84098 39.8379 9.63603 39.8259 9.43712Z" fill="#7AC143"/>
<path d="M14.6107 6.15286C12.53 6.13177 11.7741 6.75865 11.5664 6.90332C11.5664 6.90332 10.7744 7.49403 10.8738 7.93707C10.9792 8.39819 11.5483 8.20832 11.9488 8.12694C12.6866 7.97927 13.4966 7.88282 14.2253 7.88282C14.7613 7.88282 15.9688 8.05461 15.9688 8.85027V9.20892C13.4002 8.82917 10.5938 9.29934 10.5938 11.2493C10.5938 12.9763 12.0964 13.7568 14.5475 13.7568C14.6469 13.7568 15.3304 13.7357 15.5984 13.7086C17.9983 13.4705 18.8957 12.2921 18.8957 10.0046C18.8957 7.44581 17.7544 6.15588 14.6137 6.15588M15.4298 12.0299C15.2852 12.0721 15.1196 12.0811 14.96 12.0932H14.5957C14.4481 12.0811 14.2855 12.0721 14.141 12.0299C13.8338 11.9546 13.5327 11.7496 13.5327 11.2252C13.5327 10.7008 13.8338 10.4808 14.141 10.4024C14.2855 10.3602 14.4481 10.3512 14.5957 10.3391H14.96C15.1196 10.3512 15.2852 10.3602 15.4298 10.4024C15.7369 10.4808 16.038 10.6948 16.038 11.2252C16.038 11.7556 15.7369 11.9546 15.4298 12.0299Z" fill="#7AC143"/>
<path d="M23.3518 4.42482C23.3458 4.33742 23.3247 4.25303 23.2856 4.17467C23.0236 3.67135 22.3852 3.44531 21.8522 3.44531C21.3192 3.44531 20.6778 3.67135 20.4189 4.17467C20.3647 4.28015 20.3586 4.41879 20.3496 4.53332C20.3496 4.55743 20.3526 13.1168 20.3526 13.1168C20.3586 13.1741 20.3767 13.2313 20.4189 13.2796C20.6778 13.6111 21.3222 13.7618 21.8522 13.7618C22.3822 13.7618 23.0236 13.6111 23.2856 13.2796C23.3398 13.2132 23.3428 13.1198 23.3548 13.0445C23.3548 13.0294 23.3548 4.42482 23.3548 4.42482" fill="white"/>
<path d="M34.3184 9.9977C34.3184 7.43893 35.4957 6.16406 38.6365 6.16406C41.7772 6.16406 42.9184 7.43893 42.9184 9.9977C42.9184 12.5565 41.7772 13.75 38.6154 13.75C35.4536 13.75 34.3184 12.5715 34.3184 9.9977ZM39.8259 9.43712C39.8259 9.22012 39.8169 8.99408 39.7566 8.79517C39.6482 8.3672 39.3652 7.94827 38.6365 7.94827C37.9077 7.94827 37.6036 8.3672 37.4952 8.79517C37.435 8.99709 37.4229 9.22313 37.4229 9.43712C37.4109 9.63905 37.4229 9.82892 37.4229 9.99468C37.4229 10.1604 37.4109 10.3503 37.4229 10.5522C37.4229 10.7662 37.435 10.9923 37.4952 11.1972C37.6036 11.6252 37.9017 12.0411 38.6365 12.0411C39.3712 12.0411 39.6482 11.6252 39.7566 11.1972C39.8169 10.9953 39.8259 10.7662 39.8259 10.5522C39.8379 10.3503 39.8259 10.1484 39.8259 9.99468C39.8259 9.84098 39.8379 9.63603 39.8259 9.43712Z" fill="white"/>
<path d="M14.6107 6.15286C12.53 6.13177 11.7741 6.75865 11.5664 6.90332C11.5664 6.90332 10.7744 7.49403 10.8738 7.93707C10.9792 8.39819 11.5483 8.20832 11.9488 8.12694C12.6866 7.97927 13.4966 7.88282 14.2253 7.88282C14.7613 7.88282 15.9688 8.05461 15.9688 8.85027V9.20892C13.4002 8.82917 10.5938 9.29934 10.5938 11.2493C10.5938 12.9763 12.0964 13.7568 14.5475 13.7568C14.6469 13.7568 15.3304 13.7357 15.5984 13.7086C17.9983 13.4705 18.8957 12.2921 18.8957 10.0046C18.8957 7.44581 17.7544 6.15588 14.6137 6.15588M15.4298 12.0299C15.2852 12.0721 15.1196 12.0811 14.96 12.0932H14.5957C14.4481 12.0811 14.2855 12.0721 14.141 12.0299C13.8338 11.9546 13.5327 11.7496 13.5327 11.2252C13.5327 10.7008 13.8338 10.4808 14.141 10.4024C14.2855 10.3602 14.4481 10.3512 14.5957 10.3391H14.96C15.1196 10.3512 15.2852 10.3602 15.4298 10.4024C15.7369 10.4808 16.038 10.6948 16.038 11.2252C16.038 11.7556 15.7369 11.9546 15.4298 12.0299Z" fill="white"/>
<path d="M3.62789 18.872C3.98321 18.9714 4.37166 18.9232 4.59449 18.5977C4.75409 18.3657 4.7571 17.9769 4.58245 17.7328C4.51921 17.6453 4.38069 17.564 4.28433 17.5218C4.13678 17.4585 4.13076 17.4585 4.01935 17.4253C3.79351 17.356 3.57369 17.2777 3.35688 17.1782C2.81185 16.928 2.2909 16.6176 1.84524 16.2168C1.70974 16.0932 1.57724 15.9636 1.44776 15.834C1.41765 15.8069 1.29118 15.6622 1.28516 15.623C1.39356 16.6628 2.76969 18.6249 3.62789 18.872Z" fill="#F15D22"/>
<path d="M5.23112 6.20904C1.75617 6.2211 1.07864 7.71899 1.07864 9.73225V11.5978C1.07262 11.848 1.1208 12.9571 1.14489 13.1018C1.26534 13.8432 1.64776 14.5665 2.17473 15.118C2.79504 15.76 3.39427 16.0644 4.07782 16.2573V13.2374C4.99323 13.6774 5.50514 13.7799 6.11341 13.7799C8.62176 13.7799 9.41973 12.065 9.41973 10.1482C9.41973 8.01736 8.11286 6.19699 5.23413 6.20904M6.47777 10.5882C6.47777 10.8052 6.46572 11.0312 6.4055 11.2332C6.3001 11.6611 6.01404 12.077 5.28833 12.077C4.56263 12.077 4.25247 11.6611 4.14708 11.2332C4.08685 11.0312 4.07481 10.8052 4.07481 10.5882C4.06276 10.3863 4.07481 10.1964 4.07481 10.0306C4.07481 9.86486 4.06276 9.67197 4.07481 9.47004C4.07481 9.25606 4.08685 9.03002 4.14708 8.82508C4.25548 8.39711 4.55058 7.9812 5.28833 7.9812C6.02608 7.9812 6.3001 8.40012 6.4055 8.82508C6.46572 9.02701 6.47777 9.25305 6.47777 9.47004C6.48981 9.67197 6.47777 9.8739 6.47777 10.0306C6.47777 10.1873 6.48981 10.3863 6.47777 10.5882Z" fill="white"/>
<path d="M30.5282 1.12747C30.1728 1.025 29.7814 1.07623 29.5616 1.40474C29.405 1.63681 29.399 2.0256 29.5736 2.26972C29.6368 2.35712 29.7754 2.4385 29.8747 2.48371C30.0193 2.547 30.0283 2.54398 30.1397 2.58015C30.3686 2.64947 30.5854 2.72783 30.8022 2.82729C31.3472 3.07744 31.8682 3.38787 32.3168 3.78871C32.4523 3.91228 32.5848 4.03886 32.7143 4.16846C32.7444 4.19558 32.8739 4.34025 32.8769 4.37943C32.7685 3.33964 31.3924 1.37762 30.5312 1.13048" fill="#7AC143"/>
<path d="M28.923 13.7924C32.3979 13.7803 33.0755 12.2794 33.0755 10.2661V8.40357C33.0815 8.15041 33.0333 7.04432 33.0122 6.89664C32.8918 6.15523 32.5094 5.4319 31.9794 4.88338C31.3621 4.24143 30.7598 3.93703 30.0763 3.74414V6.76102C29.1609 6.32099 28.649 6.21551 28.0407 6.21551C25.5324 6.21551 24.7344 7.9304 24.7344 9.85023C24.7344 11.981 26.0443 13.8014 28.92 13.7893M27.6763 9.4102C27.6763 9.19321 27.6884 8.96717 27.7486 8.76825C27.854 8.34028 28.1401 7.92136 28.8658 7.92136C29.5915 7.92136 29.9016 8.34028 30.007 8.76825C30.0673 8.97018 30.0793 9.19622 30.0793 9.4102C30.0883 9.61213 30.0793 9.80201 30.0793 9.96777C30.0793 10.1335 30.0883 10.3264 30.0793 10.5283C30.0793 10.7423 30.0673 10.9684 30.007 11.1703C29.8986 11.5983 29.6035 12.0172 28.8658 12.0172C28.128 12.0172 27.854 11.5983 27.7486 11.1703C27.6884 10.9684 27.6763 10.7423 27.6763 10.5283C27.6673 10.3264 27.6763 10.1215 27.6763 9.96777C27.6763 9.81406 27.6673 9.61213 27.6763 9.4102Z" fill="white"/>
</g>
<defs>
<clipPath id="clip0_1160_12843">
<rect width="44" height="20" fill="white"/>
</clipPath>
</defs>
</svg>
