<svg width="50" height="20" viewBox="0 0 50 20" fill="none" xmlns="http://www.w3.org/2000/svg">
<g clip-path="url(#clip0_1160_13002)">
<path d="M9.60234 14.3926C4.64262 12.6458 2.59975 12.9559 1.96675 14.3748C1.46322 15.5014 2.44869 16.4711 3.04933 17.095C4.7757 18.8882 7.75368 20.0754 10.6921 19.9969C13.8535 19.9114 19.3491 17.5014 20.1044 11.1484C18.9859 15.7688 14.9001 16.2572 9.60594 14.3891L9.60234 14.3926Z" fill="url(#paint0_radial_1160_13002)"/>
<path d="M10.5885 12.3526C13.3831 13.2332 14.1995 13.4471 16.0446 13.3437C17.4329 13.2688 20.7633 11.8927 19.8713 7.50414C18.6953 2.96225 14.4009 -0.2677 9.50234 0.0175053C3.93479 0.345491 -0.312796 5.07989 0.0180918 10.5986C0.118797 12.317 0.489247 13.2974 1.0647 14.4917C1.32726 12.3384 3.21907 10.0318 10.5885 12.3526Z" fill="url(#paint1_radial_1160_13002)"/>
<path d="M9.61411 3.75781H7.87695V9.91468H9.61411V3.75781Z" fill="white"/>
<path d="M12.4989 3.75781H10.7617V9.91468H12.4989V3.75781Z" fill="white"/>
<path d="M5.61483 3.64453C3.83451 3.64453 2.38867 5.07412 2.38867 6.83883C2.38867 8.60353 3.83451 10.0331 5.61483 10.0331C7.39515 10.0331 8.83738 8.59997 8.83738 6.83883C8.83738 5.07769 7.39515 3.64453 5.61483 3.64453ZM5.61483 8.31833C4.7912 8.31833 4.12224 7.65523 4.12224 6.83883C4.12224 6.02243 4.7912 5.35933 5.61483 5.35933C6.43845 5.35933 7.10742 6.02243 7.10742 6.83883C7.10742 7.65523 6.43845 8.31833 5.61483 8.31833Z" fill="white"/>
<path d="M14.8222 8.31867C13.9949 8.31867 13.3296 7.65557 13.3296 6.83917C13.3296 6.02277 13.9985 5.35967 14.8222 5.35967C15.448 5.35967 15.9839 5.74469 16.2069 6.29015L17.8109 5.64844C17.3326 4.47553 16.1745 3.64844 14.8222 3.64844C13.0418 3.64844 11.5996 5.07803 11.5996 6.84273C11.5996 8.60744 13.0454 10.037 14.8222 10.037C16.1781 10.037 17.3398 9.20637 17.8145 8.0299L16.2105 7.38819C15.9947 7.93364 15.4516 8.32223 14.8222 8.32223V8.31867Z" fill="white"/>
<path d="M31.5812 8.52498C31.5812 10.8601 29.9087 12.7531 27.8443 12.7531C25.7798 12.7531 24.1074 10.8601 24.1074 8.52498C24.1074 6.18986 25.7798 4.29681 27.8443 4.29681C29.9087 4.29681 31.5812 6.18986 31.5812 8.52498ZM27.8443 6.00448C26.7365 6.00448 25.8374 7.1346 25.8374 8.52498C25.8374 9.91535 26.7365 11.0455 27.8443 11.0455C28.952 11.0455 29.8512 9.91535 29.8512 8.52498C29.8512 7.1346 28.952 6.00448 27.8443 6.00448Z" fill="#595857"/>
<path d="M33.9148 6.63905H35.0154V4.13281H36.659V16.8209H35.0154V8.16133H33.9148V16.8209H32.2676V4.13281H33.9148V6.63905Z" fill="#595857"/>
<path d="M46.2127 17.2484C44.1195 17.2484 42.4219 15.7404 42.4219 13.883C42.4219 12.0256 44.1195 10.5176 46.2127 10.5176C48.3059 10.5176 50.0035 12.0256 50.0035 13.883C50.0035 15.7404 48.3059 17.2484 46.2127 17.2484ZM48.2807 13.883C48.2807 12.9026 47.3528 12.1076 46.2127 12.1076C45.0726 12.1076 44.1446 12.9026 44.1446 13.883C44.1446 14.8634 45.069 15.6584 46.2127 15.6584C47.3564 15.6584 48.2807 14.8634 48.2807 13.883Z" fill="#595857"/>
<path d="M48.2776 9.23798H46.6016V7.70501H48.2776V6.81374H46.6016V5.28076H48.2776V4.13281H50.0004V11.0312H48.2776V9.23798Z" fill="#595857"/>
<path d="M39.4441 11.4939L38.5449 10.0822C43.1558 9.04117 43.7672 6.05365 43.7672 6.05365H39.1959V4.41016H45.7489V5.09821C45.7094 10.2212 39.4441 11.4975 39.4441 11.4975V11.4939Z" fill="#595857"/>
</g>
<defs>
<radialGradient id="paint0_radial_1160_13002" cx="0" cy="0" r="1" gradientUnits="userSpaceOnUse" gradientTransform="translate(18.7737 24.8098) scale(10.1928 10.1034)">
<stop stop-color="#009DE5"/>
<stop offset="1" stop-color="#003C81"/>
</radialGradient>
<radialGradient id="paint1_radial_1160_13002" cx="0" cy="0" r="1" gradientUnits="userSpaceOnUse" gradientTransform="translate(18.778 24.7983) scale(10.1964 10.107)">
<stop stop-color="#009DE5"/>
<stop offset="1" stop-color="#003C81"/>
</radialGradient>
<clipPath id="clip0_1160_13002">
<rect width="50" height="20" fill="white"/>
</clipPath>
</defs>
</svg>
