<svg width="51" height="16" viewBox="0 0 51 16" fill="none" xmlns="http://www.w3.org/2000/svg">
<g clip-path="url(#clip0_1160_13125)">
<path d="M6.11784 0C2.73668 0 0 2.7987 0 6.25325C0 9.70779 2.73668 12.5065 6.11784 12.5065C9.499 12.5065 12.2325 9.70779 12.2325 6.25325C12.2325 2.7987 9.49265 0 6.11784 0ZM7.43538 7.68831C7.43538 7.7987 7.41316 7.88312 7.37189 7.93831C7.32744 7.99026 7.26077 8.01623 7.17187 8.01623C7.10838 8.01623 7.05441 8 7.00996 7.96753C6.96551 7.93507 6.92107 7.87662 6.87344 7.78896C6.8036 7.66558 6.7147 7.57143 6.60041 7.50974C6.48612 7.4513 6.3496 7.41883 6.18769 7.41883C5.9845 7.41883 5.81941 7.49026 5.68924 7.62987C5.55908 7.76948 5.49558 7.9513 5.49558 8.16883C5.49558 8.39935 5.56225 8.58442 5.69559 8.72403C5.82893 8.86364 6.0099 8.93507 6.23213 8.93507C6.43532 8.93507 6.64486 8.87338 6.85122 8.76299C7.05123 8.65584 7.05123 8.63636 7.10838 8.61364C7.14965 8.5974 7.26712 8.60065 7.36871 8.77273C7.46396 8.92857 7.41951 9.03247 7.38776 9.07143C7.32744 9.1461 7.18457 9.24675 7.06393 9.31493C6.8163 9.4513 6.52422 9.51948 6.18451 9.51948C5.76544 9.51948 5.42573 9.39286 5.16223 9.14286C4.89872 8.89286 4.76855 8.57143 4.76855 8.17532C4.76855 7.77922 4.89872 7.47078 5.15905 7.21429C5.41938 6.95779 5.74639 6.83117 6.14006 6.83117C6.27341 6.83117 6.40357 6.8474 6.53056 6.88312C6.65756 6.91883 6.78137 6.97403 6.90837 7.0487C6.90837 7.04221 6.91154 6.99351 6.91154 6.99026C6.91154 6.91883 6.95599 6.87662 6.99726 6.85714C7.04171 6.83766 7.1052 6.83117 7.17505 6.83117C7.26712 6.83117 7.33379 6.8474 7.37506 6.87987C7.41316 6.91234 7.43538 6.96753 7.43538 7.0487V7.68506V7.68831ZM9.84823 9.30195C9.81331 9.36364 9.75299 9.39286 9.66727 9.39286H8.29893C8.21638 9.39286 8.15606 9.36364 8.11796 9.30195C8.08304 9.24026 8.06399 9.13961 8.06399 9C8.06399 8.87338 8.07987 8.77922 8.11796 8.71429C8.15289 8.64935 8.20368 8.61688 8.27036 8.61688H8.50847L7.74016 4.64286L7.25124 5.98377C7.18775 6.13961 7.03536 6.24675 6.87344 6.24675H5.37494C5.21302 6.24675 5.06063 6.14286 4.99714 5.98377L4.50822 4.64286L3.73991 8.61688H3.97485C4.04152 8.61688 4.09232 8.64935 4.12724 8.71429C4.16216 8.77922 4.17804 8.87338 4.17804 9C4.17804 9.13961 4.15899 9.24026 4.12407 9.30195C4.08914 9.36364 4.02882 9.39286 3.94628 9.39286H2.57794C2.49539 9.39286 2.43507 9.36364 2.39697 9.30195C2.36205 9.24026 2.343 9.13961 2.343 9C2.343 8.87338 2.35888 8.77922 2.3938 8.71429C2.42872 8.64935 2.47952 8.61688 2.54619 8.61688H2.97161L3.91135 3.74675H3.48593C3.41926 3.74675 3.36846 3.71429 3.33037 3.64935C3.29544 3.58442 3.27639 3.49026 3.27639 3.36364C3.27639 3.22727 3.29544 3.12987 3.33037 3.06818C3.36846 3.00974 3.42878 2.97727 3.5145 2.97727H4.34313C4.34313 2.97727 4.3463 2.97727 4.34948 2.97727H4.40027C4.54631 2.99026 4.67966 3.09091 4.73998 3.23701L5.58447 5.47403H6.64803L7.49253 3.23701C7.55285 3.09091 7.68619 2.99026 7.83223 2.97727H7.88303C7.88303 2.97727 7.8862 2.97727 7.88938 2.97727H8.718C8.80372 2.97727 8.86404 3.00649 8.89897 3.06818C8.93706 3.12662 8.95611 3.22727 8.95611 3.36364C8.95611 3.49026 8.93706 3.58442 8.90214 3.64935C8.86722 3.71429 8.81325 3.74675 8.74658 3.74675H8.32115L9.26089 8.61688H9.68632C9.75299 8.61688 9.80378 8.64935 9.83871 8.71429C9.87363 8.77922 9.8895 8.87338 9.8895 9C9.8895 9.13961 9.87045 9.24026 9.83553 9.30195H9.84823Z" fill="white"/>
<path d="M20.6653 8.82892C20.6653 8.65034 20.643 8.51723 20.5954 8.42307C20.5478 8.33216 20.4748 8.28346 20.3795 8.28346H20.2176L20.0747 4.53995H20.2398C20.3351 4.53995 20.4081 4.4945 20.4589 4.3971C20.5097 4.30619 20.5351 4.16658 20.5351 3.98476C20.5351 3.78671 20.5097 3.64385 20.4557 3.55944C20.4018 3.47177 20.316 3.42957 20.1986 3.42957H19.3128C19.1414 3.42957 19.0017 3.47177 18.8969 3.55944C18.7921 3.64385 18.7096 3.78021 18.6524 3.96853L17.5317 6.81593L16.3825 3.96853C16.3158 3.77697 16.2332 3.6406 16.1285 3.55619C16.0237 3.47177 15.8904 3.42957 15.7189 3.42957H14.8363C14.7157 3.42957 14.63 3.47177 14.5792 3.55944C14.5252 3.6471 14.4998 3.78996 14.4998 3.98476C14.4998 4.16658 14.5252 4.30294 14.576 4.3971C14.6268 4.49125 14.6998 4.53995 14.7951 4.53995H14.957L14.8808 6.57242L14.8141 8.28346H14.6522C14.5569 8.28346 14.4839 8.32892 14.4363 8.42307C14.3887 8.51723 14.3633 8.65034 14.3633 8.82892C14.3633 9.02697 14.3887 9.16982 14.4395 9.25424C14.4903 9.3419 14.576 9.38411 14.6935 9.38411H16.0364C16.1539 9.38411 16.2396 9.33866 16.2904 9.25424C16.3412 9.16658 16.3666 9.02372 16.3666 8.82892C16.3666 8.65034 16.3412 8.51723 16.2936 8.42307C16.2459 8.33216 16.1729 8.28346 16.0777 8.28346H15.9221L15.9888 5.22177L16.8841 7.55944C16.938 7.68931 17.0111 7.78346 17.1127 7.8419C17.2111 7.90034 17.3476 7.92957 17.5159 7.92957C17.6841 7.92957 17.8206 7.90034 17.9159 7.8419C18.0111 7.78671 18.0873 7.69255 18.1381 7.55944L19.0398 5.22177L19.1128 8.28346H18.9509C18.8524 8.28346 18.7794 8.32892 18.7318 8.42307C18.6842 8.51723 18.6588 8.65034 18.6588 8.82892C18.6588 9.03022 18.6842 9.17307 18.735 9.25749C18.7858 9.3419 18.8715 9.38411 18.9921 9.38411H20.3319C20.4525 9.38411 20.5383 9.33866 20.5859 9.25424C20.6367 9.16658 20.6621 9.02372 20.6621 8.82892H20.6653Z" fill="white"/>
<path d="M25.6182 8.15344C25.4881 7.90669 25.2214 7.84824 25.0404 7.97487C24.9896 8.01383 24.9134 8.06253 24.7928 8.13721C24.4626 8.3385 24.1324 8.44889 23.8086 8.44889C23.4498 8.44889 23.18 8.32227 22.9736 8.06578C22.7673 7.81253 22.6625 7.47487 22.6625 7.05604C22.6625 6.65993 22.7609 6.33201 22.9641 6.07552C23.1641 5.81902 23.4117 5.68915 23.7356 5.68915C23.9927 5.68915 24.215 5.74435 24.3928 5.85149C24.5705 5.96188 24.7166 6.13071 24.8277 6.35798C24.9039 6.51708 24.9769 6.62747 25.0468 6.68266C25.1166 6.7411 25.2214 6.77032 25.3293 6.77032C25.4817 6.77032 25.5928 6.72162 25.6659 6.62422C25.7389 6.52682 25.7738 6.37747 25.7738 6.17292V5.01383C25.7738 4.86772 25.7389 4.76708 25.6722 4.70863C25.6055 4.65019 25.4912 4.62097 25.3357 4.62097C25.2182 4.62097 25.1134 4.63396 25.0372 4.66967C24.9674 4.70214 24.8912 4.77682 24.8912 4.90993C24.8912 4.91643 24.8849 5.00409 24.8849 5.01383C24.6848 4.88071 24.488 4.78006 24.2848 4.71837C24.0816 4.65669 23.8753 4.62422 23.6626 4.62422C23.0339 4.62422 22.4815 4.85798 22.0561 5.32227C21.6307 5.78656 21.418 6.37097 21.418 7.06902C21.418 7.76708 21.6339 8.37097 22.0625 8.82552C22.4911 9.28006 23.0657 9.50734 23.7324 9.50734C24.2721 9.50734 24.7388 9.38396 25.1325 9.13396C25.3262 9.01383 25.5484 8.82876 25.6468 8.6924C25.6944 8.62422 25.7674 8.43591 25.6151 8.15019L25.6182 8.15344Z" fill="white"/>
<path d="M30.8506 9.45425H31.0951C31.0951 9.45425 31.111 9.45425 31.1205 9.45425H31.3078C31.403 9.45425 31.4792 9.43152 31.53 9.39256C31.584 9.35035 31.6094 9.29191 31.6094 9.22048V8.87308V4.54191H31.7681C31.8602 4.54191 31.9269 4.49321 31.9777 4.39905C32.0253 4.30165 32.0507 4.16853 32.0507 3.98996C32.0507 3.79516 32.0253 3.65554 31.9745 3.56788C31.9237 3.48022 31.838 3.43477 31.7237 3.43477H30.1712C30.0537 3.43477 29.9712 3.48022 29.9204 3.56788C29.8696 3.65554 29.8442 3.7984 29.8442 3.98996C29.8442 4.18152 29.8696 4.32438 29.9204 4.41204C29.9712 4.4997 30.0537 4.54191 30.1712 4.54191H30.4855V7.30814L28.6156 3.82438C28.4727 3.55814 28.3298 3.43152 27.9933 3.43152H27.0758C26.9615 3.43152 26.8789 3.47697 26.8281 3.56464C26.7774 3.6523 26.752 3.79515 26.752 3.98671C26.752 4.16528 26.7774 4.30165 26.825 4.3958C26.8758 4.48996 26.9456 4.53866 27.0345 4.53866H27.1869V8.28217H27.0377C26.9424 8.28217 26.8726 8.32762 26.825 8.42178C26.7774 8.51593 26.7551 8.64905 26.7551 8.82762C26.7551 9.02568 26.7805 9.16853 26.8313 9.25295C26.8821 9.34061 26.9647 9.38282 27.0821 9.38282H28.6473C28.7616 9.38282 28.8441 9.33736 28.8918 9.25295C28.9426 9.16529 28.968 9.02243 28.968 8.82762C28.968 8.63282 28.9426 8.49645 28.8949 8.40879C28.8473 8.32438 28.7616 8.28217 28.6473 8.28217H28.3171V5.55814L30.2919 9.10684C30.4157 9.33087 30.5236 9.45425 30.857 9.45425H30.8506Z" fill="white"/>
<path d="M36.2601 8.77922V9.1526C36.2601 9.22727 36.2886 9.28247 36.3394 9.32468C36.3934 9.36688 36.4664 9.38636 36.5649 9.38636H36.768C36.768 9.38636 36.7744 9.38636 36.7776 9.38636H37.5014C37.6252 9.38636 37.711 9.34416 37.7618 9.25974C37.8125 9.17532 37.8379 9.02922 37.8379 8.83117C37.8379 8.65584 37.8125 8.52273 37.7618 8.42857C37.711 8.33442 37.6379 8.28896 37.5427 8.28896H37.3776V7.36364V5.26948C37.3776 5.26948 37.3776 5.25325 37.3744 5.24351V4.98377C37.3744 4.90909 37.349 4.8539 37.2951 4.81169C37.2411 4.77273 37.1681 4.75 37.0728 4.75H36.8855C36.8855 4.75 36.8696 4.75 36.8633 4.75H36.3553H35.8442C35.7204 4.75 35.6378 4.79221 35.587 4.87662C35.5394 4.96104 35.514 5.10065 35.514 5.2987C35.514 5.47727 35.5394 5.61688 35.587 5.71104C35.6346 5.80519 35.7077 5.85065 35.8029 5.85065H36.1744V7.30195C36.1744 7.63636 36.0855 7.90584 35.9108 8.11364C35.7362 8.31818 35.5108 8.42208 35.241 8.42208C34.987 8.42208 34.8028 8.33766 34.6917 8.17208C34.5869 8.01299 34.533 7.74351 34.5235 7.36688V5.27273C34.5235 5.27273 34.5235 5.25 34.5235 5.23701V4.98701C34.5235 4.91234 34.4981 4.85714 34.4441 4.81493C34.3901 4.77597 34.3139 4.75325 34.2187 4.75325H34.0314C34.0314 4.75325 34.0155 4.75325 34.0091 4.75325H33.5012H33.2154C33.0916 4.75325 33.0059 4.79545 32.9519 4.87987C32.9011 4.96429 32.8789 5.1039 32.8789 5.30195C32.8789 5.48052 32.9043 5.62013 32.9519 5.71429C33.0027 5.80844 33.0726 5.8539 33.1678 5.8539H33.3266V7.53247C33.3266 8.2013 33.4535 8.69805 33.7107 9.02273C33.9647 9.3474 34.3552 9.50974 34.8822 9.50974C35.1902 9.50974 35.4568 9.44805 35.6854 9.32792C35.9108 9.20779 36.1045 9.02597 36.2601 8.78571V8.77922Z" fill="white"/>
<path d="M50.9247 4.8726C50.8739 4.78818 50.7882 4.74597 50.6643 4.74597H49.1849C49.0611 4.74597 48.9722 4.78818 48.9214 4.8726C48.8706 4.95701 48.8452 5.09662 48.8452 5.29467C48.8452 5.47324 48.8706 5.61285 48.9214 5.70701C48.9722 5.80117 49.0452 5.84662 49.1404 5.84662H49.3881L48.461 7.98623L47.5753 5.84662H47.7467C47.8419 5.84662 47.9118 5.79792 47.9626 5.70701C48.0134 5.61285 48.0388 5.47649 48.0388 5.29467C48.0388 5.09987 48.0134 4.96026 47.9626 4.87584C47.9118 4.79143 47.8261 4.74922 47.7022 4.74922H46.1275C46.0037 4.74922 45.918 4.79143 45.8672 4.87584C45.8164 4.96026 45.791 5.09987 45.791 5.29792C45.791 5.47649 45.8164 5.6161 45.8672 5.71026C45.918 5.80441 45.991 5.84987 46.0863 5.84987H46.3307L47.8165 9.27519C47.8165 9.27519 47.7975 9.34337 47.6324 9.68753C47.4546 10.0609 47.2355 10.1486 46.8863 10.1486H46.7752C46.6514 10.1486 46.5657 10.1908 46.5149 10.2784C46.4641 10.3661 46.4387 10.509 46.4387 10.7038C46.4387 10.8986 46.4641 11.0414 46.5149 11.1291C46.5657 11.2135 46.6514 11.259 46.7752 11.259H46.8895C47.4864 11.259 48.08 11.1096 48.5753 10.1843C48.7182 9.9148 50.5405 5.85311 50.5405 5.85311H50.7056C50.8009 5.85311 50.8739 5.80441 50.9247 5.7135C50.9723 5.61935 51.0009 5.48298 51.0009 5.30117C51.0009 5.10636 50.9755 4.96675 50.9247 4.88234V4.8726Z" fill="white"/>
<path d="M45.3938 8.02968C45.2763 8.0589 45.27 8.09462 44.8572 8.24072C44.7556 8.27643 44.6509 8.30566 44.5493 8.33163C44.4826 8.34786 44.4159 8.35436 44.3366 8.35436C44.0635 8.35436 43.8762 8.28942 43.7651 8.15306C43.6572 8.01994 43.6032 7.77319 43.6032 7.40955V5.87059H44.7779C44.8985 5.87059 44.9842 5.82838 45.035 5.74072C45.089 5.65306 45.1144 5.5102 45.1144 5.3154C45.1144 5.12059 45.089 4.98098 45.0382 4.89981C44.9874 4.8154 44.9017 4.77319 44.7779 4.77319H43.6032V3.56215C43.6032 3.43877 43.5556 3.35111 43.4635 3.29916C43.3683 3.24721 43.2159 3.22449 43 3.22449C42.7841 3.22449 42.6285 3.25046 42.5365 3.29916C42.4444 3.34786 42.3968 3.43553 42.3968 3.56215V4.77319H41.8158C41.6951 4.77319 41.6094 4.81215 41.5586 4.89657C41.5078 4.97773 41.4824 5.11734 41.4824 5.3154C41.4824 5.51345 41.5078 5.65306 41.5586 5.74072C41.6094 5.82838 41.6951 5.87059 41.8158 5.87059H42.3968V7.51994C42.3968 7.95825 42.419 8.26994 42.4634 8.45825C42.5111 8.64656 42.5873 8.80566 42.6952 8.94202C42.8412 9.11734 43.0412 9.25046 43.2984 9.34462C43.5556 9.43877 43.8508 9.48423 44.1873 9.48423C44.3588 9.48423 44.5048 9.47449 44.6413 9.45825C44.7144 9.44851 44.7937 9.43228 44.8636 9.41929H44.8699C44.962 9.39656 45.0541 9.37059 45.143 9.33812C45.3938 9.24397 45.6954 9.09137 45.8351 8.96475C45.9049 8.90306 45.9875 8.73423 45.8255 8.37708C45.6509 7.99072 45.4827 8.0102 45.397 8.03618L45.3938 8.02968Z" fill="white"/>
<path d="M40.7397 9.38639C40.8604 9.38639 40.9461 9.34094 40.9969 9.25652C41.0477 9.16886 41.0731 9.026 41.0731 8.8312C41.0731 8.63639 41.0477 8.50003 40.9969 8.41237C40.9461 8.32795 40.8636 8.28574 40.7397 8.28574H40.3143V6.01951V3.32795C40.3143 3.32795 40.3143 3.31821 40.3143 3.31497V3.04224C40.3143 2.97081 40.2889 2.91237 40.235 2.87016C40.181 2.82795 40.108 2.80847 40.0127 2.80847H39.8191C39.8191 2.80847 39.8064 2.80847 39.8032 2.80847H39.3682H38.692C38.5682 2.80847 38.4825 2.85393 38.4317 2.93834C38.3809 3.026 38.3555 3.16886 38.3555 3.36367C38.3555 3.55847 38.3809 3.69808 38.4348 3.78899C38.4856 3.87665 38.5714 3.92211 38.692 3.92211H39.0984V8.25652V9.15587C39.0984 9.23055 39.1238 9.28574 39.1777 9.32795C39.2317 9.37016 39.3047 9.38964 39.4 9.38964H39.6032C39.6032 9.38964 39.6095 9.38964 39.6127 9.38964H40.7429L40.7397 9.38639Z" fill="white"/>
<path d="M32.918 13.8317H33.2673C33.3625 13.8317 33.4387 13.7538 33.4387 13.6597V12.9778H33.8324V13.6856C33.8324 13.7798 33.9117 13.8577 34.007 13.8577H34.3626C34.407 13.8577 34.4515 13.8382 34.4832 13.8058C34.5149 13.7733 34.534 13.7278 34.534 13.6824V11.4356C34.5308 11.3415 34.4546 11.2635 34.3594 11.2635H34.0038C33.9594 11.2635 33.9149 11.2798 33.8832 11.3155C33.8514 11.348 33.8324 11.3902 33.8324 11.4389V12.3642H33.4355V11.4648C33.4355 11.3707 33.3561 11.2928 33.2609 11.2928H32.9117C32.8164 11.2928 32.7402 11.3707 32.7402 11.4648V13.6597C32.7434 13.7538 32.8196 13.8317 32.918 13.8317Z" fill="white"/>
<path d="M33.8484 14.132C33.5532 14.132 32.8515 14.132 32.2769 14.132H31.5594C31.4641 14.132 31.3848 14.21 31.3848 14.3074V14.5736C31.3848 14.671 31.4641 14.7457 31.5594 14.7457H33.8357V15.8236C33.8357 15.9177 33.9119 15.9957 34.0103 15.9957H34.3659C34.4611 15.9957 34.5373 15.9145 34.5373 15.8203V14.6905C34.5373 14.3431 34.2707 14.1288 33.8484 14.1288V14.132Z" fill="white"/>
<path d="M32.2897 13.7119C32.3849 13.7119 32.4643 13.634 32.4643 13.5366V11.543C32.4611 11.4489 32.3817 11.371 32.2897 11.371H30.5054C30.4102 11.371 30.334 11.4489 30.334 11.5463V11.8125C30.334 11.9067 30.4134 11.9846 30.5086 11.9846H30.6165V13.1112C30.6165 13.3353 30.7023 13.7086 31.2705 13.7086C31.4229 13.7086 31.5817 13.7086 31.7468 13.7086C32.1119 13.7086 32.296 13.7086 32.296 13.7086L32.2897 13.7119ZM31.2991 11.9846H31.7722V13.1112H31.2991V11.9846Z" fill="white"/>
<path d="M29.5962 13.0274H29.066C29.1009 12.8651 29.2375 12.2352 29.2375 11.9365C29.2375 11.5891 28.9739 11.3748 28.5485 11.3748C28.2533 11.3748 27.5516 11.3748 26.977 11.3748H26.2595C26.1642 11.3748 26.0849 11.4527 26.0849 11.5501V11.8164C26.0849 11.9138 26.1642 11.9885 26.2595 11.9885H28.5358C28.5358 12.3943 28.4057 12.8813 28.3676 13.0242H25.7293C25.6341 13.0242 25.5547 13.1021 25.5547 13.1995V13.4657C25.5547 13.5631 25.6341 13.6378 25.7293 13.6378H27.3104V14.2644C27.1961 14.2644 27.0849 14.2644 26.977 14.2644H26.2595C26.1642 14.2644 26.0849 14.3424 26.0849 14.4398V14.706C26.0849 14.8034 26.1642 14.8781 26.2595 14.8781H28.5358V15.8196C28.5358 15.9138 28.612 15.9917 28.7104 15.9917H29.066C29.1613 15.9917 29.2375 15.9105 29.2375 15.8164V14.8196C29.2375 14.4722 28.9708 14.2579 28.5485 14.2579C28.4279 14.2579 28.2342 14.2579 28.012 14.2579V13.6313H29.5962C29.6915 13.6313 29.7676 13.5534 29.7708 13.4592V13.193C29.7708 13.0956 29.6946 13.0177 29.5994 13.0177L29.5962 13.0274Z" fill="white"/>
<path d="M37.3848 11.9947V12.2642C37.3848 12.3583 37.4641 12.4363 37.5594 12.4363H38.6674V13.2512C38.6674 13.3486 38.7436 13.4265 38.8388 13.4265H39.2008C39.296 13.4265 39.3722 13.3486 39.3722 13.2512V11.5791L39.369 11.4298C39.369 11.3356 39.2928 11.2577 39.1976 11.2577H38.8388C38.7436 11.2577 38.6642 11.3356 38.6642 11.4298V11.8226H37.5562C37.461 11.8226 37.3848 11.9005 37.3848 11.9947Z" fill="white"/>
<path d="M36.6268 13.4163C37.0236 13.4163 37.2173 13.4065 37.8872 13.2864C38.0237 13.2604 38.1888 13.228 38.1888 13.228C38.2809 13.2085 38.3539 13.1208 38.3539 13.0267V12.7734C38.3539 12.689 38.2936 12.6273 38.211 12.6273C38.1983 12.6273 38.1888 12.6273 38.1793 12.6306C38.1793 12.6306 38.0174 12.663 37.8808 12.6858C37.2681 12.7897 36.9887 12.8124 36.722 12.8124C36.63 12.8124 36.5633 12.8124 36.5315 12.8091V11.4877C36.5315 11.3903 36.4522 11.3124 36.3569 11.3124H36.0014C36.0014 11.3124 35.9918 11.3156 35.9887 11.3156H35.7378C35.6426 11.3156 35.5664 11.3935 35.5664 11.4909V11.7572C35.5664 11.8546 35.6458 11.9293 35.741 11.9293H35.8331C35.8331 11.9617 35.8331 11.9974 35.8331 12.0364C35.8331 12.3546 35.8331 12.6273 35.8331 12.8708C35.8331 13.2247 36.0585 13.413 36.4903 13.413H36.63L36.6268 13.4163Z" fill="white"/>
<path d="M39.3076 15.3984H37.0376V15.1354H39.1996C39.2472 15.1354 39.2885 15.1159 39.3203 15.0802C39.352 15.0477 39.371 15.0055 39.371 14.9568V13.8497C39.371 13.7523 39.2917 13.6776 39.1964 13.6776H36.5074C36.4121 13.6809 36.3359 13.7588 36.3359 13.8562V14.1127C36.3359 14.2101 36.4153 14.2848 36.5106 14.2848H38.6726V14.5348H36.5106C36.4534 14.538 36.4026 14.5575 36.3709 14.59C36.3486 14.6094 36.3391 14.6354 36.3391 14.6646V15.4503C36.3391 15.7848 36.5931 15.9925 37.0026 15.9925C37.3677 15.9925 38.3583 15.9925 38.9647 15.9925C39.2568 15.9925 39.3012 15.9925 39.3583 15.9925C39.4282 15.9925 39.4853 15.9146 39.4853 15.8172V15.5705C39.4853 15.4731 39.406 15.3984 39.3107 15.3984H39.3076Z" fill="white"/>
<path d="M44.0485 11.2518H43.6929C43.5977 11.2518 43.5215 11.3298 43.5215 11.4239V12.0798V13.8395C42.7564 14.0895 41.9849 14.1285 41.5753 14.1285C41.442 14.1285 41.3499 14.1252 41.3055 14.122V13.333H42.5944C42.6897 13.333 42.7691 13.2551 42.7691 13.1609V12.8947C42.7691 12.7973 42.6897 12.7194 42.5944 12.7194H41.3055V12.057H42.7246C42.7691 12.057 42.8135 12.0375 42.8484 12.0051C42.8802 11.9726 42.8992 11.9272 42.8992 11.8817V11.6187C42.8992 11.5246 42.8199 11.4466 42.7246 11.4466H40.7785C40.7785 11.4466 40.7753 11.4499 40.7721 11.4499H40.5054C40.4102 11.4499 40.334 11.5278 40.334 11.6252V11.8914C40.334 11.9888 40.4134 12.0668 40.5054 12.0668H40.6038V12.3038C40.6038 12.9791 40.6038 13.8687 40.6038 14.1707C40.6038 14.5895 40.9562 14.7388 41.2864 14.7388C41.7118 14.7388 42.4706 14.7388 43.5183 14.4499V15.7129C43.5183 15.807 43.5977 15.8849 43.6929 15.8849H44.0453C44.1406 15.8849 44.2199 15.807 44.2199 15.7096V12.083V11.4239C44.2199 11.3298 44.1437 11.2518 44.0453 11.2518H44.0485Z" fill="white"/>
<path d="M24.3393 15.3813H22.063V14.4398C22.063 14.3456 21.9868 14.2677 21.8883 14.2677H21.5328C21.4375 14.2677 21.3613 14.3489 21.3613 14.443V15.4398C21.3613 15.7872 21.628 16.0015 22.0503 16.0015C22.3455 16.0015 22.9233 16.0015 23.498 16.0015H24.3393C24.4345 16.0015 24.5139 15.9235 24.5139 15.8261V15.5599C24.5139 15.4625 24.4345 15.3878 24.3393 15.3878V15.3813Z" fill="white"/>
<path d="M24.8194 12.57H24.3877V11.4174C24.3877 11.32 24.3115 11.2421 24.2162 11.2421H23.8607C23.7654 11.2421 23.6797 11.32 23.6797 11.4174V14.5473C23.6797 14.6447 23.7591 14.7226 23.8543 14.7226H24.2067C24.3019 14.7226 24.3813 14.6447 24.3813 14.5473V13.1836H24.8163C24.9115 13.1836 24.9909 13.1057 24.9909 13.0115V12.7453C24.9909 12.6479 24.9115 12.57 24.8163 12.57H24.8194Z" fill="white"/>
<path d="M23.1583 12.8976C23.1583 12.6281 23.063 12.3781 22.9043 12.1833H23.1995C23.2948 12.1833 23.3741 12.1053 23.3741 12.0079V11.7417C23.3741 11.6443 23.2948 11.5696 23.1995 11.5696H22.282V11.2839C22.282 11.1865 22.2058 11.1053 22.1106 11.1053H21.8502C21.755 11.1053 21.682 11.1865 21.682 11.2839V11.5729H20.7645C20.6692 11.5729 20.5898 11.6508 20.5898 11.7482V12.0144C20.5898 12.1118 20.6692 12.1865 20.7645 12.1865H21.0565C20.8978 12.3813 20.8026 12.6313 20.8026 12.9008C20.8026 13.5372 21.3296 14.0534 21.9804 14.0534C22.6312 14.0534 23.1583 13.5372 23.1583 12.9008V12.8976ZM21.4216 12.8976C21.4216 12.6216 21.6693 12.3943 21.9772 12.3943C22.2852 12.3943 22.5328 12.6183 22.5328 12.8976C22.5328 13.1768 22.2852 13.4008 21.9772 13.4008C21.6693 13.4008 21.4216 13.1768 21.4216 12.8976Z" fill="white"/>
</g>
<defs>
<clipPath id="clip0_1160_13125">
<rect width="51" height="16" fill="white"/>
</clipPath>
</defs>
</svg>
