<svg width="50" height="25" viewBox="0 0 50 25" fill="none" xmlns="http://www.w3.org/2000/svg">
<g clip-path="url(#clip0_1160_12820)">
<path d="M5.15129 6.19958L6.06882 5.68997C7.95386 4.92191 10.0424 4.73627 12.031 5.18036C12.1738 5.21312 13.5197 5.56984 13.4233 5.70453C11.0063 6.65822 10.2066 9.7086 11.8846 11.7798C13.4805 13.7454 16.5044 13.5525 17.9182 11.4886L18.5322 10.1709C20.5351 14.1531 19.8817 19.2165 16.5865 22.2377V15.3762H15.1691C14.9942 15.3762 13.2484 16.7849 12.8593 16.865V18.4338L14.8871 17.1926V23.6391C14.423 23.7702 14.0303 24.076 13.5876 24.258C11.0206 25.3172 8.26804 25.2044 5.72609 24.1342L7.71109 23.6464L10.1388 24.7202L10.8314 23.5991L9.0499 22.8129L9.82105 21.659C11.9382 17.593 7.44333 13.2467 3.59114 15.6383C2.77 16.1479 1.50617 17.7168 1.50617 18.7214V20.2502L0.820696 19.009C-0.867987 14.9321 0.0888143 10.3747 3.32694 7.44084H7.3398V9.34096H2.96279V10.5822H7.3398V13.5598H8.79999V6.20322H5.15129V6.19958Z" fill="white"/>
<path d="M34.2982 8.18315C35.1229 8.30692 34.8123 9.47174 34.7302 10.1124C34.5374 11.6594 34.084 13.3047 33.2843 14.6297H36.0797C36.5581 14.6297 36.6724 15.7035 36.1619 15.7035H32.5524V21.4476C32.5524 21.6259 32.049 22.2921 31.8277 22.3612C31.6206 22.4267 30.6888 22.4668 30.6888 22.1901V15.6999H27.8505V21.5276C27.8505 21.5641 27.5364 22.0846 27.4792 22.1428C27.1615 22.4595 25.9869 22.5687 25.9869 22.1064V15.6999H23.1915C22.9487 15.6999 22.456 14.859 22.3418 14.6261H31.9098L32.3168 12.0635C29.9427 12.9735 27.2365 12.3947 24.7338 12.5622C24.2411 12.5039 23.9055 11.8705 23.6413 11.4847H31.1422L32.3846 11.1389C32.4203 10.7749 32.3846 10.4036 32.3989 10.0359C32.4025 9.90855 32.6024 9.24969 32.3561 9.24969H24.8159C24.7088 9.24969 23.9055 8.39792 23.9662 8.17587H34.3054L34.2982 8.18315Z" fill="white"/>
<path d="M5.90806 22.4631C7.51306 22.4631 8.81416 21.1366 8.81416 19.5001C8.81416 17.8637 7.51306 16.5371 5.90806 16.5371C4.30306 16.5371 3.00195 17.8637 3.00195 19.5001C3.00195 21.1366 4.30306 22.4631 5.90806 22.4631Z" fill="white"/>
<path d="M49.7469 17.8142C49.7183 18.029 49.3648 18.7643 49.1399 18.7643H47.8011L47.719 17.1117H44.7594L44.0703 16.1179H47.719V8.30636C47.719 8.2554 47.8297 8.09887 47.8404 8.01879C47.9368 7.90231 49.2399 7.89503 49.4577 7.93871C49.5469 7.95691 49.7433 8.08067 49.7433 8.14255V17.8142H49.7469Z" fill="white"/>
<path d="M40.8885 8.12166C42.6878 7.87413 45.4154 8.52207 45.2797 10.859C45.0727 14.328 37.8967 14.1933 38.3251 10.3858C38.4643 9.14088 39.7531 8.28182 40.892 8.1253L40.8885 8.12166ZM43.3626 10.7025C43.3626 9.82157 42.6628 9.10812 41.7988 9.10812C40.9349 9.10812 40.2351 9.82157 40.2351 10.7025C40.2351 11.5834 40.9349 12.2968 41.7988 12.2968C42.6628 12.2968 43.3626 11.5834 43.3626 10.7025Z" fill="white"/>
<path d="M14.7841 11.6675C16.0736 11.6675 17.119 10.6016 17.119 9.28686C17.119 7.97208 16.0736 6.90625 14.7841 6.90625C13.4946 6.90625 12.4492 7.97208 12.4492 9.28686C12.4492 10.6016 13.4946 11.6675 14.7841 11.6675Z" fill="white"/>
<path d="M40.582 18.3927C40.6606 18.1015 41.9565 18.1451 42.2386 18.1925C42.3885 18.2179 42.5099 18.2798 42.6099 18.3927V20.7077C42.6099 20.9626 42.9026 21.494 43.2239 21.4867L49.6074 21.5086C50.0929 21.6469 50.15 22.1674 49.6681 22.364L42.003 22.4004C41.596 22.4222 40.582 21.8944 40.582 21.4503V18.3927Z" fill="white"/>
<path d="M37.7863 15.0447C37.5543 14.9937 36.8831 14.0946 36.9366 14.0546C39.375 13.9781 41.8384 14.1528 44.2769 14.0546C44.7374 14.0364 45.3622 14.0109 45.812 13.9672C46.1084 13.9381 47.0723 13.6432 47.2365 13.7561C47.7685 14.1201 46.2369 14.6879 46.0155 14.7535C44.9016 15.0847 43.8306 15.0265 42.6846 15.0774C42.4989 15.2085 42.6846 16.6499 42.5739 17.0285C42.5168 17.2214 42.1026 17.6036 41.9206 17.6036H40.7031L40.5817 17.4799V15.1648L40.4604 15.041H37.7863V15.0447Z" fill="white"/>
<path d="M9.61027 4.05166C8.5785 3.73862 7.55743 3.78958 6.5328 3.34913C5.30466 2.82132 4.73344 1.86398 4.01584 0.790161L3.20898 0.00390625C5.81163 0.273271 8.84983 1.18693 9.61384 4.0553L9.61027 4.05166Z" fill="white"/>
</g>
<defs>
<clipPath id="clip0_1160_12820">
<rect width="50" height="25" fill="white"/>
</clipPath>
</defs>
</svg>
