<svg width="46" height="22" viewBox="0 0 46 22" fill="none" xmlns="http://www.w3.org/2000/svg">
<g clip-path="url(#clip0_1160_12995)">
<path fill-rule="evenodd" clip-rule="evenodd" d="M9.36706 21.694C9.36706 21.694 7.39156 22.5424 5.23587 21.419C2.58549 20.0373 2.1727 18.2062 2.13666 16.3482C2.11373 15.2281 2.92293 12.5318 1.94665 11.3177C1.07847 10.2345 0.433078 10.1574 0.00390625 10.0501V9.93269C0.275824 9.67446 1.57317 9.04397 2.09735 8.18208C2.66412 7.25312 3.36521 5.97872 5.41933 6.33421C7.32276 6.66622 7.58812 9.25525 8.74787 11.0796C9.53742 12.3171 10.5268 14.0778 11.8143 14.3763C12.3451 14.5306 13.1379 14.5708 13.8947 13.9135C13.8947 13.9135 14.6875 13.179 14.3468 11.9784C14.2354 11.5827 14.0519 11.1367 13.5539 10.8181C12.1124 9.89915 10.9494 10.7812 10.6841 11.3211C10.3401 12.0187 10.0747 11.9415 9.75364 10.6873C9.49483 9.67781 8.63976 6.05251 11.6112 3.63452C14.2419 1.49488 17.4165 2.20921 18.8875 2.52446C20.3584 2.8397 23.0809 3.65464 27.9983 0.250676C27.9983 0.250676 28.2539 0.039396 28.3391 0.00585938H28.3653C28.3784 0.0360423 28.2244 0.237262 27.6576 0.834213C25.977 2.60159 23.1693 3.97324 22.1374 4.19123C20.4338 4.55007 19.0742 4.3958 15.8603 4.08391C13.4622 3.85251 10.992 6.48848 10.838 7.51805C10.838 7.51805 12.9544 4.92568 16.7187 5.77415C21.2299 6.79366 22.5141 6.98482 26.1604 4.34885C26.1604 4.34885 24.7058 6.71653 21.9801 7.44092C19.5263 8.09153 17.4132 7.59854 16.0209 7.44092C14.6285 7.27994 12.617 7.67903 11.6865 9.10433C11.6865 9.10433 15.4803 8.76897 15.8669 12.0354C16.2043 14.8827 14.278 16.2074 12.5318 16.2778C10.6022 16.3549 9.59966 15.3623 8.66924 13.4641C7.7421 11.5626 6.73306 9.58055 6.27112 8.86958C5.80591 8.15525 5.49141 7.37385 4.28907 7.57171C3.61419 7.68238 3.32917 8.15525 3.09656 8.71196C2.86396 9.26866 2.3234 9.6644 1.93682 9.74153C1.93682 9.74153 3.34555 10.3586 3.5716 11.7537C3.76489 12.951 3.54867 13.8363 3.48315 14.8123C3.34555 16.8613 3.64368 17.9412 4.17768 18.8367C4.59375 19.5342 5.88454 21.3083 9.44568 21.3083C9.44568 21.3083 10.4547 21.3117 9.36706 21.704V21.694Z" fill="#1D2086"/>
<path fill-rule="evenodd" clip-rule="evenodd" d="M44.8141 19.994L36.0111 19.9806L36.0406 18.3038C36.0406 17.6632 35.5787 17.14 34.9529 17.14C34.3272 17.14 33.7932 17.6599 33.7932 18.3038L33.7735 20.8961L44.8141 20.8894C45.0434 20.8894 45.2269 20.6748 45.2269 20.4434C45.2269 20.212 45.0434 19.9974 44.8141 19.9974V19.994ZM45.5872 15.9126C45.8166 15.9126 46 16.1272 46 16.3586C46 16.59 45.8166 16.7812 45.5872 16.7812L32.4598 16.7745V20.9028C32.4598 20.9028 30.2288 20.9464 30.2288 20.8525C30.2288 20.7586 30.2288 16.7644 30.2288 16.7644L19.5159 16.7778C19.2702 16.7778 19.0703 16.647 19.0703 16.3955C19.0703 16.144 19.2702 15.9126 19.5159 15.9126L21.8255 15.9294H21.9566C21.0818 15.9428 21.5798 13.773 21.5798 13.773C21.8157 12.8541 20.8165 12.6931 20.8165 12.6931C20.9574 11.9821 21.4389 11.5696 21.8223 11.5159C22.1433 11.4724 22.4152 11.6065 22.4152 11.6065C23.4013 11.9385 22.7003 13.9406 23.9485 15.3961C24.2531 15.755 24.4988 15.9629 24.9477 15.9327C25.9043 15.8656 25.8355 14.9132 25.8355 14.9132L25.8486 11.023L20.0204 11.0498C19.8304 11.0498 19.6764 10.9156 19.6764 10.7211C19.6764 10.5266 19.8304 10.3455 20.0204 10.3455H29.1935C29.3835 10.3455 29.5375 10.5031 29.5375 10.6977C29.5375 10.8922 29.3835 11.0498 29.1935 11.0498L28.0567 11.023V14.9132C28.0567 14.9132 28.0993 15.8388 27.5653 15.9327H30.2288L30.255 10.758C30.255 10.1175 30.7628 9.59766 31.3885 9.59766C32.0143 9.59766 32.4762 10.1175 32.4762 10.758L32.4598 15.9159L36.8957 15.926V14.6684C36.8957 14.1016 37.3445 13.6455 37.8949 13.6455C38.0489 13.6455 38.1897 13.6824 38.3208 13.7461C38.3405 13.7562 38.3601 13.7663 38.3798 13.7797C38.6877 13.9541 38.8974 14.2861 38.8974 14.6717V15.9294L39.9163 15.9227V14.6717C39.9163 14.105 40.3651 13.6489 40.9155 13.6489C41.4659 13.6489 41.9147 14.1083 41.9147 14.6717V15.9193H45.5872V15.9126ZM34.6286 11.0498L37.8064 11.023L34.6417 14.5108C34.6417 14.5108 34.3829 14.7522 34.3632 14.9937C34.3403 15.2553 34.6089 15.376 34.6089 15.376C34.835 15.4967 35.2609 15.6074 35.8604 15.0038L39.4773 11.023L42.832 15.0775C43.1269 15.376 43.5691 15.6242 44.0573 15.4565C44.0573 15.4565 44.2899 15.3727 44.4504 15.2251C44.6503 15.044 44.7715 14.7422 44.6273 14.5041C44.4832 14.2659 44.2014 13.9138 44.2014 13.9138L41.954 11.0431H44.9189C45.1286 11.0397 45.2957 10.8888 45.2957 10.6775C45.2957 10.4663 45.1253 10.3388 44.9189 10.3388L34.6319 10.3522C34.4222 10.3522 34.2551 10.4528 34.2551 10.6641C34.2551 10.8754 34.4255 11.0498 34.6319 11.0498H34.6286Z" fill="#008AD4"/>
</g>
<defs>
<clipPath id="clip0_1160_12995">
<rect width="46" height="22" fill="white"/>
</clipPath>
</defs>
</svg>
