<svg width="14" height="14" viewBox="0 0 14 14" fill="none" xmlns="http://www.w3.org/2000/svg">
<path d="M6.41699 10.4998H7.58366V9.33317H6.41699V10.4998ZM7.00033 1.1665C3.78033 1.1665 1.16699 3.77984 1.16699 6.99984C1.16699 10.2198 3.78033 12.8332 7.00033 12.8332C10.2203 12.8332 12.8337 10.2198 12.8337 6.99984C12.8337 3.77984 10.2203 1.1665 7.00033 1.1665ZM7.00033 11.6665C4.42783 11.6665 2.33366 9.57234 2.33366 6.99984C2.33366 4.42734 4.42783 2.33317 7.00033 2.33317C9.57283 2.33317 11.667 4.42734 11.667 6.99984C11.667 9.57234 9.57283 11.6665 7.00033 11.6665ZM7.00033 3.49984C5.71116 3.49984 4.66699 4.544 4.66699 5.83317H5.83366C5.83366 5.1915 6.35866 4.6665 7.00033 4.6665C7.64199 4.6665 8.16699 5.1915 8.16699 5.83317C8.16699 6.99984 6.41699 6.854 6.41699 8.74984H7.58366C7.58366 7.43734 9.33366 7.2915 9.33366 5.83317C9.33366 4.544 8.28949 3.49984 7.00033 3.49984Z" fill="#AAAAAA"/>
</svg>
