<svg width="58" height="17" viewBox="0 0 58 17" fill="none" xmlns="http://www.w3.org/2000/svg">
<g clip-path="url(#clip0_1160_12771)">
<path d="M5.26247 11.5208C5.26247 11.4578 5.20434 11.4181 5.20434 11.4181C4.66407 11.0072 3.29631 10.3875 1.13182 9.57227C1.12157 9.56895 0 9.13815 0 7.98825C0 6.9941 1.99352 5.81769 6.09339 4.38942C6.33616 4.30989 6.56526 4.27344 6.76359 4.27344C7.5056 4.27344 7.67315 4.81028 7.67315 4.81691C7.67657 4.83016 7.85096 5.29741 7.53296 5.74478C7.24231 6.14907 6.51739 6.43406 5.41634 6.85823L3.13218 7.92529C2.86204 8.05453 3.09456 8.19371 3.09456 8.19371C5.94293 9.09507 7.3107 10.1621 7.33463 11.4578C7.34489 12.5249 6.78069 13.1114 6.71914 13.1479C6.65075 13.2042 6.54475 13.3136 6.52081 13.3335C6.27461 13.5621 6.07629 13.7113 5.83693 13.9035C5.36847 14.2879 4.95472 14.5662 4.53072 14.7949C4.13065 15.0037 3.73741 15.1163 3.32366 15.2323L3.24502 15.2522C2.54746 15.4477 0.625752 15.5272 0.410329 14.5894C0.304327 14.1255 0.656526 13.9167 1.0566 13.7908C1.4977 13.6417 1.91145 13.4992 2.34229 13.3401C2.55088 13.2639 2.72869 13.1678 2.91334 13.0883C3.5938 12.8132 3.89813 12.6508 4.31871 12.3559C5.20434 11.7263 5.26247 11.5241 5.26247 11.5241V11.5208Z" fill="white"/>
<path d="M14.7385 13.3853C14.7145 13.6438 14.6325 13.9089 14.1743 13.9387L14.5025 15.6188C14.5025 15.6188 14.5059 15.6255 14.5059 15.6321V15.9303C14.5059 15.9303 14.5025 15.9436 14.5025 15.9535C14.4376 16.1557 14.1914 16.3214 13.7503 16.4639C13.7468 16.4705 13.7366 16.4705 13.7297 16.4705H13.7263C13.2784 16.4539 12.8065 15.7448 12.3209 14.3596C11.4422 14.4822 10.8061 14.6147 10.2967 14.7871C10.2967 14.7871 8.8605 15.2112 8.73398 15.2643C8.73398 15.2643 8.75108 15.42 8.73398 15.5194C8.73398 15.9469 8.48436 16.1524 7.97145 16.1524H7.63977C7.33544 16.1524 7.04479 15.6255 6.77466 14.5783C6.76782 14.5683 6.76782 14.5617 6.77466 14.5551C6.79176 14.4225 7.04479 14.1806 7.53719 13.836C8.71688 10.2703 9.78032 8.46094 10.6899 8.46094H10.7993C11.6576 8.46094 12.4611 9.5545 13.4152 12.2785L13.7024 12.2023C13.8015 12.1791 13.9041 12.1691 14.0033 12.1691C14.3145 12.1691 14.6359 12.3017 14.6359 12.5999C14.7282 13.1202 14.7385 13.3952 14.7385 13.3952V13.3853ZM9.49309 13.2958H9.60935L11.5823 12.7292V12.6231C11.1241 11.334 10.7788 11.0225 10.5907 11.0225H10.5702L9.49309 13.2958Z" fill="white"/>
<path d="M36.6807 13.368C36.6533 13.6232 36.5712 13.8883 36.1199 13.9148L36.4481 15.5949C36.4481 15.5949 36.4516 15.6049 36.4516 15.6082V15.9064C36.4516 15.9064 36.4481 15.923 36.4447 15.9263C36.3832 16.1318 36.1335 16.2975 35.6959 16.4366C35.6856 16.44 35.6753 16.4433 35.6719 16.4433C35.2274 16.4267 34.7487 15.7208 34.27 14.3324C33.3843 14.455 32.7518 14.5875 32.2388 14.7598C32.2388 14.7598 30.8061 15.1873 30.6796 15.2403C30.6796 15.2403 30.6933 15.3994 30.6796 15.4955C30.6796 15.9164 30.43 16.1251 29.9136 16.1251H29.5854C29.2811 16.1251 28.987 15.5916 28.7203 14.5511C28.7203 14.5411 28.7169 14.5345 28.7203 14.5246C28.7374 14.3953 28.9904 14.1501 29.4794 13.8055C30.6659 10.2398 31.7259 8.43372 32.6355 8.43372H32.7415C33.5998 8.43372 34.4067 9.52397 35.3573 12.2479L35.6412 12.1717C35.7472 12.1485 35.8429 12.1353 35.9489 12.1353C36.2566 12.1353 36.5781 12.2678 36.5781 12.5661C36.6704 13.0797 36.6807 13.3647 36.6807 13.3647V13.368ZM31.4319 13.2752H31.5481L33.5314 12.7086V12.5992C33.0698 11.3134 32.7278 11.0019 32.5329 11.0019H32.5124L31.4319 13.2752Z" fill="white"/>
<path d="M17.4496 14.2263C17.2445 15.0216 17.1419 15.3133 16.7931 15.4226H16.4375C15.692 15.4226 15.3262 14.9023 15.3262 13.8353V13.5735C15.3262 10.8429 15.7502 8.88773 16.7794 6.82652C16.7863 6.80663 16.8034 6.79669 16.8239 6.79006L17.3983 6.66414H17.4188C18.3523 6.67408 19.0465 8.03607 19.6039 10.9489C19.6039 10.9489 19.6244 11.0252 19.6551 11.0252C19.6893 11.0252 19.7167 10.9788 19.7269 10.9489C20.3801 8.86453 21.1016 7.85049 21.9325 7.85049C23.1258 7.85049 23.8029 9.37155 24.1243 12.7815V14.1037C24.1243 14.5511 24.0046 14.8162 23.7653 14.8858C23.7619 14.8891 23.755 14.8891 23.7448 14.8891H23.396C22.7942 14.8891 22.4214 14.3622 22.2915 13.3183C22.0487 11.7244 21.8504 10.9489 21.6863 10.9489C21.0024 13.2487 20.3185 14.3655 19.6073 14.3655C18.8413 14.3655 18.1609 13.2057 17.5385 10.8131C17.5385 10.8131 17.5214 10.7501 17.477 10.7501C17.4325 10.7501 17.4154 10.7932 17.4154 10.8131L17.2923 13.0499L17.4188 13.6497C17.4188 13.6497 17.5419 13.8883 17.453 14.2296L17.4496 14.2263Z" fill="white"/>
<path d="M42.6093 13.8196H42.4794C42.4794 13.8196 42.4555 13.8196 42.4452 13.8096C41.84 13.4849 40.6808 12.2322 38.995 10.0882C39.1523 10.287 38.9369 11.1287 38.8958 11.3739C38.8343 11.7352 38.889 12.1693 38.7591 12.5239C38.6599 12.7823 38.4342 13.2993 38.1094 13.3159C36.5194 13.4053 36.9844 11.1221 37.1485 10.297C37.3195 9.42541 37.4426 8.55056 37.5589 7.67239C37.5589 7.66245 37.5657 7.65582 37.5691 7.64588C37.8734 7.11567 38.2598 6.84724 38.7112 6.84724H38.9677C38.9882 6.84724 39.0087 6.85387 39.0224 6.87707L42.3221 11.0691V10.0882C42.3221 6.48935 42.7495 4.73633 43.6215 4.73633H43.8779C43.895 4.73633 43.919 4.74627 43.9326 4.76284L44.3259 5.20027C44.3259 5.20027 44.3464 5.23009 44.3464 5.24666V9.60105C44.3464 12.4046 43.7617 13.8196 42.6162 13.8196H42.6093Z" fill="white"/>
<path d="M46.8156 12.4973C47.3353 13.3059 48.2175 13.6936 49.4314 13.6539L50.1803 13.6307C50.1803 13.6307 50.211 13.6307 50.2213 13.6406L50.5906 13.8626L50.7205 13.856L51.1993 12.7194H51.0727L49.3015 13.0342C49.2844 13.0342 49.2741 13.0342 49.2605 13.0309C48.8843 12.8851 48.6723 12.7293 48.6244 12.5669C48.6176 12.5603 48.6176 12.557 48.6176 12.5504L48.6039 12.0831C48.6039 12.0831 48.6039 12.0566 48.6108 12.0467C49.0006 11.3806 50.3615 11.0094 52.6593 10.9332C52.6696 10.9332 52.6764 10.9332 52.6833 10.9332C53.0355 11.0293 53.2851 11.2215 53.4561 11.5098C53.4663 11.5231 53.4663 11.533 53.4663 11.5396L53.48 12.0003C53.48 12.0003 53.48 12.0235 53.4732 12.0334L51.8011 15.5626C51.8216 16.0133 51.7669 16.3646 51.6472 16.5932C51.5275 16.8285 51.3395 16.9511 51.0796 16.9578L50.7137 16.9677C50.7137 16.9677 50.6863 16.9677 50.6761 16.9611C50.2487 16.7225 50.0367 16.4077 50.0196 15.9968C50.0196 15.9968 50.0196 15.9868 50.0196 15.9835L50.2384 14.7441L48.5834 15.1782C48.5834 15.1782 48.5697 15.1782 48.5663 15.1782C46.6138 15.2412 45.3315 14.3166 44.7605 12.441C44.7605 12.4377 44.7605 12.4311 44.7605 12.4244L44.7537 12.3051C44.6955 10.6482 46.1112 9.01118 48.9493 7.44042C48.9493 7.44042 49.575 7.07258 50.7718 7.12892C51.23 7.14548 51.6506 7.40396 52.0473 7.93086C52.2251 8.16946 52.0815 8.71293 52.0815 8.71293C51.8729 9.12385 51.7293 9.29948 51.2745 9.31936C51.2642 9.31936 51.1719 9.33262 51.1651 9.33262L50.276 9.16361C50.276 9.16361 50.1803 9.13379 50.023 9.19344C48.5902 9.74685 47.5507 10.6118 46.9216 11.7385C46.9216 11.7385 46.6788 12.2422 46.8156 12.4907V12.4973Z" fill="white"/>
<path d="M27.7559 16.7918L27.39 16.9939C27.39 16.9939 27.3695 17.0039 27.3592 17.0039H27.1233C27.1233 17.0039 27.031 16.9873 26.9044 16.921L26.5215 16.6029C26.3608 16.4273 26.3744 16.1224 26.3744 16.1224L26.4462 13.859C26.4462 13.468 26.542 12.9444 26.542 12.9444L26.9591 10.87H26.9523C24.2031 9.33565 23.0918 7.64559 23.0918 6.39627V6.36645C23.0918 6.36645 23.0986 6.34325 23.1055 6.33L23.1226 6.3068C23.3243 5.97542 23.6389 5.80641 24.0458 5.80641H24.0868C24.1039 5.80641 24.121 5.81304 24.1347 5.82629L24.1621 5.84949C24.1621 5.84949 24.1655 5.85612 24.1689 5.85612L27.1575 9.12357L27.4071 9.25612C27.455 9.08711 27.5336 8.90816 27.6088 8.71928C27.6601 8.61323 27.7046 8.49725 27.749 8.38126C27.773 8.14598 28.026 7.7682 28.0568 7.7185C28.1662 7.49978 28.279 7.26119 28.4021 7.00602C28.7885 6.22064 29.1715 5.42532 29.5784 4.64988C29.6502 4.52064 29.7118 4.38477 29.8109 4.26879C29.9169 4.14618 30.0606 4.05008 30.1939 3.95397C30.3102 3.87113 30.4127 3.77171 30.5393 3.71206C30.6589 3.65904 30.7718 3.66236 30.8949 3.66567C31.0795 3.6723 31.2676 3.66567 31.4488 3.66567C31.9857 3.66567 32.3413 3.83799 32.5088 4.17931C32.5157 4.18594 32.5191 4.18926 32.5191 4.19257V4.23896C32.5191 4.23896 32.5259 4.24891 32.5259 4.25553V4.52727C32.5259 4.55047 32.5157 4.57366 32.4883 4.58692L32.437 4.61674C31.7121 5.02103 30.1973 7.48321 30.1426 7.9107C30.1426 7.91733 30.1426 7.92064 30.1426 7.92395C28.9834 10.0614 28.1046 13.6503 27.8995 16.477C27.8995 16.477 27.8653 16.6725 27.749 16.7918H27.7559Z" fill="white"/>
<path d="M53.4908 -0.00059241C53.1421 -0.00059241 52.8412 0.0955089 52.8412 0.0955089C51.6717 0.440148 50.8066 1.15594 50.8066 1.15594C50.0304 1.75906 49.4491 2.50136 49.1687 3.24366C48.8746 4.00584 48.9191 4.70506 49.2952 5.21208C49.6406 5.67602 50.2287 5.93118 50.9673 5.96432C51.7811 6.00077 51.8837 5.39434 51.8837 5.39434C52.041 4.87407 51.5828 4.42338 50.5262 4.05223C50.5262 4.05223 50.2458 3.96276 50.2458 3.67114C50.2458 3.58167 50.2903 3.39609 50.4681 3.30993C50.6425 3.22377 50.7964 3.28342 50.7964 3.28342C51.6957 3.58167 52.4001 4.09531 52.7762 4.73489L52.9643 5.0497V2.26607C52.9643 1.98771 53.2002 1.76568 53.4874 1.76568C53.7747 1.76568 54.0038 1.99103 54.0038 2.26607V5.04307L54.1918 4.72826C54.5714 4.092 55.2758 3.57836 56.1717 3.2768C56.1717 3.2768 56.3255 3.21715 56.5033 3.30331C56.6812 3.39278 56.7222 3.57504 56.7222 3.66451C56.7222 3.95613 56.4452 4.04561 56.4452 4.04561C55.3852 4.41676 54.9304 4.86744 55.0843 5.38771C55.0843 5.38771 55.1937 5.99746 56.0041 5.95769C56.7393 5.92455 57.3308 5.66939 57.6728 5.20545C58.0558 4.69843 58.1002 3.99921 57.8061 3.23703C57.5155 2.49473 56.9376 1.75243 56.1614 1.14931C56.1614 1.14931 55.2997 0.433521 54.1303 0.0921951C54.1303 0.0921951 53.8157 -0.00390625 53.4874 -0.00390625L53.4908 -0.00059241Z" fill="white"/>
</g>
<defs>
<clipPath id="clip0_1160_12771">
<rect width="58" height="17" fill="white"/>
</clipPath>
</defs>
</svg>
