<svg width="51" height="16" viewBox="0 0 51 16" fill="none" xmlns="http://www.w3.org/2000/svg">
<g clip-path="url(#clip0_1160_12923)">
<path d="M48.2101 7.31781C48.2161 8.05844 48.829 8.66094 49.5899 8.66094C50.3507 8.66094 50.9696 8.05844 50.9696 7.31781V3.6029C50.9696 2.85932 50.3507 2.25977 49.5899 2.25977C48.829 2.25977 48.2101 2.86226 48.2101 3.6029L48.2161 5.7954C48.2161 5.7954 48.041 6.52722 47.2198 6.55661C46.3986 6.586 44.1704 5.46329 43.3552 3.38835C43.0624 2.69474 42.6578 2.41847 42.0298 2.41847C41.4018 2.41847 40.8795 2.80348 40.7074 3.37071C39.9345 5.84536 38.12 6.60951 37.5494 6.64772C37.1055 6.68886 36.8066 6.97101 36.8066 7.35014C36.8066 7.72927 37.1055 7.98203 37.5645 7.98203C38.5608 7.98203 40.5504 7.38247 42.051 5.81304C43.6451 7.33545 46.9269 8.71972 48.204 7.31193L48.2101 7.31781Z" fill="white"/>
<path d="M22.2694 6.01445C21.8709 6.01445 21.5478 5.69998 21.5478 5.31203V3.4193C21.5508 2.67573 22.1698 2.07617 22.9336 2.07617C23.6975 2.07617 24.2983 2.67867 24.2983 3.4193V4.61842H32.2085C33.0962 4.61842 33.3679 4.43032 33.6487 4.34215C34.0442 4.21871 34.482 4.30101 34.6511 4.66838C34.8171 5.03576 34.6239 5.4002 34.3008 5.60299C33.9808 5.80578 33.2622 6.00564 32.2055 6.00564H29.1833V6.74333L34.6571 6.75508C35.0556 6.75508 35.3787 7.06956 35.3787 7.45751C35.3787 7.84546 35.0556 8.15993 34.6571 8.15993H21.3153C20.9168 8.15993 20.5938 7.84546 20.5938 7.45751C20.5938 7.06956 20.9168 6.75508 21.3153 6.75508L26.4812 6.74333V6.00564L22.2634 6.01739L22.2694 6.01445Z" fill="white"/>
<path d="M21.2637 11.1699C21.2637 9.64748 24.2496 8.41016 27.933 8.41016C31.6164 8.41016 34.6024 9.64454 34.6024 11.1699C34.6024 12.6952 31.6164 13.9296 27.933 13.9296C24.2496 13.9296 21.2637 12.6952 21.2637 11.1699ZM27.933 12.6041C30.0797 12.6041 31.8217 11.9605 31.8217 11.1699C31.8217 10.3793 30.0827 9.73565 27.933 9.73565C25.7834 9.73565 24.0443 10.3793 24.0443 11.1699C24.0443 11.9605 25.7834 12.6041 27.933 12.6041Z" fill="white"/>
<path d="M38.1348 9.43875C38.1348 9.0508 38.4578 8.73633 38.8563 8.73633H50.2779C50.6764 8.73633 50.9995 9.0508 50.9995 9.43875V12.5541C50.9995 12.9421 50.6764 13.2565 50.2779 13.2565H38.8563C38.4578 13.2565 38.1348 12.9421 38.1348 12.5541V9.43875ZM40.8701 10.1088V11.8634H48.2158V10.1088H40.8701Z" fill="white"/>
<path d="M9.64024 16C14.9631 16 19.2805 12.4173 19.2805 8C19.2805 3.58266 14.9631 0 9.64024 0C4.31743 0 0 3.58266 0 8C0 12.4173 4.31441 16 9.64024 16Z" fill="white"/>
<path d="M0.691406 7.99916C0.691406 3.89629 4.69786 0.572266 9.64026 0.572266C14.5827 0.572266 18.5891 3.89629 18.5891 7.99916C18.5891 12.102 14.5827 15.4261 9.64026 15.4261C4.69786 15.4261 0.691406 12.102 0.691406 7.99916ZM9.64026 9.26C11.2102 9.26 12.4813 7.47601 12.4813 5.27763C12.4813 3.07925 11.2072 1.29526 9.64026 1.29526C8.0733 1.29526 6.79921 3.07925 6.79921 5.27763C6.79921 7.47601 8.0733 9.26 9.64026 9.26Z" fill="#E00514"/>
</g>
<defs>
<clipPath id="clip0_1160_12923">
<rect width="51" height="16" fill="white"/>
</clipPath>
</defs>
</svg>
