<svg width="52" height="15" viewBox="0 0 52 15" fill="none" xmlns="http://www.w3.org/2000/svg">
<g clip-path="url(#clip0_1160_12943)">
<path d="M34.8201 1.30664V2.94281H36.5623V1.30664H37.316V5.39187H36.5623V3.59242H34.8201V5.39187H34.0664V1.30664H34.8201Z" fill="#EEC35A"/>
<path d="M39.1834 4.23508L38.8294 5.39187H38.0547L39.3762 1.30664H40.3367L41.6758 5.39187H40.8696L40.498 4.23508H39.1905M40.3648 3.66885L40.0423 2.66491C39.9617 2.41827 39.8951 2.13689 39.8355 1.90067H39.8249C39.7654 2.13689 39.7023 2.42174 39.6286 2.66491L39.3096 3.66885H40.3683H40.3648Z" fill="#EEC35A"/>
<path d="M43.1873 1.30664H42.4336V5.39187H43.1873V1.30664Z" fill="#EEC35A"/>
<path d="M45.0181 1.93193H43.8438V1.30664H46.9566V1.93193H45.7718V5.39187H45.0181V1.93193Z" fill="#EEC35A"/>
<path d="M47.9998 4.23508L47.6458 5.39187H46.8711L48.1926 1.30664H49.1531L50.4922 5.39187H49.686L49.3144 4.23508H48.0069M49.1812 3.66885L48.8587 2.66491C48.7781 2.41827 48.7115 2.13689 48.6519 1.90067H48.6378C48.5783 2.13689 48.5152 2.42174 48.4415 2.66491L48.1225 3.66885H49.1812Z" fill="#EEC35A"/>
<path d="M52.0037 1.30664H51.25V5.39187H52.0037V1.30664Z" fill="#EEC35A"/>
<path d="M0.119141 9.79321C0.119141 12.6695 2.50285 15.0005 5.32475 15.0005C8.14665 15.0005 10.5269 12.6695 10.5269 9.79321C10.5269 6.91688 8.14314 4.58594 5.32475 4.58594C2.50636 4.58594 0.119141 6.9134 0.119141 9.79321ZM7.99942 9.79321C7.99942 11.3842 6.8356 12.673 5.32475 12.673C3.8139 12.673 2.65008 11.3842 2.65008 9.79321C2.65008 8.20219 3.8139 6.9134 5.32475 6.9134C6.8356 6.9134 7.99942 8.20219 7.99942 9.79321Z" fill="#EEC35A"/>
<path d="M13.5562 1.30664C12.8446 1.30664 12.5957 1.82077 12.5957 2.25847V3.37357C12.6413 3.77653 12.9147 4.20382 13.5527 4.20382H20.795C21.5066 4.20382 21.7555 3.68969 21.7555 3.25199V2.25847C21.7555 1.82077 21.5031 1.30664 20.795 1.30664H13.5597M13.1215 2.25847C13.1215 1.97362 13.2688 1.82772 13.5562 1.82772H20.7915C21.0789 1.82772 21.2261 1.97362 21.2261 2.25847V3.25199C21.2261 3.53684 21.0789 3.68274 20.7915 3.68274H13.5492C13.3844 3.68274 13.1566 3.64453 13.1215 3.32841V2.26194V2.25847Z" fill="#EEC35A"/>
<path d="M10.6496 3.32098V2.42473C10.6496 2.16767 10.5339 1.73344 9.952 1.73344H6.8707C6.77255 1.73344 6.69192 1.66396 6.69192 1.58059V0.691292C6.69192 0.434229 6.57975 0 5.99434 0H4.66927C4.08386 0 3.97169 0.434229 3.97169 0.691292V1.58059C3.97169 1.66396 3.89106 1.73344 3.79291 1.73344H0.697587C0.112175 1.73344 0 2.16767 0 2.42473V3.32098C0 3.57805 0.112175 4.01227 0.697587 4.01227H9.952C10.5374 4.01227 10.6496 3.57805 10.6496 3.32098Z" fill="#EEC35A"/>
<path d="M14.2538 5.56988C13.451 5.56988 12.5957 6.00063 12.5957 7.213V11.6699C12.5957 13.5875 14.1556 14.8276 16.5674 14.8276H20.7915C21.5031 14.8276 21.752 14.3135 21.752 13.8758V12.8823C21.752 12.4411 21.4996 11.9305 20.7915 11.9305H17.0897C16.4202 11.9305 16.0906 11.8784 15.9434 11.7464C15.8137 11.6282 15.7646 11.3781 15.7646 10.8188V8.46358H20.788C21.4996 8.46358 21.7485 7.94945 21.7485 7.51175V6.51824C21.7485 6.08053 21.4961 5.56641 20.788 5.56641H14.2503M13.1215 11.6699V7.213C13.1215 6.23686 13.8296 6.09095 14.2538 6.09095H20.7915C21.0789 6.09095 21.2261 6.23686 21.2261 6.52171V7.51522C21.2261 7.80008 21.0789 7.94598 20.7915 7.94598H15.6805C15.5613 7.94598 15.4421 7.99461 15.358 8.07451C15.2809 8.15094 15.2388 8.25168 15.2388 8.35937V10.8223C15.2388 12.1632 15.5683 12.455 17.0897 12.455H20.7915C21.0789 12.455 21.2261 12.6009 21.2261 12.8858V13.8793C21.2261 14.1641 21.0789 14.31 20.7915 14.31H16.5639C14.4396 14.31 13.1215 13.2992 13.1215 11.6734V11.6699Z" fill="#EEC35A"/>
<path d="M31.3393 14.0245V2.17176C31.3393 1.9147 31.2272 1.48047 30.6417 1.48047H29.3202C28.7348 1.48047 28.6226 1.9147 28.6226 2.17176V5.63864C28.6226 5.72202 28.542 5.79149 28.4438 5.79149H26.7857C26.6876 5.79149 26.607 5.72202 26.607 5.63864V2.17176C26.607 1.9147 26.4948 1.48047 25.9094 1.48047H24.5843C24.0024 1.48047 23.8867 1.9147 23.8867 2.17176V14.0245C23.8867 14.2815 24.0024 14.7158 24.5843 14.7158H25.9094C26.4913 14.7158 26.607 14.2815 26.607 14.0245V8.2197C26.607 8.13633 26.6876 8.06685 26.7857 8.06685H28.4438C28.542 8.06685 28.6226 8.13633 28.6226 8.2197V14.0245C28.6226 14.2815 28.7348 14.7158 29.3202 14.7158H30.6417C31.2272 14.7158 31.3393 14.2815 31.3393 14.0245Z" fill="#EEC35A"/>
<path d="M34.0449 1.63964H34.0905V1.3652H34.0449V1.63964ZM34.0449 2.1885H34.0905V1.91407H34.0449V2.1885ZM34.0449 2.73737H34.0905V2.46293H34.0449V2.73737ZM34.0449 3.28623H34.0905V3.0118H34.0449V3.28623ZM34.0449 3.8351H34.0905V3.56066H34.0449V3.8351ZM34.0449 4.38396H34.0905V4.10953H34.0449V4.38396ZM34.0449 4.93283H34.0905V4.6584H34.0449V4.93283ZM34.0449 5.48169H34.0905V5.20726H34.0449V5.48169Z" fill="#EEC35A"/>
</g>
<defs>
<clipPath id="clip0_1160_12943">
<rect width="52" height="15" fill="white"/>
</clipPath>
</defs>
</svg>
