<svg width="36" height="36" viewBox="0 0 36 36" fill="none" xmlns="http://www.w3.org/2000/svg">
<g clip-path="url(#clip0_1160_12859)">
<path d="M33.9367 13.3407C33.9367 13.3407 32.0969 11.027 28.9246 10.6121C28.9246 10.6121 28.3366 0.00976271 18.0184 0H18.0089H17.9852C7.66221 0.00488136 7.07897 10.6121 7.07897 10.6121C3.90194 11.027 2.06685 13.3407 2.06685 13.3407C-1.23821 16.8212 0.411947 22.0393 0.411947 22.0393C2.49361 29.2052 7.52944 32.378 7.52944 32.378C11.5742 35.1653 15.5052 35.7169 17.9947 35.7559H18.0042C20.4936 35.7169 24.4246 35.1653 28.4741 32.378C28.4741 32.378 33.5052 29.2052 35.5869 22.0393C35.5869 22.0393 37.2418 16.8212 33.932 13.3407H33.9367Z" fill="#E03A3E"/>
<path d="M32.6281 14.1456C32.6281 14.1456 31.0396 12.3102 27.5022 11.9344C27.5022 11.9344 27.3078 1.41504 18.0043 1.41016C8.69605 1.41504 8.51112 11.9344 8.51112 11.9344C4.97371 12.3053 3.38046 14.1456 3.38046 14.1456C0.374135 17.3136 1.95791 21.824 1.95791 21.824C3.87835 28.448 8.50638 31.2645 8.50638 31.2645C12.2382 33.8321 15.7709 34.3495 18.0043 34.3495H18.009C20.2424 34.3495 23.7798 33.8272 27.5069 31.2645C27.5069 31.2645 32.1349 28.4529 34.0601 21.824C34.0601 21.824 35.6439 17.3136 32.6328 14.1456H32.6281Z" fill="white"/>
<path d="M32.6945 18.1821C32.6945 18.1821 32.0069 14.2721 28.1992 14.1062H25.008C25.4205 13.1397 25.5628 12.344 25.5533 10.9187C25.5248 6.70117 22.234 3.40625 18.0375 3.40625H17.9663C13.7698 3.40625 10.4553 6.65723 10.4221 10.8796C10.4126 12.305 10.5975 13.1982 11.0385 14.1062H7.65759C3.8499 14.3649 3.30933 18.1821 3.30933 18.1821C2.98689 20.9645 3.93051 22.7706 3.93051 22.7706C3.93051 22.7706 6.32988 29.6435 13.9642 31.7865C13.9642 31.7865 15.6144 32.3234 17.9995 32.3478C20.3799 32.3234 22.0348 31.7865 22.0348 31.7865C29.6644 29.6484 32.0638 22.7706 32.0638 22.7706C32.0638 22.7706 33.0122 20.9596 32.6897 18.1821H32.6945ZM31.7935 22.6778C31.7935 22.6778 29.4416 29.419 21.959 31.5131C21.959 31.5131 20.3325 32.0403 17.9995 32.0647C15.6618 32.0403 14.0448 31.5131 14.0448 31.5131C6.55749 29.4141 4.21028 22.6778 4.21028 22.6778C4.21028 22.6778 3.28088 20.9059 3.59858 18.1772C3.59858 18.1772 4.27192 14.4918 8.00375 14.3844H11.4605C10.9484 13.3056 10.7208 12.5149 10.7303 11.1188C10.7588 6.98428 13.8504 3.68449 17.9663 3.68449H18.0375C22.1486 3.68449 25.2403 6.9794 25.2688 11.1188C25.2782 12.5149 25.0554 13.3056 24.5433 14.3844H28.0001C31.7319 14.4869 32.4052 18.1772 32.4052 18.1772C32.7229 20.901 31.7888 22.6778 31.7888 22.6778H31.7935Z" fill="#E03A3E"/>
<path d="M31.1254 16.5767C29.8926 14.8291 27.8109 14.8535 27.8109 14.8535H22.647L22.5949 14.9609C21.5944 16.4888 19.9157 17.4992 18.0048 17.5383C16.0938 17.4992 14.4105 16.4839 13.4099 14.9609L13.3625 14.8535H8.19393C8.19393 14.8535 6.11227 14.8291 4.88413 16.5767C4.88413 16.5767 3.21975 18.3535 4.68023 22.3952C4.68023 22.3952 6.84251 28.7752 14.1544 30.9181C14.1544 30.9181 15.7097 31.4257 17.9574 31.455C17.9574 31.455 17.9858 31.455 18 31.455C18.0143 31.455 18.0285 31.455 18.0427 31.455C20.2903 31.4257 21.8457 30.9181 21.8457 30.9181C29.1576 28.7752 31.3199 22.3952 31.3199 22.3952C32.7851 18.3535 31.1254 16.5767 31.1254 16.5767Z" fill="#E03A3E"/>
<path d="M11.6883 23.5735C13.1346 23.2074 14.1873 22.1091 14.1873 20.8058C14.1873 19.2047 12.5987 17.9062 10.6356 17.9062C8.6725 17.9062 7.08398 19.2047 7.08398 20.8058C7.08398 22.1042 8.13193 23.2025 9.56871 23.5686V25.3064H7.24521V26.229H14.0308V25.3064H11.6836V23.5686L11.6883 23.5735ZM10.6167 22.8267C9.74415 22.8267 9.03762 21.8846 9.03762 20.7277C9.03762 19.5708 9.74415 18.6287 10.6167 18.6287C11.4891 18.6287 12.1957 19.5708 12.1957 20.7277C12.1957 21.8846 11.4891 22.8267 10.6167 22.8267Z" fill="white"/>
<path d="M14.7653 21.6493V21.6591C14.7701 21.991 15.0309 22.2595 15.3533 22.2595C15.3533 22.2595 15.3533 22.2595 15.3628 22.2595H17.7859V21.3516H16.7379V18.9597H17.7859V18.0469H14.7559V21.6396L14.7606 21.6493H14.7653Z" fill="white"/>
<path d="M18.9248 22.2595H21.5565V21.3564H20.2952V18.9548H21.5565V18.0469H18.332V21.6542L18.3415 21.664C18.3463 21.991 18.6071 22.2497 18.9248 22.2546V22.2595Z" fill="white"/>
<path d="M21.6368 22.9238H14.6758V23.8757H17.004V25.7697C17.004 25.7989 16.9993 25.8331 16.9993 25.8575C16.9993 26.3261 17.4735 26.702 18.0567 26.702C18.64 26.702 19.1094 26.3261 19.1141 25.8624V23.8708H21.6368V22.9238Z" fill="white"/>
<path d="M26.9297 17.9004V25.7008C26.9297 26.1645 27.3659 26.5404 27.9444 26.5404C28.5229 26.5404 28.9165 26.1645 28.9165 25.7008V17.9004H26.9297Z" fill="white"/>
<path d="M22.2826 18.9841H24.1983V23.9386C24.1983 23.9386 24.1983 24.8856 22.7995 25.159C22.4486 25.2127 22.2637 25.4079 22.2637 25.7106C22.2637 26.0132 22.4439 26.2524 22.7426 26.2524C22.7426 26.2524 26.0714 26.3988 26.0714 24.1485V18.0371H22.2732V18.9841H22.2826Z" fill="white"/>
<path d="M23.5329 11.2508C23.5329 11.2508 23.8838 9.11763 21.7311 6.49635C21.7311 6.49635 19.5119 3.06475 16.662 5.21743C16.662 5.21743 15.3153 4.15818 14.2295 5.30041C14.2295 5.30041 13.319 5.80807 13.8169 7.37011C13.8169 7.37011 11.1568 10.5283 13.0677 13.3351C13.0677 13.3351 13.8074 14.082 13.8691 14.7702C13.8691 14.7702 14.5519 16.1419 16.7521 16.8839C16.7521 16.8839 20.2943 18.1725 22.7031 14.1357C22.7031 14.1357 25.3159 13.2375 23.5329 11.2459V11.2508ZM22.5988 12.8568C22.4755 12.6713 22.1104 12.7054 22.1104 12.7054C21.622 12.7054 21.7168 13.1155 21.7168 13.1155C21.6599 13.6817 20.9012 14.3163 20.9012 14.3163C20.6594 14.3797 20.8159 14.6921 20.8159 14.6921C20.8775 15.0045 20.6357 15.1656 20.6357 15.1656C19.6684 16.2395 17.6578 16.1273 17.6578 16.1273C16.534 16.2298 15.0261 14.9216 15.0261 14.9216C14.6562 14.7702 14.7511 14.453 14.7511 14.453C14.7795 14.1064 14.5329 13.9843 14.5329 13.9843C13.2764 12.9885 13.3285 11.5144 13.3285 11.5144C13.1626 9.75709 14.5804 8.11695 14.5804 8.11695C15.9555 8.29756 16.6525 7.75573 16.6525 7.75573C18.6394 8.96143 18.8765 7.51655 18.8765 7.51655C17.9044 7.61906 18.3264 7.04794 18.3264 7.04794C18.5682 6.70136 19.1515 6.8234 19.1515 6.8234C22.1673 7.33594 21.2094 9.41052 21.2094 9.41052C22.1294 9.9377 21.7026 10.3819 21.7026 10.3819C20.4839 10.0402 21.4039 11.324 21.4039 11.324C21.8022 11.3533 21.9919 12.1685 21.9919 12.1685C21.9634 12.8275 22.6035 12.3491 22.6035 12.3491C23.1109 11.6852 23.2105 12.5004 23.2105 12.5004C23.1583 13.2521 22.6035 12.8519 22.6035 12.8519L22.5988 12.8568Z" fill="#E03A3E"/>
<path d="M14.529 9.06316C14.529 9.06316 15.4679 8.49205 15.8377 8.98994C15.8377 8.98994 16.1128 9.17544 16.0464 8.70683C16.0464 8.70683 15.558 7.67686 14.4341 8.81422C14.4341 8.81422 13.8604 9.44391 14.529 9.06316Z" fill="#E03A3E"/>
<path d="M19.7631 7.81399L19.0186 8.14592C18.5207 8.39975 18.8147 8.75121 18.8147 8.75121C19.2273 9.18077 19.5687 8.83419 19.5687 8.83419C20.1187 8.19473 20.7209 8.49738 20.7209 8.49738C20.5455 7.29656 19.7583 7.81399 19.7583 7.81399H19.7631Z" fill="#E03A3E"/>
<path d="M18.4585 11.442C18.8853 11.442 19.2267 11.0807 19.222 10.6414C19.222 10.207 18.8711 9.85064 18.449 9.85552C18.0223 9.85552 17.6809 10.2167 17.6856 10.6512C17.6856 11.0954 18.0365 11.442 18.4585 11.442Z" fill="#E03A3E"/>
<path d="M16.183 10.4304C16.183 10.4304 15.5144 10.5915 16.2779 11.0552C16.2779 11.0552 16.9844 11.4604 16.9797 11.0162C16.9797 11.0162 16.496 11.0796 16.8848 10.4499C16.8848 10.4499 16.9085 9.66405 16.3632 9.60547C16.3632 9.60547 16.8232 10.4207 16.183 10.4255V10.4304Z" fill="#E03A3E"/>
<path d="M15.5477 10.3081C15.5477 10.3081 16.2162 10.1422 15.486 10.1227C15.486 10.1227 14.7842 10.2203 14.5092 9.65892C14.5092 9.65892 13.9259 9.10245 14.2674 9.78584C14.2674 9.78584 14.5187 10.6596 15.5524 10.3081H15.5477Z" fill="#E03A3E"/>
<path d="M19.9471 12.6904L19.4634 13.0077C19.4634 13.0077 19.0366 13.198 19.1884 12.7001C19.1884 12.7001 19.269 11.4115 18.4818 11.9533C18.4818 11.9533 17.9365 12.5537 17.543 12.6806C17.543 12.6806 16.8175 13.0955 16.0493 12.5342C16.0493 12.5342 15.2479 11.6311 14.7927 11.6995C14.7927 11.6995 14.1194 11.4847 14.7026 11.8898C14.7026 11.8898 15.191 11.9191 15.4044 12.2315C15.4044 12.2315 15.8359 12.7294 16.1726 12.8807C16.1726 12.8807 16.6657 13.4421 17.7611 13.4323C17.7611 13.4323 19.2548 13.6081 20.132 12.8173C20.132 12.8173 20.4639 12.3438 19.9471 12.6953V12.6904ZM18.1926 13.0418L17.8275 12.9784C17.8275 12.9784 18.3728 12.7929 18.5577 12.5391C18.5577 12.5391 18.4392 12.9784 18.1926 13.0418Z" fill="#E03A3E"/>
<path d="M20.6028 12.2219C20.6028 12.2219 20.2471 12.0608 20.5174 12.4171C20.5174 12.4171 20.6691 12.5343 20.6691 12.7051C20.6691 12.7051 20.783 12.6124 20.7213 12.3829C20.7213 12.3829 20.6597 12.2463 20.598 12.2219H20.6028Z" fill="#E03A3E"/>
<path d="M16.8554 14.7071C16.7179 14.6144 16.5187 14.8194 16.5187 14.8194C16.1062 14.961 15.6652 14.6827 15.6652 14.6827C15.3617 14.6632 15.2432 14.4631 15.2052 14.3703C15.2052 14.1995 15.1104 14.1214 15.1104 14.1214C14.8211 13.7797 14.8401 14.1848 14.8401 14.1848C14.9634 14.3069 14.9634 14.4338 14.9634 14.4338C14.9349 14.6046 15.1199 14.7608 15.1199 14.7608C16.0777 15.5174 16.22 15.2392 16.22 15.2392C16.2769 15.2246 16.5092 15.1269 16.5092 15.1269C16.5092 15.0928 16.8127 14.8585 16.8127 14.8585C17.192 14.6534 16.8554 14.7023 16.8554 14.7023V14.7071Z" fill="#E03A3E"/>
<path d="M32.4953 32.9101C31.6655 32.9101 30.9922 33.6032 30.9922 34.4575C30.9922 35.3117 31.6655 36.0049 32.4953 36.0049C33.3252 36.0049 33.9985 35.3117 33.9985 34.4575C33.9985 33.6032 33.3252 32.9101 32.4953 32.9101ZM32.4953 35.7266C31.8125 35.7266 31.2577 35.1555 31.2577 34.4526C31.2577 33.7497 31.8125 33.1786 32.4953 33.1786C33.1782 33.1786 33.733 33.7497 33.733 34.4526C33.733 35.1555 33.1782 35.7266 32.4953 35.7266Z" fill="#E03A3E"/>
<path d="M33.1927 35.1653L33.1784 34.8236C33.169 34.56 33.0694 34.5161 32.9745 34.4721C33.0836 34.3989 33.2116 34.3013 33.2116 34.023C33.2116 33.6276 32.9319 33.5154 32.6474 33.5154H31.8555V35.3947H32.0878V34.5893H32.6521C32.9271 34.5893 32.9556 34.7699 32.9556 34.9261C32.9556 34.9993 32.9651 35.2824 32.9935 35.3947H33.278V35.3508C33.2069 35.3068 33.1974 35.2678 33.1927 35.1653ZM32.6236 34.3696H32.0878V33.7302H32.6663C32.7801 33.7302 32.9745 33.7546 32.9745 34.0426C32.9745 34.3306 32.7944 34.3696 32.6236 34.3696Z" fill="#E03A3E"/>
</g>
<defs>
<clipPath id="clip0_1160_12859">
<rect width="36" height="36" fill="white"/>
</clipPath>
</defs>
</svg>
