<svg width="53" height="14" viewBox="0 0 53 14" fill="none" xmlns="http://www.w3.org/2000/svg">
<g clip-path="url(#clip0_1160_12936)">
<path d="M30.2544 9.99887H31.193V3.98013H30.2544V9.99887ZM28.7494 6.15255H27.5754V6.68778H28.7494V7.9524C28.5195 8.03898 28.3143 8.08621 28.0105 8.08621H26.6751C26.5493 8.08621 26.448 7.98913 26.4507 7.86844V4.87219H28.1665V4.43928H25.4793V8.08883C25.4793 8.32759 25.6818 8.51912 25.9281 8.51912H28.0105C28.328 8.51912 28.5852 8.46402 28.7494 8.36432V9.99625H29.688V3.98013H28.7494V6.15255ZM21.7987 7.15742V6.56447H23.8648V6.13418H19.9735C19.8476 6.13418 19.7464 6.03711 19.7464 5.91642V5.53861H23.7799V4.07983H18.7777V4.51274H22.8112V5.10307H18.7777V6.13156C18.7777 6.37031 18.9802 6.56447 19.2292 6.56447H20.8273V7.15742H18.255V7.59033H24.3902V7.15742H21.8015H21.7987ZM21.8261 7.86844H20.7397C20.4524 9.01237 19.0376 9.58958 18.5177 9.66042L18.7886 10.0461C19.3195 9.98576 20.5263 9.56859 21.2815 8.77624C22.0368 9.56859 23.2463 9.98313 23.7745 10.0461L24.0454 9.66042C23.5255 9.58958 22.1134 9.01237 21.8234 7.86844M35.815 6.29685V6.74813H34.5808V7.53523H33.675V6.74813H32.5586V6.29685H35.815ZM34.2004 3.93553C34.3975 3.93553 34.5835 3.95915 34.7614 4.00637C34.9393 4.0536 35.0953 4.12181 35.2321 4.21102C35.3689 4.30022 35.4756 4.41042 35.555 4.5416C35.6343 4.67279 35.6754 4.81972 35.6754 4.98501C35.6754 5.1503 35.6343 5.29723 35.5522 5.42579C35.4702 5.55435 35.3607 5.66192 35.2266 5.7485C35.0898 5.83508 34.9338 5.9033 34.7559 5.9479C34.5781 5.9925 34.392 6.01612 34.2004 6.01612C34.0089 6.01612 33.8228 5.9925 33.6449 5.9479C33.4671 5.9033 33.3111 5.83771 33.177 5.7485C33.0484 5.66454 32.9389 5.55435 32.8568 5.42579C32.7775 5.29723 32.7364 5.1503 32.7364 4.98501C32.7364 4.81972 32.7775 4.67016 32.8568 4.5416C32.9362 4.41042 33.0456 4.2976 33.177 4.21102C33.3111 4.12181 33.4671 4.0536 33.6449 4.00637C33.8255 3.95915 34.0116 3.93553 34.2004 3.93553ZM34.2004 4.34745C34.0089 4.34745 33.8638 4.4078 33.7653 4.52586C33.6668 4.64393 33.6176 4.79873 33.6176 4.98763C33.6176 5.17654 33.6668 5.32871 33.7653 5.44153C33.8638 5.55697 34.0089 5.61207 34.2004 5.61207C34.392 5.61207 34.5507 5.55435 34.6465 5.44153C34.7423 5.32609 34.7915 5.17654 34.7915 4.98763C34.7915 4.79873 34.7423 4.64655 34.6465 4.52586C34.5507 4.4078 34.4029 4.34745 34.2004 4.34745ZM34.6218 9.46102C34.6218 9.57909 34.6875 9.63681 34.8189 9.63681H38.6664V10.0671H34.1457C33.987 10.0671 33.8693 10.0251 33.7954 9.94115C33.7215 9.8572 33.6832 9.75487 33.6832 9.63418V8.7054H37.6429V8.28036H33.6778V7.83696H38.5706V9.14355H34.6246V9.46102H34.6218ZM37.0874 3.99063V7.63756H36.1762V7.43553H35.0816V6.99738H36.1762V3.98801H37.0874V3.99063ZM38.5678 7.63756H37.6402V3.99063H38.5678V7.63756ZM45.9864 7.57721V8.0075H43.2965V10.0067H42.3195V8.0075H39.6104V7.57721H45.9837H45.9864ZM44.5279 5.35495C44.5279 5.48876 44.5142 5.64093 44.4868 5.81147C44.4595 5.98201 44.4129 6.13156 44.3473 6.26274H45.3516V6.70615H40.1577V6.26274H41.0498V4.6072H40.2344V4.16379H45.2749V4.6072H44.5306V5.35495H44.5279ZM43.5646 4.60982H42.0076V6.26537H43.4388C43.4579 6.20765 43.4743 6.13681 43.4908 6.05547C43.5072 5.97414 43.5209 5.89018 43.5291 5.80622C43.5373 5.72226 43.5455 5.63831 43.5537 5.5596C43.5592 5.48088 43.5646 5.41267 43.5646 5.35495V4.6072V4.60982ZM53 8.84183H46.6404V8.39843H53V8.84183ZM47.8773 7.16004C47.7268 7.16004 47.6119 7.11807 47.5271 7.03673C47.4422 6.95277 47.4012 6.8452 47.4012 6.71139V4.22676H52.1407V4.67016H48.3371V6.52249C48.3371 6.58021 48.3453 6.62744 48.3644 6.66417C48.3836 6.7009 48.4328 6.71926 48.5122 6.71926H52.2338V7.16267H47.8828L47.8773 7.16004ZM10.3056 12.8088C8.65273 14.3936 5.94635 14.3936 4.29353 12.8088L1.23962 9.88081C-0.413207 8.2961 -0.413207 5.70127 1.23962 4.11657L4.29353 1.18853C5.94635 -0.396177 8.65273 -0.396177 10.3056 1.18853L13.3595 4.11657C15.0123 5.70127 15.0123 8.2961 13.3595 9.88081L10.3056 12.8088Z" fill="#E30413"/>
<path d="M5.48909 11.3002C5.24828 11.3002 5.04851 11.1166 5.03757 10.8857C5.03209 10.7702 5.07588 10.66 5.15797 10.5761C5.24007 10.4921 5.35226 10.4397 5.47267 10.437C5.72169 10.4265 5.93239 10.6128 5.94334 10.8516C5.95429 11.0903 5.76 11.2924 5.51098 11.3029H5.49182L5.48909 11.3002ZM7.13097 3.30847C6.88195 3.30847 6.68492 3.38194 6.52347 3.53673C6.17868 3.86732 5.99533 4.54685 6.01175 5.45465C6.03091 6.57234 6.30729 8.76575 7.22675 9.89656C7.37452 10.0802 7.53597 10.2245 7.70289 10.3321C7.86434 10.4344 8.04495 10.5341 8.32681 10.5341C8.40343 10.5341 8.48552 10.5262 8.57309 10.5105C9.09849 10.3898 9.75798 9.82834 10.2478 9.08059C10.3217 8.96777 10.4503 8.89955 10.5899 8.89955C10.6665 8.89955 10.7404 8.92054 10.8061 8.9599C10.8991 9.015 10.962 9.10158 10.9867 9.20128C11.0113 9.30098 10.9921 9.40855 10.9347 9.49513C10.3162 10.4397 9.49802 11.1035 8.74549 11.2687C8.74001 11.2687 8.73454 11.274 8.72633 11.274C8.58951 11.2976 8.45269 11.3107 8.32407 11.3107C7.83972 11.3107 7.49766 11.1323 7.25685 10.9801C7.01604 10.828 6.79165 10.6233 6.58915 10.3741C5.29753 8.78411 5.20997 5.8036 5.20449 5.47039C5.19081 4.67804 5.30848 3.60233 5.95702 2.98838C6.27172 2.68928 6.66851 2.53711 7.13097 2.53711H7.20759C7.67279 2.53711 8.06958 2.68928 8.38427 2.98838C9.03008 3.60233 9.15049 4.67804 9.1368 5.47039C9.12312 6.29685 8.96441 7.8973 8.06958 9.33246C7.99569 9.45053 7.86434 9.52137 7.72205 9.52137C7.49766 9.52137 7.31705 9.34558 7.31705 9.13044C7.31705 9.0596 7.3362 8.99138 7.37452 8.93366C7.99843 7.92879 8.30218 6.82422 8.32681 5.45727C8.34323 4.54948 8.15988 3.86732 7.81509 3.53936C7.65637 3.38718 7.45661 3.3111 7.21033 3.3111H7.13918L7.13097 3.30847Z" fill="white"/>
</g>
<defs>
<clipPath id="clip0_1160_12936">
<rect width="53" height="14" fill="white"/>
</clipPath>
</defs>
</svg>
