<svg width="49" height="22" viewBox="0 0 49 22" fill="none" xmlns="http://www.w3.org/2000/svg">
<g clip-path="url(#clip0_1160_12982)">
<path d="M48.9963 1.95618C48.9963 1.95618 49.0753 0.91961 48.4313 0.383317C47.9453 -0.0169009 47.2894 -0.108951 46.428 0.139184L25.3676 5.93434C25.2648 5.97036 24.9013 6.0344 24.5022 6.0384C24.1032 6.0384 23.7357 5.97036 23.6369 5.93434L2.57256 0.135182C1.71118 -0.112953 1.05527 -0.0209031 0.569256 0.383317C-0.0748051 0.915608 0.00422077 1.96018 0.00026948 1.95618V20.9585C0.00026948 21.2747 -0.0352922 21.5789 0.178078 21.811C0.375642 21.9991 0.656184 22.0031 1.02761 22.0031H47.965C48.3364 22.0031 48.617 22.0031 48.8146 21.811C49.0319 21.5829 48.9924 21.2747 48.9924 20.9585V1.95618H48.9963Z" fill="#204E8A"/>
<path d="M15.9748 8.80569H17.3815V7.05273H14.2955L10.8263 13.4322L7.3531 7.05273H4.25529V8.80569H5.6659L5.30633 16.754H3.96289V18.515H8.57405V16.754H7.21481L7.44003 10.8468L10.6722 16.5939H10.929L14.1651 10.8468L14.3864 16.754H13.0272V18.515H17.6739V16.754H16.3344L15.9748 8.80569Z" fill="white"/>
<path d="M25.5048 13.6918C25.5048 12.9234 25.3151 12.263 24.92 11.7748C24.3826 11.1104 23.5015 10.7422 22.2173 10.7422C20.1705 10.7422 19.2262 11.7387 19.2262 12.6792C19.2262 13.3036 19.6568 13.7038 20.2219 13.7038C20.7869 13.7038 21.2413 13.2876 21.2413 12.7113C21.2413 12.6072 21.2018 12.4311 21.1702 12.3351C21.344 12.259 21.5772 12.203 21.9051 12.203C22.5769 12.203 23.0747 12.3631 23.3869 12.7593C23.5765 13.0074 23.6793 13.3556 23.6793 13.8079V14.4202C23.2644 14.3121 22.5492 14.2121 21.7708 14.2121C19.9848 14.2121 18.748 15.0806 18.748 16.5053C18.748 17.9301 19.8939 18.6505 21.186 18.6505C22.2015 18.6505 23.1142 18.1943 23.7109 17.674V18.5064H26.623V16.9376H25.5087V13.6878L25.5048 13.6918ZM23.6753 16.5934C23.1103 17.0096 22.4544 17.2737 21.7826 17.2737C21.1109 17.2737 20.6684 16.9416 20.6684 16.3332C20.6684 15.6409 21.2216 15.2206 22.1304 15.2206C22.7112 15.2206 23.2486 15.2927 23.6753 15.3927V16.5934Z" fill="white"/>
<path d="M31.1782 10.7424C28.8588 10.7424 27.3652 12.5594 27.3652 14.7125C27.3652 17.0818 29.0643 18.6507 31.5259 18.6507C32.6244 18.6507 33.5885 18.4226 34.3827 17.9503L34.5329 16.2454C33.6557 16.7457 32.7113 17.0418 31.8025 17.0418C30.546 17.0418 29.5859 16.5255 29.3251 15.3369H34.7621C34.8095 15.0767 34.845 14.6925 34.845 14.4004C34.845 12.3753 33.5885 10.7344 31.1822 10.7344M29.3014 14.0242C29.5068 12.7635 30.3327 12.2792 31.1585 12.2792C32.2609 12.2792 32.9287 12.9796 32.9642 14.0242H29.3014Z" fill="white"/>
<path d="M37.8168 9.7124C38.4886 9.7124 39.0891 9.15209 39.0891 8.45971C39.0891 7.76734 38.5202 7.20703 37.8524 7.20703C37.1846 7.20703 36.5801 7.76333 36.5801 8.45971C36.5801 9.15609 37.1491 9.7124 37.8208 9.7124" fill="white"/>
<path d="M38.9564 10.8828H35.9297V12.4877H37.0795V16.9421H35.9297V18.515H40.0706V16.9421H38.9564V10.8828Z" fill="white"/>
<path d="M44.1128 6.19937H41.0703V7.80425H42.2399V16.9412H41.0703V18.5141H45.231V16.9412H44.1128V6.19937Z" fill="white"/>
</g>
<defs>
<clipPath id="clip0_1160_12982">
<rect width="49" height="22" fill="white"/>
</clipPath>
</defs>
</svg>
