<svg width="54" height="46" viewBox="0 0 54 46" fill="none" xmlns="http://www.w3.org/2000/svg">
<g clip-path="url(#clip0_1160_12714)">
<path d="M40.1619 15.3659C40.1619 11.3735 36.9414 8.13867 32.9667 8.13867C29.0034 8.13867 25.7715 11.3849 25.7715 15.3659C25.7715 19.3582 28.992 22.593 32.9667 22.593C34.4863 22.593 35.8924 22.1203 37.0548 21.3116L35.8357 19.5632C35.0192 20.127 34.0327 20.4574 32.9667 20.4574C30.5796 20.4574 28.5781 18.8001 28.0395 16.5675H39.6459C39.8898 16.5675 40.0939 16.3853 40.1166 16.1461C40.1449 15.8898 40.1562 15.6335 40.1562 15.3716L40.1619 15.3659ZM27.9941 14.3863C28.4477 12.0456 30.5003 10.2744 32.9667 10.2744C35.4331 10.2744 37.4857 12.0456 37.9393 14.3863H27.9941Z" fill="#F3775E"/>
<path d="M40.0019 18.2246C36.0272 18.2246 32.8066 21.4595 32.8066 25.4518C32.8066 29.4441 36.0272 32.679 40.0019 32.679C41.9693 32.679 43.7497 31.8873 45.0481 30.6002C44.8327 33.2086 42.6554 35.2646 40.0019 35.2646C38.573 35.2646 37.2859 34.678 36.3617 33.7895V36.4093C37.4277 37.0415 38.6751 37.406 40.0019 37.406C43.9765 37.406 47.1971 34.1711 47.1971 30.1845V25.4632C47.1971 21.4708 43.9765 18.236 40.0019 18.236V18.2246ZM45.0708 25.4518C45.0708 28.2652 42.8028 30.5433 40.0019 30.5433C37.2009 30.5433 34.9329 28.2652 34.9329 25.4518C34.9329 22.6384 37.2009 20.3603 40.0019 20.3603C42.8028 20.3603 45.0708 22.6384 45.0708 25.4518Z" fill="#FDBF7A"/>
<path d="M17.9354 0H16.7561C16.4953 0 16.2798 0.210722 16.2798 0.478395V7.99604C14.9814 6.69754 13.1897 5.90021 11.2108 5.90021C7.23618 5.90021 4.01562 9.13508 4.01562 13.1274C4.01562 17.1197 7.23618 20.3546 11.2108 20.3546C15.1855 20.3546 18.4061 17.1197 18.4061 13.1274V0.478395C18.4061 0.216417 18.1963 0 17.9298 0H17.9354ZM11.2165 18.2132C8.41554 18.2132 6.14754 15.9351 6.14754 13.1217C6.14754 10.3083 8.41554 8.03021 11.2165 8.03021C14.0175 8.03021 16.2855 10.3083 16.2855 13.1217C16.2855 15.9351 14.0175 18.2132 11.2165 18.2132Z" fill="#F1667C"/>
<path d="M6.50428 23.1054C3.43115 22.3137 2.86415 21.3342 3.33476 20.2008C3.83939 18.9821 7.53055 18.1619 9.07279 20.9184C9.19186 21.1348 9.46402 21.226 9.69082 21.1234L10.8135 20.5995C11.0743 20.4799 11.1707 20.1553 11.0176 19.9161C10.2125 18.629 8.9764 16.8691 5.69914 16.8691C2.80178 16.8691 0.494094 18.8169 0.703884 21.2601C0.868314 23.1338 2.16107 24.3982 5.88625 25.298C9.43567 26.158 9.44134 27.5362 9.16918 28.1627C8.93104 28.7151 8.13724 29.7573 6.2548 29.7573C4.64453 29.7573 3.23837 29.0967 2.17808 27.4793C2.04767 27.2799 1.78685 27.2116 1.57706 27.3198L0.261625 27.9747C0.0121452 28.1 -0.0785746 28.4019 0.0631751 28.6411C0.669864 29.6719 2.47859 32.1095 6.03934 32.1038C8.78929 32.1038 10.0991 30.9761 10.8985 29.8997C11.0176 29.1707 11.2898 28.493 11.681 27.9064C11.8397 26.6421 11.8454 24.4722 6.50428 23.0997V23.1054Z" fill="#5963AD"/>
<path d="M21.5175 12.5684C17.5428 12.5684 14.3223 15.8032 14.3223 19.7955C14.3223 23.7879 17.5428 27.0227 21.5175 27.0227C23.4906 27.0227 25.2824 26.2197 26.5808 24.9269V26.3507C26.5808 26.6127 26.7906 26.8291 27.0571 26.8291H28.2364C28.4972 26.8291 28.7127 26.6184 28.7127 26.3507V19.8012C28.7127 15.8089 25.4921 12.5741 21.5175 12.5741V12.5684ZM26.5865 19.7955V19.8468C26.5581 22.6374 24.3014 24.887 21.5232 24.887C18.7449 24.887 16.4542 22.609 16.4542 19.7955C16.4542 16.9821 18.7222 14.7041 21.5232 14.7041C24.3241 14.7041 26.5921 16.9821 26.5921 19.7955H26.5865Z" fill="#EE3124"/>
<path d="M36.3632 30.8964C36.3632 27.6046 33.704 24.9335 30.4267 24.9335C27.1495 24.9335 24.4902 27.6046 24.4902 30.8964V38.8696C24.4902 39.1316 24.7 39.348 24.9665 39.348H26.1459C26.4067 39.348 26.6222 39.1373 26.6222 38.8696V30.8964C26.6222 28.7835 28.3288 27.0692 30.4324 27.0692C32.5359 27.0692 34.2426 28.7835 34.2426 30.8964V45.5273C34.2426 45.7893 34.4524 46.0057 34.7189 46.0057H35.8983C36.1591 46.0057 36.3745 45.795 36.3745 45.5273V30.8964H36.3632Z" fill="#F79466"/>
<path d="M15.9003 23.5154C11.9256 23.5154 8.70508 26.7503 8.70508 30.7426C8.70508 34.7349 11.9256 37.9698 15.9003 37.9698C17.8791 37.9698 19.6652 37.1668 20.9636 35.874V37.2978C20.9636 37.5597 21.1734 37.7762 21.4399 37.7762H22.6192C22.88 37.7762 23.0955 37.5654 23.0955 37.2978V30.7483C23.0955 26.756 19.875 23.5211 15.9003 23.5211V23.5154ZM20.9636 30.7426V30.7939C20.9352 33.5845 18.6786 35.8341 15.9003 35.8341C13.122 35.8341 10.8313 33.556 10.8313 30.7426C10.8313 27.9292 13.0993 25.6511 15.9003 25.6511C18.7013 25.6511 20.9693 27.9292 20.9693 30.7426H20.9636Z" fill="#74489D"/>
</g>
<defs>
<clipPath id="clip0_1160_12714">
<rect width="128" height="46" fill="white"/>
</clipPath>
</defs>
</svg>
