<svg width="46" height="43" viewBox="0 0 46 43" fill="none" xmlns="http://www.w3.org/2000/svg">
<g clip-path="url(#clip0_1160_12735)">
<path d="M45.3257 22.699C45.1624 22.5072 44.9908 22.3751 44.8694 22.2813C44.3128 21.804 43.2998 21.7486 42.718 21.7784C42.4502 21.7997 42.2451 21.7997 42.0525 21.7997C41.68 21.7997 41.3535 21.8083 40.9308 21.8765C40.529 21.9404 39.9639 22.0384 39.3737 22.1364L38.1557 22.341C37.1888 22.5072 36.5233 22.5754 35.5983 22.6692C34.7319 22.7587 34.3175 22.7289 33.7106 22.6862C33.4804 22.6692 33.2083 22.6521 32.9069 22.6394C33.0074 22.3453 33.1371 21.9063 33.1371 21.5696C33.1371 21.5355 33.1371 21.5014 33.1371 21.4673C33.1371 21.3991 33.1371 21.3352 33.1371 21.267C33.3046 20.8408 33.3506 20.4401 33.292 20.0608C33.5139 20.0992 33.7399 20.1077 33.9073 20.0821C34.0412 20.1631 34.2129 20.2441 34.4221 20.2995C34.5937 20.3421 34.757 20.3634 34.9579 20.3762C35.4434 20.6021 35.9373 20.6575 36.3685 20.6319H36.5652C36.7452 20.6319 36.9377 20.6234 37.0884 20.5978C37.2098 20.5978 37.3353 20.5893 37.5697 20.5552L37.7706 20.5296C37.7706 20.5296 37.9255 20.5083 37.9339 20.5041C37.9925 20.4955 38.0553 20.4828 38.0511 20.4742C38.2938 20.4913 38.524 20.487 38.7752 20.4487L39.2021 20.4316C39.2691 20.4273 39.3319 20.4188 39.3947 20.406C39.4826 20.389 39.5663 20.3719 39.7044 20.3549C39.8467 20.3336 39.9932 20.3165 40.1355 20.2995L40.349 20.2739C40.6127 20.2398 40.7173 20.2057 40.8554 20.1588L41.0061 20.1247C41.4456 20.0523 41.9186 19.8988 42.4585 19.2212C42.6385 18.991 42.9357 18.6032 43.0487 18.0534C43.1575 17.5291 43.0403 17.0006 42.7222 16.6C42.6636 16.5276 42.5841 16.4423 42.4795 16.3528C42.4502 16.2804 42.4125 16.2079 42.3706 16.1354C42.2493 15.8627 42.0902 15.6709 41.9521 15.543C41.7888 15.1893 41.454 14.665 40.7968 14.5585C40.755 14.5372 40.7131 14.5201 40.6671 14.5031C40.4452 14.4178 40.1523 14.3113 39.809 14.2687C39.3905 14.0428 38.9677 14.0428 38.817 14.0428C38.7208 14.0428 38.6203 14.047 38.5366 14.0641C37.825 13.9788 37.486 14.0257 37.0926 14.0811C36.9795 14.0939 36.8582 14.1152 36.6949 14.1237C36.1885 14.1493 35.7741 14.2687 35.4392 14.3624C35.2676 14.4093 35.1002 14.4647 34.8909 14.486C34.2003 14.5542 33.4678 14.7503 32.5763 15.1125C32.5595 15.1168 32.547 15.1296 32.5344 15.1381C32.5051 15.0912 32.48 15.0486 32.4465 15.006C32.4674 14.9975 32.4926 14.9932 32.5135 14.9847C32.5805 14.9549 32.8023 14.8696 32.773 14.8653C33.3004 14.7503 34.0203 14.3667 34.0371 14.3624C34.1124 14.3241 34.2631 14.2516 34.3845 14.2047C35.2551 13.8723 36.0001 13.3694 36.7033 12.8494C36.7033 12.8494 36.7075 12.8494 36.7117 12.8451C36.854 12.7812 37.08 12.6789 37.3102 12.4871C37.5279 12.3166 37.6744 12.1334 37.7162 12.0396C37.9757 11.9203 38.1557 11.7668 38.2729 11.656C38.4906 11.5111 38.6287 11.3491 38.7082 11.2554C38.7375 11.2255 38.8129 11.1318 38.838 11.0977C39.2482 10.582 39.3737 10.1217 39.3612 9.73382C39.9053 9.03058 39.7797 8.26767 39.4826 7.80737C39.1477 7.26182 38.5324 6.95921 37.8962 7.00184C37.7204 6.96774 37.5907 6.96774 37.5404 6.98052C36.9461 6.8484 36.0796 6.98052 35.7281 7.06577C35.682 7.07855 35.636 7.09134 35.5899 7.10412L35.4309 7.15953C35.3723 7.18084 35.3137 7.20215 35.2802 7.21494C35.1881 7.23625 35.1044 7.26608 35.0039 7.30018C34.8533 7.32149 34.6816 7.36411 34.5058 7.44935C34.4179 7.45788 34.3301 7.47492 34.238 7.49623C33.6645 7.63688 33.2669 7.96506 33.0074 8.18669L32.6181 8.40832C32.254 8.62142 31.9149 8.86436 31.5299 9.1627C31.3666 9.29909 31.195 9.43974 31.0402 9.54629C30.9271 9.61022 30.7137 9.72956 30.4667 9.98102C30.4081 10.045 30.3495 10.1131 30.2156 10.2581C30.0147 10.4158 29.8096 10.5777 29.638 10.7908C29.5836 10.8462 29.4998 10.9485 29.4119 11.0764C29.232 10.8931 29.0311 10.7397 28.805 10.6033C28.8678 10.5138 28.9306 10.4243 28.9641 10.3603C29.1566 10.0833 29.2529 9.81906 29.324 9.58039C29.3324 9.57186 29.3868 9.49941 29.4203 9.45252C29.797 9.12434 29.9937 8.74502 30.1319 8.48503C30.157 8.43815 30.1821 8.38274 30.2114 8.34012C30.2114 8.34012 30.203 8.34865 30.1947 8.36143C30.2072 8.34439 30.2198 8.3316 30.2281 8.31455C30.27 8.27193 30.3579 8.15259 30.3914 8.10145C30.5044 7.93949 30.6132 7.78606 30.7095 7.61557C30.8016 7.45788 30.923 7.23625 31.036 7.01888C31.0987 6.89102 31.1615 6.76742 31.2285 6.65661C31.2913 6.54579 31.3708 6.43498 31.4378 6.34121C31.4671 6.29433 31.5089 6.23466 31.5382 6.18352C31.5634 6.15368 31.6052 6.09401 31.6261 6.06418C31.6345 6.05566 31.6429 6.03861 31.6554 6.02156C31.6889 5.97894 31.7182 5.93206 31.7475 5.88517C31.781 5.83403 31.8103 5.78288 31.8396 5.73174C31.894 5.63797 31.9317 5.55699 31.9568 5.49306H31.9694C31.9694 5.49306 32.0614 5.33537 32.074 5.30979L32.1619 5.1521C32.2247 5.04555 32.2875 4.92621 32.3503 4.80261C32.3628 4.77704 32.4214 4.66622 32.4298 4.64065C32.5051 4.47443 32.5721 4.30395 32.6307 4.11215C32.6474 4.04822 32.6642 3.98003 32.6767 3.9161C32.7018 3.75414 32.7521 3.46006 32.7102 3.18728C32.6684 2.77813 32.5302 2.40306 32.3084 2.09619C32.1912 1.9385 31.9819 1.76802 31.8187 1.66573C31.668 1.57196 31.3583 1.38017 30.902 1.34181C30.6969 1.26083 30.3746 1.20116 30.1947 1.20542C29.4454 0.74512 28.3697 0.898554 27.7879 1.43557C27.5577 1.63163 27.3945 1.84473 27.2982 2.00243C26.8336 2.38602 26.5866 2.84632 26.4109 3.17876C26.3648 3.26826 26.3271 3.3535 26.3355 3.3535C26.0802 3.63054 25.963 3.94167 25.8793 4.19313C25.7746 4.38066 25.716 4.55541 25.6867 4.69606C25.6323 4.81539 25.6072 4.90916 25.603 4.94326C25.4105 5.21603 25.2724 5.55273 25.0715 6.0727C25.0129 6.21335 24.9668 6.34974 24.8873 6.51596C24.8078 6.69497 24.7701 6.86971 24.7408 7.02741C24.6194 7.28313 24.5231 7.61983 24.5315 8.02473C24.5315 8.07161 24.5315 8.12702 24.5315 8.18669C24.4813 8.30603 24.4101 8.48503 24.3725 8.71092C24.3557 8.78764 24.3557 8.86436 24.3515 8.94108C24.205 8.89419 24.0543 8.86436 23.8744 8.87714C23.7195 8.84731 23.5563 8.83452 23.3972 8.85157L23.1335 8.83452C23.0582 8.83026 22.9619 8.83452 22.8656 8.83452C22.8656 8.76207 22.8866 8.69388 22.874 8.62142C22.8531 8.4893 22.828 8.27193 22.8028 8.0844L22.7652 7.78606C22.7401 7.59426 22.6982 7.40247 22.6605 7.21068C22.627 7.05298 22.5894 6.89955 22.5768 6.71628C22.5517 6.34548 22.5015 5.9832 22.4596 5.69764C22.3968 5.11374 22.1917 3.64759 21.6392 2.60338C21.5388 2.40733 21.4718 2.22832 21.4048 2.05784C21.2751 1.72539 21.1412 1.40148 20.9361 1.05199C20.2831 -0.0817216 18.68 -0.34597 17.4369 0.489395C17.1606 0.676926 16.9806 0.898554 16.8593 1.10313C16.2565 1.41853 16.0138 1.90014 15.9301 2.24111C15.8505 2.51814 15.8547 2.76108 15.8756 2.9273C15.8756 2.99975 15.8798 3.05942 15.8882 3.11909C15.771 3.33646 15.7333 3.52399 15.725 3.60923C15.6957 3.77119 15.6664 3.99708 15.6998 4.26985C15.6998 4.35509 15.6998 4.4659 15.7124 4.59377C15.7124 4.62786 15.7166 4.6577 15.7208 4.67475C15.7459 4.97735 15.8505 5.24586 16.0765 5.71895C16.0849 5.7701 16.0933 5.82977 16.0975 5.84681C16.1393 6.08123 16.2021 6.30712 16.2523 6.4776C16.3193 6.74611 16.4449 6.99757 16.6165 7.32575C16.6249 7.47066 16.65 7.61557 16.6918 7.73065L16.8174 8.13981C16.9137 8.4211 17.0727 8.65125 17.2904 8.83879C17.3699 8.99648 17.4745 9.13713 17.6001 9.26499C17.6629 9.41417 17.755 9.5676 17.8889 9.71677C17.914 9.77218 17.9433 9.83185 17.9768 9.89152C18.0019 9.95119 18.048 9.98954 18.0815 10.0407C18.027 10.0748 17.9643 10.1046 17.914 10.1387C17.6169 10.3177 17.3197 10.5138 17.0309 10.7354C17.0099 10.7525 16.989 10.7695 16.9639 10.7908C16.809 10.5394 16.6207 10.3177 16.4407 10.1302C16.3779 10.0279 16.2858 9.87021 16.1603 9.7253C16.0682 9.52072 15.8966 9.17549 15.4654 8.81321C15.3273 8.68109 15.1348 8.50634 14.8753 8.34865C14.7664 8.28472 14.6367 8.16112 14.486 8.01621C14.3102 7.84999 14.126 7.6795 13.9796 7.56869C13.674 7.31297 13.3852 7.04019 13.0922 6.77168L12.8955 6.58415C12.8494 6.54153 12.8034 6.50317 12.7532 6.46908C12.682 6.39662 12.5732 6.29007 12.4183 6.17926C12.276 6.05992 12.1169 5.9491 11.9579 5.83829L11.6565 5.62519C11.5393 5.54421 11.3259 5.3993 11.0161 5.30553C10.518 4.97735 9.85253 4.83244 9.27491 5.03276C9.17027 5.07112 9.06981 5.11374 8.98192 5.16488C8.49638 5.17341 8.13223 5.37799 7.86017 5.52716C7.1821 5.95763 7.06071 6.74185 7.0356 7.0061C7.01886 7.27887 7.06071 7.50476 7.10257 7.67098C6.88073 8.19948 6.93933 8.77059 6.97282 9.09025C6.97282 9.68694 7.29092 10.2708 7.30767 10.2964C7.33278 10.339 7.35789 10.3817 7.38301 10.4243C7.68019 10.8633 8.03178 11.1659 8.3164 11.4088C8.42104 11.4983 8.52568 11.5878 8.63451 11.6986C8.87309 11.9288 10.2334 12.9389 10.5515 13.0753C10.7566 13.1733 10.9408 13.2245 11.0873 13.25C11.1794 13.3054 11.2756 13.3608 11.3803 13.4162L11.5142 13.4759C11.5979 13.5398 11.7402 13.6464 11.916 13.7316C12.0123 13.8041 12.1086 13.868 12.1923 13.9192C12.4392 14.0641 13.1843 14.4264 13.7033 14.5713C13.7159 14.5755 13.7452 14.5841 13.7661 14.5926C13.72 14.6821 13.6824 14.7758 13.6405 14.8696C13.6112 14.8568 13.5945 14.8313 13.561 14.8185C12.6862 14.469 11.9579 14.2218 11.2338 14.1493C11.0454 14.1323 10.878 14.0769 10.7022 14.0257C10.3674 13.932 9.95298 13.8126 9.42559 13.787C9.26235 13.7785 9.14097 13.7615 9.02796 13.7444C8.63869 13.6933 8.29966 13.6634 7.60485 13.7189L7.32022 13.7103C7.16117 13.7103 6.71749 13.7103 6.31149 13.9405C5.9599 13.9874 5.6669 14.0982 5.36972 14.226C4.70421 14.3539 4.37355 14.8227 4.19356 15.1978C4.03032 15.3427 3.85871 15.5473 3.74989 15.8371C3.72059 15.8925 3.69129 15.9522 3.67036 16.0161C3.56153 16.1013 3.47782 16.1951 3.41922 16.2676C3.10112 16.6639 2.97973 17.1924 3.09274 17.755C3.20994 18.2793 3.49456 18.6501 3.73733 18.9697C4.21031 19.5707 4.6791 19.7241 5.11859 19.8008L5.28183 19.8392C5.41995 19.8861 5.52878 19.9202 5.8134 19.9585L6.03105 19.9841C6.17336 20.0011 6.31149 20.0139 6.55007 20.0523L6.71749 20.0779C6.77191 20.0906 6.83051 20.0992 6.88492 20.1034C7.00212 20.1162 7.11931 20.1205 7.23651 20.1247H7.29511C7.49183 20.1503 7.66763 20.1631 7.84761 20.1631C7.88947 20.1631 8.00667 20.1588 8.04852 20.1546C8.09456 20.1546 8.15735 20.1674 8.26199 20.1887C8.16572 20.227 8.06945 20.2654 7.969 20.308C7.71367 20.4103 7.42905 20.5296 7.07746 20.6618C6.81795 20.7555 6.57937 20.8791 6.34079 21.007C6.24452 21.0624 6.14406 21.1178 6.04361 21.1562C5.67109 21.3053 5.46599 21.4545 5.28601 21.5909L5.16881 21.6719C5.12277 21.6974 1.20084 24.0799 0.40976 26.1215L0.393018 26.1129C-0.000431042 27.0165 -0.0632154 27.7752 0.200479 28.44C0.413946 28.9685 0.824137 29.3777 1.35153 29.5951C1.50221 29.659 1.62359 29.7229 1.74079 29.7868C2.11331 29.9872 2.61558 30.2557 3.41504 30.2898C4.00102 30.3835 4.72095 30.375 5.47436 30.2898C3.1932 31.0015 2.31003 32.5828 2.31003 34.0958C2.31003 36.1501 3.67873 37.2156 5.10184 37.889C4.62887 37.6504 3.64943 37.7058 3.20576 37.9828C2.75789 38.2641 2.48164 38.7628 2.48164 39.2955V41.06C2.48164 41.8059 3.00485 42.4452 3.72477 42.5773L4.10148 42.6455C4.64561 42.7435 6.08965 43.0035 7.53369 43.0035C9.33351 43.0035 10.6478 42.7222 11.6314 42.3088C11.9035 42.556 12.2593 42.7009 12.6318 42.7009H14.7371C15.3315 42.7009 15.8673 42.3472 16.1142 41.7974L16.9597 39.905H18.3284L19.1739 41.7974C19.4209 42.3472 19.9566 42.7009 20.551 42.7009H23.6316C23.686 42.7009 23.7362 42.6839 23.7907 42.6796C23.799 42.6796 23.8074 42.6881 23.8158 42.6881C24.3306 42.718 24.8789 42.7308 25.4607 42.7308C26.3397 42.7308 27.0973 42.654 27.7335 42.5006C28.4744 42.3429 29.1524 42.0616 29.7259 41.6738C30.2407 41.3413 30.6258 40.9151 30.9188 40.4378C31.1448 40.7148 31.3792 40.9918 31.6638 41.2348C32.9781 42.36 34.7486 42.9268 36.921 42.9268C39.0933 42.9268 40.8596 42.3685 42.1697 41.2646C43.5719 40.084 44.2835 38.4644 44.2835 36.4485C44.2835 34.4325 43.5719 32.8172 42.1739 31.6366C41.3535 30.9376 40.3364 30.4816 39.1686 30.2216C40.0016 29.9105 40.7508 29.5013 41.1903 28.9472C41.2489 28.8662 41.3033 28.7853 41.3493 28.6958C41.973 28.4741 42.6636 28.1417 43.4798 27.5024C43.6598 27.3788 43.957 27.1657 44.2709 26.8162C44.5597 26.5178 44.7188 26.1044 44.723 25.6867C44.7816 25.6654 44.836 25.6441 44.8904 25.6228C45.0871 25.5376 45.4638 25.333 45.7401 24.9622C45.7987 24.8812 45.8489 24.796 45.8907 24.7065C46.167 24.1226 46.1042 23.2829 45.3675 22.7118L45.3257 22.699Z" fill="white"/>
<path d="M42.7309 36.4426C42.7309 37.9812 42.2119 39.1916 41.1655 40.0739C40.1274 40.9476 38.696 41.3866 36.8794 41.3866C35.0628 41.3866 33.6397 40.9476 32.5975 40.0526C31.5595 39.1575 31.0488 37.9556 31.0488 36.4426C31.0488 34.9296 31.5637 33.7149 32.5975 32.8241C33.6397 31.9376 35.0628 31.4943 36.8794 31.4943C38.696 31.4943 40.1274 31.9291 41.1655 32.8156C42.2119 33.6978 42.7309 34.8997 42.7309 36.4426ZM39.6042 36.4383C39.6042 35.8715 39.5289 35.3899 39.3866 34.9892C39.2359 34.5929 39.0392 34.2647 38.7922 34.0132C38.5285 33.7532 38.2314 33.5657 37.9091 33.4506C37.5826 33.3398 37.2435 33.2844 36.8878 33.2844C36.5111 33.2844 36.1804 33.3398 35.8749 33.4464C35.5777 33.5487 35.2805 33.7362 35.0001 34.0047C34.7573 34.2476 34.5522 34.5758 34.3973 34.985C34.2383 35.3941 34.1671 35.88 34.1671 36.4426C34.1671 37.0052 34.2341 37.5124 34.3848 37.8917C34.5271 38.2796 34.728 38.5949 34.9791 38.8592C35.2386 39.1234 35.5316 39.3152 35.8581 39.426C36.1888 39.5369 36.5278 39.5923 36.8794 39.5923C37.231 39.5923 37.5826 39.5369 37.9174 39.4133C38.2481 39.2897 38.5411 39.1064 38.788 38.8464C39.0392 38.5694 39.2443 38.254 39.3824 37.8874C39.5247 37.5166 39.5959 37.035 39.5959 36.4426L39.6042 36.4383Z" fill="#002F6A"/>
<path d="M27.2684 31.8281H25.8872V32.2288C26.8708 32.3055 26.8499 33.2474 26.8499 33.8441V37.9144C26.8499 38.055 26.8373 38.1786 26.8331 38.2979C26.8248 38.5665 26.7452 38.8009 26.6197 39.0097C26.4941 39.21 26.2806 39.3762 25.9918 39.4913C25.6904 39.5979 25.2677 39.6618 24.7068 39.6618C24.2799 39.6618 24.1711 39.6746 23.8948 39.6064L23.8613 41.145C24.3469 41.1748 24.8701 41.1876 25.4184 41.1876C26.1634 41.1876 26.8206 41.1237 27.3856 40.9873C27.9591 40.868 28.4571 40.6506 28.8757 40.3693C29.2482 40.1306 29.5287 39.828 29.7086 39.4743C29.8928 39.1205 29.9849 38.7497 29.9849 38.3406V31.8281H27.2684Z" fill="#002F6A"/>
<path d="M9.29985 35.441C8.04417 35.0276 6.95172 34.6696 6.95172 33.8811C6.95172 32.8582 8.11532 32.7815 8.46692 32.7815C9.71423 32.7815 10.6016 32.9477 11.1332 33.2674L11.535 33.5103V31.7245L11.2629 31.6904C10.7481 31.6137 9.54262 31.4432 8.26601 31.4432C5.46164 31.4432 3.7832 32.432 3.7832 34.0942C3.7832 35.8757 5.59976 36.5236 7.19867 37.0947C8.42087 37.5294 9.56773 37.9386 9.56773 38.7356C9.56773 40.0099 8.15718 40.1463 7.54608 40.1463C6.11878 40.1463 4.81705 39.7457 4.33152 39.49L3.95481 39.2939V41.0584L4.30222 41.1223C4.81287 41.2161 6.16482 41.4591 7.49585 41.4591C10.8485 41.4591 12.8493 40.3594 12.8493 38.5182C12.8493 36.677 10.9699 35.9823 9.30404 35.4367L9.29985 35.441Z" fill="#002F6A"/>
<path d="M20.0774 33.1523C19.6086 32.091 19.303 31.2088 17.9343 31.2599C17.1516 31.2812 16.8042 31.6947 16.3815 32.5343L12.5977 41.1607H14.703L15.9503 38.3648H19.2695L20.5169 41.1607H23.5975C23.5975 41.1607 20.0983 33.1992 20.0774 33.1523ZM16.5447 36.9455L17.5325 34.3926L18.604 36.9072L16.5447 36.9455Z" fill="#002F6A"/>
<path d="M44.2204 23.779C44.1744 23.6597 43.9944 23.5532 43.8939 23.4637C43.8019 23.3869 42.9564 23.3017 42.835 23.3145C42.1109 23.3699 41.7635 23.306 41.1607 23.404C40.4868 23.5105 39.3484 23.7109 38.4066 23.8685C37.3937 24.0433 36.6989 24.1157 35.7487 24.2138C34.3675 24.3544 33.9949 24.2308 32.6053 24.1754C32.0779 24.1541 31.1069 23.9964 29.9642 23.7151C28.9513 23.4679 28.4406 23.3401 26.7873 22.6581C26.5822 22.5771 25.247 22.1339 25.0084 22.0103C24.841 21.925 24.4894 21.8995 24.3136 21.8185C23.5267 21.4477 22.744 21.307 21.9362 21.0215C21.1744 20.753 20.9651 20.7445 19.8182 20.5868C19.5252 20.5441 19.3118 20.4674 18.8346 20.4461C18.6002 20.4333 18.3072 20.3907 18.077 20.3694C17.8929 20.3694 16.8213 20.3609 16.6079 20.3055C15.7666 20.2756 15.0759 20.2415 14.0002 20.3651C13.5817 20.412 13.5105 20.5868 12.9413 20.6038C12.3846 20.6123 11.8195 20.7743 11.2754 20.8936C9.2328 21.3326 9.00259 21.567 7.54599 22.1126C7.19022 22.2404 6.90141 22.4535 6.55819 22.5899C6.19822 22.7348 6.20659 22.8243 5.87175 23.0119C3.59058 24.3118 1.66519 26.4258 1.74053 26.7369C1.47266 27.3549 1.3722 27.9559 1.88285 28.1647C2.5358 28.4332 2.80787 28.7614 3.52361 28.7486C4.29795 28.8935 5.41551 28.8083 6.48703 28.5526C8.52124 28.0752 9.65973 26.8094 17.3111 26.7582C19.6466 26.754 21.9822 27.1248 24.0918 27.6106C25.0461 27.8962 25.6781 27.9942 26.3394 28.1562C26.8333 28.3181 27.3984 28.5014 27.457 28.5142C29.5749 29.1876 29.8679 29.1535 30.3618 29.2174C32.3374 29.4902 32.9067 29.7246 34.6521 29.584C37.5318 29.341 39.4656 28.6122 39.9595 27.9942C40.1478 27.7513 38.9298 28.0539 38.9298 28.0539C38.9298 28.0539 37.7536 28.3906 36.5942 28.4588C35.5269 28.5185 34.4763 28.2329 34.4763 28.2329C36.205 28.1519 38.9465 27.7811 40.3864 27.372C41.031 27.1802 41.6672 26.9372 42.4666 26.3107C42.6299 26.1871 42.8559 26.055 43.1489 25.7353C43.3121 25.5649 42.5001 25.7524 42.3453 25.6373C42.0272 25.3645 42.8685 25.2836 42.4457 25.1685C42.2239 25.1003 41.4119 25.2537 41.1942 25.2793C40.897 25.3134 40.6166 25.3901 40.3152 25.3901C40.2064 25.3944 40.0515 25.5649 40.0348 25.4029C40.0222 25.1557 40.491 25.177 40.6417 25.1088C40.7882 25.0364 41.1775 24.9596 41.3323 24.8446C41.8932 24.7551 42.0146 24.7551 42.6006 24.5888C42.8894 24.6101 43.1447 24.4056 43.4419 24.4013C43.5633 24.397 44.1451 24.2649 44.2497 24.2053C44.3251 24.1712 44.4297 24.1072 44.4799 24.039C44.5218 23.9453 44.2539 23.8771 44.2162 23.779H44.2204Z" fill="#002F6A"/>
<path d="M21.2458 7.99596C21.1914 7.60385 21.0742 7.22026 21.0533 6.83241C21.0282 6.49997 20.9821 6.17606 20.9361 5.86492C20.911 5.63904 20.7519 4.21124 20.2831 3.32473C19.9943 2.77066 19.9148 2.35298 19.6092 1.82875C19.3372 1.3514 18.68 1.48352 18.2573 1.76482C18.002 1.93956 18.1526 2.13562 17.9266 2.30184C17.7424 2.44248 17.4285 2.38708 17.3574 2.6769C17.3364 2.74083 17.3825 2.80476 17.3657 2.86869C17.3574 2.93262 17.3825 2.98377 17.395 3.0477C17.4118 3.09458 17.4076 3.14573 17.4202 3.17556C17.4285 3.20539 17.4495 3.23097 17.462 3.2608C17.5499 3.3844 17.6001 3.53357 17.5332 3.66144C17.529 3.68275 17.5164 3.71684 17.4913 3.72537C17.4746 3.72537 17.4495 3.72537 17.4285 3.72537C17.3783 3.73389 17.3448 3.7552 17.303 3.77651C17.2402 3.80635 17.1899 3.81913 17.1816 3.88733C17.1648 3.97683 17.1606 4.04502 17.1858 4.13026C17.2067 4.22403 17.1732 4.30927 17.1858 4.39877C17.1858 4.44139 17.1983 4.48401 17.1983 4.52664C17.2109 4.64597 17.4411 5.10202 17.4913 5.20857C17.5332 5.31512 17.5332 5.44724 17.5541 5.54953C17.5876 5.73706 17.6378 5.91181 17.688 6.09081C17.7299 6.2613 17.9894 6.70029 18.0396 6.82389C18.0731 6.89208 18.1233 6.97306 18.1108 7.04552C18.094 7.11371 18.0606 7.15207 18.094 7.23305C18.1359 7.36517 18.1694 7.49304 18.207 7.61664C18.2489 7.74024 18.5126 7.72745 18.5503 7.85531C18.567 7.94908 18.5503 8.1153 18.6465 8.18349C18.8391 8.30709 18.7303 8.07694 18.8977 8.35397C18.9563 8.44774 18.9186 8.52446 18.9898 8.60117C18.8516 8.66937 19.1195 8.72051 19.199 8.84411C19.2325 8.93361 19.199 9.04869 19.2576 9.11688C19.3037 9.18934 19.3372 9.33425 19.4167 9.36408C19.9399 9.18081 20.7896 8.95492 21.3463 8.8569C21.3128 8.63527 21.2626 8.18775 21.2333 7.9917L21.2458 7.99596Z" fill="#D1232A"/>
<path d="M27.7042 9.48004C27.834 9.30956 27.8465 9.16039 27.9177 8.93876C27.9595 8.80664 28.0433 8.71713 28.1186 8.62337C28.1981 8.51682 28.2902 8.38469 28.3781 8.30797C28.6795 8.08635 28.7799 7.66867 28.9934 7.39589C29.0311 7.35327 29.0645 7.30213 29.098 7.26377C29.1985 7.11886 29.2989 6.98673 29.3868 6.8333C29.4915 6.70118 29.818 5.98515 29.9184 5.84876C30.0063 5.70385 30.1026 5.55894 30.1947 5.42682C30.2365 5.3501 30.2867 5.27765 30.3412 5.20945C30.3621 5.17536 30.3872 5.14552 30.4123 5.09864C30.4249 5.08159 30.4542 5.07307 30.4542 5.03897C30.4709 5.02192 30.4709 5.0134 30.4751 5.00487C30.4751 4.99635 30.4793 4.98356 30.4877 4.97504C30.5128 4.9452 30.5253 4.91537 30.5379 4.87701C30.5714 4.81734 30.609 4.75341 30.6425 4.70227C30.7053 4.5744 30.7723 4.47638 30.8392 4.35278C30.902 4.25049 30.9606 4.12689 31.0234 4.00329C31.0695 3.89247 31.1197 3.78592 31.1532 3.65806C31.1699 3.56429 31.1908 3.44069 31.1741 3.32988C31.1657 3.2148 31.1322 3.10399 31.0653 3.01449C30.9899 2.97187 30.8602 2.87384 30.7765 2.87384C30.7472 2.87384 30.7053 2.90367 30.676 2.90367C30.6342 2.90367 30.6007 2.88663 30.5672 2.88236C30.4793 2.85253 30.3956 2.81843 30.3119 2.77155C30.1821 2.71188 30.0984 2.75876 29.9812 2.80991C29.8891 2.86532 29.5626 2.67778 29.4496 2.56697C29.211 2.36239 28.8971 2.46042 28.7255 2.61812C28.5246 2.78434 28.4032 3.0358 28.219 3.19776C27.8423 3.50889 27.7084 4.02034 27.4154 4.39966C27.3066 4.519 27.2689 4.83013 27.1685 4.95373C27.1015 5.05176 27.135 5.20093 27.0638 5.28617C26.9968 5.3842 26.9675 5.51206 26.9215 5.62287C26.8755 5.70385 26.8462 5.78483 26.7918 5.85729C26.6327 6.07891 26.3606 6.90576 26.2351 7.14869C26.189 7.25098 26.189 7.52802 26.1262 7.61752C26.0342 7.73686 26.009 7.89882 26.0132 8.04373C26.0132 8.15454 26.0007 8.11618 26.0342 8.227C26.0802 8.35486 25.9965 8.55944 25.9504 8.67025C25.9086 8.78533 25.8374 8.89188 25.8291 9.01548C25.8123 9.09646 25.7998 9.0581 25.8165 9.10924C26.2937 9.25415 27.0513 9.54824 27.4991 9.76134C27.6079 9.68888 27.6205 9.57381 27.6958 9.48431L27.7042 9.48004Z" fill="#D1232A"/>
<path d="M14.7553 12.7734C14.7804 12.735 14.7762 12.7435 14.7971 12.7606C14.8599 12.6753 14.9185 12.5858 14.9897 12.5048C14.998 12.4793 15.0106 12.4665 15.0315 12.4537C15.2324 12.2108 15.5087 11.9849 15.7263 11.759C15.7347 11.6141 15.3999 11.2731 15.312 11.1879C15.1655 11.0387 15.0943 10.8299 14.9394 10.6807C14.7929 10.5315 14.7553 10.2417 14.5837 10.0968C14.4288 9.96465 14.2656 9.78565 14.0939 9.68336C13.6628 9.43189 13.3824 9.05683 12.9931 8.76275C12.5997 8.43457 12.2272 8.07656 11.8505 7.72707C11.7123 7.64609 11.637 7.5097 11.4905 7.42446C11.298 7.25398 11.0677 7.11333 10.8459 6.95563C10.7413 6.88744 10.6492 6.81072 10.5362 6.78089C10.419 6.75532 10.3101 6.70843 10.2139 6.64024C10.1302 6.56352 9.84554 6.44418 9.74927 6.49107C9.67812 6.51664 9.63626 6.54221 9.58185 6.59762C9.53999 6.64024 9.49814 6.69565 9.4228 6.72122C9.28467 6.78089 9.16329 6.71696 9.0126 6.70843C8.87866 6.69991 8.74054 6.78089 8.62753 6.84056C8.56056 6.88318 8.52289 7.05366 8.5187 7.11333C8.51452 7.19431 8.53126 7.2625 8.55219 7.32217C8.6066 7.50544 8.72798 7.65887 8.87866 7.79526C8.95819 7.87198 9.0419 7.94017 9.11724 8.01263C9.33908 8.21294 8.3722 7.86772 8.59823 8.08082C8.61497 8.11491 8.58567 8.17458 8.53544 8.20016C8.32616 8.34933 8.47266 8.86078 8.4601 9.09519C8.4601 9.206 8.548 9.45747 8.59823 9.55123C8.87866 9.96465 9.28886 10.2246 9.653 10.5869C9.83717 10.7659 11.0468 11.6311 11.1724 11.6865C11.3775 11.7888 11.5323 11.7249 11.7165 11.8442C11.8086 11.9167 11.9007 11.9763 12.0137 12.0318C12.1142 12.0829 12.2188 12.117 12.3109 12.1852C12.403 12.2491 12.4909 12.3301 12.5871 12.3642C12.6792 12.3983 12.8173 12.5304 12.9094 12.5816C13.2108 12.7563 13.9265 13.0674 14.1233 13.1015C14.2153 13.1271 14.3869 13.2337 14.479 13.191C14.5418 13.0887 14.6088 12.9907 14.6799 12.9012C14.6799 12.8586 14.726 12.8373 14.7553 12.7691V12.7734Z" fill="#D1232A"/>
<path d="M12.9757 16.2564C12.2139 15.9537 11.5986 15.7406 11.0671 15.6895C10.4602 15.6341 9.97881 15.3656 9.32586 15.3315C8.69801 15.3059 8.53477 15.1738 7.74369 15.2676C7.55115 15.2889 7.12422 15.2079 6.97772 15.3187C6.85215 15.4082 6.72658 15.4508 6.58846 15.4636C6.35825 15.4764 6.16989 15.5403 5.94806 15.6298C5.84342 15.681 5.72203 15.7321 5.61321 15.7449C5.51275 15.762 5.42904 16.1796 5.34951 16.2393C5.21976 16.3331 5.1486 16.316 5.09 16.4908C5.03978 16.6229 4.95188 16.6442 5.02303 16.7209C5.24069 16.9298 5.34114 17.0747 5.36207 16.934C5.37463 16.8744 5.60484 16.9852 5.71785 17.015C5.80993 17.0363 6.0527 17.0789 5.98154 17.2025C5.93131 17.2835 5.73878 17.3048 5.66343 17.3176C5.55879 17.3347 5.44997 17.3304 5.34533 17.292C4.99792 17.1556 5.34533 17.1812 4.98955 17.194C4.88072 17.194 4.45379 17.096 4.52076 17.4199C4.57099 17.6458 4.75515 17.8589 4.87654 18.0166C5.11093 18.3149 5.20302 18.2467 5.53368 18.332C5.7304 18.3831 5.73878 18.4087 5.94806 18.4343C6.17408 18.4598 6.40848 18.4812 6.63868 18.5195C6.76007 18.5366 6.87726 18.5493 6.99446 18.5749C7.15352 18.592 7.30838 18.5877 7.46744 18.6048C7.63486 18.6303 7.78136 18.6388 7.93623 18.6261C8.12877 18.609 8.35479 18.6602 8.53896 18.69C8.63941 18.707 8.73987 18.7156 8.83614 18.7369C8.97845 18.7582 9.11657 18.7369 9.24633 18.7624C9.39283 18.7923 9.54351 18.7838 9.67745 18.7838C9.97881 18.7838 10.2927 18.7838 10.5648 18.6388C10.8034 18.4982 11.0336 18.5621 11.3098 18.4939C11.5108 18.4428 11.6279 18.2297 11.8289 18.2041C11.9168 18.1999 12.0005 18.17 12.0674 18.1785C12.2349 18.2169 12.4776 18.3192 12.5781 18.2382C12.5781 18.1402 12.5948 17.9825 12.6116 17.8845C12.7539 17.2196 12.8041 16.7763 12.9673 16.2649L12.9757 16.2564Z" fill="#D1232A"/>
<path d="M33.1211 16.5322C33.8829 16.2254 34.4898 16.0591 35.0256 16.008C35.6325 15.9569 36.1096 15.6883 36.7626 15.6543C37.3862 15.6244 37.5537 15.4923 38.3489 15.5903C38.5373 15.6116 38.9684 15.5264 39.1107 15.6415C39.2363 15.7224 39.3619 15.7736 39.4958 15.7864C39.726 15.7992 39.9144 15.8674 40.1362 15.9483C40.245 15.9995 40.3622 16.0506 40.4752 16.0677C40.5757 16.0847 40.6594 16.4981 40.7431 16.5578C40.8729 16.6558 40.9398 16.6388 41.0026 16.8093C41.0487 16.9414 41.1366 16.9584 41.0654 17.0437C40.8436 17.2525 40.7473 17.3974 40.7264 17.2611C40.718 17.1929 40.4836 17.3079 40.3706 17.3335C40.2785 17.3548 40.0357 17.3974 40.1069 17.521C40.1488 17.6063 40.3539 17.6276 40.425 17.6361C40.5255 17.6532 40.6385 17.6489 40.7473 17.602C41.0905 17.4742 40.7431 17.4955 41.0989 17.5083C41.2077 17.5083 41.6347 17.4102 41.5677 17.7299C41.5175 17.96 41.3375 18.1731 41.2161 18.3308C40.9817 18.6292 40.8896 18.5652 40.5631 18.6462C40.3622 18.6974 40.358 18.7229 40.1446 18.7528C39.9144 18.7783 39.6842 18.7997 39.4539 18.838C39.3284 18.8551 39.2154 18.8721 39.094 18.8977C38.9391 18.9105 38.7801 18.9105 38.6252 18.919C38.4578 18.9446 38.3113 18.9531 38.1522 18.9403C37.9597 18.9318 37.7378 18.9829 37.5579 19.0085C37.4532 19.0255 37.3569 19.0341 37.2565 19.0554C37.1184 19.0724 36.9761 19.0554 36.8505 19.081C36.704 19.1065 36.5491 19.1023 36.4152 19.1023C36.1096 19.1023 35.7999 19.1023 35.5278 18.9531C35.2934 18.8167 35.059 18.8806 34.7828 18.8124C34.5861 18.757 34.4647 18.5439 34.2596 18.5226C34.1717 18.5141 34.0922 18.4843 34.0252 18.4928C33.8536 18.5311 33.5606 18.6164 33.4518 18.5439C33.4476 18.4459 33.4559 18.318 33.435 18.2158C33.2969 17.5509 33.2508 16.9584 33.1253 16.5365L33.1211 16.5322Z" fill="#D1232A"/>
<path d="M30.9526 12.437C31.254 12.8078 31.3753 12.9527 31.6223 13.3576C31.6432 13.3619 31.6976 13.5324 31.7228 13.558C31.7939 13.6347 31.8065 13.592 31.8944 13.5622C31.9697 13.5281 32.4008 13.3576 32.4762 13.3406C32.5306 13.3406 33.2128 13.0422 33.351 12.9698C33.4556 12.9186 33.7193 12.7908 33.8407 12.7482C34.5773 12.4669 35.2303 12.0151 35.8581 11.5505C36.0005 11.4397 36.2223 11.3971 36.3562 11.2735C36.4944 11.1755 36.5823 11.0263 36.6995 10.8984C36.8125 10.7876 36.9506 10.6811 37.0929 10.6214C37.231 10.5575 37.2603 10.4424 37.4068 10.3742C37.4864 10.3316 37.5366 10.2549 37.6077 10.1781C37.6705 10.0886 37.9342 9.8116 37.8003 9.69652C37.7291 9.62406 37.6203 9.66668 37.5533 9.57718C37.4319 9.4067 37.637 9.25326 37.7542 9.16376C37.8505 9.09983 37.9384 9.01459 38.0137 8.93361C38.0765 8.84411 38.2649 8.73755 38.1895 8.61822C38.0891 8.45626 37.838 8.58412 37.6915 8.53298C37.5157 8.47757 37.3901 8.5074 37.2059 8.47757C36.8753 8.40511 36.3562 8.48609 36.0465 8.55855C35.9084 8.60543 35.7661 8.66084 35.6238 8.6992C35.4814 8.73329 35.3601 8.81427 35.2177 8.81427C35.042 8.8228 35.1089 8.92935 34.9415 8.95066C34.8117 8.95918 34.682 8.95918 34.5732 8.98049C34.276 9.05295 34.0332 9.30441 33.803 9.48342C33.6733 9.57718 33.5016 9.64964 33.3593 9.73062C33.0496 9.90962 32.7608 10.1227 32.472 10.3444C32.2669 10.5148 32.0576 10.6896 31.8232 10.843C31.7269 10.9027 31.639 10.941 31.5553 11.022C31.4716 11.1158 31.3921 11.2223 31.3042 11.3161C31.2121 11.4056 30.8563 11.6528 30.7935 11.7636C30.7182 11.8574 30.6052 11.9384 30.5801 12.0748C30.6638 12.1643 30.7726 12.2325 30.8521 12.3305C30.8982 12.2538 30.9945 12.5521 30.9484 12.437H30.9526Z" fill="#D1232A"/>
<path d="M31.5504 21.1522C31.5504 20.8922 31.9732 20.5043 31.7262 20.1378C31.8183 19.9673 31.743 19.8736 31.6928 19.7372C31.7011 19.669 31.7053 19.605 31.7053 19.5411C31.7639 19.5028 31.7639 19.426 31.7639 19.3408C31.7346 19.3237 31.722 19.3024 31.7137 19.2854C31.7095 19.1959 31.7011 19.1192 31.6886 19.0424C31.8183 18.889 31.856 18.8038 31.63 17.6701C31.63 17.6701 31.5797 16.8986 31.4123 16.7154C31.3998 16.6344 31.3788 16.5193 31.3244 16.4128C31.2742 16.2849 31.2742 16.3105 31.2658 16.1315C31.4039 15.9951 31.1235 16.0206 31.2407 15.897C31.1863 15.7649 31.0858 15.8843 31.0147 15.897C30.9352 15.8502 30.9519 15.441 30.8975 15.3813C30.9059 15.1853 30.8012 15.1725 30.4998 14.6056C30.3994 14.1922 30.2948 14.2988 30.119 13.9365C29.9432 13.7703 29.5916 13.3526 29.4409 13.3398C29.0725 12.6536 29.0977 12.8454 28.5661 12.4021C28.5912 12.3851 28.0596 11.7927 27.7834 11.7927C27.6913 11.8438 27.3816 11.6009 27.3983 11.5497C27.0342 11.4645 26.4733 11.0681 26.0924 10.9488C25.3683 10.497 25.2008 10.6888 23.9954 10.4672C23.9535 10.4288 23.9033 10.4032 23.8112 10.4331V10.4672C23.7526 10.4672 23.6898 10.4672 23.6271 10.4757L23.6354 10.5013C23.6354 10.5013 23.5978 10.4672 23.6103 10.4331L23.5099 10.3691L23.4303 10.4032L22.9992 10.3734C22.7732 10.3564 22.4007 10.4714 21.9737 10.4416C21.5635 10.5609 21.5259 10.4714 21.2371 10.5183C21.0529 10.5481 20.9273 10.5354 20.7264 10.6291C20.6134 10.6632 20.3958 10.6462 20.2869 10.6888C20.2744 10.6888 20.2618 10.6888 20.2576 10.6888C20.2493 10.6888 20.2367 10.6973 20.2283 10.7016C19.9646 10.7911 19.7135 10.9019 19.4624 11.0212C19.1903 11.1534 18.9182 11.2983 18.6629 11.4645C18.416 11.6137 18.169 11.7756 17.9388 11.9546C17.65 12.1805 17.3905 12.4235 17.1017 12.6493C15.6032 13.8299 14.222 16.4383 14.1675 18.71C14.155 18.9359 14.1801 18.9359 14.1843 19.0552C14.2764 19.0552 14.4564 18.9998 14.5317 19.0041C15.08 18.987 15.6534 18.9103 16.0385 18.8848C16.9845 18.8166 17.7128 18.8251 18.6587 18.9188C18.8638 18.9316 19.4791 18.9572 19.6382 18.9743C19.8516 18.9998 21.2287 19.2215 21.4882 19.2641C22.0449 19.3621 22.5555 19.5795 23.0243 19.7116C23.4931 19.8395 24.0247 19.9204 24.4056 20.0611C25.0418 20.2912 25.4562 20.4702 25.8496 20.6279C26.1342 20.7473 26.3979 20.8538 26.6198 20.9433C27.0802 21.1309 27.2518 21.1735 27.5071 21.2417L27.8587 21.3568C27.8587 21.3568 28.294 21.5315 28.1475 21.4718C28.3191 21.54 28.993 21.7915 29.0349 21.8043C29.0893 21.8298 29.1521 21.8597 29.219 21.8895C29.2651 21.7659 29.3069 21.638 29.3488 21.5144C29.5455 20.5555 29.6669 19.6604 29.4869 18.2795C29.4032 17.6019 29.3321 17.2652 29.0851 16.7495C28.8214 16.1869 28.8047 16.1656 29.1563 16.3105L29.4744 16.7111C29.6502 17.1671 29.9264 17.7766 30.0394 18.4287C30.0687 18.7271 30.0311 18.7356 30.1064 19.0041C30.0645 19.2215 29.9473 19.4601 30.1524 19.4942C30.1524 19.6178 30.3115 19.7627 30.1524 19.865C30.2487 20.2912 29.9725 20.7217 30.0018 21.0499C29.9808 21.1948 30.0394 21.3994 29.8929 21.4463C29.8594 21.6082 29.6753 21.7659 29.8385 21.8256L29.7339 22.141C29.9473 22.239 30.1357 22.3285 30.2236 22.3541C30.6673 22.499 31.0524 22.5757 31.2742 22.6908C31.337 22.6141 31.3244 22.499 31.4039 22.3626C31.5504 22.0046 31.63 21.638 31.63 21.5741L31.6049 21.6082C31.6132 21.5443 31.63 21.4718 31.6467 21.4079C31.7095 21.3312 31.4918 21.28 31.5588 21.1564L31.5504 21.1522Z" fill="#D1232A"/>
</g>
<defs>
<clipPath id="clip0_1160_12735">
<rect width="46" height="43" fill="white"/>
</clipPath>
</defs>
</svg>
