<svg width="53" height="21" viewBox="0 0 53 21" fill="none" xmlns="http://www.w3.org/2000/svg">
<g clip-path="url(#clip0_1160_12784)">
<path d="M52.7935 12.996H51.2514V10.5113H52.7935V8.62517H41.1934V10.5113H42.7354V12.996H41.1934V14.9016H52.7935V12.996ZM45.4672 10.5113H48.5196V12.996H45.4672V10.5113Z" fill="white"/>
<path d="M51.0527 18.1683L51.3668 15.2598H48.635L48.3208 18.1683H45.6683L45.3574 15.2598H42.6255L42.9364 18.1683H40.9883V20.0738H53.0009V18.1683H51.0527Z" fill="white"/>
<path d="M12.4377 15.261H0.701172V18.7681C0.701172 19.5283 1.30719 20.1463 2.05282 20.1463H12.4377V15.2578V15.261ZM9.62652 18.341H3.51235V17.0663H9.62652V18.341Z" fill="white"/>
<path d="M12.4377 12.996H13.1389V14.8013H0V12.996H4.44205V11.3622H7.25323V12.996H9.62973V10.4304H0.701209V8.62517H11.397C11.9713 8.62517 12.4377 9.10075 12.4377 9.68633V12.9992V12.996Z" fill="white"/>
<path d="M12.3022 2.99098C12.2705 2.96186 12.2388 2.92951 12.207 2.90039C12.2356 2.92951 12.2673 2.96186 12.3022 2.99098Z" fill="#0B6D38"/>
<path d="M11.8515 2.30093C11.8293 2.23622 11.8135 2.17152 11.8008 2.11328C11.8135 2.17152 11.8293 2.23299 11.8515 2.30093Z" fill="#0B6D38"/>
<path d="M11.7878 2.03559C11.7878 2.03559 11.7845 2.00971 11.7812 2C11.7812 2.01294 11.7813 2.02265 11.7878 2.03559Z" fill="#0B6D38"/>
<path d="M11.7976 2.10193C11.7976 2.10193 11.791 2.07282 11.791 2.05664C11.791 2.06958 11.7976 2.08576 11.7976 2.10193Z" fill="#0B6D38"/>
<path d="M21.1667 15.3587C21.0144 15.0061 20.8748 14.6146 20.7478 14.2684C20.6209 13.919 20.5131 13.6182 20.4306 13.4629C20.3766 13.3561 20.3005 13.2267 20.2021 13.0585C19.9229 12.5796 19.4914 11.9035 19.0694 11.2403C19.0377 11.1917 18.9742 11.1723 18.9234 11.195C18.8695 11.2176 18.8409 11.2791 18.8568 11.3373C19.0091 11.952 19.1392 12.4147 19.2407 12.7155C19.5358 13.589 19.9419 14.7699 19.9451 14.7764L20.3481 15.802C20.3639 15.8893 20.4464 16.4134 20.4464 16.7175V16.7661C20.4464 17.0896 20.4432 17.2352 20.3417 17.3322C20.2275 17.4455 20.0498 17.4649 20.0498 17.4649C20.0435 17.4649 20.0371 17.4649 20.0308 17.4681C19.9197 17.5005 18.933 17.7949 18.6506 18.1605C18.6125 18.2025 18.4062 18.4354 18.4062 18.7428C18.4062 18.9628 18.5744 19.3316 19.7008 19.3316C19.7484 19.3316 19.7928 19.3025 19.8118 19.2572C19.8912 19.0599 20.0244 18.8787 20.2085 18.7202C20.5289 18.4452 21.0017 18.2284 21.6204 18.0796C21.6743 18.0666 21.7124 18.0181 21.7124 17.9631L21.7187 17.2837V17.2611C21.7187 16.6981 21.4681 16.0672 21.1667 15.362V15.3587Z" fill="#197A3B"/>
<path d="M32.9008 17.7865C32.8405 17.7024 32.8025 17.6441 32.739 17.5471C32.6946 17.4824 32.6438 17.3982 32.5645 17.2818C32.501 17.188 32.4439 17.0909 32.3836 16.9938C32.3202 16.8871 32.2504 16.7771 32.1806 16.6736C32.1552 16.6347 32.1235 16.5797 32.0886 16.5086C32.0156 16.363 31.9236 16.1624 31.8284 15.9489C31.7205 15.7062 31.5968 15.4312 31.4698 15.1756C31.4445 15.1239 31.3842 15.098 31.3302 15.1142C31.1177 15.1789 30.9431 15.2177 30.775 15.2436C30.7337 15.25 30.6988 15.2792 30.683 15.3212C30.6671 15.3633 30.6734 15.4086 30.702 15.4409C31.0193 15.8389 31.2509 16.3241 31.3144 16.7318L31.3366 16.858C31.4032 17.2559 31.4635 17.628 31.3017 17.7185C31.2065 17.7703 31.0796 17.7994 30.9305 17.8318C30.7147 17.8803 30.445 17.9385 30.1309 18.1003C29.6105 18.3688 29.3789 18.6729 29.3789 19.0903C29.3789 19.4753 29.9564 19.7341 30.8194 19.7341C31.0066 19.7341 31.2826 19.7276 31.6412 19.7147C31.6951 19.7147 31.7427 19.6726 31.7522 19.6176C31.7871 19.4429 31.876 19.2618 32.0156 19.0773C32.244 18.7797 32.555 18.5274 32.8088 18.3235L32.8596 18.2815C32.9008 18.2491 32.9579 18.1941 32.977 18.11C33.0214 17.9418 32.9262 17.8124 32.9008 17.78V17.7865Z" fill="#197A3B"/>
<path d="M36.9813 16.0647C36.9813 15.9612 36.9813 15.8512 36.9813 15.7315C36.9718 15.0586 36.9623 14.1398 37.1749 12.9848L37.1939 12.8715C37.435 11.5516 37.6095 10.5972 37.6095 9.866C37.6095 8.98278 37.343 7.76956 36.6006 7.00928C35.8771 6.27164 35.2997 5.7443 33.9417 5.16195C32.5964 4.58608 30.6895 4.39196 30.0263 4.39196C29.7852 4.39196 29.1284 4.43726 28.3732 4.48902C27.4023 4.55696 26.3014 4.63137 25.7905 4.63137C24.8958 4.63137 23.56 4.57961 23.1824 4.51167C22.8048 4.44373 21.4849 3.86138 20.533 3.29845C19.5875 2.73875 18.8006 2.06905 18.7911 2.05935C18.7562 2.027 18.7054 2.02376 18.661 2.04317C18.6579 2.04317 18.4199 2.16288 18.1819 2.27611C18.2517 2.17258 18.312 2.06582 18.3342 1.972C18.4008 1.70671 18.3913 1.48024 18.312 1.35406C18.2263 1.21818 18.0963 1.14377 17.9471 1.14377C17.7821 1.14377 17.6203 1.17289 17.4617 1.23436C17.3982 1.25701 17.3379 1.28289 17.2872 1.30877C17.2935 1.29259 17.2999 1.27642 17.2999 1.25701C17.2999 1.21818 17.284 1.1826 17.2523 1.15995C17.2142 1.13083 16.3416 0.474076 15.1867 0.474076H15.0312C14.9487 0.46437 14.4157 0.415842 13.9493 0.794366C13.8541 0.842895 13.7684 0.891423 13.6923 0.933482C13.4289 1.0823 13.2576 1.17936 12.88 1.17936H12.8483C12.7658 1.17936 12.6262 1.17936 12.5405 1.17613C12.5088 1.17613 12.4739 1.18907 12.4517 1.21171C12.4295 1.23759 12.4168 1.26995 12.4199 1.30554C12.4295 1.43495 12.4199 1.66141 12.2359 1.73259C12.1153 1.77788 11.9948 1.74553 11.871 1.62906C11.8393 1.59671 11.7917 1.59024 11.7505 1.60641C11.7092 1.62259 11.6775 1.66141 11.6743 1.70671C11.6743 1.73259 11.6711 1.75847 11.668 1.79082C11.668 1.81347 11.668 1.83288 11.668 1.85553C11.668 1.86847 11.668 1.88464 11.668 1.90406L11.6838 2.06258V2.07876L11.6902 2.12082L11.6934 2.13699C11.706 2.2017 11.7251 2.2664 11.7473 2.33434C11.7473 2.34081 11.7505 2.34729 11.7536 2.35376C11.7695 2.38934 11.8964 2.63199 12.1344 2.80993C12.128 2.8164 12.1249 2.81963 12.1217 2.8261C12.09 2.87463 12.0963 2.9361 12.1344 2.97816C12.1661 3.01051 12.1978 3.04286 12.2423 3.08169C12.2803 3.11404 12.3184 3.14639 12.3628 3.17874C12.7023 3.43109 12.8895 3.49903 13.1053 3.57992C13.2544 3.63491 13.4099 3.69315 13.6447 3.82579C14.2285 4.14932 14.806 4.71549 15.3454 5.26548C15.8752 5.80577 16.6748 6.62105 17.0904 7.34251C17.1507 7.44604 17.2459 7.61751 17.3697 7.8375L17.6108 8.26779C17.8266 8.65278 18.1597 9.2416 18.5278 9.87247C18.9117 10.5292 19.267 11.1083 19.5812 11.6001C20.0603 12.3474 20.4664 12.9104 20.7869 13.276C20.8408 13.4377 21.1708 14.3921 21.5071 15.1815C21.8181 15.9127 22.1766 16.8347 22.1766 17.4753V17.4947C22.1766 18.0803 22.1639 18.3229 21.8244 18.4459C21.7895 18.4588 21.7546 18.4685 21.7133 18.4815C21.1042 18.6303 20.6568 18.8406 20.3903 19.1059C20.2126 19.2838 20.1142 19.4876 20.1015 19.7141C20.1015 19.7303 20.1015 19.7432 20.1015 19.7594C20.1015 20.5423 21.2945 20.5423 22.1671 20.5423H22.4717C22.5732 20.5423 22.6747 20.5423 22.7763 20.5423C22.881 20.5423 22.9889 20.5423 23.0936 20.5423C23.9724 20.5423 24.8609 20.4906 25.248 19.892C25.2829 19.8403 25.3622 19.6753 25.3051 19.2126C25.2448 18.7112 25.2829 17.9606 25.3876 17.6985C25.4002 17.6662 25.4161 17.6274 25.432 17.5885C25.5716 17.2456 25.8096 16.673 25.8096 15.8383C25.8096 14.9195 25.5176 13.7159 25.359 13.276C25.3463 13.2371 25.3304 13.1983 25.3178 13.1595C25.3717 13.2404 25.4256 13.331 25.4732 13.4312C25.7302 13.9554 25.8698 14.4309 25.873 14.4342C25.8857 14.473 25.9143 14.5021 25.9492 14.5151C25.9936 14.5312 27.0597 14.8742 28.7318 14.9874C29.0396 15.0068 29.3093 15.023 29.5599 15.0327C29.9058 15.0456 30.185 15.0456 30.4039 15.0359C30.81 15.0198 31.0321 14.9777 31.2447 14.9162C31.2796 14.9065 31.3082 14.8806 31.3209 14.8483C31.3367 14.8159 31.3336 14.7771 31.3177 14.7448C31.3177 14.7448 31.2289 14.5668 31.121 14.3306C31.0321 14.1333 30.956 13.9521 30.8925 13.7904C30.8259 13.6124 30.7783 13.4604 30.7529 13.3439C30.7275 13.2242 30.7022 13.111 30.6831 12.9977C30.7371 13.1304 30.791 13.2598 30.8481 13.3762C30.8894 13.4636 30.9465 13.5801 31.0131 13.7192L31.0639 13.8227C31.1432 13.9845 31.232 14.1721 31.3272 14.3662C31.4129 14.5409 31.5017 14.7253 31.5937 14.9098C31.9967 15.7283 32.2632 16.2297 32.4092 16.4465C32.5424 16.6439 32.682 16.8509 32.8121 17.045L33.0152 17.3491C33.1231 17.5109 33.2151 17.6435 33.2754 17.7309C33.4023 17.9088 33.4023 18.035 33.3991 18.1353V18.1612C33.3991 18.2227 33.3991 18.365 33.0977 18.6076L33.1707 18.7015L33.0818 18.6174L33.0501 18.6432C32.9739 18.7047 32.8819 18.7791 32.7899 18.8568C32.5012 19.1026 32.3172 19.3032 32.2093 19.4909C32.1395 19.6138 32.1077 19.7238 32.1077 19.8273C32.1077 19.9276 32.1426 20.015 32.2125 20.0894C32.4409 20.3385 33.0279 20.3903 33.4816 20.3903C33.8497 20.3903 36.3531 20.3094 36.7782 20.1153C37.2224 19.9147 37.4477 19.5976 37.4477 19.1673C37.4477 18.9829 37.3621 18.5074 37.2637 17.9541C37.1368 17.2359 36.9908 16.4239 36.9908 16.0421L36.9813 16.0647Z" fill="#197A3B"/>
<path d="M14.37 1.33984C14.2209 1.33984 14.0813 1.40131 13.9861 1.51131C13.9448 1.55984 13.948 1.63102 13.9924 1.67307C14.04 1.71513 14.1098 1.7119 14.1511 1.6666C14.205 1.60513 14.2843 1.57278 14.3668 1.57278C14.5001 1.57278 14.6207 1.66337 14.6556 1.79601C14.6683 1.84778 14.7158 1.88013 14.7634 1.88013C14.773 1.88013 14.7857 1.88013 14.7952 1.8769C14.8555 1.86072 14.8904 1.79601 14.8745 1.73454C14.811 1.50484 14.6016 1.34631 14.3668 1.34631L14.37 1.33984Z" fill="white"/>
<path d="M37.3261 16.0029C37.3261 15.3849 37.3483 13.6185 37.6212 12.8226L37.8211 11.8068C37.9543 11.1565 38.1161 10.6065 38.1161 9.83003C38.1161 9.05357 37.7544 7.52977 36.9136 6.67242C36.1712 5.91538 35.4509 5.25862 34.1278 4.66981C32.5699 3.9807 30.5139 3.89982 30.0475 3.89982C29.7905 3.89982 29.0575 3.90952 28.2611 3.96452C27.2966 4.03246 26.2876 4.1004 25.7895 4.1004C24.8344 4.1004 23.5811 4.04864 23.2638 3.9904C22.7181 3.88364 21.7535 3.41453 20.7763 2.83865C19.8657 2.29837 19.1137 1.65779 19.1042 1.65132C19.1042 1.65132 19.1391 1.55426 19.1391 1.37632C19.1391 1.19838 19.0407 1.02368 18.9455 0.926623C18.8567 0.836036 18.6282 0.687215 18.2443 0.687215C18.1301 0.687215 17.6859 0.700156 17.5495 0.738979L17.5082 0.713097C17.4638 0.68398 16.4167 0.0078125 15.1285 0.0078125H15.0905L15.0524 0.014283C14.9762 0.0239887 14.2116 0.0078125 13.7166 0.402513C13.3136 0.726038 12.5331 0.781037 12.5331 0.781037C12.054 0.781037 11.5527 0.625745 11.264 1.06574C11.099 1.37309 11.1656 1.82279 11.1783 1.84543C11.1815 2.0622 11.2481 2.93895 12.0762 3.55364C12.4697 3.84482 12.7076 3.93217 12.9361 4.01952C13.0757 4.07128 13.2089 4.12305 13.412 4.23628C13.9387 4.52745 14.4876 5.06774 15.0016 5.59185C15.5125 6.11273 16.1185 6.87625 16.5627 7.53947C16.6293 7.63653 16.7721 7.89211 16.8958 8.11211C17.1528 8.56828 18.33 11.0497 18.33 11.0497C18.349 11.1306 18.5235 11.9847 18.825 12.8776C19.1169 13.7414 19.523 14.9223 19.5262 14.9352L19.8847 15.9576C19.9164 16.1452 19.9482 16.4008 19.9482 16.734V17.0414C19.5833 17.1482 18.6695 17.4393 18.3173 17.8729C18.2189 17.9829 17.8414 18.3808 17.8414 18.8273C17.8414 19.209 18.184 19.7105 19.6118 19.7331C19.6118 20.0081 19.7197 20.6681 20.6938 20.8978C21.1253 20.9981 21.6552 21.0078 22.1597 21.0078H22.3151H22.4643C22.5626 21.0078 22.6642 21.0078 22.7657 21.0078C22.8736 21.0078 22.9783 21.0078 23.0862 21.0078C24.0475 21.0078 25.1644 20.9399 25.6879 20.1505C25.8434 19.9337 25.8878 19.594 25.8307 19.1249C25.7514 18.384 25.872 17.8793 25.872 17.8793C26.0179 17.5267 26.2844 16.747 26.2844 15.812C26.2844 15.5758 26.2844 15.5111 26.2591 15.2652C26.735 15.3073 27.8741 15.3461 28.9814 15.4238C29.5335 15.4594 29.8254 15.4335 30.2157 15.4205C30.3204 15.5047 30.4155 15.5888 30.4758 15.6697C30.7963 16.0999 30.9264 16.4073 31.0089 16.6532C31.0882 16.8861 31.0692 17.3908 31.0692 17.3908C31.0311 17.4005 30.8058 17.4523 30.7677 17.462C30.5393 17.5137 30.2981 17.5623 29.9333 17.7532C29.6858 17.8793 28.9401 18.3323 28.9401 19.1022C28.9401 19.6328 29.3685 20.0761 30.7614 20.0761C30.9835 20.0761 31.3039 20.0696 31.6561 20.0566C31.7291 20.309 31.9449 20.6358 32.5509 20.7813C32.8682 20.8558 33.2299 20.8719 33.4806 20.8719C33.5091 20.8719 36.3806 20.8234 36.9739 20.5549C37.8084 20.1796 37.9004 19.5487 37.9004 19.1864C37.9004 18.9728 37.7957 18.5296 37.6815 17.8405C37.5736 17.2064 37.3356 16.3491 37.3356 16.0094L37.3261 16.0029ZM19.7039 19.2122C18.9297 19.2122 18.5267 19.0311 18.5267 18.7431C18.5267 18.4552 18.7393 18.2384 18.7393 18.2384C18.9963 17.8923 20.0624 17.5849 20.0624 17.5849C20.0624 17.5849 20.275 17.5623 20.4241 17.4199C20.5732 17.2776 20.5637 17.0673 20.5637 16.7211C20.5637 16.3749 20.459 15.7732 20.459 15.7732L20.0529 14.7347C20.0529 14.7347 19.6467 13.5538 19.3517 12.6803C19.2343 12.3341 19.0947 11.8132 18.9709 11.3085C19.4151 12.0041 19.8276 12.6544 20.1036 13.1235C20.1957 13.2788 20.2718 13.4147 20.3289 13.5214C20.4844 13.8191 20.7541 14.6894 21.0587 15.4076C21.3284 16.0417 21.6012 16.7049 21.6012 17.2582V17.2808L21.5949 17.9602C20.9 18.1284 20.4368 18.3646 20.1354 18.6267C19.9196 18.8143 19.7832 19.0149 19.707 19.2122H19.7039ZM31.9227 19.0084C31.7862 19.1896 31.6815 19.387 31.6371 19.5972C31.3198 19.6069 31.0279 19.6167 30.8217 19.6167C30.0126 19.6167 29.4986 19.3837 29.4986 19.0958C29.4986 18.7658 29.6604 18.4876 30.1839 18.2158C30.7074 17.944 31.1009 17.9764 31.3579 17.8308C31.6149 17.6884 31.5134 17.2226 31.4309 16.7179C31.3484 16.2132 31.0628 15.7085 30.7931 15.372C30.9581 15.3461 31.1358 15.3073 31.3611 15.2394C31.599 15.7149 31.818 16.2585 31.9798 16.5723C32.0179 16.6467 32.0496 16.7049 32.0813 16.7502C32.2146 16.9476 32.332 17.1579 32.4652 17.3585C32.6619 17.6529 32.7032 17.7273 32.8079 17.8696C32.8079 17.8696 32.8967 17.9699 32.8618 18.0929C32.8523 18.1349 32.8301 18.1673 32.7857 18.2029L32.7349 18.2449C32.4811 18.4487 32.1575 18.7075 31.9227 19.0181V19.0084ZM36.7201 20.0243C36.3362 20.199 33.9057 20.2864 33.471 20.2864C33.1125 20.2864 32.5001 20.2508 32.2875 20.0211C32.24 19.9693 32.2146 19.9111 32.2146 19.8399C32.2146 19.7525 32.2495 19.6587 32.3002 19.5649C32.4208 19.3546 32.6429 19.1411 32.8523 18.9631C32.957 18.8725 33.0617 18.7917 33.1442 18.7237C33.1474 18.7205 33.1537 18.7173 33.1601 18.7108C33.4774 18.4552 33.5059 18.2805 33.5059 18.1673C33.5059 18.054 33.5218 17.889 33.3568 17.6626C33.2965 17.5784 33.2045 17.4458 33.0998 17.284C32.9221 17.022 32.7 16.6855 32.4938 16.3814C32.3256 16.1323 32.002 15.5014 31.6847 14.8608C31.5959 14.6764 31.5038 14.492 31.4182 14.3173C31.323 14.12 31.2341 13.9356 31.1548 13.7738C31.066 13.5894 30.9898 13.4309 30.9391 13.3241C30.6599 12.745 30.406 11.8488 30.406 11.8488C30.4346 12.3988 30.5107 12.8582 30.6186 13.3694C30.6472 13.5053 30.7011 13.667 30.7646 13.832C30.8375 14.0229 30.92 14.217 30.9962 14.3788C31.1072 14.6214 31.1961 14.7961 31.1961 14.7961C31.0152 14.8479 30.7995 14.8964 30.3806 14.9126C30.2855 14.9158 30.1776 14.9191 30.0602 14.9191C29.9111 14.9191 29.7397 14.9158 29.5462 14.9094C29.3082 14.8997 29.0385 14.8867 28.7212 14.8641C27.0459 14.7508 25.9671 14.3982 25.9671 14.3982C25.9671 14.3982 25.8275 13.9161 25.561 13.3759C25.2945 12.8356 24.8884 12.525 24.8884 12.525C24.8884 12.525 25.0819 12.9003 25.2279 13.3144C25.377 13.7285 25.6721 14.9255 25.6721 15.8379C25.6721 16.7502 25.377 17.352 25.2596 17.6529C25.1422 17.9537 25.1105 18.7431 25.1707 19.2252C25.231 19.7072 25.1327 19.8205 25.1327 19.8205C24.7837 20.364 23.9333 20.419 23.0735 20.419C22.8641 20.419 22.6546 20.419 22.4516 20.419C22.35 20.419 22.2485 20.419 22.147 20.419C21.1919 20.419 20.1988 20.3899 20.1988 19.7558C20.1988 19.7428 20.1988 19.7267 20.1988 19.7137C20.2115 19.5067 20.3067 19.3352 20.4495 19.1896C20.7731 18.8661 21.3379 18.6881 21.7155 18.5943C21.7599 18.5846 21.8011 18.5717 21.8392 18.5555C22.2739 18.397 22.2707 18.0379 22.2707 17.4717C22.2707 16.8538 21.9598 15.9964 21.5917 15.1294C21.2237 14.2623 20.8683 13.2109 20.8683 13.2109C20.5161 12.8129 20.0941 12.2079 19.6594 11.5318C19.3041 10.9785 18.9424 10.38 18.606 9.80738C18.2602 9.21856 17.9429 8.65887 17.6891 8.20593C17.4479 7.77564 17.2639 7.44241 17.1687 7.27742C16.7562 6.56243 15.9884 5.77303 15.4046 5.17774C14.8208 4.58245 14.2592 4.04217 13.6754 3.71864C13.0915 3.39512 12.9678 3.49218 12.4062 3.07806C12.3681 3.04895 12.3301 3.01983 12.2951 2.98748C12.2951 2.98748 12.2888 2.98424 12.2888 2.98101C12.2571 2.95189 12.2253 2.91954 12.1936 2.89042C12.2412 2.90983 12.2888 2.92924 12.3427 2.94865C12.7869 3.10071 13.2565 3.10071 13.2565 3.10071C13.2565 3.10071 12.7679 2.9713 12.3967 2.82895C12.035 2.69307 11.8446 2.31454 11.8351 2.29513C11.8129 2.23043 11.797 2.16572 11.7843 2.10749C11.7843 2.10425 11.7843 2.09778 11.7843 2.09455C11.7843 2.07837 11.778 2.06543 11.778 2.04925C11.778 2.04278 11.778 2.03631 11.7748 2.02984C11.7748 2.0169 11.7716 2.00396 11.7684 1.99426C11.7684 1.98455 11.7684 1.97808 11.7684 1.97161C11.7684 1.9619 11.7684 1.9522 11.7684 1.94249C11.7684 1.93279 11.7684 1.92308 11.7684 1.91337C11.7684 1.9069 11.7684 1.90043 11.7684 1.89396C11.7684 1.87779 11.7684 1.86485 11.7684 1.8519C11.7684 1.83249 11.7684 1.81308 11.7684 1.79043C11.7684 1.79043 11.7684 1.7872 11.7684 1.78396C11.7684 1.76455 11.7684 1.74191 11.7716 1.72249C11.7716 1.72249 11.7716 1.71926 11.7716 1.71602C11.8763 1.81308 12.054 1.92631 12.2602 1.8422C12.5236 1.73867 12.5299 1.43132 12.5204 1.29221C12.6093 1.29544 12.7489 1.29544 12.8345 1.29544H12.8663C13.3993 1.29544 13.5738 1.10456 14.0022 0.891035C14.4686 0.506041 15.0143 0.590157 15.0143 0.590157H15.1761C16.3025 0.590157 17.1687 1.25338 17.1687 1.25338C17.0069 1.37309 16.88 1.72896 16.88 1.72896C16.88 1.72896 17.0577 1.5122 17.4923 1.34397C17.6637 1.27927 17.816 1.25985 17.9366 1.25985C18.0571 1.25985 18.1428 1.32132 18.2031 1.41515C18.2634 1.50897 18.2697 1.70308 18.2094 1.93602C18.1491 2.16896 17.7811 2.56689 17.7811 2.56689C18.0095 2.49248 18.7044 2.14631 18.7044 2.14631C18.7044 2.14631 19.4944 2.82248 20.4622 3.39512C21.4299 3.96776 22.7657 4.55334 23.1496 4.62128C23.5335 4.68922 24.863 4.74098 25.7768 4.74098C26.6906 4.74098 29.4668 4.50157 30.0158 4.50157C30.5647 4.50157 32.497 4.66657 33.8835 5.26186C35.2701 5.85714 35.8317 6.39743 36.5043 7.0833C37.177 7.76917 37.4784 8.89828 37.4784 9.85267C37.4784 10.5903 37.2944 11.5771 37.0437 12.9456C36.7931 14.3173 36.8502 15.3558 36.8502 16.0482C36.8502 16.7405 37.3071 18.7723 37.3071 19.1734C37.3071 19.5746 37.0945 19.8367 36.7106 20.0081L36.7201 20.0243Z" fill="white"/>
</g>
<defs>
<clipPath id="clip0_1160_12784">
<rect width="53" height="21" fill="white"/>
</clipPath>
</defs>
</svg>
