<svg width="57" height="11" viewBox="0 0 57 11" fill="none" xmlns="http://www.w3.org/2000/svg">
<g clip-path="url(#clip0_1160_13038)">
<path d="M5.59515 11C8.68637 11 11.1932 8.53647 11.1932 5.49859C11.1932 2.46071 8.68637 0 5.59515 0C2.50392 0 0 2.46353 0 5.49859C0 8.53366 2.50679 11 5.59515 11Z" fill="#C70039"/>
<path d="M5.375 3.08575V7.90864H6.93637V7.47787H5.82192V3.08575H5.375Z" fill="white"/>
<path d="M3.81101 4.40339C4.18058 4.40339 4.4814 4.10777 4.4814 3.74457C4.4814 3.38138 4.18058 3.08575 3.81101 3.08575C3.44144 3.08575 3.14062 3.38138 3.14062 3.74457C3.14062 4.10777 3.44144 4.40339 3.81101 4.40339Z" fill="white"/>
<path d="M5.82059 0.899071C5.76329 0.896256 5.65156 0.89344 5.59426 0.89344C3.01299 0.89344 0.910156 2.9628 0.910156 5.49953C0.910156 6.72989 1.39719 7.88704 2.28244 8.7542C3.1677 9.62418 4.34517 10.1028 5.59426 10.1028C6.84336 10.1028 8.0237 9.62418 8.90895 8.7542C9.79134 7.88423 10.2812 6.72707 10.2812 5.49953V5.28837H10.0922H6.93504V5.71632H9.83431V5.77826C9.68534 7.94898 7.84321 9.66923 5.59426 9.66923C4.46263 9.66923 3.39402 9.23283 2.59185 8.4445C1.78968 7.65617 1.34849 6.60882 1.34849 5.4939C1.34849 4.37898 1.78968 3.33163 2.59185 2.54048C3.39402 1.75216 4.45976 1.31857 5.59426 1.31857C5.64583 1.31857 5.76616 1.31857 5.82059 1.32139V0.890625V0.899071Z" fill="white"/>
<path d="M15.2978 1.84766H13.6133V9.013H18.7873V7.61653H15.2978V1.84766Z" fill="white"/>
<path d="M22.496 6.28157H23.8682V7.53445C23.6161 7.62736 23.1234 7.72309 22.6535 7.72309C21.138 7.72309 20.6309 6.96854 20.6309 5.42849C20.6309 3.88843 21.1122 3.1001 22.6277 3.1001C23.47 3.1001 23.9513 3.35912 24.3495 3.85746L25.3952 2.91147C24.7564 2.01333 23.6391 1.74023 22.5905 1.74023C20.2327 1.74023 18.9922 3.00438 18.9922 5.41722C18.9922 7.83007 20.1124 9.11955 22.579 9.11955C23.7107 9.11955 24.8165 8.83519 25.4182 8.42132V4.94423H22.4931V6.28157H22.496Z" fill="white"/>
<path d="M55.7629 3.23697V1.73633H54.4766V5.73147H55.6655C55.7457 5.36827 55.7629 4.93469 55.7629 4.59402V4.28713H57.0005V3.23697H55.7629Z" fill="white"/>
<path d="M32.6502 3.0269H32.1202V1.74868H30.9141V5.56926H31.9913C32.0801 5.31587 32.1202 4.83442 32.1202 4.55006V4.0292H32.6502V5.83673H33.7503C33.8534 5.55237 33.8878 4.9752 33.8878 4.61482V1.74023H32.6502V3.0269Z" fill="white"/>
<path d="M31.2871 5.88672C29.3934 5.88672 28.8262 6.66097 28.8262 7.53658C28.8262 8.41219 29.3934 9.18644 31.2871 9.18644C33.1808 9.18644 33.7996 8.43753 33.7996 7.53658C33.7996 6.63563 33.2152 5.88672 31.2871 5.88672ZM31.2957 8.2517C30.5222 8.2517 30.1813 7.98705 30.1813 7.53376C30.1813 7.11426 30.5222 6.83271 31.2957 6.83271C32.0692 6.83271 32.4188 7.11426 32.4188 7.53376C32.4188 7.98424 32.0864 8.2517 31.2957 8.2517Z" fill="white"/>
<path d="M38.144 2.47394V1.63494H37.296C36.8749 1.63494 36.2417 1.53921 35.8378 1.39844L35.6602 2.29375C36.1415 2.43734 36.6973 2.47676 37.2015 2.47676H38.1412L38.144 2.47394Z" fill="white"/>
<path d="M30.2256 5.64835L30.8444 4.66294C29.8245 4.22091 29.4378 3.64374 29.4378 2.44436V1.86719H28.1772V2.4528C28.1772 3.80985 27.9681 4.42644 26.8594 4.95012L27.3092 5.79475C27.9767 5.5667 28.5955 5.13875 28.9164 4.57847C29.157 5.05992 29.7271 5.4935 30.2256 5.65116" fill="white"/>
<path d="M53.3452 3.20757V1.87305H49.7555V2.8838H52.0216V3.32582C52.0216 4.02124 51.2596 4.65191 49.5234 5.35577L49.956 6.24827C52.3597 5.26849 53.3452 4.51958 53.3452 3.20757Z" fill="white"/>
<path d="M45.1279 7.90583V6.2616H43.7871V8.44358C43.7871 8.89405 44.0192 9.10803 44.4776 9.10803H49.0127V8.04097H45.2625C45.1594 8.04097 45.125 8.01844 45.125 7.90583" fill="white"/>
<path d="M45.8374 4.29667H47.4589V7.02204H48.6478C48.7452 6.63632 48.7997 5.96342 48.7997 5.50732V1.74023H47.4589V3.24087H46.1095V1.85004H42.494V2.86079H44.8003V3.35068C44.8003 4.0292 43.9752 4.71617 42.2734 5.40878L42.7232 6.27594C44.382 5.58897 45.3933 5.05685 45.8402 4.29386" fill="white"/>
<path d="M37.3442 8.17268V8.00938H40.7075C40.8451 7.80385 40.8766 7.3928 40.8766 7.00426V6.21875H36.0664V7.00145H39.5988V7.27455H36.0664V8.63723C36.0664 8.96101 36.2182 9.12712 36.6279 9.12712H41.1058V8.28248H37.4788C37.3757 8.28248 37.3413 8.26559 37.3413 8.17268" fill="white"/>
<path d="M53.4098 5.82031C51.6507 5.82031 51.1035 6.60864 51.1035 7.50959C51.1035 8.41054 51.6507 9.19042 53.4098 9.19042C55.1688 9.19042 55.7647 8.43306 55.7647 7.50959C55.7647 6.58612 55.2089 5.82031 53.4098 5.82031ZM53.4184 8.27539C52.7594 8.27539 52.4156 8.00792 52.4156 7.50959C52.4156 7.04504 52.7594 6.75223 53.4184 6.75223C54.0773 6.75223 54.4297 7.04504 54.4297 7.50959C54.4297 8.00792 54.0916 8.27539 53.4184 8.27539Z" fill="white"/>
<path d="M40.8754 1.73914H39.5977V4.80799C39.0677 5.06983 38.3113 5.1543 37.6753 5.1543V4.95721C38.3514 4.82489 38.6551 4.47859 38.6551 3.98025C38.6551 3.84511 38.6208 3.72123 38.5606 3.60861H39.3055V2.76397H34.6328V3.60861H35.4407C35.3777 3.72123 35.3462 3.84511 35.3462 3.98025C35.3462 4.48985 35.6728 4.84178 36.3833 4.96566V5.15148H34.6328V5.97923H37.3C38.1824 5.97923 39.1307 5.8835 39.5977 5.63292V5.92573H40.8754V4.42791H42.0242V3.36929H40.8754V1.73633V1.73914ZM36.495 3.94083C36.495 3.70433 36.6583 3.58609 36.9935 3.58609C37.3287 3.58609 37.4748 3.70433 37.4748 3.94083C37.4748 4.17733 37.2943 4.30403 36.9677 4.30403C36.6411 4.30403 36.495 4.17733 36.495 3.94083Z" fill="white"/>
</g>
<defs>
<clipPath id="clip0_1160_13038">
<rect width="57" height="11" fill="white"/>
</clipPath>
</defs>
</svg>
