<svg width="52" height="29" viewBox="0 0 52 29" fill="none" xmlns="http://www.w3.org/2000/svg">
<g clip-path="url(#clip0_1160_13104)">
<path d="M4.10156 10.2794H5.74102V12.7237H7.2648V10.2794H8.90825V16.7469H7.2648V14.183H5.74102V16.7469H4.10156V10.2794Z" fill="black"/>
<path d="M28.1137 12.2248V12.6236H28.1496C28.5525 12.1132 29.2546 12.1531 29.2546 12.1531C30.1122 12.1531 30.5949 12.819 30.5949 13.6882V16.7465H29.1628V13.9992C29.1628 13.8158 29.0432 13.5088 28.7041 13.5088C28.3969 13.5088 28.2174 13.8038 28.2174 14.0072V16.7425H26.7734V12.2169H28.1137V12.2248Z" fill="black"/>
<path d="M33.1758 10.1797H35.2261C37.0491 10.1956 38.0902 11.5633 38.0902 13.5012C38.0902 15.439 37.0491 16.7628 35.2261 16.7469H33.1758V10.1797ZM34.8831 15.1798H35.1144C36.0797 15.1798 36.4986 14.4462 36.4986 13.4214C36.4986 12.3967 36.0797 11.7188 35.1144 11.7188H34.8831V15.1798Z" fill="black"/>
<path d="M46.2286 15.3194C46.5198 15.5108 46.791 15.6464 47.1181 15.6982C47.4053 15.7421 47.7922 15.7062 47.7922 15.4749C47.7922 15.1081 46.0371 15.6464 46.0371 13.553C46.0371 12.8792 46.787 12.1973 47.8521 12.1973C48.3627 12.1973 49.0847 12.3528 49.3519 12.5243L49.1724 13.6726C48.9211 13.6128 48.5781 13.5291 48.2909 13.5291C48.1193 13.5291 47.7723 13.5251 47.7723 13.7404C47.7723 14.1432 49.5274 13.5849 49.5274 15.3792C49.5274 16.412 48.5501 16.9024 47.4452 16.9024C46.9825 16.9024 46.5198 16.7868 46.0969 16.5555L46.2326 15.3234L46.2286 15.3194Z" fill="black"/>
<path d="M22.358 16.7469V12.297H20.9459V12.6638C20.5829 12.1415 19.829 12.2212 19.829 12.2212C17.998 12.2212 17.998 14.502 17.998 14.502C17.998 15.7062 18.6044 16.8944 19.8489 16.8944C20.2877 16.8944 20.6667 16.7748 20.9259 16.4239H20.9419L20.8501 16.7509C20.8501 16.7509 20.559 17.7916 18.728 17.2533V18.4853C18.728 18.4853 18.7679 18.8921 20.3116 18.8522C21.8155 18.8123 22.354 17.3689 22.354 16.7509L22.358 16.7469ZM20.2159 15.4869C19.805 15.4869 19.474 15.0562 19.474 14.5299C19.474 14.0036 19.805 13.5729 20.2159 13.5729C20.6268 13.5729 20.9579 14.0036 20.9579 14.5299C20.9579 15.0562 20.6268 15.4869 20.2159 15.4869Z" fill="black"/>
<path d="M10.6144 11.982C11.113 11.982 11.5159 11.5792 11.5159 11.0808C11.5159 10.5824 11.113 10.1797 10.6144 10.1797C10.1158 10.1797 9.71289 10.5824 9.71289 11.0808C9.71289 11.5792 10.1158 11.982 10.6144 11.982Z" fill="black"/>
<path d="M12.5617 11.982C13.0603 11.982 13.4632 11.5792 13.4632 11.0808C13.4632 10.5824 13.0603 10.1797 12.5617 10.1797C12.063 10.1797 11.6602 10.5824 11.6602 11.0808C11.6602 11.5792 12.063 11.982 12.5617 11.982Z" fill="black"/>
<path d="M32.6327 13.3536H31.1289V14.8569H32.6327V13.3536Z" fill="black"/>
<path d="M16.5064 12.297V12.6638C16.1434 12.1415 15.3895 12.2212 15.3895 12.2212C13.5586 12.2212 13.5586 14.502 13.5586 14.502C13.5586 15.7062 14.1649 16.8944 15.4095 16.8944C15.8483 16.8944 16.2312 16.7748 16.4905 16.4239H16.5064V16.7509H17.9145V12.301H16.5064V12.297ZM15.7765 15.4749C15.3656 15.4749 15.0345 15.0443 15.0345 14.5179C15.0345 13.9916 15.3696 13.557 15.7765 13.557C16.1833 13.557 16.5184 13.9876 16.5184 14.5179C16.5184 15.0483 16.1833 15.4749 15.7765 15.4749Z" fill="black"/>
<path d="M12.0181 12.297V12.6638C11.6551 12.1415 10.9051 12.2212 10.9051 12.2212C9.07422 12.2212 9.07422 14.502 9.07422 14.502C9.07422 15.7062 9.68054 16.8944 10.9251 16.8944C11.3639 16.8944 11.7428 16.7748 12.0061 16.4239H12.0221V16.7509H13.4341V12.301H12.0221L12.0181 12.297ZM11.1724 15.4948C10.7615 15.4948 10.4305 15.0682 10.4305 14.5379C10.4305 14.0076 10.7655 13.5809 11.1724 13.5809C11.5793 13.5809 11.9144 14.0115 11.9144 14.5379C11.9144 15.0642 11.5793 15.4948 11.1724 15.4948Z" fill="black"/>
<path d="M41.2095 12.2774V12.6442C40.8465 12.1219 40.0966 12.2016 40.0966 12.2016C38.2656 12.2016 38.2656 14.4824 38.2656 14.4824C38.2656 15.6866 38.8719 16.8748 40.1165 16.8748C40.5553 16.8748 40.9342 16.7552 41.1935 16.4043H41.2095V16.7313H42.6216V12.2814H41.2095V12.2774ZM40.4715 15.4633C40.0607 15.4633 39.7296 15.0326 39.7296 14.5063C39.7296 13.98 40.0607 13.5494 40.4715 13.5494C40.8824 13.5494 41.2135 13.98 41.2135 14.5063C41.2135 15.0326 40.8784 15.4633 40.4715 15.4633Z" fill="black"/>
<path d="M44.8353 15.4159L46.2514 12.2539H46.1756L42.8608 12.2579V13.6654H44.0296L42.6973 16.7118H45.9562V15.4557H44.8593" fill="black"/>
<path d="M26.008 29H25.992C25.5413 28.996 24.7036 28.689 24.6637 27.5406C24.6358 26.803 24.8592 26.2009 25.3139 25.7782C25.0387 25.7064 24.7355 25.6666 24.4244 25.6666C24.3246 25.6666 24.2289 25.6706 24.1332 25.6785C23.7064 25.7144 23.2436 25.9776 22.7091 26.2886C21.9353 26.7352 20.9739 27.2894 19.7453 27.2894C18.7361 27.2894 17.687 26.6156 17.3081 26.3444C16.9211 26.484 16.5143 26.5558 16.0954 26.5558C14.5796 26.5558 13.3072 25.6506 12.8803 25.3117C12.645 25.3914 12.3937 25.4273 12.1384 25.4273C10.7024 25.4273 9.36208 24.2112 8.94324 23.7925C8.74379 23.8324 8.54833 23.8523 8.35287 23.8523C6.5738 23.8523 5.47684 22.2095 5.1657 21.6712C3.03161 21.4878 2.12612 18.9758 1.92667 18.3259C0.0558512 17.4407 0.0598402 15.1918 0.351034 13.9916C-0.861608 11.8504 1.40811 9.74907 2.01842 9.23869C1.89875 7.3766 4.49157 6.42761 5.17368 6.21229C5.84781 4.56153 7.96595 4.37811 8.86346 4.37811C8.91931 4.37811 8.96717 4.37811 9.01105 4.37811C9.50967 3.45305 10.491 2.9626 11.8632 2.9626C12.3338 2.9626 12.7327 3.02241 12.9481 3.06228C13.9813 2.1133 15.2817 1.90994 16.2031 1.90994C16.6898 1.90994 17.0847 1.96576 17.3041 2.00564C17.5793 1.75045 18.2734 1.27196 19.5578 1.27196C21.0058 1.27196 21.664 1.85811 22.2424 2.37247C22.745 2.82304 23.1798 3.20982 24.1292 3.20982C24.568 3.20982 24.9469 3.17393 25.27 3.10615C24.8911 2.73931 24.7036 2.2369 24.7036 1.58697C24.7036 0.422659 25.4775 0 25.996 0C26.5146 0 27.2525 0.422659 27.2525 1.58697C27.2525 2.22494 27.0611 2.73532 26.6821 3.10216C27.0132 3.17393 27.4081 3.20982 27.8628 3.20982C28.8122 3.20982 29.247 2.82304 29.7496 2.37247C30.328 1.85811 30.9862 1.27196 32.4342 1.27196C33.7186 1.27196 34.4087 1.75045 34.6879 2.00564C34.9073 1.96576 35.2983 1.90994 35.7889 1.90994C36.7143 1.90994 38.0107 2.1133 39.0439 3.06228C39.2593 3.02241 39.6582 2.9626 40.1289 2.9626C41.5051 2.9626 42.4824 3.44906 42.981 4.37811C43.0249 4.37811 43.0767 4.37811 43.1286 4.37811C44.0301 4.37811 46.1442 4.56153 46.8184 6.21229C47.5005 6.42761 50.0933 7.3766 49.9736 9.23869C50.5839 9.74907 52.8536 11.8504 51.641 13.9916C51.9322 15.1958 51.9362 17.4447 50.0574 18.3259C49.8579 18.9798 48.9564 21.4878 46.8184 21.6712C46.5072 22.2056 45.4103 23.8523 43.6312 23.8523C43.4357 23.8523 43.2403 23.8324 43.0408 23.7925C42.622 24.2112 41.2817 25.4273 39.8457 25.4273C39.5864 25.4273 39.3391 25.3875 39.1037 25.3117C38.6769 25.6546 37.4044 26.5558 35.8886 26.5558C35.4698 26.5558 35.0629 26.484 34.676 26.3444C34.293 26.6156 33.2479 27.2894 32.2387 27.2894C31.0261 27.2894 30.0767 26.7352 29.3148 26.2926C28.7683 25.9736 28.2976 25.6985 27.8628 25.6825C27.791 25.6825 27.7192 25.6785 27.6474 25.6785C27.2765 25.6785 26.9374 25.7184 26.6422 25.7902C27.093 26.2089 27.3243 26.787 27.3243 27.4808C27.3243 28.685 26.4906 29.004 25.996 29.004L26.008 29ZM25.9801 26.0613C25.4974 26.3683 25.274 26.8468 25.2979 27.5207C25.3259 28.3261 25.8883 28.37 25.996 28.37H26.008C26.1715 28.37 26.7021 28.3062 26.7021 27.4768C26.7021 26.8468 26.4587 26.3683 25.9761 26.0613H25.9801ZM27.6594 25.0445C27.7392 25.0445 27.819 25.0445 27.8987 25.0485C28.4891 25.0725 29.0516 25.3994 29.6459 25.7463C30.3799 26.173 31.2096 26.6594 32.2507 26.6594C33.2918 26.6594 34.4327 25.7503 34.4446 25.7423L34.5922 25.6267L34.7637 25.6985C35.1227 25.85 35.5057 25.9257 35.9046 25.9257C37.4842 25.9257 38.8325 24.7295 38.8444 24.7176L38.996 24.582L39.1795 24.6618C39.3909 24.7535 39.6183 24.7973 39.8576 24.7973C41.2737 24.7973 42.7018 23.2502 42.7177 23.2343L42.8454 23.0947L43.0289 23.1426C43.2363 23.1984 43.4397 23.2263 43.6392 23.2263C45.3265 23.2263 46.3397 21.2486 46.3516 21.2287L46.4354 21.0612H46.6269C48.7011 21.0093 49.487 18.0547 49.4949 18.0228L49.5348 17.8673L49.6824 17.8075C51.7806 16.9423 51.0387 14.1511 51.0028 14.0315L50.9669 13.8959L51.0387 13.7763C52.2752 11.8105 49.483 9.64939 49.4551 9.62546L49.3035 9.50983L49.3354 9.32242C49.5987 7.64774 46.5311 6.7785 46.4992 6.77052L46.3357 6.72666L46.2838 6.56717C45.8131 5.15963 43.9224 5.00412 43.1326 5.00412C42.9371 5.00412 42.8174 5.01609 42.8174 5.01609L42.5941 5.03204L42.5023 4.82469C42.0555 3.80393 40.9666 3.58862 40.1329 3.58862C39.5146 3.58862 39.0279 3.70425 39.0239 3.70824L38.8524 3.7521L38.7248 3.6245C37.8273 2.72735 36.6346 2.53994 35.7929 2.53994C35.1387 2.53994 34.668 2.65558 34.664 2.65558L34.4606 2.70342L34.3369 2.53595C34.317 2.51203 33.8184 1.89798 32.4422 1.89798C31.2335 1.89798 30.7229 2.35652 30.1764 2.83899C29.626 3.32944 29.0595 3.83583 27.8708 3.83583C27.089 3.83583 26.4747 3.74013 25.988 3.54874H25.984H25.9801C25.5014 3.74412 24.8951 3.83583 24.1332 3.83583C22.9445 3.83583 22.378 3.32944 21.8276 2.83899C21.2851 2.35254 20.7705 1.89798 19.5618 1.89798C18.1856 1.89798 17.687 2.51203 17.6631 2.53595L17.5354 2.69545L17.336 2.65159C17.336 2.65159 16.8613 2.53595 16.2071 2.53595C15.3655 2.53595 14.1728 2.72336 13.2752 3.62051L13.1476 3.74811L12.9761 3.70425C12.9761 3.70425 12.4854 3.58463 11.8671 3.58463C11.0295 3.58463 9.94048 3.79994 9.4977 4.82071L9.40596 5.02805L9.18258 5.00811C9.18258 5.00811 9.06291 4.99615 8.86745 4.99615C8.07764 4.99615 6.18687 5.14767 5.71618 6.55919L5.66432 6.71869L5.50077 6.76255C5.46886 6.77052 2.40136 7.64375 2.66463 9.31445L2.69654 9.50186L2.54496 9.61749C2.51704 9.63743 -0.271243 11.8065 0.957355 13.7683L1.03314 13.8879L0.997244 14.0235C0.965333 14.1431 0.219398 16.9343 2.32158 17.7995L2.46917 17.8593L2.50906 18.0148C2.51704 18.0428 3.31084 21.0014 5.37712 21.0492H5.56859L5.65235 21.2247C5.66432 21.2446 6.67751 23.2183 8.36484 23.2183C8.56429 23.2183 8.77172 23.1904 8.97515 23.1346L9.15864 23.0868L9.28629 23.2263C9.28629 23.2263 10.7303 24.7894 12.1464 24.7894C12.3857 24.7894 12.6131 24.7455 12.8245 24.6538L13.008 24.574L13.1596 24.7096C13.1596 24.7096 14.5198 25.9178 16.0994 25.9178C16.4943 25.9178 16.8813 25.842 17.2403 25.6905L17.4118 25.6187L17.5594 25.7344C17.5594 25.7344 18.7361 26.6514 19.7533 26.6514C20.7705 26.6514 21.66 26.165 22.402 25.7344C22.9764 25.4034 23.5189 25.0884 24.0893 25.0406C24.201 25.0326 24.3167 25.0286 24.4323 25.0286C24.9948 25.0286 25.5413 25.1363 25.984 25.3396H25.988H25.992C26.4508 25.1402 27.0092 25.0406 27.6594 25.0406V25.0445ZM26 0.630001C25.9721 0.630001 25.3378 0.641963 25.3378 1.58697C25.3378 2.20102 25.5373 2.59577 25.9801 2.85096C26.4268 2.59178 26.6263 2.19703 26.6263 1.58697C26.6263 0.641963 26.004 0.630001 26 0.630001Z" fill="#C99640"/>
<path d="M46.7818 19.641C46.1915 19.641 45.7168 19.1625 45.7168 18.5763C45.7168 17.9902 46.1955 17.5117 46.7818 17.5117C47.3682 17.5117 47.8469 17.9902 47.8469 18.5763C47.8469 19.1625 47.3682 19.641 46.7818 19.641ZM46.7818 17.6234C46.2553 17.6234 45.8285 18.05 45.8285 18.5763C45.8285 19.1027 46.2553 19.5293 46.7818 19.5293C47.3084 19.5293 47.7352 19.1027 47.7352 18.5763C47.7352 18.05 47.3084 17.6234 46.7818 17.6234Z" fill="black"/>
<path d="M46.6059 19.1938H46.3945V17.9258H46.8014C47.0567 17.9258 47.2522 18.0454 47.2522 18.2966C47.2522 18.4561 47.1564 18.5996 46.9729 18.6315L47.3359 19.1977H47.0926L46.7735 18.6714H46.6059V19.1977V19.1938ZM46.7615 18.492C46.933 18.492 47.0368 18.4561 47.0368 18.2886C47.0368 18.1212 46.9091 18.1012 46.7575 18.1012H46.602V18.492H46.7575H46.7615Z" fill="black"/>
<path d="M26.2625 16.388C25.7399 16.7509 25.0538 16.9223 24.272 16.8067C22.816 16.5874 22.3055 15.1918 22.4889 13.9637C22.7123 12.4605 23.909 11.8105 25.1256 12.1136C26.2106 12.3847 26.6095 13.3457 26.6694 14.3864L24.0925 15.3553C24.3119 15.6783 24.8105 15.6185 24.9621 15.6145C25.4448 15.5985 26.0152 15.2636 26.3383 15.1001L26.2625 16.392V16.388ZM25.1217 13.6447C25.0419 13.4453 24.9023 13.3457 24.7028 13.3018C24.2521 13.2101 23.9688 13.4733 23.8651 13.8241C23.8173 13.9956 23.8332 14.0514 23.8452 14.1312L25.1217 13.6407V13.6447Z" fill="black"/>
</g>
<defs>
<clipPath id="clip0_1160_13104">
<rect width="52" height="29" fill="white"/>
</clipPath>
</defs>
</svg>
