<svg width="50" height="16" viewBox="0 0 50 16" fill="none" xmlns="http://www.w3.org/2000/svg">
<g clip-path="url(#clip0_1160_12889)">
<path d="M16.8184 4.89382C16.7794 4.69669 16.7211 4.13389 16.6724 3.9749C16.6238 3.82228 16.5816 3.58381 16.3189 3.41529C15.8325 3.10368 14.4445 3.34851 13.0468 3.27856C11.6491 3.20861 9.78437 2.82069 8.74013 2.50273C8.67203 2.48365 8.61366 2.48047 8.56177 2.48047C8.33801 3.05281 8.10127 3.64104 7.87751 4.1943C7.86778 4.21656 7.86129 4.23564 7.85156 4.25789C7.98452 4.44549 8.17586 4.5218 8.27315 4.56632C8.87958 4.84613 10.3551 5.36123 11.6361 5.64104C12.0026 5.72053 12.3787 5.79366 12.7614 5.85408C12.7841 5.85408 12.8068 5.86044 12.8295 5.86362C12.8263 5.86362 13.0208 5.89223 13.0208 5.89223C13.2997 5.92403 13.5948 5.95583 13.9094 5.98444H13.9224H13.9354C14.0262 5.98444 14.3602 6.02896 14.7072 6.06393C14.7266 6.06393 14.7493 6.06711 14.772 6.07029H14.7785C15.119 6.10527 15.4077 6.13707 15.5244 6.14025C16.0919 6.16886 16.6594 6.11481 16.8281 5.66648C16.9156 5.43436 16.8573 5.02419 16.8281 4.88428" fill="#ED1C24"/>
<path d="M4.14388 7.78378C4.29305 7.91733 4.52979 8.16216 4.79247 8.44833C4.92543 8.40064 5.12325 8.28935 5.31134 8.10811C5.69401 7.73291 6.96526 6.01272 7.42251 5.12878C7.66249 4.67091 7.78897 4.407 7.82788 4.30843C7.83437 4.29253 7.84086 4.27663 7.84734 4.26073C7.85707 4.23847 7.86356 4.2194 7.87329 4.19714C8.09705 3.64706 8.33703 3.05882 8.55755 2.48331C8.56079 2.47059 8.56728 2.46105 8.57052 2.44515C8.7651 1.93959 8.94671 1.44992 9.09264 1.00795C9.09264 1.00795 9.23209 0.515103 9.06994 0.343402C8.88833 0.149444 8.68727 0 8.29487 0C8.003 0 7.02363 0.101749 6.73176 0.187599C6.29396 0.317965 5.88535 0.556439 5.73942 0.915739L5.71996 1.02385C5.35999 3.13196 4.02065 5.6089 3.31692 6.96661C3.30071 6.99523 3.29098 7.02385 3.28125 7.05246C3.42718 7.16057 3.56339 7.27186 3.65095 7.35453C3.84228 7.53577 3.96552 7.63116 4.14064 7.78696" fill="#FCAF17"/>
<path d="M6.2099 10.0642C5.98289 9.79712 5.33106 9.04037 4.79272 8.44895C4.53004 8.16278 4.29331 7.91477 4.14413 7.78441C3.96901 7.6286 3.84254 7.53321 3.65444 7.35197C3.56688 7.2693 3.43068 7.15801 3.28475 7.04991C3.11287 6.92272 2.92802 6.79553 2.79182 6.71922C2.53886 6.57296 2.15944 6.51572 1.91946 6.5348C1.67948 6.55388 1.00494 6.66835 0.492555 7.08806C0.301221 7.24387 0.15853 7.35515 0.0547555 7.56501C-0.0425334 7.75579 -0.0230756 8.13417 0.317435 8.33448C1.17358 8.84323 4.36465 11.247 5.51266 12.7415C5.55158 12.7892 5.61644 12.8496 5.70075 12.8941C6.19044 12.6111 6.66716 12.3822 6.89092 12.2804C7.04983 12.2105 7.31575 12.0992 7.60762 11.9879C7.28981 11.3774 6.46609 10.3599 6.21639 10.0642" fill="#F58220"/>
<path d="M12.0767 11.9746C12.0605 11.7297 12.0507 11.4054 12.0475 11.1033C12.0151 11.0938 11.9859 11.0906 11.9599 11.0906C10.9319 11.0715 9.36231 11.4436 8.82398 11.5739C8.50293 11.6534 8.02297 11.8219 7.60139 11.9841C7.30952 12.0986 7.0436 12.2067 6.88469 12.2766C6.66093 12.3784 6.18421 12.6073 5.69452 12.8903C5.3378 13.097 4.97134 13.3323 4.69893 13.5644C4.22546 13.9682 4.0925 14.0763 4.10871 14.4483C4.11196 14.5501 4.13466 14.6677 4.18006 14.8044C4.18006 14.8044 4.32275 15.2019 4.44923 15.399C4.57246 15.5962 4.78325 16 5.59723 16C5.72371 16 5.87289 15.9523 6.10962 15.806C6.34636 15.6598 8.13972 14.3561 8.50942 14.1653C8.88236 13.9714 9.25205 13.7742 9.52122 13.6661C9.94605 13.4944 11.4865 13.0811 11.8367 13.0302C12.028 13.0016 12.135 12.9284 12.1934 12.8362C12.1448 12.5691 12.0961 12.2607 12.0767 11.9746Z" fill="#98384E"/>
<path d="M15.4364 13.0097V13.0033L15.4299 12.997C14.8851 11.8809 14.7456 11.0256 14.6321 9.7569C14.5608 8.93655 14.6808 7.33083 14.7229 6.76485C14.7424 6.52002 14.7748 6.32288 14.7651 6.22113C14.7586 6.15754 14.7327 6.10666 14.697 6.06533C14.3532 6.03035 14.016 5.98583 13.9252 5.98583H13.9122H13.8992C13.5847 5.95722 13.2896 5.92542 13.0107 5.89362C13.0107 5.89362 12.8161 5.86501 12.8193 5.86501C12.7966 5.86183 12.7739 5.85865 12.7512 5.85547C12.4237 6.93655 12.148 9.43575 12.1286 9.66151C12.1059 9.89044 12.0443 10.6377 12.041 10.8475C12.041 10.927 12.041 11.0129 12.041 11.1019C12.041 11.404 12.054 11.7283 12.0702 11.9731C12.0864 12.2593 12.1351 12.5645 12.1869 12.8348C12.2518 13.1718 12.3232 13.4485 12.3523 13.5407C12.4042 13.7028 12.5145 14.0208 12.641 14.2021C12.8907 14.5582 13.5393 14.6536 14.0776 14.4946C14.5024 14.3674 14.9143 14.1162 15.1153 13.8968C15.2775 13.7187 15.4396 13.4676 15.4656 13.2831C15.4753 13.21 15.4461 13.0415 15.4332 13.0097" fill="#A7A838"/>
<path d="M45.352 7.73292C44.7358 7.73292 44.2688 7.35454 44.2688 6.74723C44.2688 6.13992 44.7358 5.65025 45.352 5.65025C45.9682 5.65025 46.4384 6.14309 46.4384 6.74723C46.4384 7.35136 45.9844 7.73292 45.352 7.73292ZM49.5808 8.89667H46.1335V8.6105C47.207 8.34659 48.0112 7.65979 48.0112 6.74405C48.0112 6.32433 47.8393 5.92688 47.5507 5.5962H48.5885C49.1463 5.59302 49.1463 4.63594 48.5885 4.63594H46.1595L46.1757 3.99365C46.1757 3.88554 46.0654 3.77744 45.9552 3.77744H44.5315C44.2332 3.77744 44.2137 3.98093 44.4213 4.18125C44.5023 4.26074 44.5672 4.21305 44.5802 4.47378V4.63276H42.2225C41.6647 4.63276 41.6647 5.58666 42.2225 5.58666L43.1597 5.59302C42.8711 5.9237 42.696 6.32116 42.696 6.74405C42.696 7.65979 43.5003 8.34659 44.5737 8.6105V8.89667H41.2269C40.6691 8.89667 40.6691 9.92688 41.2269 9.92688H49.5841C50.1418 9.92688 50.1418 8.89667 49.5841 8.89667H49.5808Z" fill="#231F20"/>
<path d="M38.8348 3.82831H37.3949C37.0933 3.82831 37.0673 4.14309 37.2944 4.32751C37.4857 4.48332 37.6122 4.60732 37.6446 4.89985C37.6478 4.95072 37.6478 7.99047 37.6446 10.3275H36.3506C35.6826 10.3275 35.6826 11.4754 36.3506 11.4754H37.6446C37.6446 12.3688 37.6446 12.9857 37.6446 12.9857C37.6576 13.3704 38.0078 13.5612 38.3548 13.5612C38.7018 13.5612 39.0618 13.3704 39.0618 12.9857L39.0553 4.0477C39.0553 3.9396 38.945 3.83149 38.8348 3.83149" fill="#231F20"/>
<path d="M43.7674 11.4269H47.0396V12.6256H43.7674V11.4269ZM48.113 10.4348H42.6972C42.4475 10.4348 42.3438 10.5461 42.3438 10.7782V13.2329C42.3438 13.3951 42.4962 13.5477 42.6745 13.5477H48.1292C48.3076 13.5477 48.4632 13.3951 48.4632 13.2329L48.4697 10.7782C48.4697 10.5461 48.3659 10.4316 48.1162 10.4316L48.113 10.4348Z" fill="#231F20"/>
<path d="M33.7179 5.2366C34.36 5.2366 34.8076 5.77078 34.8076 6.45758C34.8076 7.14439 34.3633 7.67539 33.7179 7.67539C33.0726 7.67539 32.6315 7.14121 32.6315 6.45758C32.6315 5.77396 33.0856 5.2366 33.7179 5.2366ZM33.7179 8.61339C35.1513 8.61339 36.3512 7.63405 36.3512 6.45758C36.3512 5.28111 35.1513 4.28906 33.7179 4.28906C32.2845 4.28906 31.0879 5.26839 31.0879 6.45758C31.0879 7.64677 32.2878 8.61339 33.7179 8.61339Z" fill="#231F20"/>
<path d="M36.6267 9.0467C36.578 9.02444 36.5261 9.01172 36.4678 9.01172H30.8769C30.3613 9.01172 30.3256 9.89566 30.7666 10.026C30.812 10.0483 30.8672 10.061 30.9256 10.061H32.9881V12.9926C32.9881 13.2788 33.1502 13.4442 33.374 13.5205C33.4778 13.5618 33.5978 13.5841 33.7242 13.5841C34.0874 13.5841 34.3988 13.4155 34.3988 13.0117V10.0642H36.5132C37.0288 10.0642 37.0677 9.18024 36.6267 9.04987" fill="#231F20"/>
<path d="M22.2508 10.7666C21.0931 10.7666 20.905 9.51384 20.905 8.41686V8.04484C20.905 6.94469 21.1579 5.6919 22.2378 5.6919C23.3956 5.6919 23.5707 6.94786 23.5707 8.04484L23.5837 8.41368C23.5837 9.51384 23.3307 10.7666 22.2508 10.7666ZM22.2378 4.75391C20.1559 4.75391 19.3613 6.47728 19.3613 8.04484V8.41368C19.3613 9.98125 20.091 11.7046 22.2508 11.7046C24.4106 11.7046 25.1273 9.98125 25.1273 8.41368V8.04484C25.1273 6.47728 24.3976 4.75391 22.2378 4.75391Z" fill="#231F20"/>
<path d="M28.8778 6.93124H27.9082V4.03458C27.9082 3.92647 27.7947 3.81836 27.6844 3.81836H26.2446C25.9462 3.81836 25.9073 4.05047 26.144 4.31756C26.3808 4.58466 26.4943 4.80723 26.4943 5.19197C26.4943 5.49721 26.4943 12.9726 26.4943 12.9726C26.5072 13.3573 26.8575 13.5481 27.2045 13.5481C27.5515 13.5481 27.9114 13.3573 27.9114 12.9726V8.07591H28.8746C29.5427 8.07591 29.5427 6.92806 28.8746 6.92806" fill="#231F20"/>
</g>
<defs>
<clipPath id="clip0_1160_12889">
<rect width="50" height="16" fill="white"/>
</clipPath>
</defs>
</svg>
