<svg width="44" height="38" viewBox="0 0 44 38" fill="none" xmlns="http://www.w3.org/2000/svg">
<g clip-path="url(#clip0_1160_12808)">
<path d="M39.1169 12.9492C34.5986 11.1364 30.0371 11.3275 28.8787 13.4538C27.7107 15.5949 29.4123 20.6658 32.6231 24.8793C35.8339 29.0879 40.3714 28.9507 42.8757 24.3551C45.3415 19.7741 43.6207 14.762 39.1169 12.9541" fill="#F9A12C"/>
<path d="M16.1452 14.419C20.1539 17.2068 24.6433 18.0544 26.2343 16.2416C27.8398 14.419 27.287 9.08845 25.0711 4.25761C22.8601 -0.568328 18.4043 -1.46002 14.9628 2.44972C11.5645 6.35947 12.1509 11.6313 16.1452 14.4141" fill="#0080C6"/>
<path d="M30.5064 29.1033C29.8624 24.199 27.4783 20.2304 25.0942 20.2304C22.6908 20.2304 19.1724 24.2137 17.1248 29.1229C15.0819 34.0272 17.4035 38.0056 22.5611 38.0007C27.6897 37.9664 31.1457 33.9978 30.5064 29.1033Z" fill="#EF4141"/>
<path d="M12.2139 16.3507C11.3967 16.3507 10.8488 16.8651 10.8488 17.6294V18.3987H12.7907C12.7907 18.3987 12.858 24.9296 12.7811 25.6106C12.709 26.2965 12.5359 27.4087 11.3391 27.9917C10.3056 28.4964 10.2816 28.9716 10.2143 29.3979C10.1278 29.9466 10.2287 30.0152 10.6229 29.9172C12.1658 29.5302 13.8097 28.903 14.6364 27.345C15.0882 26.5023 15.2661 25.5861 15.2661 24.1996V18.3938C16.088 18.384 16.684 17.8499 16.684 17.115V16.3458H12.2139V16.3507Z" fill="#231F20"/>
<path d="M10.0555 25.155C10.0555 25.155 8.49814 27.4332 5.47477 27.4332C2.45139 27.4332 0 24.9982 0 21.7695C0 18.5408 2.35045 16.0273 5.47477 16.0273C8.59908 16.0273 10.017 18.3056 10.017 18.3056C10.017 18.3056 9.18549 19.212 8.38759 19.212C7.99825 19.212 7.70505 19.0307 7.36858 18.8151C6.91676 18.531 6.40725 18.2076 5.47477 18.2076C3.70111 18.2076 2.25912 19.8048 2.25912 21.7646C2.25912 23.7244 3.70111 25.2481 5.47477 25.2481C6.52742 25.2481 7.0225 24.9394 7.45991 24.6699C7.77234 24.4789 8.06555 24.2927 8.48853 24.2927C9.38737 24.2927 10.0603 25.1501 10.0603 25.1501L10.0555 25.155Z" fill="#231F20"/>
</g>
<defs>
<clipPath id="clip0_1160_12808">
<rect width="44" height="38" fill="white"/>
</clipPath>
</defs>
</svg>
