<svg width="38" height="43" viewBox="0 0 38 43" fill="none" xmlns="http://www.w3.org/2000/svg">
<g clip-path="url(#clip0_1160_13082)">
<path d="M29.1742 10.2285C29.1742 15.8784 24.6226 20.4571 19.006 20.4571C13.3895 20.4571 8.83789 15.8784 8.83789 10.2285C8.83789 4.57863 13.3895 0 19.006 0C24.6226 0 29.1742 4.57863 29.1742 10.2285Z" fill="white"/>
<path d="M19.006 0C13.3895 0 8.83789 4.57863 8.83789 10.2285C8.83789 15.8784 13.3895 20.4571 19.006 20.4571C24.6226 20.4571 29.1742 15.8784 29.1742 10.2285C29.1742 4.57863 24.6226 0 19.006 0ZM18.4121 4.56318L19.0009 3.36316L19.5897 4.56318L20.9106 4.75889L19.9583 5.69625L20.1836 7.01473L19.006 6.39154L17.8285 7.01473L18.0537 5.69625L17.1014 4.75889L18.4224 4.56318H18.4121ZM12.3143 6.01557C12.3143 5.55719 12.6829 5.18637 13.1335 5.18637C13.5841 5.18637 13.9527 5.55719 13.9527 6.01557C13.9527 6.47395 13.5892 6.84477 13.1335 6.84477C12.6778 6.84477 12.3143 6.47395 12.3143 6.01557ZM13.0772 15.6724L12.7546 7.46281L15.632 9.01306L15.7447 15.5694C14.8026 15.5952 13.9066 15.6261 13.0772 15.6724ZM21.735 15.5591C20.8594 15.5385 19.943 15.5282 19.006 15.5282C18.0691 15.5282 17.1475 15.5385 16.272 15.5591L16.144 9.16242L19.006 7.84908L21.8681 9.16242L21.7401 15.5591H21.735ZM24.9349 15.6724C24.1055 15.6261 23.2095 15.5952 22.2674 15.5694L22.3801 9.01306L25.2575 7.46281L24.94 15.6724H24.9349ZM24.8735 6.84477C24.4178 6.84477 24.0492 6.47395 24.0492 6.01557C24.0492 5.55719 24.4178 5.18637 24.8735 5.18637C25.3291 5.18637 25.6926 5.55719 25.6926 6.01557C25.6926 6.47395 25.324 6.84477 24.8735 6.84477Z" fill="#B4121B"/>
<path d="M4.53063 27.3747H2.19595V24.4081H0.347656V32.3859H2.19595V29.1052H4.53063V32.3859H6.31236V24.4081H4.53063V27.3747Z" fill="#231F20"/>
<path d="M11.3496 24.2227C9.07119 24.2227 7.04883 26.015 7.04883 28.3635C7.04883 30.7121 9.07631 32.5713 11.3496 32.5713C13.6228 32.5713 15.594 30.7739 15.594 28.3635C15.594 25.9532 13.6279 24.2227 11.3496 24.2227ZM11.3496 30.7121C9.87502 30.7121 8.95344 29.5378 8.95344 28.3635C8.95344 27.1892 9.87502 26.0768 11.3496 26.0768C12.8241 26.0768 13.6842 27.1892 13.6842 28.3635C13.6842 29.5378 12.8241 30.7121 11.3496 30.7121Z" fill="#231F20"/>
<path d="M18.3091 24.4081H16.5273V32.3859H20.2751L21.0841 30.6554H18.3091V24.4081Z" fill="#231F20"/>
<path d="M23.8384 24.4081H22.0566V32.3859H25.7993L26.6082 30.6554H23.8384V24.4081Z" fill="#231F20"/>
<path d="M29.0594 27.1223L27.6667 24.4081H25.7109L28.1071 28.7962V32.3859H29.0594H30.0117V28.7962L32.4078 24.4081H30.452L29.0594 27.1223Z" fill="#231F20"/>
<path d="M35.8805 27.5604C35.2559 27.3389 34.8975 27.1999 34.8053 27.1432C34.5545 27.0042 34.4367 26.8085 34.4367 26.5561C34.4367 26.3398 34.5135 26.1647 34.6722 26.0256C34.8361 25.8814 35.0716 25.8042 35.3634 25.8042H35.4505C35.4812 25.8042 35.5119 25.8042 35.5426 25.8042C35.6399 25.8042 35.7628 25.8042 35.9676 25.8454C36.3823 25.9226 36.7458 26.1235 36.9813 26.2574L37.0018 26.2677L37.0427 26.2934L37.0683 26.2522L37.7647 25.1552L37.7851 25.1192L37.7544 25.0934C37.6674 25.011 37.565 24.9389 37.4472 24.8771L37.3807 24.841C36.9864 24.6196 36.3311 24.2539 35.4197 24.2539C34.6005 24.2539 33.9247 24.4908 33.4076 24.9595C32.9059 25.4282 32.6499 26.0153 32.6499 26.7261C32.6499 27.3183 32.8291 27.7922 33.1823 28.1424C33.5049 28.4463 34.0578 28.7192 34.8156 28.951C35.3122 29.1107 35.6655 29.2652 35.8549 29.4094C36.0956 29.5793 36.2133 29.8111 36.2133 30.115C36.2133 30.3673 36.1263 30.5733 35.9471 30.7382C35.7679 30.903 35.5426 30.9905 35.2815 30.9905C34.9948 30.9905 34.6466 30.9184 34.2319 30.7845C34.0834 30.7382 33.9042 30.6764 33.7353 30.6145C33.6124 30.5733 33.4895 30.5321 33.3871 30.4961L33.3462 30.4858L33.3257 30.5218L32.6396 31.8043L32.6191 31.8455L32.655 31.8712C32.742 31.933 32.8342 31.9845 32.9315 32.036C33.3718 32.2627 34.3138 32.5768 35.0255 32.5768C35.9215 32.5768 36.6485 32.3245 37.1963 31.8249C37.7288 31.3407 37.995 30.7021 37.995 29.9347C37.995 29.3579 37.8159 28.8686 37.4626 28.4926C37.1247 28.1218 36.5922 27.8179 35.8754 27.5759L35.8805 27.5604Z" fill="#231F20"/>
<path d="M11.192 34.4766C8.92903 34.4766 6.85547 36.3049 6.85547 38.7101C6.85547 41.1153 8.92903 43.0055 11.192 43.0055C13.455 43.0055 15.5849 41.172 15.5849 38.7101C15.5849 36.2483 13.5114 34.4766 11.192 34.4766ZM11.192 41.105C9.68166 41.105 8.80616 39.905 8.80616 38.705C8.80616 37.5049 9.68166 36.3667 11.192 36.3667C12.7024 36.3667 13.6394 37.5049 13.6394 38.705C13.6394 39.905 12.7587 41.105 11.192 41.105Z" fill="#231F20"/>
<path d="M16.5586 42.8151H18.4427V39.591H20.3269V37.8193H18.4427V36.4338H20.4395L21.2638 34.6621H16.5586V42.8151Z" fill="#231F20"/>
<path d="M31.4306 36.4338L32.2549 34.6621H27.4883V42.8151H32.1372V41.0434H29.3724V39.591H31.6201V37.8193H29.3724V36.4338H31.4306Z" fill="#231F20"/>
<path d="M22.2559 42.8151H24.14V39.591H26.019V37.8193H24.14V36.4338H26.1368L26.9611 34.6621H22.2559V42.8151Z" fill="#231F20"/>
<path d="M35.0658 39.591H37.3185V37.8193H35.0658V36.4338H37.124L37.9483 34.6621H33.1816V42.8151H37.8305V41.0434H35.0658V39.591Z" fill="#231F20"/>
<path d="M4.19321 41.1043C2.73403 41.1043 1.88413 39.9043 1.88413 38.7043C1.88413 37.5042 2.73403 36.366 4.19321 36.366C5.07383 36.366 5.72918 36.7523 6.12342 37.3085L7.05012 35.5832C6.28213 34.8879 5.26327 34.4707 4.19321 34.4707C2.00701 34.4707 0 36.2991 0 38.7043C0 41.1095 2.00189 42.9996 4.19321 42.9996C5.20695 42.9996 6.1695 42.6288 6.92212 41.9902L6.00566 40.2803C5.60631 40.7695 4.99192 41.1095 4.19321 41.1095V41.1043Z" fill="#231F20"/>
</g>
<defs>
<clipPath id="clip0_1160_13082">
<rect width="38" height="43" fill="white"/>
</clipPath>
</defs>
</svg>
