<svg width="36" height="36" viewBox="0 0 36 36" fill="none" xmlns="http://www.w3.org/2000/svg">
<g clip-path="url(#clip0_1160_12971)">
<path d="M12.3663 10.4017C12.2284 10.5756 12.1444 10.6775 12.0665 10.7854C9.46377 14.4544 6.85507 18.1233 4.26437 21.7983C4.02449 22.134 3.78461 22.2958 3.35882 22.2838C2.43528 22.2539 1.51174 22.2719 0.576209 22.2719C1.93753 29.0582 9.05597 36.7498 19.5147 35.9345C28.6122 35.2271 34.4293 27.9251 35.4068 22.2719C34.4773 22.2719 33.5477 22.2539 32.6242 22.2778C32.2464 22.2898 32.0125 22.1699 31.7906 21.8582C29.6137 18.7708 27.4248 15.7013 25.2419 12.6259C24.7201 11.8945 24.1984 11.1691 23.6347 10.3898C22.5312 11.9724 21.4818 13.4772 20.4383 14.9879C20.1804 15.3596 19.7426 15.7493 19.7486 16.121C19.7546 16.5226 20.1864 16.9243 20.4383 17.32C21.5957 19.1545 22.8131 20.9589 23.9045 22.8354C24.948 24.6399 24.6362 26.4324 23.4368 28.045C21.3198 30.8747 17.1099 31.5221 14.1294 29.5318C11.4848 27.7633 10.7831 25.0356 12.3663 22.3018C13.3798 20.5573 14.5312 18.8847 15.6167 17.1821C16.3183 16.091 16.3243 16.085 15.5747 15.0059C14.5192 13.4832 13.4638 11.9664 12.3663 10.3838V10.4017ZM35.5027 22.086C37.092 15.7793 34.957 7.58409 27.8026 2.88401C21.068 -1.5403 11.9525 -0.808912 5.91954 4.65254C0.096449 9.91615 -0.791107 17.5238 0.546224 22.038C4.47426 16.4687 8.38431 10.9353 12.3483 5.31798C14.2614 8.0577 16.1144 10.7075 18.0035 13.4172C19.8926 10.7015 21.7336 8.0577 23.6347 5.31798C27.6167 10.9413 31.5327 16.4747 35.5027 22.08V22.086ZM18.0815 19.1125C18.0155 19.1125 17.9555 19.1125 17.8896 19.1185C16.8761 20.7611 15.8386 22.3978 14.8491 24.0584C14.3633 24.8737 14.5672 25.695 15.059 26.4384C16.3423 28.3808 19.4848 28.4407 20.8461 26.5583C21.3918 25.8029 21.6377 24.9396 21.1459 24.0943C20.1624 22.4097 19.1129 20.7731 18.0875 19.1125H18.0815Z" fill="white"/>
<path d="M12.3663 10.4023C13.4637 11.985 14.5252 13.5018 15.5747 15.0245C16.3183 16.1036 16.3123 16.1036 15.6167 17.2007C14.5252 18.9033 13.3798 20.5699 12.3663 22.3204C10.7771 25.0541 11.4787 27.7879 14.1294 29.5504C17.1099 31.5407 21.3198 30.8933 23.4367 28.0636C24.6421 26.451 24.948 24.6525 23.9045 22.854C22.8191 20.9775 21.6017 19.173 20.4382 17.3386C20.1864 16.9429 19.7546 16.5412 19.7486 16.1396C19.7426 15.7679 20.1804 15.3782 20.4382 15.0065C21.4817 13.4958 22.5312 11.991 23.6346 10.4083C24.1924 11.1877 24.7201 11.9131 25.2418 12.6445C27.4307 15.7199 29.6196 18.7954 31.7906 21.8768C32.0125 22.1885 32.2523 22.3084 32.6241 22.2964C33.5477 22.2725 34.4772 22.2904 35.4068 22.2904C34.4352 27.9437 28.6182 35.2396 19.5147 35.9531C9.05593 36.7564 1.93749 29.0648 0.576172 22.2784C1.5117 22.2784 2.43524 22.2605 3.35878 22.2904C3.78457 22.3024 4.02445 22.1406 4.26433 21.8048C6.85503 18.1299 9.46373 14.461 12.0664 10.792C12.1444 10.6841 12.2283 10.5822 12.3663 10.4083V10.4023Z" fill="white"/>
<path d="M35.5027 22.086C31.5327 16.4807 27.6167 10.9473 23.6347 5.32398C21.7336 8.0577 19.8926 10.7075 18.0035 13.4232C16.1144 10.7135 14.2614 8.06369 12.3483 5.32398C8.38431 10.9353 4.47426 16.4687 0.546224 22.038C-0.791107 17.5238 0.096449 9.91615 5.91954 4.65254C11.9525 -0.808912 21.068 -1.5403 27.8026 2.88401C34.957 7.58409 37.092 15.7793 35.5027 22.086Z" fill="white"/>
<path d="M18.0824 19.1133C19.1079 20.7679 20.1633 22.4105 21.1409 24.0951C21.6386 24.9404 21.3867 25.8097 20.841 26.5591C19.4797 28.4475 16.3373 28.3816 15.0539 26.4392C14.5621 25.6958 14.3582 24.8745 14.844 24.0592C15.8335 22.3985 16.865 20.7679 17.8845 19.1193C17.9504 19.1193 18.0104 19.1193 18.0764 19.1133H18.0824Z" fill="white"/>
</g>
<defs>
<clipPath id="clip0_1160_12971">
<rect width="36" height="36" fill="white"/>
</clipPath>
</defs>
</svg>
