<svg width="64" height="64" viewBox="0 0 64 64" fill="none" xmlns="http://www.w3.org/2000/svg">
<rect width="80" height="80" transform="translate(0 -8)" fill="#C54D4D"/>
<g clip-path="url(#clip0_1160_12819)">
<path d="M11.1513 25.1996L12.0688 24.69C13.9539 23.9219 16.0424 23.7363 18.031 24.1804C18.1738 24.2131 19.5197 24.5698 19.4233 24.7045C17.0063 25.6582 16.2066 28.7086 17.8846 30.7798C19.4805 32.7454 22.5044 32.5525 23.9182 30.4886L24.5322 29.1709C26.5351 33.1531 25.8817 38.2165 22.5865 41.2377V34.3762H21.1691C20.9942 34.3762 19.2484 35.7849 18.8593 35.865V37.4338L20.8871 36.1926V42.6391C20.423 42.7702 20.0303 43.076 19.5876 43.258C17.0206 44.3172 14.268 44.2044 11.7261 43.1342L13.7111 42.6464L16.1388 43.7202L16.8314 42.5991L15.0499 41.8129L15.8211 40.659C17.9382 36.593 13.4433 32.2467 9.59114 34.6383C8.77 35.1479 7.50617 36.7168 7.50617 37.7214V39.2502L6.8207 38.009C5.13201 33.9321 6.08881 29.3747 9.32694 26.4408H13.3398V28.341H8.96279V29.5822H13.3398V32.5598H14.8V25.2032H11.1513V25.1996Z" fill="white"/>
<path d="M40.2982 27.1832C41.1229 27.3069 40.8123 28.4717 40.7302 29.1124C40.5374 30.6594 40.084 32.3047 39.2843 33.6297H42.0797C42.5581 33.6297 42.6724 34.7035 42.1619 34.7035H38.5524V40.4476C38.5524 40.6259 38.049 41.2921 37.8277 41.3612C37.6206 41.4267 36.6888 41.4668 36.6888 41.1901V34.6999H33.8505V40.5276C33.8505 40.5641 33.5364 41.0846 33.4792 41.1428C33.1615 41.4595 31.9869 41.5687 31.9869 41.1064V34.6999H29.1915C28.9487 34.6999 28.456 33.859 28.3418 33.6261H37.9098L38.3168 31.0635C35.9427 31.9735 33.2365 31.3947 30.7338 31.5622C30.2411 31.5039 29.9055 30.8705 29.6413 30.4847H37.1422L38.3846 30.1389C38.4203 29.7749 38.3846 29.4036 38.3989 29.0359C38.4025 28.9085 38.6024 28.2497 38.3561 28.2497H30.8159C30.7088 28.2497 29.9055 27.3979 29.9662 27.1759H40.3054L40.2982 27.1832Z" fill="white"/>
<path d="M11.9081 41.4631C13.5131 41.4631 14.8142 40.1366 14.8142 38.5001C14.8142 36.8637 13.5131 35.5371 11.9081 35.5371C10.3031 35.5371 9.00195 36.8637 9.00195 38.5001C9.00195 40.1366 10.3031 41.4631 11.9081 41.4631Z" fill="white"/>
<path d="M55.7469 36.8142C55.7183 37.029 55.3648 37.7643 55.1399 37.7643H53.8011L53.719 36.1117H50.7594L50.0703 35.1179H53.719V27.3064C53.719 27.2554 53.8297 27.0989 53.8404 27.0188C53.9368 26.9023 55.2399 26.895 55.4577 26.9387C55.5469 26.9569 55.7433 27.0807 55.7433 27.1426V36.8142H55.7469Z" fill="white"/>
<path d="M46.8885 27.1217C48.6878 26.8741 51.4154 27.5221 51.2797 29.859C51.0727 33.328 43.8967 33.1933 44.3251 29.3858C44.4643 28.1409 45.7531 27.2818 46.892 27.1253L46.8885 27.1217ZM49.3626 29.7025C49.3626 28.8216 48.6628 28.1081 47.7988 28.1081C46.9349 28.1081 46.2351 28.8216 46.2351 29.7025C46.2351 30.5834 46.9349 31.2968 47.7988 31.2968C48.6628 31.2968 49.3626 30.5834 49.3626 29.7025Z" fill="white"/>
<path d="M20.7841 30.6675C22.0736 30.6675 23.119 29.6016 23.119 28.2869C23.119 26.9721 22.0736 25.9062 20.7841 25.9062C19.4946 25.9062 18.4492 26.9721 18.4492 28.2869C18.4492 29.6016 19.4946 30.6675 20.7841 30.6675Z" fill="white"/>
<path d="M46.582 37.3927C46.6606 37.1015 47.9565 37.1451 48.2386 37.1925C48.3885 37.2179 48.5099 37.2798 48.6099 37.3927V39.7077C48.6099 39.9626 48.9026 40.494 49.2239 40.4867L55.6074 40.5086C56.0929 40.6469 56.15 41.1674 55.6681 41.364L48.003 41.4004C47.596 41.4222 46.582 40.8944 46.582 40.4503V37.3927Z" fill="white"/>
<path d="M43.7863 34.0447C43.5543 33.9937 42.8831 33.0946 42.9366 33.0546C45.375 32.9781 47.8384 33.1528 50.2769 33.0546C50.7374 33.0364 51.3622 33.0109 51.812 32.9672C52.1084 32.9381 53.0723 32.6432 53.2365 32.7561C53.7685 33.1201 52.2369 33.6879 52.0155 33.7535C50.9016 34.0847 49.8306 34.0265 48.6846 34.0774C48.4989 34.2085 48.6846 35.6499 48.5739 36.0285C48.5168 36.2214 48.1026 36.6036 47.9206 36.6036H46.7031L46.5817 36.4799V34.1648L46.4604 34.041H43.7863V34.0447Z" fill="white"/>
<path d="M15.6103 23.0517C14.5785 22.7386 13.5574 22.7896 12.5328 22.3491C11.3047 21.8213 10.7334 20.864 10.0158 19.7902L9.20898 19.0039C11.8116 19.2733 14.8498 20.1869 15.6138 23.0553L15.6103 23.0517Z" fill="white"/>
</g>
<defs>
<clipPath id="clip0_1160_12819">
<rect width="50" height="25" fill="white" transform="translate(6 19)"/>
</clipPath>
</defs>
</svg>
