<svg width="64" height="64" viewBox="0 0 64 64" fill="none" xmlns="http://www.w3.org/2000/svg">
<rect width="80" height="80" transform="translate(0 -8)" fill="#FF8400"/>
<g clip-path="url(#clip0_1160_12770)">
<path d="M10.2625 34.5208C10.2625 34.4578 10.2043 34.4181 10.2043 34.4181C9.66407 34.0072 8.29631 33.3875 6.13182 32.5723C6.12157 32.569 5 32.1382 5 30.9883C5 29.9941 6.99352 28.8177 11.0934 27.3894C11.3362 27.3099 11.5653 27.2734 11.7636 27.2734C12.5056 27.2734 12.6732 27.8103 12.6732 27.8169C12.6766 27.8302 12.851 28.2974 12.533 28.7448C12.2423 29.1491 11.5174 29.4341 10.4163 29.8582L8.13218 30.9253C7.86204 31.0545 8.09456 31.1937 8.09456 31.1937C10.9429 32.0951 12.3107 33.1621 12.3346 34.4578C12.3449 35.5249 11.7807 36.1114 11.7191 36.1479C11.6507 36.2042 11.5447 36.3136 11.5208 36.3335C11.2746 36.5621 11.0763 36.7113 10.8369 36.9035C10.3685 37.2879 9.95472 37.5662 9.53072 37.7949C9.13065 38.0037 8.73741 38.1163 8.32366 38.2323L8.24502 38.2522C7.54746 38.4477 5.62575 38.5272 5.41033 37.5894C5.30433 37.1255 5.65653 36.9167 6.0566 36.7908C6.4977 36.6417 6.91145 36.4992 7.34229 36.3401C7.55088 36.2639 7.72869 36.1678 7.91334 36.0883C8.5938 35.8132 8.89813 35.6508 9.31871 35.3559C10.2043 34.7263 10.2625 34.5241 10.2625 34.5241V34.5208Z" fill="white"/>
<path d="M19.7385 36.3853C19.7145 36.6438 19.6325 36.9089 19.1743 36.9387L19.5025 38.6188C19.5025 38.6188 19.5059 38.6255 19.5059 38.6321V38.9303C19.5059 38.9303 19.5025 38.9436 19.5025 38.9535C19.4376 39.1557 19.1914 39.3214 18.7503 39.4639C18.7468 39.4705 18.7366 39.4705 18.7297 39.4705H18.7263C18.2784 39.4539 17.8065 38.7448 17.3209 37.3596C16.4422 37.4822 15.8061 37.6147 15.2967 37.7871C15.2967 37.7871 13.8605 38.2112 13.734 38.2643C13.734 38.2643 13.7511 38.42 13.734 38.5194C13.734 38.9469 13.4844 39.1524 12.9715 39.1524H12.6398C12.3354 39.1524 12.0448 38.6255 11.7747 37.5783C11.7678 37.5683 11.7678 37.5617 11.7747 37.5551C11.7918 37.4225 12.0448 37.1806 12.5372 36.836C13.7169 33.2703 14.7803 31.4609 15.6899 31.4609H15.7993C16.6576 31.4609 17.4611 32.5545 18.4152 35.2785L18.7024 35.2023C18.8015 35.1791 18.9041 35.1691 19.0033 35.1691C19.3145 35.1691 19.6359 35.3017 19.6359 35.5999C19.7282 36.1202 19.7385 36.3952 19.7385 36.3952V36.3853ZM14.4931 36.2958H14.6094L16.5823 35.7292V35.6231C16.1241 34.334 15.7788 34.0225 15.5907 34.0225H15.5702L14.4931 36.2958Z" fill="white"/>
<path d="M41.6807 36.368C41.6533 36.6232 41.5712 36.8883 41.1199 36.9148L41.4481 38.5949C41.4481 38.5949 41.4516 38.6049 41.4516 38.6082V38.9064C41.4516 38.9064 41.4481 38.923 41.4447 38.9263C41.3832 39.1318 41.1335 39.2975 40.6959 39.4366C40.6856 39.44 40.6753 39.4433 40.6719 39.4433C40.2274 39.4267 39.7487 38.7208 39.27 37.3324C38.3843 37.455 37.7518 37.5875 37.2388 37.7598C37.2388 37.7598 35.8061 38.1873 35.6796 38.2403C35.6796 38.2403 35.6933 38.3994 35.6796 38.4955C35.6796 38.9164 35.43 39.1251 34.9136 39.1251H34.5854C34.2811 39.1251 33.987 38.5916 33.7203 37.5511C33.7203 37.5411 33.7169 37.5345 33.7203 37.5246C33.7374 37.3953 33.9904 37.1501 34.4794 36.8055C35.6659 33.2398 36.7259 31.4337 37.6355 31.4337H37.7415C38.5998 31.4337 39.4067 32.524 40.3573 35.2479L40.6412 35.1717C40.7472 35.1485 40.8429 35.1353 40.9489 35.1353C41.2566 35.1353 41.5781 35.2678 41.5781 35.5661C41.6704 36.0797 41.6807 36.3647 41.6807 36.3647V36.368ZM36.4319 36.2752H36.5481L38.5314 35.7086V35.5992C38.0698 34.3134 37.7278 34.0019 37.5329 34.0019H37.5124L36.4319 36.2752Z" fill="white"/>
<path d="M22.4496 37.2263C22.2445 38.0216 22.1419 38.3133 21.7931 38.4226H21.4375C20.692 38.4226 20.3262 37.9023 20.3262 36.8353V36.5735C20.3262 33.8429 20.7502 31.8877 21.7794 29.8265C21.7863 29.8066 21.8034 29.7967 21.8239 29.7901L22.3983 29.6641H22.4188C23.3523 29.6741 24.0465 31.0361 24.6039 33.9489C24.6039 33.9489 24.6244 34.0252 24.6551 34.0252C24.6893 34.0252 24.7167 33.9788 24.7269 33.9489C25.3801 31.8645 26.1016 30.8505 26.9325 30.8505C28.1258 30.8505 28.8029 32.3715 29.1243 35.7815V37.1037C29.1243 37.5511 29.0046 37.8162 28.7653 37.8858C28.7619 37.8891 28.755 37.8891 28.7448 37.8891H28.396C27.7942 37.8891 27.4214 37.3622 27.2915 36.3183C27.0487 34.7244 26.8504 33.9489 26.6863 33.9489C26.0024 36.2487 25.3185 37.3655 24.6073 37.3655C23.8413 37.3655 23.1609 36.2057 22.5385 33.8131C22.5385 33.8131 22.5214 33.7501 22.477 33.7501C22.4325 33.7501 22.4154 33.7932 22.4154 33.8131L22.2923 36.0499L22.4188 36.6497C22.4188 36.6497 22.5419 36.8883 22.453 37.2296L22.4496 37.2263Z" fill="white"/>
<path d="M47.6093 36.8196H47.4794C47.4794 36.8196 47.4555 36.8196 47.4452 36.8096C46.84 36.4849 45.6808 35.2322 43.995 33.0882C44.1523 33.287 43.9369 34.1287 43.8958 34.3739C43.8343 34.7352 43.889 35.1693 43.7591 35.5239C43.6599 35.7823 43.4342 36.2993 43.1094 36.3159C41.5194 36.4053 41.9844 34.1221 42.1485 33.297C42.3195 32.4254 42.4426 31.5506 42.5589 30.6724C42.5589 30.6624 42.5657 30.6558 42.5691 30.6459C42.8734 30.1157 43.2598 29.8472 43.7112 29.8472H43.9677C43.9882 29.8472 44.0087 29.8539 44.0224 29.8771L47.3221 34.0691V33.0882C47.3221 29.4894 47.7495 27.7363 48.6215 27.7363H48.8779C48.895 27.7363 48.919 27.7463 48.9326 27.7628L49.3259 28.2003C49.3259 28.2003 49.3464 28.2301 49.3464 28.2467V32.601C49.3464 35.4046 48.7617 36.8196 47.6162 36.8196H47.6093Z" fill="white"/>
<path d="M51.8156 35.4973C52.3353 36.3059 53.2175 36.6936 54.4314 36.6539L55.1803 36.6307C55.1803 36.6307 55.211 36.6307 55.2213 36.6406L55.5906 36.8626L55.7205 36.856L56.1993 35.7194H56.0727L54.3015 36.0342C54.2844 36.0342 54.2741 36.0342 54.2605 36.0309C53.8843 35.8851 53.6723 35.7293 53.6244 35.5669C53.6176 35.5603 53.6176 35.557 53.6176 35.5504L53.6039 35.0831C53.6039 35.0831 53.6039 35.0566 53.6108 35.0467C54.0006 34.3806 55.3615 34.0094 57.6593 33.9332C57.6696 33.9332 57.6764 33.9332 57.6833 33.9332C58.0355 34.0293 58.2851 34.2215 58.4561 34.5098C58.4663 34.5231 58.4663 34.533 58.4663 34.5396L58.48 35.0003C58.48 35.0003 58.48 35.0235 58.4732 35.0334L56.8011 38.5626C56.8216 39.0133 56.7669 39.3646 56.6472 39.5932C56.5275 39.8285 56.3395 39.9511 56.0796 39.9578L55.7137 39.9677C55.7137 39.9677 55.6863 39.9677 55.6761 39.9611C55.2487 39.7225 55.0367 39.4077 55.0196 38.9968C55.0196 38.9968 55.0196 38.9868 55.0196 38.9835L55.2384 37.7441L53.5834 38.1782C53.5834 38.1782 53.5697 38.1782 53.5663 38.1782C51.6138 38.2412 50.3315 37.3166 49.7605 35.441C49.7605 35.4377 49.7605 35.4311 49.7605 35.4244L49.7537 35.3051C49.6955 33.6482 51.1112 32.0112 53.9493 30.4404C53.9493 30.4404 54.575 30.0726 55.7718 30.1289C56.23 30.1455 56.6506 30.404 57.0473 30.9309C57.2251 31.1695 57.0815 31.7129 57.0815 31.7129C56.8729 32.1238 56.7293 32.2995 56.2745 32.3194C56.2642 32.3194 56.1719 32.3326 56.1651 32.3326L55.276 32.1636C55.276 32.1636 55.1803 32.1338 55.023 32.1934C53.5902 32.7468 52.5507 33.6118 51.9216 34.7385C51.9216 34.7385 51.6788 35.2422 51.8156 35.4907V35.4973Z" fill="white"/>
<path d="M32.7559 39.7918L32.39 39.9939C32.39 39.9939 32.3695 40.0039 32.3592 40.0039H32.1233C32.1233 40.0039 32.031 39.9873 31.9044 39.921L31.5215 39.6029C31.3608 39.4273 31.3744 39.1224 31.3744 39.1224L31.4462 36.859C31.4462 36.468 31.542 35.9444 31.542 35.9444L31.9591 33.87H31.9523C29.2031 32.3357 28.0918 30.6456 28.0918 29.3963V29.3664C28.0918 29.3664 28.0986 29.3433 28.1055 29.33L28.1226 29.3068C28.3243 28.9754 28.6389 28.8064 29.0458 28.8064H29.0868C29.1039 28.8064 29.121 28.813 29.1347 28.8263L29.1621 28.8495C29.1621 28.8495 29.1655 28.8561 29.1689 28.8561L32.1575 32.1236L32.4071 32.2561C32.455 32.0871 32.5336 31.9082 32.6088 31.7193C32.6601 31.6132 32.7046 31.4972 32.749 31.3813C32.773 31.146 33.026 30.7682 33.0568 30.7185C33.1662 30.4998 33.279 30.2612 33.4021 30.006C33.7885 29.2206 34.1715 28.4253 34.5784 27.6499C34.6502 27.5206 34.7118 27.3848 34.8109 27.2688C34.9169 27.1462 35.0606 27.0501 35.1939 26.954C35.3102 26.8711 35.4127 26.7717 35.5393 26.7121C35.6589 26.659 35.7718 26.6624 35.8949 26.6657C36.0795 26.6723 36.2676 26.6657 36.4488 26.6657C36.9857 26.6657 37.3413 26.838 37.5088 27.1793C37.5157 27.1859 37.5191 27.1893 37.5191 27.1926V27.239C37.5191 27.239 37.5259 27.2489 37.5259 27.2555V27.5273C37.5259 27.5505 37.5157 27.5737 37.4883 27.5869L37.437 27.6167C36.7121 28.021 35.1973 30.4832 35.1426 30.9107C35.1426 30.9173 35.1426 30.9206 35.1426 30.924C33.9834 33.0614 33.1046 36.6503 32.8995 39.477C32.8995 39.477 32.8653 39.6725 32.749 39.7918H32.7559Z" fill="white"/>
<path d="M58.4908 22.9994C58.1421 22.9994 57.8412 23.0955 57.8412 23.0955C56.6717 23.4401 55.8066 24.1559 55.8066 24.1559C55.0304 24.7591 54.4491 25.5014 54.1687 26.2437C53.8746 27.0058 53.9191 27.7051 54.2952 28.2121C54.6406 28.676 55.2287 28.9312 55.9673 28.9643C56.7811 29.0008 56.8837 28.3943 56.8837 28.3943C57.041 27.8741 56.5828 27.4234 55.5262 27.0522C55.5262 27.0522 55.2458 26.9628 55.2458 26.6711C55.2458 26.5817 55.2903 26.3961 55.4681 26.3099C55.6425 26.2238 55.7964 26.2834 55.7964 26.2834C56.6957 26.5817 57.4001 27.0953 57.7762 27.7349L57.9643 28.0497V25.2661C57.9643 24.9877 58.2002 24.7657 58.4874 24.7657C58.7747 24.7657 59.0038 24.991 59.0038 25.2661V28.0431L59.1918 27.7283C59.5714 27.092 60.2758 26.5784 61.1717 26.2768C61.1717 26.2768 61.3255 26.2171 61.5033 26.3033C61.6812 26.3928 61.7222 26.575 61.7222 26.6645C61.7222 26.9561 61.4452 27.0456 61.4452 27.0456C60.3852 27.4168 59.9304 27.8674 60.0843 28.3877C60.0843 28.3877 60.1937 28.9975 61.0041 28.9577C61.7393 28.9246 62.3308 28.6694 62.6728 28.2055C63.0558 27.6984 63.1002 26.9992 62.8061 26.237C62.5155 25.4947 61.9376 24.7524 61.1614 24.1493C61.1614 24.1493 60.2997 23.4335 59.1303 23.0922C59.1303 23.0922 58.8157 22.9961 58.4874 22.9961L58.4908 22.9994Z" fill="white"/>
</g>
<defs>
<clipPath id="clip0_1160_12770">
<rect width="58" height="17" fill="white" transform="translate(5 23)"/>
</clipPath>
</defs>
</svg>
