<svg width="64" height="64" viewBox="0 0 64 64" fill="none" xmlns="http://www.w3.org/2000/svg">
<rect width="80" height="80" transform="translate(0 -8)" fill="#EFEFEF"/>
<g clip-path="url(#clip0_1160_12905)">
<path d="M28.4675 33.982V33.0703C30.9077 32.8026 32.7298 31.8251 32.7298 30.6502C32.7298 29.2667 30.2347 28.1621 27.1664 28.1621C24.098 28.1621 21.6154 29.2667 21.6154 30.6502C21.6154 31.8001 23.3652 32.7641 25.7331 33.0498V33.982L21.568 33.9684C21.568 33.9684 20.9424 33.9684 20.9249 34.4946C20.9249 34.4946 20.8701 35.0752 21.5406 35.0752H33.1137V33.9843H28.4725L28.4675 33.982ZM24.2874 30.6547C24.2874 29.8745 25.5312 29.2553 27.0642 29.2553C28.5971 29.2553 29.8434 29.8745 29.8434 30.6547C29.8434 31.435 28.5946 32.061 27.0642 32.061C25.5337 32.061 24.2874 31.435 24.2874 30.6547Z" fill="#EE1A2F"/>
<path d="M41.641 32.1324H37.2864V33.9673H42.476L42.471 35.0764H36.1971C34.6966 35.0333 34.8088 33.6974 34.8088 33.6974V31.0097H39.1035V29.6557H35.2499H35.3073C34.6318 29.6557 34.6866 29.0773 34.6866 29.0773C34.7066 28.5398 35.3322 28.5488 35.3322 28.5488H40.7436C40.7436 28.5488 41.6559 28.5738 41.6235 29.2451L41.6434 32.1324H41.641Z" fill="#EE1A2F"/>
<path d="M59.0001 32.9882V31.9471H54.4486V31.6613C56.7767 31.4731 58.509 30.8017 58.509 29.9966C58.509 29.0485 56.0912 28.2773 53.115 28.2773C50.1389 28.2773 47.7261 29.0485 47.7261 29.9966C47.7261 30.7813 49.3762 31.4459 51.632 31.6432V31.9539L47.5416 31.9471C47.5416 31.9471 46.9633 31.9222 46.8935 32.4143C46.8935 32.4143 46.8412 32.9882 47.5117 32.9882H48.2595V34.1222C48.2595 34.1222 48.1274 35.0748 49.8024 35.0748H58.1526V34.0201H50.7895V32.9882H59.005H59.0001ZM50.5103 29.9966C50.5103 29.6246 51.6768 29.3161 53.115 29.3161C54.5533 29.3161 55.7173 29.6269 55.7173 29.9966C55.7173 30.3663 54.5508 30.6747 53.115 30.6747C51.6793 30.6747 50.5103 30.3776 50.5103 29.9966Z" fill="#EE1A2F"/>
<path d="M44.2294 28.4561C44.2294 28.4561 45.6228 28.2769 45.6228 29.5176V35.0744H42.9931V29.4427C42.9931 29.4427 42.9134 28.5242 44.2294 28.4561Z" fill="#EE1A2F"/>
<path d="M11.7205 37C14.8911 37 17.4485 34.7591 17.4485 32.0057C17.4485 29.2522 14.8911 27 11.7205 27C8.54992 27 6 29.2386 6 32.0057C6 34.7727 8.56488 37 11.7205 37Z" fill="#EE1A2F"/>
<path d="M18.8437 27.209L18.3103 28.5494H16.6602L17.9987 29.4907L17.5101 30.8357L18.9359 30.0259L20.3567 30.8357L19.8058 29.4136L21.1319 28.5494H19.5042L18.8437 27.209Z" fill="#EE1A2F"/>
<path d="M13.8624 27.5806L13.5883 28.7169C13.5883 28.7169 12.6535 28.8122 12.2148 28.9642L13.4163 29.64L13.2094 30.6357L14.3884 29.8737L15.7194 30.4339L15.1362 29.3316L15.6995 28.5446C15.6995 28.5446 14.8545 28.5627 14.5205 28.6103L13.86 27.5761L13.8624 27.5806Z" fill="#FDFDFD"/>
<path d="M10.5893 34.375L10.3251 34.9239C10.3251 34.9239 9.96868 34.9307 9.73438 34.9171L10.1656 35.3026L9.93877 35.8379L10.6093 35.509L11.2773 35.822L11.0355 35.3026L11.4343 34.8558C11.4343 34.8558 11.0355 34.9012 10.876 34.9012L10.5868 34.375H10.5893Z" fill="#FDFDFD"/>
<path d="M10.1852 28.6016L10.0605 29.6358C10.0605 29.6358 9.4025 29.8966 9.08594 30.1325L10.0605 30.4115L9.95585 31.3097L10.9005 30.5204L12.0247 30.8492L11.4365 29.9307L11.8702 29.0484C11.8702 29.0484 11.3642 29.1504 10.8557 29.3364L10.1877 28.6016H10.1852Z" fill="#FDFDFD"/>
<path d="M7.33313 30.2479L7.56494 31.1256C7.56494 31.1256 7.19355 31.4318 6.99414 31.6927L7.78429 31.7063L7.9488 32.4298L8.47474 31.6337L9.47676 31.5861L8.724 31.0553L8.78631 30.2728C8.78631 30.2728 8.4548 30.4452 8.1183 30.6947L7.33563 30.2502L7.33313 30.2479Z" fill="#FDFDFD"/>
<path d="M7.60987 33.1882L6.80726 33.6169C6.61782 34.3291 7.01165 34.8621 7.01165 34.8621C7.01165 34.8621 6.50067 34.1839 6.37853 33.88C6.26387 33.5761 6.04203 33 6.10185 32.8707C6.37853 32.3241 6.76737 31.9453 6.76737 31.9453C6.76737 31.9453 6.58542 32.6212 6.60785 33.0159L7.60987 33.1882Z" fill="#FDFDFD"/>
<path d="M9.41201 34.9172C9.41201 34.9172 9.08548 35.0986 8.72156 35.1417L8.75895 35.9333L8.14079 35.1894C8.14079 35.1894 7.565 35.2438 7.4279 35.1871L7.72951 34.8696C7.72951 34.8696 7.45283 34.5724 7.30078 34.2413C7.30078 34.2413 7.77188 34.5452 8.07847 34.6087L8.55705 34.1211L8.7066 34.8083C8.7066 34.8083 9.08548 34.899 9.38708 34.899" fill="#FDFDFD"/>
</g>
<defs>
<clipPath id="clip0_1160_12905">
<rect width="53" height="10" fill="white" transform="translate(6 27)"/>
</clipPath>
</defs>
</svg>
