<svg width="64" height="64" viewBox="0 0 64 64" fill="none" xmlns="http://www.w3.org/2000/svg">
<rect width="80" height="80" transform="translate(0 -8)" fill="#EFEFEF"/>
<g clip-path="url(#clip0_1160_12935)">
<path d="M36.2544 35.2391H37.193V29.2204H36.2544V35.2391ZM34.7494 31.3928H33.5754V31.928H34.7494V33.1926C34.5195 33.2792 34.3143 33.3264 34.0105 33.3264H32.6751C32.5493 33.3264 32.448 33.2294 32.4507 33.1087V30.1124H34.1665V29.6795H31.4793V33.3291C31.4793 33.5678 31.6818 33.7593 31.9281 33.7593H34.0105C34.328 33.7593 34.5852 33.7043 34.7494 33.6046V35.2365H35.688V29.2204H34.7494V31.3928ZM27.7987 32.3977V31.8047H29.8648V31.3744H25.9735C25.8476 31.3744 25.7464 31.2773 25.7464 31.1567V30.7788H29.7799V29.3201H24.7777V29.753H28.8112V30.3433H24.7777V31.3718C24.7777 31.6105 24.9802 31.8047 25.2292 31.8047H26.8273V32.3977H24.255V32.8306H30.3902V32.3977H27.8015H27.7987ZM27.8261 33.1087H26.7397C26.4524 34.2526 25.0376 34.8298 24.5177 34.9007L24.7886 35.2863C25.3195 35.226 26.5263 34.8088 27.2815 34.0165C28.0368 34.8088 29.2463 35.2234 29.7745 35.2863L30.0454 34.9007C29.5255 34.8298 28.1134 34.2526 27.8234 33.1087M41.815 31.5371V31.9884H40.5808V32.7755H39.675V31.9884H38.5586V31.5371H41.815ZM40.2004 29.1758C40.3975 29.1758 40.5835 29.1994 40.7614 29.2466C40.9393 29.2938 41.0953 29.362 41.2321 29.4513C41.3689 29.5405 41.4756 29.6507 41.555 29.7818C41.6343 29.913 41.6754 30.0599 41.6754 30.2252C41.6754 30.3905 41.6343 30.5375 41.5522 30.666C41.4702 30.7946 41.3607 30.9022 41.2266 30.9887C41.0898 31.0753 40.9338 31.1435 40.7559 31.1881C40.5781 31.2327 40.392 31.2564 40.2004 31.2564C40.0089 31.2564 39.8228 31.2327 39.6449 31.1881C39.4671 31.1435 39.3111 31.0779 39.177 30.9887C39.0484 30.9048 38.9389 30.7946 38.8568 30.666C38.7775 30.5375 38.7364 30.3905 38.7364 30.2252C38.7364 30.0599 38.7775 29.9104 38.8568 29.7818C38.9362 29.6507 39.0456 29.5378 39.177 29.4513C39.3111 29.362 39.4671 29.2938 39.6449 29.2466C39.8255 29.1994 40.0116 29.1758 40.2004 29.1758ZM40.2004 29.5877C40.0089 29.5877 39.8638 29.648 39.7653 29.7661C39.6668 29.8842 39.6176 30.039 39.6176 30.2279C39.6176 30.4168 39.6668 30.5689 39.7653 30.6818C39.8638 30.7972 40.0089 30.8523 40.2004 30.8523C40.392 30.8523 40.5507 30.7946 40.6465 30.6818C40.7423 30.5663 40.7915 30.4168 40.7915 30.2279C40.7915 30.039 40.7423 29.8868 40.6465 29.7661C40.5507 29.648 40.4029 29.5877 40.2004 29.5877ZM40.6218 34.7013C40.6218 34.8193 40.6875 34.877 40.8189 34.877H44.6664V35.3073H40.1457C39.987 35.3073 39.8693 35.2653 39.7954 35.1814C39.7215 35.0974 39.6832 34.9951 39.6832 34.8744V33.9456H43.6429V33.5206H39.6778V33.0772H44.5706V34.3838H40.6246V34.7013H40.6218ZM43.0874 29.2309V32.8778H42.1762V32.6758H41.0816V32.2376H42.1762V29.2282H43.0874V29.2309ZM44.5678 32.8778H43.6402V29.2309H44.5678V32.8778ZM51.9864 32.8174V33.2477H49.2965V35.247H48.3195V33.2477H45.6104V32.8174H51.9837H51.9864ZM50.5279 30.5952C50.5279 30.729 50.5142 30.8812 50.4868 31.0517C50.4595 31.2222 50.4129 31.3718 50.3473 31.503H51.3516V31.9464H46.1577V31.503H47.0498V29.8474H46.2344V29.404H51.2749V29.8474H50.5306V30.5952H50.5279ZM49.5646 29.8501H48.0076V31.5056H49.4388C49.4579 31.4479 49.4743 31.377 49.4908 31.2957C49.5072 31.2144 49.5209 31.1304 49.5291 31.0465C49.5373 30.9625 49.5455 30.8785 49.5537 30.7998C49.5592 30.7211 49.5646 30.6529 49.5646 30.5952V29.8474V29.8501ZM59 34.0821H52.6404V33.6387H59V34.0821ZM53.8773 32.4003C53.7268 32.4003 53.6119 32.3583 53.5271 32.277C53.4422 32.193 53.4012 32.0854 53.4012 31.9516V29.467H58.1407V29.9104H54.3371V31.7627C54.3371 31.8204 54.3453 31.8677 54.3644 31.9044C54.3836 31.9411 54.4328 31.9595 54.5122 31.9595H58.2338V32.4029H53.8828L53.8773 32.4003ZM16.3056 38.0491C14.6527 39.6338 11.9464 39.6338 10.2935 38.0491L7.23962 35.121C5.58679 33.5363 5.58679 30.9415 7.23962 29.3568L10.2935 26.4288C11.9464 24.8441 14.6527 24.8441 16.3056 26.4288L19.3595 29.3568C21.0123 30.9415 21.0123 33.5363 19.3595 35.121L16.3056 38.0491Z" fill="#E30413"/>
<path d="M11.4891 36.5405C11.2483 36.5405 11.0485 36.3568 11.0376 36.1259C11.0321 36.0105 11.0759 35.9003 11.158 35.8163C11.2401 35.7324 11.3523 35.6799 11.4727 35.6773C11.7217 35.6668 11.9324 35.8531 11.9433 36.0918C11.9543 36.3306 11.76 36.5326 11.511 36.5431H11.4918L11.4891 36.5405ZM13.131 28.5487C12.8819 28.5487 12.6849 28.6222 12.5235 28.777C12.1787 29.1076 11.9953 29.7871 12.0118 30.6949C12.0309 31.8126 12.3073 34.006 13.2267 35.1368C13.3745 35.3204 13.536 35.4648 13.7029 35.5723C13.8643 35.6746 14.045 35.7743 14.3268 35.7743C14.4034 35.7743 14.4855 35.7665 14.5731 35.7507C15.0985 35.63 15.758 35.0686 16.2478 34.3208C16.3217 34.208 16.4503 34.1398 16.5899 34.1398C16.6665 34.1398 16.7404 34.1608 16.8061 34.2001C16.8991 34.2552 16.962 34.3418 16.9867 34.4415C17.0113 34.5412 16.9921 34.6488 16.9347 34.7354C16.3162 35.6799 15.498 36.3437 14.7455 36.509C14.74 36.509 14.7345 36.5142 14.7263 36.5142C14.5895 36.5378 14.4527 36.551 14.3241 36.551C13.8397 36.551 13.4977 36.3725 13.2568 36.2204C13.016 36.0682 12.7916 35.8636 12.5891 35.6143C11.2975 34.0243 11.21 31.0438 11.2045 30.7106C11.1908 29.9183 11.3085 28.8426 11.957 28.2286C12.2717 27.9295 12.6685 27.7773 13.131 27.7773H13.2076C13.6728 27.7773 14.0696 27.9295 14.3843 28.2286C15.0301 28.8426 15.1505 29.9183 15.1368 30.7106C15.1231 31.5371 14.9644 33.1375 14.0696 34.5727C13.9957 34.6908 13.8643 34.7616 13.722 34.7616C13.4977 34.7616 13.317 34.5858 13.317 34.3707C13.317 34.2998 13.3362 34.2316 13.3745 34.1739C13.9984 33.169 14.3022 32.0645 14.3268 30.6975C14.3432 29.7897 14.1599 29.1076 13.8151 28.7796C13.6564 28.6274 13.4566 28.5513 13.2103 28.5513H13.1392L13.131 28.5487Z" fill="white"/>
</g>
<defs>
<clipPath id="clip0_1160_12935">
<rect width="53" height="14" fill="white" transform="translate(6 25.2402)"/>
</clipPath>
</defs>
</svg>
