<svg width="64" height="64" viewBox="0 0 64 64" fill="none" xmlns="http://www.w3.org/2000/svg">
<rect width="80" height="80" transform="translate(0 -8)" fill="#653D0F"/>
<g clip-path="url(#clip0_1160_13124)">
<path d="M12.1178 24.0391C8.73668 24.0391 6 26.8378 6 30.2923C6 33.7469 8.73668 36.5456 12.1178 36.5456C15.499 36.5456 18.2325 33.7469 18.2325 30.2923C18.2325 26.8378 15.4927 24.0391 12.1178 24.0391ZM13.4354 31.7274C13.4354 31.8378 13.4132 31.9222 13.3719 31.9774C13.3274 32.0293 13.2608 32.0553 13.1719 32.0553C13.1084 32.0553 13.0544 32.0391 13.01 32.0066C12.9655 31.9741 12.9211 31.9157 12.8734 31.828C12.8036 31.7046 12.7147 31.6105 12.6004 31.5488C12.4861 31.4904 12.3496 31.4579 12.1877 31.4579C11.9845 31.4579 11.8194 31.5293 11.6892 31.6689C11.5591 31.8085 11.4956 31.9904 11.4956 32.2079C11.4956 32.4384 11.5623 32.6235 11.6956 32.7631C11.8289 32.9027 12.0099 32.9741 12.2321 32.9741C12.4353 32.9741 12.6449 32.9124 12.8512 32.802C13.0512 32.6949 13.0512 32.6754 13.1084 32.6527C13.1497 32.6365 13.2671 32.6397 13.3687 32.8118C13.464 32.9676 13.4195 33.0715 13.3878 33.1105C13.3274 33.1852 13.1846 33.2858 13.0639 33.354C12.8163 33.4904 12.5242 33.5585 12.1845 33.5585C11.7654 33.5585 11.4257 33.4319 11.1622 33.1819C10.8987 32.9319 10.7686 32.6105 10.7686 32.2144C10.7686 31.8183 10.8987 31.5098 11.1591 31.2533C11.4194 30.9969 11.7464 30.8702 12.1401 30.8702C12.2734 30.8702 12.4036 30.8865 12.5306 30.9222C12.6576 30.9579 12.7814 31.0131 12.9084 31.0878C12.9084 31.0813 12.9115 31.0326 12.9115 31.0293C12.9115 30.9579 12.956 30.9157 12.9973 30.8962C13.0417 30.8767 13.1052 30.8702 13.175 30.8702C13.2671 30.8702 13.3338 30.8865 13.3751 30.9189C13.4132 30.9514 13.4354 31.0066 13.4354 31.0878V31.7241V31.7274ZM15.8482 33.341C15.8133 33.4027 15.753 33.4319 15.6673 33.4319H14.2989C14.2164 33.4319 14.1561 33.4027 14.118 33.341C14.083 33.2793 14.064 33.1787 14.064 33.0391C14.064 32.9124 14.0799 32.8183 14.118 32.7533C14.1529 32.6884 14.2037 32.6559 14.2704 32.6559H14.5085L13.7402 28.6819L13.2512 30.0228C13.1877 30.1787 13.0354 30.2858 12.8734 30.2858H11.3749C11.213 30.2858 11.0606 30.1819 10.9971 30.0228L10.5082 28.6819L9.73991 32.6559H9.97485C10.0415 32.6559 10.0923 32.6884 10.1272 32.7533C10.1622 32.8183 10.178 32.9124 10.178 33.0391C10.178 33.1787 10.159 33.2793 10.1241 33.341C10.0891 33.4027 10.0288 33.4319 9.94628 33.4319H8.57794C8.49539 33.4319 8.43507 33.4027 8.39697 33.341C8.36205 33.2793 8.343 33.1787 8.343 33.0391C8.343 32.9124 8.35888 32.8183 8.3938 32.7533C8.42872 32.6884 8.47952 32.6559 8.54619 32.6559H8.97161L9.91135 27.7858H9.48593C9.41926 27.7858 9.36846 27.7533 9.33037 27.6884C9.29544 27.6235 9.27639 27.5293 9.27639 27.4027C9.27639 27.2663 9.29544 27.1689 9.33037 27.1072C9.36846 27.0488 9.42878 27.0163 9.5145 27.0163H10.3431C10.3431 27.0163 10.3463 27.0163 10.3495 27.0163H10.4003C10.5463 27.0293 10.6797 27.13 10.74 27.2761L11.5845 29.5131H12.648L13.4925 27.2761C13.5529 27.13 13.6862 27.0293 13.8322 27.0163H13.883C13.883 27.0163 13.8862 27.0163 13.8894 27.0163H14.718C14.8037 27.0163 14.864 27.0456 14.899 27.1072C14.9371 27.1657 14.9561 27.2663 14.9561 27.4027C14.9561 27.5293 14.9371 27.6235 14.9021 27.6884C14.8672 27.7533 14.8132 27.7858 14.7466 27.7858H14.3212L15.2609 32.6559H15.6863C15.753 32.6559 15.8038 32.6884 15.8387 32.7533C15.8736 32.8183 15.8895 32.9124 15.8895 33.0391C15.8895 33.1787 15.8705 33.2793 15.8355 33.341H15.8482Z" fill="white"/>
<path d="M26.6653 32.868C26.6653 32.6894 26.643 32.5563 26.5954 32.4621C26.5478 32.3712 26.4748 32.3225 26.3795 32.3225H26.2176L26.0747 28.579H26.2398C26.3351 28.579 26.4081 28.5336 26.4589 28.4362C26.5097 28.3453 26.5351 28.2056 26.5351 28.0238C26.5351 27.8258 26.5097 27.6829 26.4557 27.5985C26.4018 27.5108 26.316 27.4686 26.1986 27.4686H25.3128C25.1414 27.4686 25.0017 27.5108 24.8969 27.5985C24.7921 27.6829 24.7096 27.8193 24.6524 28.0076L23.5317 30.855L22.3825 28.0076C22.3158 27.816 22.2332 27.6797 22.1285 27.5953C22.0237 27.5108 21.8904 27.4686 21.7189 27.4686H20.8363C20.7157 27.4686 20.63 27.5108 20.5792 27.5985C20.5252 27.6862 20.4998 27.829 20.4998 28.0238C20.4998 28.2056 20.5252 28.342 20.576 28.4362C20.6268 28.5303 20.6998 28.579 20.7951 28.579H20.957L20.8808 30.6115L20.8141 32.3225H20.6522C20.5569 32.3225 20.4839 32.368 20.4363 32.4621C20.3887 32.5563 20.3633 32.6894 20.3633 32.868C20.3633 33.066 20.3887 33.2089 20.4395 33.2933C20.4903 33.381 20.576 33.4232 20.6935 33.4232H22.0364C22.1539 33.4232 22.2396 33.3777 22.2904 33.2933C22.3412 33.2056 22.3666 33.0628 22.3666 32.868C22.3666 32.6894 22.3412 32.5563 22.2936 32.4621C22.2459 32.3712 22.1729 32.3225 22.0777 32.3225H21.9221L21.9888 29.2608L22.8841 31.5985C22.938 31.7284 23.0111 31.8225 23.1127 31.881C23.2111 31.9394 23.3476 31.9686 23.5159 31.9686C23.6841 31.9686 23.8206 31.9394 23.9159 31.881C24.0111 31.8258 24.0873 31.7316 24.1381 31.5985L25.0398 29.2608L25.1128 32.3225H24.9509C24.8524 32.3225 24.7794 32.368 24.7318 32.4621C24.6842 32.5563 24.6588 32.6894 24.6588 32.868C24.6588 33.0693 24.6842 33.2121 24.735 33.2966C24.7858 33.381 24.8715 33.4232 24.9921 33.4232H26.3319C26.4525 33.4232 26.5383 33.3777 26.5859 33.2933C26.6367 33.2056 26.6621 33.0628 26.6621 32.868H26.6653Z" fill="white"/>
<path d="M31.6182 32.1925C31.4881 31.9457 31.2214 31.8873 31.0404 32.0139C30.9896 32.0529 30.9134 32.1016 30.7928 32.1763C30.4626 32.3776 30.1324 32.488 29.8086 32.488C29.4498 32.488 29.18 32.3613 28.9736 32.1048C28.7673 31.8516 28.6625 31.5139 28.6625 31.0951C28.6625 30.699 28.7609 30.3711 28.9641 30.1146C29.1641 29.8581 29.4117 29.7282 29.7356 29.7282C29.9927 29.7282 30.215 29.7834 30.3928 29.8906C30.5705 30.0009 30.7166 30.1698 30.8277 30.397C30.9039 30.5561 30.9769 30.6665 31.0468 30.7217C31.1166 30.7802 31.2214 30.8094 31.3293 30.8094C31.4817 30.8094 31.5928 30.7607 31.6659 30.6633C31.7389 30.5659 31.7738 30.4165 31.7738 30.212V29.0529C31.7738 28.9068 31.7389 28.8061 31.6722 28.7477C31.6055 28.6893 31.4912 28.66 31.3357 28.66C31.2182 28.66 31.1134 28.673 31.0372 28.7087C30.9674 28.7412 30.8912 28.8159 30.8912 28.949C30.8912 28.9555 30.8849 29.0432 30.8849 29.0529C30.6848 28.9198 30.488 28.8191 30.2848 28.7574C30.0816 28.6957 29.8753 28.6633 29.6626 28.6633C29.0339 28.6633 28.4815 28.897 28.0561 29.3613C27.6307 29.8256 27.418 30.41 27.418 31.1081C27.418 31.8061 27.6339 32.41 28.0625 32.8646C28.4911 33.3191 29.0657 33.5464 29.7324 33.5464C30.2721 33.5464 30.7388 33.423 31.1325 33.173C31.3262 33.0529 31.5484 32.8678 31.6468 32.7315C31.6944 32.6633 31.7674 32.475 31.6151 32.1893L31.6182 32.1925Z" fill="white"/>
<path d="M36.8506 33.4933H37.0951C37.0951 33.4933 37.111 33.4933 37.1205 33.4933H37.3078C37.403 33.4933 37.4792 33.4706 37.53 33.4316C37.584 33.3894 37.6094 33.331 37.6094 33.2595V32.9121V28.581H37.7681C37.8602 28.581 37.9269 28.5323 37.9777 28.4381C38.0253 28.3407 38.0507 28.2076 38.0507 28.029C38.0507 27.8342 38.0253 27.6946 37.9745 27.6069C37.9237 27.5193 37.838 27.4738 37.7237 27.4738H36.1712C36.0537 27.4738 35.9712 27.5193 35.9204 27.6069C35.8696 27.6946 35.8442 27.8375 35.8442 28.029C35.8442 28.2206 35.8696 28.3634 35.9204 28.4511C35.9712 28.5388 36.0537 28.581 36.1712 28.581H36.4855V31.3472L34.6156 27.8634C34.4727 27.5972 34.3298 27.4706 33.9933 27.4706H33.0758C32.9615 27.4706 32.8789 27.516 32.8281 27.6037C32.7774 27.6914 32.752 27.8342 32.752 28.0258C32.752 28.2043 32.7774 28.3407 32.825 28.4349C32.8758 28.529 32.9456 28.5777 33.0345 28.5777H33.1869V32.3212H33.0377C32.9424 32.3212 32.8726 32.3667 32.825 32.4608C32.7774 32.555 32.7551 32.6881 32.7551 32.8667C32.7551 33.0647 32.7805 33.2076 32.8313 33.292C32.8821 33.3797 32.9647 33.4219 33.0821 33.4219H34.6473C34.7616 33.4219 34.8441 33.3764 34.8918 33.292C34.9426 33.2043 34.968 33.0615 34.968 32.8667C34.968 32.6719 34.9426 32.5355 34.8949 32.4479C34.8473 32.3634 34.7616 32.3212 34.6473 32.3212H34.3171V29.5972L36.2919 33.1459C36.4157 33.3699 36.5236 33.4933 36.857 33.4933H36.8506Z" fill="white"/>
<path d="M42.2601 32.8183V33.1917C42.2601 33.2663 42.2886 33.3215 42.3394 33.3637C42.3934 33.4059 42.4664 33.4254 42.5649 33.4254H42.768C42.768 33.4254 42.7744 33.4254 42.7776 33.4254H43.5014C43.6252 33.4254 43.711 33.3832 43.7618 33.2988C43.8125 33.2144 43.8379 33.0683 43.8379 32.8702C43.8379 32.6949 43.8125 32.5618 43.7618 32.4676C43.711 32.3735 43.6379 32.328 43.5427 32.328H43.3776V31.4027V29.3085C43.3776 29.3085 43.3776 29.2923 43.3744 29.2826V29.0228C43.3744 28.9482 43.349 28.893 43.2951 28.8508C43.2411 28.8118 43.1681 28.7891 43.0728 28.7891H42.8855C42.8855 28.7891 42.8696 28.7891 42.8633 28.7891H42.3553H41.8442C41.7204 28.7891 41.6378 28.8313 41.587 28.9157C41.5394 29.0001 41.514 29.1397 41.514 29.3378C41.514 29.5163 41.5394 29.6559 41.587 29.7501C41.6346 29.8443 41.7077 29.8897 41.8029 29.8897H42.1744V31.341C42.1744 31.6754 42.0855 31.9449 41.9108 32.1527C41.7362 32.3572 41.5108 32.4611 41.241 32.4611C40.987 32.4611 40.8028 32.3767 40.6917 32.2111C40.5869 32.052 40.533 31.7826 40.5235 31.4059V29.3118C40.5235 29.3118 40.5235 29.2891 40.5235 29.2761V29.0261C40.5235 28.9514 40.4981 28.8962 40.4441 28.854C40.3901 28.815 40.3139 28.7923 40.2187 28.7923H40.0314C40.0314 28.7923 40.0155 28.7923 40.0091 28.7923H39.5012H39.2154C39.0916 28.7923 39.0059 28.8345 38.9519 28.9189C38.9011 29.0033 38.8789 29.143 38.8789 29.341C38.8789 29.5196 38.9043 29.6592 38.9519 29.7533C39.0027 29.8475 39.0726 29.893 39.1678 29.893H39.3266V31.5715C39.3266 32.2404 39.4535 32.7371 39.7107 33.0618C39.9647 33.3865 40.3552 33.5488 40.8822 33.5488C41.1902 33.5488 41.4568 33.4871 41.6854 33.367C41.9108 33.2469 42.1045 33.065 42.2601 32.8248V32.8183Z" fill="white"/>
<path d="M56.9247 28.9117C56.8739 28.8272 56.7882 28.785 56.6643 28.785H55.1849C55.0611 28.785 54.9722 28.8272 54.9214 28.9117C54.8706 28.9961 54.8452 29.1357 54.8452 29.3337C54.8452 29.5123 54.8706 29.6519 54.9214 29.7461C54.9722 29.8402 55.0452 29.8857 55.1404 29.8857H55.3881L54.461 32.0253L53.5753 29.8857H53.7467C53.8419 29.8857 53.9118 29.837 53.9626 29.7461C54.0134 29.6519 54.0388 29.5156 54.0388 29.3337C54.0388 29.1389 54.0134 28.9993 53.9626 28.9149C53.9118 28.8305 53.8261 28.7883 53.7022 28.7883H52.1275C52.0037 28.7883 51.918 28.8305 51.8672 28.9149C51.8164 28.9993 51.791 29.1389 51.791 29.337C51.791 29.5156 51.8164 29.6552 51.8672 29.7493C51.918 29.8435 51.991 29.8889 52.0863 29.8889H52.3307L53.8165 33.3143C53.8165 33.3143 53.7975 33.3824 53.6324 33.7266C53.4546 34.1 53.2355 34.1876 52.8863 34.1876H52.7752C52.6514 34.1876 52.5657 34.2298 52.5149 34.3175C52.4641 34.4052 52.4387 34.548 52.4387 34.7428C52.4387 34.9376 52.4641 35.0805 52.5149 35.1682C52.5657 35.2526 52.6514 35.298 52.7752 35.298H52.8895C53.4864 35.298 54.08 35.1487 54.5753 34.2233C54.7182 33.9539 56.5405 29.8922 56.5405 29.8922H56.7056C56.8009 29.8922 56.8739 29.8435 56.9247 29.7526C56.9723 29.6584 57.0009 29.522 57.0009 29.3402C57.0009 29.1454 56.9755 29.0058 56.9247 28.9214V28.9117Z" fill="white"/>
<path d="M51.3938 32.0687C51.2763 32.098 51.27 32.1337 50.8572 32.2798C50.7556 32.3155 50.6509 32.3447 50.5493 32.3707C50.4826 32.3869 50.4159 32.3934 50.3366 32.3934C50.0635 32.3934 49.8762 32.3285 49.7651 32.1921C49.6572 32.059 49.6032 31.8123 49.6032 31.4486V29.9097H50.7779C50.8985 29.9097 50.9842 29.8674 51.035 29.7798C51.089 29.6921 51.1144 29.5493 51.1144 29.3545C51.1144 29.1597 51.089 29.02 51.0382 28.9389C50.9874 28.8545 50.9017 28.8123 50.7779 28.8123H49.6032V27.6012C49.6032 27.4778 49.5556 27.3902 49.4635 27.3382C49.3683 27.2863 49.2159 27.2635 49 27.2635C48.7841 27.2635 48.6285 27.2895 48.5365 27.3382C48.4444 27.3869 48.3968 27.4746 48.3968 27.6012V28.8123H47.8158C47.6951 28.8123 47.6094 28.8512 47.5586 28.9356C47.5078 29.0168 47.4824 29.1564 47.4824 29.3545C47.4824 29.5525 47.5078 29.6921 47.5586 29.7798C47.6094 29.8674 47.6951 29.9097 47.8158 29.9097H48.3968V31.559C48.3968 31.9973 48.419 32.309 48.4634 32.4973C48.5111 32.6856 48.5873 32.8447 48.6952 32.9811C48.8412 33.1564 49.0412 33.2895 49.2984 33.3837C49.5556 33.4778 49.8508 33.5233 50.1873 33.5233C50.3588 33.5233 50.5048 33.5135 50.6413 33.4973C50.7144 33.4876 50.7937 33.4713 50.8636 33.4584H50.8699C50.962 33.4356 51.0541 33.4097 51.143 33.3772C51.3938 33.283 51.6954 33.1304 51.8351 33.0038C51.9049 32.9421 51.9875 32.7733 51.8255 32.4161C51.6509 32.0298 51.4827 32.0493 51.397 32.0752L51.3938 32.0687Z" fill="white"/>
<path d="M46.7397 33.4255C46.8604 33.4255 46.9461 33.38 46.9969 33.2956C47.0477 33.2079 47.0731 33.0651 47.0731 32.8703C47.0731 32.6755 47.0477 32.5391 46.9969 32.4514C46.9461 32.367 46.8636 32.3248 46.7397 32.3248H46.3143V30.0586V27.367C46.3143 27.367 46.3143 27.3573 46.3143 27.354V27.0813C46.3143 27.0099 46.2889 26.9514 46.235 26.9092C46.181 26.867 46.108 26.8475 46.0127 26.8475H45.8191C45.8191 26.8475 45.8064 26.8475 45.8032 26.8475H45.3682H44.692C44.5682 26.8475 44.4825 26.893 44.4317 26.9774C44.3809 27.0651 44.3555 27.2079 44.3555 27.4027C44.3555 27.5975 44.3809 27.7371 44.4348 27.8281C44.4856 27.9157 44.5714 27.9612 44.692 27.9612H45.0984V32.2956V33.1949C45.0984 33.2696 45.1238 33.3248 45.1777 33.367C45.2317 33.4092 45.3047 33.4287 45.4 33.4287H45.6032C45.6032 33.4287 45.6095 33.4287 45.6127 33.4287H46.7429L46.7397 33.4255Z" fill="white"/>
<path d="M38.918 37.8708H39.2673C39.3625 37.8708 39.4387 37.7929 39.4387 37.6987V37.0169H39.8324V37.7247C39.8324 37.8188 39.9117 37.8968 40.007 37.8968H40.3626C40.407 37.8968 40.4515 37.8773 40.4832 37.8448C40.5149 37.8124 40.534 37.7669 40.534 37.7214V35.4747C40.5308 35.3805 40.4546 35.3026 40.3594 35.3026H40.0038C39.9594 35.3026 39.9149 35.3188 39.8832 35.3546C39.8514 35.387 39.8324 35.4292 39.8324 35.4779V36.4033H39.4355V35.5039C39.4355 35.4098 39.3561 35.3318 39.2609 35.3318H38.9117C38.8164 35.3318 38.7402 35.4098 38.7402 35.5039V37.6987C38.7434 37.7929 38.8196 37.8708 38.918 37.8708Z" fill="white"/>
<path d="M39.8484 38.1711C39.5532 38.1711 38.8515 38.1711 38.2769 38.1711H37.5594C37.4641 38.1711 37.3848 38.249 37.3848 38.3464V38.6127C37.3848 38.7101 37.4641 38.7847 37.5594 38.7847H39.8357V39.8627C39.8357 39.9568 39.9119 40.0347 40.0103 40.0347H40.3659C40.4611 40.0347 40.5373 39.9536 40.5373 39.8594V38.7295C40.5373 38.3821 40.2707 38.1678 39.8484 38.1678V38.1711Z" fill="white"/>
<path d="M38.2897 37.7509C38.3849 37.7509 38.4643 37.673 38.4643 37.5756V35.5821C38.4611 35.488 38.3817 35.41 38.2897 35.41H36.5054C36.4102 35.41 36.334 35.488 36.334 35.5854V35.8516C36.334 35.9457 36.4134 36.0237 36.5086 36.0237H36.6165V37.1503C36.6165 37.3743 36.7023 37.7477 37.2705 37.7477C37.4229 37.7477 37.5817 37.7477 37.7468 37.7477C38.1119 37.7477 38.296 37.7477 38.296 37.7477L38.2897 37.7509ZM37.2991 36.0237H37.7722V37.1503H37.2991V36.0237Z" fill="white"/>
<path d="M35.5962 37.0665H35.066C35.1009 36.9041 35.2375 36.2743 35.2375 35.9756C35.2375 35.6282 34.9739 35.4139 34.5485 35.4139C34.2533 35.4139 33.5516 35.4139 32.977 35.4139H32.2595C32.1642 35.4139 32.0849 35.4918 32.0849 35.5892V35.8554C32.0849 35.9528 32.1642 36.0275 32.2595 36.0275H34.5358C34.5358 36.4334 34.4057 36.9204 34.3676 37.0632H31.7293C31.6341 37.0632 31.5547 37.1412 31.5547 37.2386V37.5048C31.5547 37.6022 31.6341 37.6769 31.7293 37.6769H33.3104V38.3035C33.1961 38.3035 33.0849 38.3035 32.977 38.3035H32.2595C32.1642 38.3035 32.0849 38.3814 32.0849 38.4788V38.745C32.0849 38.8425 32.1642 38.9171 32.2595 38.9171H34.5358V39.8587C34.5358 39.9528 34.612 40.0308 34.7104 40.0308H35.066C35.1613 40.0308 35.2375 39.9496 35.2375 39.8554V38.8587C35.2375 38.5113 34.9708 38.297 34.5485 38.297C34.4279 38.297 34.2342 38.297 34.012 38.297V37.6704H35.5962C35.6915 37.6704 35.7676 37.5925 35.7708 37.4983V37.2321C35.7708 37.1347 35.6946 37.0567 35.5994 37.0567L35.5962 37.0665Z" fill="white"/>
<path d="M43.3848 36.0338V36.3032C43.3848 36.3974 43.4641 36.4753 43.5594 36.4753H44.6674V37.2903C44.6674 37.3877 44.7436 37.4656 44.8388 37.4656H45.2008C45.296 37.4656 45.3722 37.3877 45.3722 37.2903V35.6182L45.369 35.4688C45.369 35.3747 45.2928 35.2968 45.1976 35.2968H44.8388C44.7436 35.2968 44.6642 35.3747 44.6642 35.4688V35.8617H43.5562C43.461 35.8617 43.3848 35.9396 43.3848 36.0338Z" fill="white"/>
<path d="M42.6268 37.4553C43.0236 37.4553 43.2173 37.4456 43.8872 37.3255C44.0237 37.2995 44.1888 37.267 44.1888 37.267C44.2809 37.2475 44.3539 37.1599 44.3539 37.0657V36.8125C44.3539 36.7281 44.2936 36.6664 44.211 36.6664C44.1983 36.6664 44.1888 36.6664 44.1793 36.6696C44.1793 36.6696 44.0174 36.7021 43.8808 36.7248C43.2681 36.8287 42.9887 36.8514 42.722 36.8514C42.63 36.8514 42.5633 36.8514 42.5315 36.8482V35.5268C42.5315 35.4294 42.4522 35.3514 42.3569 35.3514H42.0014C42.0014 35.3514 41.9918 35.3547 41.9887 35.3547H41.7378C41.6426 35.3547 41.5664 35.4326 41.5664 35.53V35.7962C41.5664 35.8936 41.6458 35.9683 41.741 35.9683H41.8331C41.8331 36.0008 41.8331 36.0365 41.8331 36.0755C41.8331 36.3936 41.8331 36.6664 41.8331 36.9099C41.8331 37.2638 42.0585 37.4521 42.4903 37.4521H42.63L42.6268 37.4553Z" fill="white"/>
<path d="M45.3076 39.4375H43.0376V39.1745H45.1996C45.2472 39.1745 45.2885 39.155 45.3203 39.1193C45.352 39.0868 45.371 39.0446 45.371 38.9959V37.8888C45.371 37.7914 45.2917 37.7167 45.1964 37.7167H42.5074C42.4121 37.7199 42.3359 37.7978 42.3359 37.8952V38.1517C42.3359 38.2491 42.4153 38.3238 42.5106 38.3238H44.6726V38.5738H42.5106C42.4534 38.5771 42.4026 38.5965 42.3709 38.629C42.3486 38.6485 42.3391 38.6745 42.3391 38.7037V39.4894C42.3391 39.8238 42.5931 40.0316 43.0026 40.0316C43.3677 40.0316 44.3583 40.0316 44.9647 40.0316C45.2568 40.0316 45.3012 40.0316 45.3583 40.0316C45.4282 40.0316 45.4853 39.9537 45.4853 39.8563V39.6095C45.4853 39.5121 45.406 39.4375 45.3107 39.4375H45.3076Z" fill="white"/>
<path d="M50.0485 35.2909H49.6929C49.5977 35.2909 49.5215 35.3688 49.5215 35.463V36.1188V37.8786C48.7564 38.1286 47.9849 38.1675 47.5753 38.1675C47.442 38.1675 47.3499 38.1643 47.3055 38.161V37.3721H48.5944C48.6897 37.3721 48.7691 37.2941 48.7691 37.2V36.9338C48.7691 36.8363 48.6897 36.7584 48.5944 36.7584H47.3055V36.0961H48.7246C48.7691 36.0961 48.8135 36.0766 48.8484 36.0441C48.8802 36.0117 48.8992 35.9662 48.8992 35.9208V35.6578C48.8992 35.5636 48.8199 35.4857 48.7246 35.4857H46.7785C46.7785 35.4857 46.7753 35.4889 46.7721 35.4889H46.5054C46.4102 35.4889 46.334 35.5669 46.334 35.6643V35.9305C46.334 36.0279 46.4134 36.1058 46.5054 36.1058H46.6038V36.3428C46.6038 37.0182 46.6038 37.9078 46.6038 38.2097C46.6038 38.6286 46.9562 38.7779 47.2864 38.7779C47.7118 38.7779 48.4706 38.7779 49.5183 38.4889V39.7519C49.5183 39.8461 49.5977 39.924 49.6929 39.924H50.0453C50.1406 39.924 50.2199 39.8461 50.2199 39.7487V36.1221V35.463C50.2199 35.3688 50.1437 35.2909 50.0453 35.2909H50.0485Z" fill="white"/>
<path d="M30.3393 39.4204H28.063V38.4788C28.063 38.3847 27.9868 38.3068 27.8883 38.3068H27.5328C27.4375 38.3068 27.3613 38.3879 27.3613 38.4821V39.4788C27.3613 39.8262 27.628 40.0405 28.0503 40.0405C28.3455 40.0405 28.9233 40.0405 29.498 40.0405H30.3393C30.4345 40.0405 30.5139 39.9626 30.5139 39.8652V39.599C30.5139 39.5016 30.4345 39.4269 30.3393 39.4269V39.4204Z" fill="white"/>
<path d="M30.8194 36.6091H30.3877V35.4565C30.3877 35.3591 30.3115 35.2811 30.2162 35.2811H29.8607C29.7654 35.2811 29.6797 35.3591 29.6797 35.4565V38.5863C29.6797 38.6837 29.7591 38.7616 29.8543 38.7616H30.2067C30.3019 38.7616 30.3813 38.6837 30.3813 38.5863V37.2227H30.8163C30.9115 37.2227 30.9909 37.1448 30.9909 37.0506V36.7844C30.9909 36.687 30.9115 36.6091 30.8163 36.6091H30.8194Z" fill="white"/>
<path d="M29.1583 36.9366C29.1583 36.6671 29.063 36.4171 28.9043 36.2223H29.1995C29.2948 36.2223 29.3741 36.1444 29.3741 36.047V35.7808C29.3741 35.6834 29.2948 35.6087 29.1995 35.6087H28.282V35.323C28.282 35.2256 28.2058 35.1444 28.1106 35.1444H27.8502C27.755 35.1444 27.682 35.2256 27.682 35.323V35.6119H26.7645C26.6692 35.6119 26.5898 35.6899 26.5898 35.7873V36.0535C26.5898 36.1509 26.6692 36.2256 26.7645 36.2256H27.0565C26.8978 36.4204 26.8026 36.6704 26.8026 36.9399C26.8026 37.5762 27.3296 38.0925 27.9804 38.0925C28.6312 38.0925 29.1583 37.5762 29.1583 36.9399V36.9366ZM27.4216 36.9366C27.4216 36.6606 27.6693 36.4334 27.9772 36.4334C28.2852 36.4334 28.5328 36.6574 28.5328 36.9366C28.5328 37.2158 28.2852 37.4399 27.9772 37.4399C27.6693 37.4399 27.4216 37.2158 27.4216 36.9366Z" fill="white"/>
</g>
<defs>
<clipPath id="clip0_1160_13124">
<rect width="51" height="16" fill="white" transform="translate(6 24.0391)"/>
</clipPath>
</defs>
</svg>
