<svg width="64" height="64" viewBox="0 0 64 64" fill="none" xmlns="http://www.w3.org/2000/svg">
<rect width="80" height="80" transform="translate(0 -8)" fill="#EFEFEF"/>
<g clip-path="url(#clip0_1160_13001)">
<path d="M16.6023 35.9122C11.6426 34.1653 9.59975 34.4755 8.96675 35.8944C8.46322 37.0209 9.44869 37.9906 10.0493 38.6145C11.7757 40.4077 14.7537 41.5949 17.6921 41.5165C20.8535 41.4309 26.3491 39.0209 27.1044 32.668C25.9859 37.2883 21.9001 37.7767 16.6059 35.9086L16.6023 35.9122Z" fill="url(#paint0_radial_1160_13001)"/>
<path d="M17.5885 33.8722C20.3831 34.7527 21.1995 34.9666 23.0446 34.8632C24.4329 34.7884 27.7633 33.4123 26.8713 29.0237C25.6953 24.4818 21.4009 21.2518 16.5023 21.537C10.9348 21.865 6.6872 26.5994 7.01809 32.1181C7.1188 33.8365 7.48925 34.8169 8.0647 36.0112C8.32726 33.8579 10.2191 31.5513 17.5885 33.8722Z" fill="url(#paint1_radial_1160_13001)"/>
<path d="M16.6141 25.2773H14.877V31.4342H16.6141V25.2773Z" fill="white"/>
<path d="M19.4989 25.2773H17.7617V31.4342H19.4989V25.2773Z" fill="white"/>
<path d="M12.6148 25.1641C10.8345 25.1641 9.38867 26.5937 9.38867 28.3584C9.38867 30.1231 10.8345 31.5527 12.6148 31.5527C14.3951 31.5527 15.8374 30.1195 15.8374 28.3584C15.8374 26.5972 14.3951 25.1641 12.6148 25.1641ZM12.6148 29.8379C11.7912 29.8379 11.1222 29.1748 11.1222 28.3584C11.1222 27.542 11.7912 26.8789 12.6148 26.8789C13.4384 26.8789 14.1074 27.542 14.1074 28.3584C14.1074 29.1748 13.4384 29.8379 12.6148 29.8379Z" fill="white"/>
<path d="M21.8222 29.8382C20.9949 29.8382 20.3296 29.1751 20.3296 28.3587C20.3296 27.5423 20.9985 26.8792 21.8222 26.8792C22.448 26.8792 22.9839 27.2642 23.2069 27.8097L24.8109 27.168C24.3326 25.9951 23.1745 25.168 21.8222 25.168C20.0418 25.168 18.5996 26.5976 18.5996 28.3623C18.5996 30.127 20.0454 31.5566 21.8222 31.5566C23.1781 31.5566 24.3398 30.7259 24.8145 29.5494L23.2105 28.9077C22.9947 29.4532 22.4516 29.8418 21.8222 29.8418V29.8382Z" fill="white"/>
<path d="M38.5812 30.0445C38.5812 32.3796 36.9087 34.2727 34.8443 34.2727C32.7798 34.2727 31.1074 32.3796 31.1074 30.0445C31.1074 27.7094 32.7798 25.8163 34.8443 25.8163C36.9087 25.8163 38.5812 27.7094 38.5812 30.0445ZM34.8443 27.524C33.7365 27.524 32.8374 28.6541 32.8374 30.0445C32.8374 31.4349 33.7365 32.565 34.8443 32.565C35.952 32.565 36.8512 31.4349 36.8512 30.0445C36.8512 28.6541 35.952 27.524 34.8443 27.524Z" fill="#595857"/>
<path d="M40.9148 28.1586H42.0154V25.6523H43.659V38.3404H42.0154V29.6809H40.9148V38.3404H39.2676V25.6523H40.9148V28.1586Z" fill="#595857"/>
<path d="M53.2127 38.7679C51.1195 38.7679 49.4219 37.2599 49.4219 35.4025C49.4219 33.5451 51.1195 32.0371 53.2127 32.0371C55.3059 32.0371 57.0035 33.5451 57.0035 35.4025C57.0035 37.2599 55.3059 38.7679 53.2127 38.7679ZM55.2807 35.4025C55.2807 34.4221 54.3528 33.6271 53.2127 33.6271C52.0726 33.6271 51.1446 34.4221 51.1446 35.4025C51.1446 36.3829 52.069 37.1779 53.2127 37.1779C54.3564 37.1779 55.2807 36.3829 55.2807 35.4025Z" fill="#595857"/>
<path d="M55.2776 30.7575H53.6016V29.2245H55.2776V28.3333H53.6016V26.8003H55.2776V25.6523H57.0004V32.5507H55.2776V30.7575Z" fill="#595857"/>
<path d="M46.4441 33.0135L45.5449 31.6017C50.1558 30.5607 50.7672 27.5732 50.7672 27.5732H46.1959V25.9297H52.7489V26.6177C52.7094 31.7407 46.4441 33.017 46.4441 33.017V33.0135Z" fill="#595857"/>
</g>
<defs>
<radialGradient id="paint0_radial_1160_13001" cx="0" cy="0" r="1" gradientUnits="userSpaceOnUse" gradientTransform="translate(25.7737 46.3293) scale(10.1928 10.1034)">
<stop stop-color="#009DE5"/>
<stop offset="1" stop-color="#003C81"/>
</radialGradient>
<radialGradient id="paint1_radial_1160_13001" cx="0" cy="0" r="1" gradientUnits="userSpaceOnUse" gradientTransform="translate(25.778 46.3178) scale(10.1964 10.107)">
<stop stop-color="#009DE5"/>
<stop offset="1" stop-color="#003C81"/>
</radialGradient>
<clipPath id="clip0_1160_13001">
<rect width="50" height="20" fill="white" transform="translate(7 21.5195)"/>
</clipPath>
</defs>
</svg>
