<svg width="64" height="64" viewBox="0 0 64 64" fill="none" xmlns="http://www.w3.org/2000/svg">
<rect width="80" height="80" transform="translate(0 -8)" fill="#EFEFEF"/>
<g clip-path="url(#clip0_1160_12994)">
<path fill-rule="evenodd" clip-rule="evenodd" d="M17.3671 42.2135C17.3671 42.2135 15.3916 43.062 13.2359 41.9385C10.5855 40.5568 10.1727 38.7257 10.1367 36.8678C10.1137 35.7476 10.9229 33.0513 9.94665 31.8373C9.07847 30.754 8.43308 30.6769 8.00391 30.5696V30.4522C8.27582 30.194 9.57317 29.5635 10.0973 28.7016C10.6641 27.7726 11.3652 26.4983 13.4193 26.8537C15.3228 27.1858 15.5881 29.7748 16.7479 31.5992C17.5374 32.8367 18.5268 34.5973 19.8143 34.8958C20.3451 35.0501 21.1379 35.0903 21.8947 34.433C21.8947 34.433 22.6875 33.6986 22.3468 32.498C22.2354 32.1022 22.0519 31.6562 21.5539 31.3376C20.1124 30.4187 18.9494 31.3007 18.6841 31.8406C18.3401 32.5382 18.0747 32.4611 17.7536 31.2068C17.4948 30.1973 16.6398 26.572 19.6112 24.154C22.2419 22.0144 25.4165 22.7287 26.8875 23.044C28.3584 23.3592 31.0809 24.1742 35.9983 20.7702C35.9983 20.7702 36.2539 20.5589 36.3391 20.5254H36.3653C36.3784 20.5556 36.2244 20.7568 35.6576 21.3537C33.977 23.1211 31.1693 24.4928 30.1374 24.7108C28.4338 25.0696 27.0742 24.9153 23.8603 24.6034C21.4622 24.372 18.992 27.008 18.838 28.0376C18.838 28.0376 20.9544 25.4452 24.7187 26.2937C29.2299 27.3132 30.5141 27.5044 34.1604 24.8684C34.1604 24.8684 32.7058 27.2361 29.9801 27.9605C27.5263 28.6111 25.4132 28.1181 24.0209 27.9605C22.6285 27.7995 20.617 28.1986 19.6865 29.6239C19.6865 29.6239 23.4803 29.2885 23.8669 32.555C24.2043 35.4022 22.278 36.7269 20.5318 36.7973C18.6022 36.8745 17.5997 35.8818 16.6692 33.9836C15.7421 32.0821 14.7331 30.1001 14.2711 29.3891C13.8059 28.6748 13.4914 27.8934 12.2891 28.0912C11.6142 28.2019 11.3292 28.6748 11.0966 29.2315C10.864 29.7882 10.3234 30.1839 9.93682 30.2611C9.93682 30.2611 11.3455 30.8781 11.5716 32.2733C11.7649 33.4705 11.5487 34.3559 11.4831 35.3318C11.3455 37.3809 11.6437 38.4608 12.1777 39.3562C12.5938 40.0537 13.8845 41.8278 17.4457 41.8278C17.4457 41.8278 18.4547 41.8312 17.3671 42.2236V42.2135Z" fill="#1D2086"/>
<path fill-rule="evenodd" clip-rule="evenodd" d="M52.8141 40.5135L44.0111 40.5001L44.0406 38.8233C44.0406 38.1827 43.5787 37.6596 42.9529 37.6596C42.3272 37.6596 41.7932 38.1794 41.7932 38.8233L41.7735 41.4157L52.8141 41.409C53.0434 41.409 53.2269 41.1943 53.2269 40.9629C53.2269 40.7315 53.0434 40.5169 52.8141 40.5169V40.5135ZM53.5872 36.4321C53.8166 36.4321 54 36.6468 54 36.8782C54 37.1096 53.8166 37.3007 53.5872 37.3007L40.4598 37.294V41.4224C40.4598 41.4224 38.2288 41.466 38.2288 41.3721C38.2288 41.2782 38.2288 37.284 38.2288 37.284L27.5159 37.2974C27.2702 37.2974 27.0703 37.1666 27.0703 36.9151C27.0703 36.6635 27.2702 36.4321 27.5159 36.4321L29.8255 36.4489H29.9566C29.0818 36.4623 29.5798 34.2925 29.5798 34.2925C29.8157 33.3736 28.8165 33.2126 28.8165 33.2126C28.9574 32.5016 29.4389 32.0891 29.8223 32.0355C30.1433 31.9919 30.4152 32.126 30.4152 32.126C31.4013 32.458 30.7003 34.4602 31.9485 35.9157C32.2531 36.2745 32.4988 36.4824 32.9477 36.4522C33.9043 36.3852 33.8355 35.4327 33.8355 35.4327L33.8486 31.5425L28.0204 31.5693C27.8304 31.5693 27.6764 31.4352 27.6764 31.2407C27.6764 31.0462 27.8304 30.8651 28.0204 30.8651H37.1935C37.3835 30.8651 37.5375 31.0227 37.5375 31.2172C37.5375 31.4117 37.3835 31.5693 37.1935 31.5693L36.0567 31.5425V35.4327C36.0567 35.4327 36.0993 36.3583 35.5653 36.4522H38.2288L38.255 31.2776C38.255 30.637 38.7628 30.1172 39.3885 30.1172C40.0143 30.1172 40.4762 30.637 40.4762 31.2776L40.4598 36.4355L44.8957 36.4455V35.1879C44.8957 34.6212 45.3445 34.1651 45.8949 34.1651C46.0489 34.1651 46.1897 34.2019 46.3208 34.2657C46.3405 34.2757 46.3601 34.2858 46.3798 34.2992C46.6877 34.4736 46.8974 34.8056 46.8974 35.1913V36.4489L47.9163 36.4422V35.1913C47.9163 34.6245 48.3651 34.1684 48.9155 34.1684C49.4659 34.1684 49.9147 34.6279 49.9147 35.1913V36.4388H53.5872V36.4321ZM42.6286 31.5693L45.8064 31.5425L42.6417 35.0303C42.6417 35.0303 42.3829 35.2718 42.3632 35.5132C42.3403 35.7748 42.6089 35.8955 42.6089 35.8955C42.835 36.0163 43.2609 36.1269 43.8604 35.5233L47.4773 31.5425L50.832 35.5971C51.1269 35.8955 51.5691 36.1437 52.0573 35.976C52.0573 35.976 52.2899 35.8922 52.4504 35.7446C52.6503 35.5635 52.7715 35.2617 52.6273 35.0236C52.4832 34.7855 52.2014 34.4333 52.2014 34.4333L49.954 31.5626H52.9189C53.1286 31.5593 53.2957 31.4083 53.2957 31.1971C53.2957 30.9858 53.1253 30.8583 52.9189 30.8583L42.6319 30.8718C42.4222 30.8718 42.2551 30.9724 42.2551 31.1837C42.2551 31.3949 42.4255 31.5693 42.6319 31.5693H42.6286Z" fill="#008AD4"/>
</g>
<defs>
<clipPath id="clip0_1160_12994">
<rect width="46" height="22" fill="white" transform="translate(8 20.5195)"/>
</clipPath>
</defs>
</svg>
