<svg width="64" height="64" viewBox="0 0 64 64" fill="none" xmlns="http://www.w3.org/2000/svg">
<g clip-path="url(#clip0_1160_12713)">
<rect width="80" height="80" transform="translate(0 -8)" fill="#EFEFEF"/>
<g clip-path="url(#clip1_1160_12713)">
<path d="M50.1619 24.3659C50.1619 20.3735 46.9414 17.1387 42.9667 17.1387C39.0034 17.1387 35.7715 20.3849 35.7715 24.3659C35.7715 28.3582 38.992 31.593 42.9667 31.593C44.4863 31.593 45.8924 31.1203 47.0548 30.3116L45.8357 28.5632C45.0192 29.127 44.0327 29.4574 42.9667 29.4574C40.5796 29.4574 38.5781 27.8001 38.0395 25.5675H49.6459C49.8898 25.5675 50.0939 25.3853 50.1166 25.1461C50.1449 24.8898 50.1562 24.6335 50.1562 24.3716L50.1619 24.3659ZM37.9941 23.3863C38.4477 21.0456 40.5003 19.2744 42.9667 19.2744C45.4331 19.2744 47.4857 21.0456 47.9393 23.3863H37.9941Z" fill="#F3775E"/>
<path d="M50.0019 27.2246C46.0272 27.2246 42.8066 30.4595 42.8066 34.4518C42.8066 38.4441 46.0272 41.679 50.0019 41.679C51.9693 41.679 53.7497 40.8873 55.0481 39.6002C54.8327 42.2086 52.6554 44.2646 50.0019 44.2646C48.573 44.2646 47.2859 43.678 46.3617 42.7895V45.4093C47.4277 46.0415 48.6751 46.406 50.0019 46.406C53.9765 46.406 57.1971 43.1711 57.1971 39.1845V34.4632C57.1971 30.4708 53.9765 27.236 50.0019 27.236V27.2246ZM55.0708 34.4518C55.0708 37.2652 52.8028 39.5433 50.0019 39.5433C47.2009 39.5433 44.9329 37.2652 44.9329 34.4518C44.9329 31.6384 47.2009 29.3603 50.0019 29.3603C52.8028 29.3603 55.0708 31.6384 55.0708 34.4518Z" fill="#FDBF7A"/>
<path d="M27.9354 9H26.7561C26.4953 9 26.2798 9.21072 26.2798 9.4784V16.996C24.9814 15.6975 23.1897 14.9002 21.2108 14.9002C17.2362 14.9002 14.0156 18.1351 14.0156 22.1274C14.0156 26.1197 17.2362 29.3546 21.2108 29.3546C25.1855 29.3546 28.4061 26.1197 28.4061 22.1274V9.4784C28.4061 9.21642 28.1963 9 27.9298 9H27.9354ZM21.2165 27.2132C18.4155 27.2132 16.1475 24.9351 16.1475 22.1217C16.1475 19.3083 18.4155 17.0302 21.2165 17.0302C24.0175 17.0302 26.2855 19.3083 26.2855 22.1217C26.2855 24.9351 24.0175 27.2132 21.2165 27.2132Z" fill="#F1667C"/>
<path d="M16.5043 32.1054C13.4311 31.3137 12.8641 30.3342 13.3348 29.2008C13.8394 27.9821 17.5306 27.1619 19.0728 29.9184C19.1919 30.1348 19.464 30.226 19.6908 30.1234L20.8135 29.5995C21.0743 29.4799 21.1707 29.1553 21.0176 28.9161C20.2125 27.629 18.9764 25.8691 15.6991 25.8691C12.8018 25.8691 10.4941 27.8169 10.7039 30.2601C10.8683 32.1338 12.1611 33.3982 15.8863 34.298C19.4357 35.158 19.4413 36.5362 19.1692 37.1627C18.931 37.7151 18.1372 38.7573 16.2548 38.7573C14.6445 38.7573 13.2384 38.0967 12.1781 36.4793C12.0477 36.2799 11.7869 36.2116 11.5771 36.3198L10.2616 36.9747C10.0121 37.1 9.92143 37.4019 10.0632 37.6411C10.6699 38.6719 12.4786 41.1095 16.0393 41.1038C18.7893 41.1038 20.0991 39.9761 20.8985 38.8997C21.0176 38.1707 21.2898 37.493 21.681 36.9064C21.8397 35.6421 21.8454 33.4722 16.5043 32.0997V32.1054Z" fill="#5963AD"/>
<path d="M31.5175 21.5684C27.5428 21.5684 24.3223 24.8032 24.3223 28.7955C24.3223 32.7879 27.5428 36.0227 31.5175 36.0227C33.4906 36.0227 35.2824 35.2197 36.5808 33.9269V35.3507C36.5808 35.6127 36.7906 35.8291 37.0571 35.8291H38.2364C38.4972 35.8291 38.7127 35.6184 38.7127 35.3507V28.8012C38.7127 24.8089 35.4921 21.5741 31.5175 21.5741V21.5684ZM36.5865 28.7955V28.8468C36.5581 31.6374 34.3014 33.887 31.5232 33.887C28.7449 33.887 26.4542 31.609 26.4542 28.7955C26.4542 25.9821 28.7222 23.7041 31.5232 23.7041C34.3241 23.7041 36.5921 25.9821 36.5921 28.7955H36.5865Z" fill="#EE3124"/>
<path d="M46.3632 39.8964C46.3632 36.6046 43.704 33.9335 40.4267 33.9335C37.1495 33.9335 34.4902 36.6046 34.4902 39.8964V47.8696C34.4902 48.1316 34.7 48.348 34.9665 48.348H36.1459C36.4067 48.348 36.6222 48.1373 36.6222 47.8696V39.8964C36.6222 37.7835 38.3288 36.0692 40.4324 36.0692C42.5359 36.0692 44.2426 37.7835 44.2426 39.8964V54.5273C44.2426 54.7893 44.4524 55.0057 44.7189 55.0057H45.8983C46.1591 55.0057 46.3745 54.795 46.3745 54.5273V39.8964H46.3632Z" fill="#F79466"/>
<path d="M25.9003 32.5154C21.9256 32.5154 18.7051 35.7503 18.7051 39.7426C18.7051 43.7349 21.9256 46.9698 25.9003 46.9698C27.8791 46.9698 29.6652 46.1668 30.9636 44.874V46.2978C30.9636 46.5597 31.1734 46.7762 31.4399 46.7762H32.6192C32.88 46.7762 33.0955 46.5654 33.0955 46.2978V39.7483C33.0955 35.756 29.875 32.5211 25.9003 32.5211V32.5154ZM30.9636 39.7426V39.7939C30.9352 42.5845 28.6786 44.8341 25.9003 44.8341C23.122 44.8341 20.8313 42.556 20.8313 39.7426C20.8313 36.9292 23.0993 34.6511 25.9003 34.6511C28.7013 34.6511 30.9693 36.9292 30.9693 39.7426H30.9636Z" fill="#74489D"/>
</g>
</g>
<defs>
<clipPath id="clip0_1160_12713">
<rect width="80" height="80" fill="white" transform="translate(0 -8)"/>
</clipPath>
<clipPath id="clip1_1160_12713">
<rect width="128" height="46" fill="white" transform="translate(10 9)"/>
</clipPath>
</defs>
</svg>
