<svg width="64" height="64" viewBox="0 0 64 64" fill="none" xmlns="http://www.w3.org/2000/svg">
<rect width="80" height="80" transform="translate(0 -8)" fill="#4E0D32"/>
<g clip-path="url(#clip0_1160_12942)">
<path d="M41.8201 25.3066V26.9428H43.5623V25.3066H44.316V29.3919H43.5623V27.5924H41.8201V29.3919H41.0664V25.3066H41.8201Z" fill="#EEC35A"/>
<path d="M46.1834 28.2351L45.8294 29.3919H45.0547L46.3762 25.3066H47.3367L48.6758 29.3919H47.8696L47.498 28.2351H46.1905M47.3648 27.6688L47.0423 26.6649C46.9617 26.4183 46.8951 26.1369 46.8355 25.9007H46.8249C46.7654 26.1369 46.7023 26.4217 46.6286 26.6649L46.3096 27.6688H47.3683H47.3648Z" fill="#EEC35A"/>
<path d="M50.1873 25.3066H49.4336V29.3919H50.1873V25.3066Z" fill="#EEC35A"/>
<path d="M52.0181 25.9319H50.8438V25.3066H53.9566V25.9319H52.7718V29.3919H52.0181V25.9319Z" fill="#EEC35A"/>
<path d="M54.9998 28.2351L54.6458 29.3919H53.8711L55.1926 25.3066H56.1531L57.4922 29.3919H56.686L56.3144 28.2351H55.0069M56.1812 27.6688L55.8587 26.6649C55.7781 26.4183 55.7115 26.1369 55.6519 25.9007H55.6378C55.5783 26.1369 55.5152 26.4217 55.4415 26.6649L55.1225 27.6688H56.1812Z" fill="#EEC35A"/>
<path d="M59.0037 25.3066H58.25V29.3919H59.0037V25.3066Z" fill="#EEC35A"/>
<path d="M7.11914 33.7932C7.11914 36.6695 9.50285 39.0005 12.3247 39.0005C15.1466 39.0005 17.5269 36.6695 17.5269 33.7932C17.5269 30.9169 15.1431 28.5859 12.3247 28.5859C9.50636 28.5859 7.11914 30.9134 7.11914 33.7932ZM14.9994 33.7932C14.9994 35.3842 13.8356 36.673 12.3247 36.673C10.8139 36.673 9.65008 35.3842 9.65008 33.7932C9.65008 32.2022 10.8139 30.9134 12.3247 30.9134C13.8356 30.9134 14.9994 32.2022 14.9994 33.7932Z" fill="#EEC35A"/>
<path d="M20.5562 25.3066C19.8446 25.3066 19.5957 25.8208 19.5957 26.2585V27.3736C19.6413 27.7765 19.9147 28.2038 20.5527 28.2038H27.795C28.5066 28.2038 28.7555 27.6897 28.7555 27.252V26.2585C28.7555 25.8208 28.5031 25.3066 27.795 25.3066H20.5597M20.1215 26.2585C20.1215 25.9736 20.2688 25.8277 20.5562 25.8277H27.7915C28.0789 25.8277 28.2261 25.9736 28.2261 26.2585V27.252C28.2261 27.5368 28.0789 27.6827 27.7915 27.6827H20.5492C20.3844 27.6827 20.1566 27.6445 20.1215 27.3284V26.2619V26.2585Z" fill="#EEC35A"/>
<path d="M17.6496 27.321V26.4247C17.6496 26.1677 17.5339 25.7334 16.952 25.7334H13.8707C13.7725 25.7334 13.6919 25.664 13.6919 25.5806V24.6913C13.6919 24.4342 13.5797 24 12.9943 24H11.6693C11.0839 24 10.9717 24.4342 10.9717 24.6913V25.5806C10.9717 25.664 10.8911 25.7334 10.7929 25.7334H7.69759C7.11217 25.7334 7 26.1677 7 26.4247V27.321C7 27.578 7.11217 28.0123 7.69759 28.0123H16.952C17.5374 28.0123 17.6496 27.578 17.6496 27.321Z" fill="#EEC35A"/>
<path d="M21.2538 29.5699C20.451 29.5699 19.5957 30.0006 19.5957 31.213V35.6699C19.5957 37.5875 21.1556 38.8276 23.5674 38.8276H27.7915C28.5031 38.8276 28.752 38.3135 28.752 37.8758V36.8823C28.752 36.4411 28.4996 35.9305 27.7915 35.9305H24.0897C23.4202 35.9305 23.0906 35.8784 22.9434 35.7464C22.8137 35.6282 22.7646 35.3781 22.7646 34.8188V32.4636H27.788C28.4996 32.4636 28.7485 31.9495 28.7485 31.5118V30.5182C28.7485 30.0805 28.4961 29.5664 27.788 29.5664H21.2503M20.1215 35.6699V31.213C20.1215 30.2369 20.8296 30.091 21.2538 30.091H27.7915C28.0789 30.091 28.2261 30.2369 28.2261 30.5217V31.5152C28.2261 31.8001 28.0789 31.946 27.7915 31.946H22.6805C22.5613 31.946 22.4421 31.9946 22.358 32.0745C22.2809 32.1509 22.2388 32.2517 22.2388 32.3594V34.8223C22.2388 36.1632 22.5683 36.455 24.0897 36.455H27.7915C28.0789 36.455 28.2261 36.6009 28.2261 36.8858V37.8793C28.2261 38.1641 28.0789 38.31 27.7915 38.31H23.5639C21.4396 38.31 20.1215 37.2992 20.1215 35.6734V35.6699Z" fill="#EEC35A"/>
<path d="M38.3393 38.0245V26.1718C38.3393 25.9147 38.2272 25.4805 37.6417 25.4805H36.3202C35.7348 25.4805 35.6226 25.9147 35.6226 26.1718V29.6386C35.6226 29.722 35.542 29.7915 35.4438 29.7915H33.7857C33.6876 29.7915 33.607 29.722 33.607 29.6386V26.1718C33.607 25.9147 33.4948 25.4805 32.9094 25.4805H31.5843C31.0024 25.4805 30.8867 25.9147 30.8867 26.1718V38.0245C30.8867 38.2815 31.0024 38.7158 31.5843 38.7158H32.9094C33.4913 38.7158 33.607 38.2815 33.607 38.0245V32.2197C33.607 32.1363 33.6876 32.0669 33.7857 32.0669H35.4438C35.542 32.0669 35.6226 32.1363 35.6226 32.2197V38.0245C35.6226 38.2815 35.7348 38.7158 36.3202 38.7158H37.6417C38.2272 38.7158 38.3393 38.2815 38.3393 38.0245Z" fill="#EEC35A"/>
<path d="M41.0449 25.6396H41.0905V25.3652H41.0449V25.6396ZM41.0449 26.1885H41.0905V25.9141H41.0449V26.1885ZM41.0449 26.7374H41.0905V26.4629H41.0449V26.7374ZM41.0449 27.2862H41.0905V27.0118H41.0449V27.2862ZM41.0449 27.8351H41.0905V27.5607H41.0449V27.8351ZM41.0449 28.384H41.0905V28.1095H41.0449V28.384ZM41.0449 28.9328H41.0905V28.6584H41.0449V28.9328ZM41.0449 29.4817H41.0905V29.2073H41.0449V29.4817Z" fill="#EEC35A"/>
</g>
<defs>
<clipPath id="clip0_1160_12942">
<rect width="52" height="15" fill="white" transform="translate(7 24)"/>
</clipPath>
</defs>
</svg>
