<svg width="64" height="64" viewBox="0 0 64 64" fill="none" xmlns="http://www.w3.org/2000/svg">
<rect width="80" height="80" transform="translate(0 -9)" fill="#0B6D38"/>
<g clip-path="url(#clip0_1160_12783)">
<path d="M57.7935 32.996H56.2514V30.5113H57.7935V28.6252H46.1934V30.5113H47.7354V32.996H46.1934V34.9016H57.7935V32.996ZM50.4672 30.5113H53.5196V32.996H50.4672V30.5113Z" fill="white"/>
<path d="M56.0527 38.1683L56.3668 35.2598H53.635L53.3208 38.1683H50.6683L50.3574 35.2598H47.6255L47.9364 38.1683H45.9883V40.0738H58.0009V38.1683H56.0527Z" fill="white"/>
<path d="M17.4377 35.261H5.70117V38.7681C5.70117 39.5283 6.30719 40.1463 7.05282 40.1463H17.4377V35.2578V35.261ZM14.6265 38.341H8.51235V37.0663H14.6265V38.341Z" fill="white"/>
<path d="M17.4377 32.996H18.1389V34.8013H5V32.996H9.44205V31.3622H12.2532V32.996H14.6297V30.4304H5.70121V28.6252H16.397C16.9713 28.6252 17.4377 29.1007 17.4377 29.6863V32.9992V32.996Z" fill="white"/>
<path d="M17.3022 22.991C17.2705 22.9619 17.2388 22.9295 17.207 22.9004C17.2356 22.9295 17.2673 22.9619 17.3022 22.991Z" fill="#0B6D38"/>
<path d="M16.8515 22.3009C16.8293 22.2362 16.8135 22.1715 16.8008 22.1133C16.8135 22.1715 16.8293 22.233 16.8515 22.3009Z" fill="#0B6D38"/>
<path d="M16.7878 22.0356C16.7878 22.0356 16.7845 22.0097 16.7812 22C16.7812 22.0129 16.7813 22.0226 16.7878 22.0356Z" fill="#0B6D38"/>
<path d="M16.7976 22.1019C16.7976 22.1019 16.791 22.0728 16.791 22.0566C16.791 22.0696 16.7976 22.0858 16.7976 22.1019Z" fill="#0B6D38"/>
<path d="M26.1667 35.3587C26.0144 35.0061 25.8748 34.6146 25.7478 34.2684C25.6209 33.919 25.5131 33.6182 25.4306 33.4629C25.3766 33.3561 25.3005 33.2267 25.2021 33.0585C24.9229 32.5796 24.4914 31.9035 24.0694 31.2403C24.0377 31.1917 23.9742 31.1723 23.9234 31.195C23.8695 31.2176 23.8409 31.2791 23.8568 31.3373C24.0091 31.952 24.1392 32.4147 24.2407 32.7155C24.5358 33.589 24.9419 34.7699 24.9451 34.7764L25.3481 35.802C25.3639 35.8893 25.4464 36.4134 25.4464 36.7175V36.7661C25.4464 37.0896 25.4432 37.2352 25.3417 37.3322C25.2275 37.4455 25.0498 37.4649 25.0498 37.4649C25.0435 37.4649 25.0371 37.4649 25.0308 37.4681C24.9197 37.5005 23.933 37.7949 23.6506 38.1605C23.6125 38.2025 23.4062 38.4354 23.4062 38.7428C23.4062 38.9628 23.5744 39.3316 24.7008 39.3316C24.7484 39.3316 24.7928 39.3025 24.8118 39.2572C24.8912 39.0599 25.0244 38.8787 25.2085 38.7202C25.5289 38.4452 26.0017 38.2284 26.6204 38.0796C26.6743 38.0666 26.7124 38.0181 26.7124 37.9631L26.7187 37.2837V37.2611C26.7187 36.6981 26.4681 36.0672 26.1667 35.362V35.3587Z" fill="#197A3B"/>
<path d="M37.9008 37.7865C37.8405 37.7024 37.8025 37.6441 37.739 37.5471C37.6946 37.4824 37.6438 37.3982 37.5645 37.2818C37.501 37.188 37.4439 37.0909 37.3836 36.9938C37.3202 36.8871 37.2504 36.7771 37.1806 36.6736C37.1552 36.6347 37.1235 36.5797 37.0886 36.5086C37.0156 36.363 36.9236 36.1624 36.8284 35.9489C36.7205 35.7062 36.5968 35.4312 36.4698 35.1756C36.4445 35.1239 36.3842 35.098 36.3302 35.1142C36.1177 35.1789 35.9431 35.2177 35.775 35.2436C35.7337 35.25 35.6988 35.2792 35.683 35.3212C35.6671 35.3633 35.6734 35.4086 35.702 35.4409C36.0193 35.8389 36.2509 36.3241 36.3144 36.7318L36.3366 36.858C36.4032 37.2559 36.4635 37.628 36.3017 37.7185C36.2065 37.7703 36.0796 37.7994 35.9305 37.8318C35.7147 37.8803 35.445 37.9385 35.1309 38.1003C34.6105 38.3688 34.3789 38.6729 34.3789 39.0903C34.3789 39.4753 34.9564 39.7341 35.8194 39.7341C36.0066 39.7341 36.2826 39.7276 36.6412 39.7147C36.6951 39.7147 36.7427 39.6726 36.7522 39.6176C36.7871 39.4429 36.876 39.2618 37.0156 39.0773C37.244 38.7797 37.555 38.5274 37.8088 38.3235L37.8596 38.2815C37.9008 38.2491 37.9579 38.1941 37.977 38.11C38.0214 37.9418 37.9262 37.8124 37.9008 37.78V37.7865Z" fill="#197A3B"/>
<path d="M41.9813 36.0647C41.9813 35.9612 41.9813 35.8512 41.9813 35.7315C41.9718 35.0586 41.9623 34.1398 42.1749 32.9848L42.1939 32.8715C42.435 31.5516 42.6095 30.5972 42.6095 29.866C42.6095 28.9828 42.343 27.7696 41.6006 27.0093C40.8771 26.2716 40.2997 25.7443 38.9417 25.162C37.5964 24.5861 35.6895 24.392 35.0263 24.392C34.7852 24.392 34.1284 24.4373 33.3732 24.489C32.4023 24.557 31.3014 24.6314 30.7905 24.6314C29.8958 24.6314 28.56 24.5796 28.1824 24.5117C27.8048 24.4437 26.4849 23.8614 25.533 23.2984C24.5875 22.7387 23.8006 22.0691 23.7911 22.0593C23.7562 22.027 23.7054 22.0238 23.661 22.0432C23.6579 22.0432 23.4199 22.1629 23.1819 22.2761C23.2517 22.1726 23.312 22.0658 23.3342 21.972C23.4008 21.7067 23.3913 21.4802 23.312 21.3541C23.2263 21.2182 23.0963 21.1438 22.9471 21.1438C22.7821 21.1438 22.6203 21.1729 22.4617 21.2344C22.3982 21.257 22.3379 21.2829 22.2872 21.3088C22.2935 21.2926 22.2999 21.2764 22.2999 21.257C22.2999 21.2182 22.284 21.1826 22.2523 21.1599C22.2142 21.1308 21.3416 20.4741 20.1867 20.4741H20.0312C19.9487 20.4644 19.4157 20.4158 18.9493 20.7944C18.8541 20.8429 18.7684 20.8914 18.6923 20.9335C18.4289 21.0823 18.2576 21.1794 17.88 21.1794H17.8483C17.7658 21.1794 17.6262 21.1794 17.5405 21.1761C17.5088 21.1761 17.4739 21.1891 17.4517 21.2117C17.4295 21.2376 17.4168 21.2699 17.4199 21.3055C17.4295 21.4349 17.4199 21.6614 17.2359 21.7326C17.1153 21.7779 16.9948 21.7455 16.871 21.6291C16.8393 21.5967 16.7917 21.5902 16.7505 21.6064C16.7092 21.6226 16.6775 21.6614 16.6743 21.7067C16.6743 21.7326 16.6711 21.7585 16.668 21.7908C16.668 21.8135 16.668 21.8329 16.668 21.8555C16.668 21.8685 16.668 21.8846 16.668 21.9041L16.6838 22.0626V22.0788L16.6902 22.1208L16.6934 22.137C16.706 22.2017 16.7251 22.2664 16.7473 22.3343C16.7473 22.3408 16.7505 22.3473 16.7536 22.3538C16.7695 22.3893 16.8964 22.632 17.1344 22.8099C17.128 22.8164 17.1249 22.8196 17.1217 22.8261C17.09 22.8746 17.0963 22.9361 17.1344 22.9782C17.1661 23.0105 17.1978 23.0429 17.2423 23.0817C17.2803 23.114 17.3184 23.1464 17.3628 23.1787C17.7023 23.4311 17.8895 23.499 18.1053 23.5799C18.2544 23.6349 18.4099 23.6931 18.6447 23.8258C19.2285 24.1493 19.806 24.7155 20.3454 25.2655C20.8752 25.8058 21.6748 26.621 22.0904 27.3425C22.1507 27.446 22.2459 27.6175 22.3697 27.8375L22.6108 28.2678C22.8266 28.6528 23.1597 29.2416 23.5278 29.8725C23.9117 30.5292 24.267 31.1083 24.5812 31.6001C25.0603 32.3474 25.4664 32.9104 25.7869 33.276C25.8408 33.4377 26.1708 34.3921 26.5071 35.1815C26.8181 35.9127 27.1766 36.8347 27.1766 37.4753V37.4947C27.1766 38.0803 27.1639 38.3229 26.8244 38.4459C26.7895 38.4588 26.7546 38.4685 26.7133 38.4815C26.1042 38.6303 25.6568 38.8406 25.3903 39.1059C25.2126 39.2838 25.1142 39.4876 25.1015 39.7141C25.1015 39.7303 25.1015 39.7432 25.1015 39.7594C25.1015 40.5423 26.2945 40.5423 27.1671 40.5423H27.4717C27.5732 40.5423 27.6747 40.5423 27.7763 40.5423C27.881 40.5423 27.9889 40.5423 28.0936 40.5423C28.9724 40.5423 29.8609 40.4906 30.248 39.892C30.2829 39.8403 30.3622 39.6753 30.3051 39.2126C30.2448 38.7112 30.2829 37.9606 30.3876 37.6985C30.4002 37.6662 30.4161 37.6274 30.432 37.5885C30.5716 37.2456 30.8096 36.673 30.8096 35.8383C30.8096 34.9195 30.5176 33.7159 30.359 33.276C30.3463 33.2371 30.3304 33.1983 30.3178 33.1595C30.3717 33.2404 30.4256 33.331 30.4732 33.4312C30.7302 33.9554 30.8698 34.4309 30.873 34.4342C30.8857 34.473 30.9143 34.5021 30.9492 34.5151C30.9936 34.5312 32.0597 34.8742 33.7318 34.9874C34.0396 35.0068 34.3093 35.023 34.5599 35.0327C34.9058 35.0456 35.185 35.0456 35.4039 35.0359C35.81 35.0198 36.0321 34.9777 36.2447 34.9162C36.2796 34.9065 36.3082 34.8806 36.3209 34.8483C36.3367 34.8159 36.3336 34.7771 36.3177 34.7448C36.3177 34.7448 36.2289 34.5668 36.121 34.3306C36.0321 34.1333 35.956 33.9521 35.8925 33.7904C35.8259 33.6124 35.7783 33.4604 35.7529 33.3439C35.7275 33.2242 35.7022 33.111 35.6831 32.9977C35.7371 33.1304 35.791 33.2598 35.8481 33.3762C35.8894 33.4636 35.9465 33.5801 36.0131 33.7192L36.0639 33.8227C36.1432 33.9845 36.232 34.1721 36.3272 34.3662C36.4129 34.5409 36.5017 34.7253 36.5937 34.9098C36.9967 35.7283 37.2632 36.2297 37.4092 36.4465C37.5424 36.6439 37.682 36.8509 37.8121 37.045L38.0152 37.3491C38.1231 37.5109 38.2151 37.6435 38.2754 37.7309C38.4023 37.9088 38.4023 38.035 38.3991 38.1353V38.1612C38.3991 38.2227 38.3991 38.365 38.0977 38.6076L38.1707 38.7015L38.0818 38.6174L38.0501 38.6432C37.9739 38.7047 37.8819 38.7791 37.7899 38.8568C37.5012 39.1026 37.3172 39.3032 37.2093 39.4909C37.1395 39.6138 37.1077 39.7238 37.1077 39.8273C37.1077 39.9276 37.1426 40.015 37.2125 40.0894C37.4409 40.3385 38.0279 40.3903 38.4816 40.3903C38.8497 40.3903 41.3531 40.3094 41.7782 40.1153C42.2224 39.9147 42.4477 39.5976 42.4477 39.1673C42.4477 38.9829 42.3621 38.5074 42.2637 37.9541C42.1368 37.2359 41.9908 36.4239 41.9908 36.0421L41.9813 36.0647Z" fill="#197A3B"/>
<path d="M19.37 21.3398C19.2209 21.3398 19.0813 21.4013 18.9861 21.5113C18.9448 21.5598 18.948 21.631 18.9924 21.6731C19.04 21.7151 19.1098 21.7119 19.1511 21.6666C19.205 21.6051 19.2843 21.5728 19.3668 21.5728C19.5001 21.5728 19.6207 21.6634 19.6556 21.796C19.6683 21.8478 19.7158 21.8801 19.7634 21.8801C19.773 21.8801 19.7857 21.8801 19.7952 21.8769C19.8555 21.8607 19.8904 21.796 19.8745 21.7345C19.811 21.5048 19.6016 21.3463 19.3668 21.3463L19.37 21.3398Z" fill="white"/>
<path d="M42.3261 36.0029C42.3261 35.3849 42.3483 33.6185 42.6212 32.8226L42.8211 31.8068C42.9543 31.1565 43.1161 30.6065 43.1161 29.83C43.1161 29.0536 42.7544 27.5298 41.9136 26.6724C41.1712 25.9154 40.4509 25.2586 39.1278 24.6698C37.5699 23.9807 35.5139 23.8998 35.0475 23.8998C34.7905 23.8998 34.0575 23.9095 33.2611 23.9645C32.2966 24.0325 31.2876 24.1004 30.7895 24.1004C29.8344 24.1004 28.5811 24.0486 28.2638 23.9904C27.7181 23.8836 26.7535 23.4145 25.7763 22.8387C24.8657 22.2984 24.1137 21.6578 24.1042 21.6513C24.1042 21.6513 24.1391 21.5543 24.1391 21.3763C24.1391 21.1984 24.0407 21.0237 23.9455 20.9266C23.8567 20.836 23.6282 20.6872 23.2443 20.6872C23.1301 20.6872 22.6859 20.7002 22.5495 20.739L22.5082 20.7131C22.4638 20.684 21.4167 20.0078 20.1285 20.0078H20.0905L20.0524 20.0143C19.9762 20.024 19.2116 20.0078 18.7166 20.4025C18.3136 20.726 17.5331 20.781 17.5331 20.781C17.054 20.781 16.5527 20.6257 16.264 21.0657C16.099 21.3731 16.1656 21.8228 16.1783 21.8454C16.1815 22.0622 16.2481 22.9389 17.0762 23.5536C17.4697 23.8448 17.7076 23.9322 17.9361 24.0195C18.0757 24.0713 18.2089 24.123 18.412 24.2363C18.9387 24.5275 19.4876 25.0677 20.0016 25.5919C20.5125 26.1127 21.1185 26.8762 21.5627 27.5395C21.6293 27.6365 21.7721 27.8921 21.8958 28.1121C22.1528 28.5683 23.33 31.0497 23.33 31.0497C23.349 31.1306 23.5235 31.9847 23.825 32.8776C24.1169 33.7414 24.523 34.9223 24.5262 34.9352L24.8847 35.9576C24.9164 36.1452 24.9482 36.4008 24.9482 36.734V37.0414C24.5833 37.1482 23.6695 37.4393 23.3173 37.8729C23.2189 37.9829 22.8414 38.3808 22.8414 38.8273C22.8414 39.209 23.184 39.7105 24.6118 39.7331C24.6118 40.0081 24.7197 40.6681 25.6938 40.8978C26.1253 40.9981 26.6552 41.0078 27.1597 41.0078H27.3151H27.4643C27.5626 41.0078 27.6642 41.0078 27.7657 41.0078C27.8736 41.0078 27.9783 41.0078 28.0862 41.0078C29.0475 41.0078 30.1644 40.9399 30.6879 40.1505C30.8434 39.9337 30.8878 39.594 30.8307 39.1249C30.7514 38.384 30.872 37.8793 30.872 37.8793C31.0179 37.5267 31.2844 36.747 31.2844 35.812C31.2844 35.5758 31.2844 35.5111 31.2591 35.2652C31.735 35.3073 32.8741 35.3461 33.9814 35.4238C34.5335 35.4594 34.8254 35.4335 35.2157 35.4205C35.3204 35.5047 35.4155 35.5888 35.4758 35.6697C35.7963 36.0999 35.9264 36.4073 36.0089 36.6532C36.0882 36.8861 36.0692 37.3908 36.0692 37.3908C36.0311 37.4005 35.8058 37.4523 35.7677 37.462C35.5393 37.5137 35.2981 37.5623 34.9333 37.7532C34.6858 37.8793 33.9401 38.3323 33.9401 39.1022C33.9401 39.6328 34.3685 40.0761 35.7614 40.0761C35.9835 40.0761 36.3039 40.0696 36.6561 40.0566C36.7291 40.309 36.9449 40.6358 37.5509 40.7813C37.8682 40.8558 38.2299 40.8719 38.4806 40.8719C38.5091 40.8719 41.3806 40.8234 41.9739 40.5549C42.8084 40.1796 42.9004 39.5487 42.9004 39.1864C42.9004 38.9728 42.7957 38.5296 42.6815 37.8405C42.5736 37.2064 42.3356 36.3491 42.3356 36.0094L42.3261 36.0029ZM24.7039 39.2122C23.9297 39.2122 23.5267 39.0311 23.5267 38.7431C23.5267 38.4552 23.7393 38.2384 23.7393 38.2384C23.9963 37.8923 25.0624 37.5849 25.0624 37.5849C25.0624 37.5849 25.275 37.5623 25.4241 37.4199C25.5732 37.2776 25.5637 37.0673 25.5637 36.7211C25.5637 36.3749 25.459 35.7732 25.459 35.7732L25.0529 34.7347C25.0529 34.7347 24.6467 33.5538 24.3517 32.6803C24.2343 32.3341 24.0947 31.8132 23.9709 31.3085C24.4151 32.0041 24.8276 32.6544 25.1036 33.1235C25.1957 33.2788 25.2718 33.4147 25.3289 33.5214C25.4844 33.8191 25.7541 34.6894 26.0587 35.4076C26.3284 36.0417 26.6012 36.7049 26.6012 37.2582V37.2808L26.5949 37.9602C25.9 38.1284 25.4368 38.3646 25.1354 38.6267C24.9196 38.8143 24.7832 39.0149 24.707 39.2122H24.7039ZM36.9227 39.0084C36.7862 39.1896 36.6815 39.387 36.6371 39.5972C36.3198 39.6069 36.0279 39.6167 35.8217 39.6167C35.0126 39.6167 34.4986 39.3837 34.4986 39.0958C34.4986 38.7658 34.6604 38.4876 35.1839 38.2158C35.7074 37.944 36.1009 37.9764 36.3579 37.8308C36.6149 37.6884 36.5134 37.2226 36.4309 36.7179C36.3484 36.2132 36.0628 35.7085 35.7931 35.372C35.9581 35.3461 36.1358 35.3073 36.3611 35.2394C36.599 35.7149 36.818 36.2585 36.9798 36.5723C37.0179 36.6467 37.0496 36.7049 37.0813 36.7502C37.2146 36.9476 37.332 37.1579 37.4652 37.3585C37.6619 37.6529 37.7032 37.7273 37.8079 37.8696C37.8079 37.8696 37.8967 37.9699 37.8618 38.0929C37.8523 38.1349 37.8301 38.1673 37.7857 38.2029L37.7349 38.2449C37.4811 38.4487 37.1575 38.7075 36.9227 39.0181V39.0084ZM41.7201 40.0243C41.3362 40.199 38.9057 40.2864 38.471 40.2864C38.1125 40.2864 37.5001 40.2508 37.2875 40.0211C37.24 39.9693 37.2146 39.9111 37.2146 39.8399C37.2146 39.7525 37.2495 39.6587 37.3002 39.5649C37.4208 39.3546 37.6429 39.1411 37.8523 38.9631C37.957 38.8725 38.0617 38.7917 38.1442 38.7237C38.1474 38.7205 38.1537 38.7173 38.1601 38.7108C38.4774 38.4552 38.5059 38.2805 38.5059 38.1673C38.5059 38.054 38.5218 37.889 38.3568 37.6626C38.2965 37.5784 38.2045 37.4458 38.0998 37.284C37.9221 37.022 37.7 36.6855 37.4938 36.3814C37.3256 36.1323 37.002 35.5014 36.6847 34.8608C36.5959 34.6764 36.5038 34.492 36.4182 34.3173C36.323 34.12 36.2341 33.9356 36.1548 33.7738C36.066 33.5894 35.9898 33.4309 35.9391 33.3241C35.6599 32.745 35.406 31.8488 35.406 31.8488C35.4346 32.3988 35.5107 32.8582 35.6186 33.3694C35.6472 33.5053 35.7011 33.667 35.7646 33.832C35.8375 34.0229 35.92 34.217 35.9962 34.3788C36.1072 34.6214 36.1961 34.7961 36.1961 34.7961C36.0152 34.8479 35.7995 34.8964 35.3806 34.9126C35.2855 34.9158 35.1776 34.9191 35.0602 34.9191C34.9111 34.9191 34.7397 34.9158 34.5462 34.9094C34.3082 34.8997 34.0385 34.8867 33.7212 34.8641C32.0459 34.7508 30.9671 34.3982 30.9671 34.3982C30.9671 34.3982 30.8275 33.9161 30.561 33.3759C30.2945 32.8356 29.8884 32.525 29.8884 32.525C29.8884 32.525 30.0819 32.9003 30.2279 33.3144C30.377 33.7285 30.6721 34.9255 30.6721 35.8379C30.6721 36.7502 30.377 37.352 30.2596 37.6529C30.1422 37.9537 30.1105 38.7431 30.1707 39.2252C30.231 39.7072 30.1327 39.8205 30.1327 39.8205C29.7837 40.364 28.9333 40.419 28.0735 40.419C27.8641 40.419 27.6546 40.419 27.4516 40.419C27.35 40.419 27.2485 40.419 27.147 40.419C26.1919 40.419 25.1988 40.3899 25.1988 39.7558C25.1988 39.7428 25.1988 39.7267 25.1988 39.7137C25.2115 39.5067 25.3067 39.3352 25.4495 39.1896C25.7731 38.8661 26.3379 38.6881 26.7155 38.5943C26.7599 38.5846 26.8011 38.5717 26.8392 38.5555C27.2739 38.397 27.2707 38.0379 27.2707 37.4717C27.2707 36.8538 26.9598 35.9964 26.5917 35.1294C26.2237 34.2623 25.8683 33.2109 25.8683 33.2109C25.5161 32.8129 25.0941 32.2079 24.6594 31.5318C24.3041 30.9785 23.9424 30.38 23.606 29.8074C23.2602 29.2186 22.9429 28.6589 22.6891 28.2059C22.4479 27.7756 22.2639 27.4424 22.1687 27.2774C21.7562 26.5624 20.9884 25.773 20.4046 25.1777C19.8208 24.5825 19.2592 24.0422 18.6754 23.7186C18.0915 23.3951 17.9678 23.4922 17.4062 23.0781C17.3681 23.0489 17.3301 23.0198 17.2951 22.9875C17.2951 22.9875 17.2888 22.9842 17.2888 22.981C17.2571 22.9519 17.2253 22.9195 17.1936 22.8904C17.2412 22.9098 17.2888 22.9292 17.3427 22.9487C17.7869 23.1007 18.2565 23.1007 18.2565 23.1007C18.2565 23.1007 17.7679 22.9713 17.3967 22.8289C17.035 22.6931 16.8446 22.3145 16.8351 22.2951C16.8129 22.2304 16.797 22.1657 16.7843 22.1075C16.7843 22.1043 16.7843 22.0978 16.7843 22.0945C16.7843 22.0784 16.778 22.0654 16.778 22.0493C16.778 22.0428 16.778 22.0363 16.7748 22.0298C16.7748 22.0169 16.7716 22.004 16.7684 21.9943C16.7684 21.9845 16.7684 21.9781 16.7684 21.9716C16.7684 21.9619 16.7684 21.9522 16.7684 21.9425C16.7684 21.9328 16.7684 21.9231 16.7684 21.9134C16.7684 21.9069 16.7684 21.9004 16.7684 21.894C16.7684 21.8778 16.7684 21.8648 16.7684 21.8519C16.7684 21.8325 16.7684 21.8131 16.7684 21.7904C16.7684 21.7904 16.7684 21.7872 16.7684 21.784C16.7684 21.7646 16.7684 21.7419 16.7716 21.7225C16.7716 21.7225 16.7716 21.7193 16.7716 21.716C16.8763 21.8131 17.054 21.9263 17.2602 21.8422C17.5236 21.7387 17.5299 21.4313 17.5204 21.2922C17.6093 21.2954 17.7489 21.2954 17.8345 21.2954H17.8663C18.3993 21.2954 18.5738 21.1046 19.0022 20.891C19.4686 20.506 20.0143 20.5902 20.0143 20.5902H20.1761C21.3025 20.5902 22.1687 21.2534 22.1687 21.2534C22.0069 21.3731 21.88 21.729 21.88 21.729C21.88 21.729 22.0577 21.5122 22.4923 21.344C22.6637 21.2793 22.816 21.2599 22.9366 21.2599C23.0571 21.2599 23.1428 21.3213 23.2031 21.4151C23.2634 21.509 23.2697 21.7031 23.2094 21.936C23.1491 22.169 22.7811 22.5669 22.7811 22.5669C23.0095 22.4925 23.7044 22.1463 23.7044 22.1463C23.7044 22.1463 24.4944 22.8225 25.4622 23.3951C26.4299 23.9678 27.7657 24.5533 28.1496 24.6213C28.5335 24.6892 29.863 24.741 30.7768 24.741C31.6906 24.741 34.4668 24.5016 35.0158 24.5016C35.5647 24.5016 37.497 24.6666 38.8835 25.2619C40.2701 25.8571 40.8317 26.3974 41.5043 27.0833C42.177 27.7692 42.4784 28.8983 42.4784 29.8527C42.4784 30.5903 42.2944 31.5771 42.0437 32.9456C41.7931 34.3173 41.8502 35.3558 41.8502 36.0482C41.8502 36.7405 42.3071 38.7723 42.3071 39.1734C42.3071 39.5746 42.0945 39.8367 41.7106 40.0081L41.7201 40.0243Z" fill="white"/>
</g>
<defs>
<clipPath id="clip0_1160_12783">
<rect width="53" height="21" fill="white" transform="translate(5 20)"/>
</clipPath>
</defs>
</svg>
