<svg width="64" height="64" viewBox="0 0 64 64" fill="none" xmlns="http://www.w3.org/2000/svg">
<rect width="80" height="80" transform="translate(0 -8)" fill="#EFEFEF"/>
<g clip-path="url(#clip0_1160_12734)">
<path d="M54.3257 32.699C54.1624 32.5072 53.9908 32.3751 53.8694 32.2813C53.3128 31.804 52.2998 31.7486 51.718 31.7784C51.4502 31.7997 51.2451 31.7997 51.0525 31.7997C50.68 31.7997 50.3535 31.8083 49.9308 31.8765C49.529 31.9404 48.9639 32.0384 48.3737 32.1364L47.1557 32.341C46.1888 32.5072 45.5233 32.5754 44.5983 32.6692C43.7319 32.7587 43.3175 32.7289 42.7106 32.6862C42.4804 32.6692 42.2083 32.6521 41.9069 32.6394C42.0074 32.3453 42.1371 31.9063 42.1371 31.5696C42.1371 31.5355 42.1371 31.5014 42.1371 31.4673C42.1371 31.3991 42.1371 31.3352 42.1371 31.267C42.3046 30.8408 42.3506 30.4401 42.292 30.0608C42.5139 30.0992 42.7399 30.1077 42.9073 30.0821C43.0412 30.1631 43.2129 30.2441 43.4221 30.2995C43.5937 30.3421 43.757 30.3634 43.9579 30.3762C44.4434 30.6021 44.9373 30.6575 45.3685 30.6319H45.5652C45.7452 30.6319 45.9377 30.6234 46.0884 30.5978C46.2098 30.5978 46.3353 30.5893 46.5697 30.5552L46.7706 30.5296C46.7706 30.5296 46.9255 30.5083 46.9339 30.5041C46.9925 30.4955 47.0553 30.4828 47.0511 30.4742C47.2938 30.4913 47.524 30.487 47.7752 30.4487L48.2021 30.4316C48.2691 30.4273 48.3319 30.4188 48.3947 30.406C48.4826 30.389 48.5663 30.3719 48.7044 30.3549C48.8467 30.3336 48.9932 30.3165 49.1355 30.2995L49.349 30.2739C49.6127 30.2398 49.7173 30.2057 49.8554 30.1588L50.0061 30.1247C50.4456 30.0523 50.9186 29.8988 51.4585 29.2212C51.6385 28.991 51.9357 28.6032 52.0487 28.0534C52.1575 27.5291 52.0403 27.0006 51.7222 26.6C51.6636 26.5276 51.5841 26.4423 51.4795 26.3528C51.4502 26.2804 51.4125 26.2079 51.3706 26.1354C51.2493 25.8627 51.0902 25.6709 50.9521 25.543C50.7888 25.1893 50.454 24.665 49.7968 24.5585C49.755 24.5372 49.7131 24.5201 49.6671 24.5031C49.4452 24.4178 49.1523 24.3113 48.809 24.2687C48.3905 24.0428 47.9677 24.0428 47.817 24.0428C47.7208 24.0428 47.6203 24.047 47.5366 24.0641C46.825 23.9788 46.486 24.0257 46.0926 24.0811C45.9795 24.0939 45.8582 24.1152 45.6949 24.1237C45.1885 24.1493 44.7741 24.2687 44.4392 24.3624C44.2676 24.4093 44.1002 24.4647 43.8909 24.486C43.2003 24.5542 42.4678 24.7503 41.5763 25.1125C41.5595 25.1168 41.547 25.1296 41.5344 25.1381C41.5051 25.0912 41.48 25.0486 41.4465 25.006C41.4674 24.9975 41.4926 24.9932 41.5135 24.9847C41.5805 24.9549 41.8023 24.8696 41.773 24.8653C42.3004 24.7503 43.0203 24.3667 43.0371 24.3624C43.1124 24.3241 43.2631 24.2516 43.3845 24.2047C44.2551 23.8723 45.0001 23.3694 45.7033 22.8494C45.7033 22.8494 45.7075 22.8494 45.7117 22.8451C45.854 22.7812 46.08 22.6789 46.3102 22.4871C46.5279 22.3166 46.6744 22.1334 46.7162 22.0396C46.9757 21.9203 47.1557 21.7668 47.2729 21.656C47.4906 21.5111 47.6287 21.3491 47.7082 21.2554C47.7375 21.2255 47.8129 21.1318 47.838 21.0977C48.2482 20.582 48.3737 20.1217 48.3612 19.7338C48.9053 19.0306 48.7797 18.2677 48.4826 17.8074C48.1477 17.2618 47.5324 16.9592 46.8962 17.0018C46.7204 16.9677 46.5907 16.9677 46.5404 16.9805C45.9461 16.8484 45.0796 16.9805 44.7281 17.0658C44.682 17.0786 44.636 17.0913 44.5899 17.1041L44.4309 17.1595C44.3723 17.1808 44.3137 17.2022 44.2802 17.2149C44.1881 17.2362 44.1044 17.2661 44.0039 17.3002C43.8533 17.3215 43.6816 17.3641 43.5058 17.4494C43.4179 17.4579 43.3301 17.4749 43.238 17.4962C42.6645 17.6369 42.2669 17.9651 42.0074 18.1867L41.6181 18.4083C41.254 18.6214 40.9149 18.8644 40.5299 19.1627C40.3666 19.2991 40.195 19.4397 40.0402 19.5463C39.9271 19.6102 39.7137 19.7296 39.4667 19.981C39.4081 20.045 39.3495 20.1131 39.2156 20.2581C39.0147 20.4158 38.8096 20.5777 38.638 20.7908C38.5836 20.8462 38.4998 20.9485 38.4119 21.0764C38.232 20.8931 38.0311 20.7397 37.805 20.6033C37.8678 20.5138 37.9306 20.4243 37.9641 20.3603C38.1566 20.0833 38.2529 19.8191 38.324 19.5804C38.3324 19.5719 38.3868 19.4994 38.4203 19.4525C38.797 19.1243 38.9937 18.745 39.1319 18.485C39.157 18.4382 39.1821 18.3827 39.2114 18.3401C39.2114 18.3401 39.203 18.3486 39.1947 18.3614C39.2072 18.3444 39.2198 18.3316 39.2281 18.3146C39.27 18.2719 39.3579 18.1526 39.3914 18.1014C39.5044 17.9395 39.6132 17.7861 39.7095 17.6156C39.8016 17.4579 39.923 17.2362 40.036 17.0189C40.0987 16.891 40.1615 16.7674 40.2285 16.6566C40.2913 16.5458 40.3708 16.435 40.4378 16.3412C40.4671 16.2943 40.5089 16.2347 40.5382 16.1835C40.5634 16.1537 40.6052 16.094 40.6261 16.0642C40.6345 16.0557 40.6429 16.0386 40.6554 16.0216C40.6889 15.9789 40.7182 15.9321 40.7475 15.8852C40.781 15.834 40.8103 15.7829 40.8396 15.7317C40.894 15.638 40.9317 15.557 40.9568 15.4931H40.9694C40.9694 15.4931 41.0614 15.3354 41.074 15.3098L41.1619 15.1521C41.2247 15.0455 41.2875 14.9262 41.3503 14.8026C41.3628 14.777 41.4214 14.6662 41.4298 14.6406C41.5051 14.4744 41.5721 14.3039 41.6307 14.1122C41.6474 14.0482 41.6642 13.98 41.6767 13.9161C41.7018 13.7541 41.7521 13.4601 41.7102 13.1873C41.6684 12.7781 41.5302 12.4031 41.3084 12.0962C41.1912 11.9385 40.9819 11.768 40.8187 11.6657C40.668 11.572 40.3583 11.3802 39.902 11.3418C39.6969 11.2608 39.3746 11.2012 39.1947 11.2054C38.4454 10.7451 37.3697 10.8986 36.7879 11.4356C36.5577 11.6316 36.3945 11.8447 36.2982 12.0024C35.8336 12.386 35.5866 12.8463 35.4109 13.1788C35.3648 13.2683 35.3271 13.3535 35.3355 13.3535C35.0802 13.6305 34.963 13.9417 34.8793 14.1931C34.7746 14.3807 34.716 14.5554 34.6867 14.6961C34.6323 14.8154 34.6072 14.9092 34.603 14.9433C34.4105 15.216 34.2724 15.5527 34.0715 16.0727C34.0129 16.2134 33.9668 16.3497 33.8873 16.516C33.8078 16.695 33.7701 16.8697 33.7408 17.0274C33.6194 17.2831 33.5231 17.6198 33.5315 18.0247C33.5315 18.0716 33.5315 18.127 33.5315 18.1867C33.4813 18.306 33.4101 18.485 33.3725 18.7109C33.3557 18.7876 33.3557 18.8644 33.3515 18.9411C33.205 18.8942 33.0543 18.8644 32.8744 18.8771C32.7195 18.8473 32.5563 18.8345 32.3972 18.8516L32.1335 18.8345C32.0582 18.8303 31.9619 18.8345 31.8656 18.8345C31.8656 18.7621 31.8866 18.6939 31.874 18.6214C31.8531 18.4893 31.828 18.2719 31.8028 18.0844L31.7652 17.7861C31.7401 17.5943 31.6982 17.4025 31.6605 17.2107C31.627 17.053 31.5894 16.8995 31.5768 16.7163C31.5517 16.3455 31.5015 15.9832 31.4596 15.6976C31.3968 15.1137 31.1917 13.6476 30.6392 12.6034C30.5388 12.4073 30.4718 12.2283 30.4048 12.0578C30.2751 11.7254 30.1412 11.4015 29.9361 11.052C29.2831 9.91828 27.68 9.65403 26.4369 10.4894C26.1606 10.6769 25.9806 10.8986 25.8593 11.1031C25.2565 11.4185 25.0138 11.9001 24.9301 12.2411C24.8505 12.5181 24.8547 12.7611 24.8756 12.9273C24.8756 12.9998 24.8798 13.0594 24.8882 13.1191C24.771 13.3365 24.7333 13.524 24.725 13.6092C24.6957 13.7712 24.6664 13.9971 24.6998 14.2698C24.6998 14.3551 24.6998 14.4659 24.7124 14.5938C24.7124 14.6279 24.7166 14.6577 24.7208 14.6747C24.7459 14.9774 24.8505 15.2459 25.0765 15.719C25.0849 15.7701 25.0933 15.8298 25.0975 15.8468C25.1393 16.0812 25.2021 16.3071 25.2523 16.4776C25.3193 16.7461 25.4449 16.9976 25.6165 17.3258C25.6249 17.4707 25.65 17.6156 25.6918 17.7306L25.8174 18.1398C25.9137 18.4211 26.0727 18.6513 26.2904 18.8388C26.3699 18.9965 26.4745 19.1371 26.6001 19.265C26.6629 19.4142 26.755 19.5676 26.8889 19.7168C26.914 19.7722 26.9433 19.8318 26.9768 19.8915C27.0019 19.9512 27.048 19.9895 27.0815 20.0407C27.027 20.0748 26.9643 20.1046 26.914 20.1387C26.6169 20.3177 26.3197 20.5138 26.0309 20.7354C26.0099 20.7525 25.989 20.7695 25.9639 20.7908C25.809 20.5394 25.6207 20.3177 25.4407 20.1302C25.3779 20.0279 25.2858 19.8702 25.1603 19.7253C25.0682 19.5207 24.8966 19.1755 24.4654 18.8132C24.3273 18.6811 24.1348 18.5063 23.8753 18.3486C23.7664 18.2847 23.6367 18.1611 23.486 18.0162C23.3102 17.85 23.126 17.6795 22.9796 17.5687C22.674 17.313 22.3852 17.0402 22.0922 16.7717L21.8955 16.5842C21.8494 16.5415 21.8034 16.5032 21.7532 16.4691C21.682 16.3966 21.5732 16.2901 21.4183 16.1793C21.276 16.0599 21.1169 15.9491 20.9579 15.8383L20.6565 15.6252C20.5393 15.5442 20.3259 15.3993 20.0161 15.3055C19.518 14.9774 18.8525 14.8324 18.2749 15.0328C18.1703 15.0711 18.0698 15.1137 17.9819 15.1649C17.4964 15.1734 17.1322 15.378 16.8602 15.5272C16.1821 15.9576 16.0607 16.7418 16.0356 17.0061C16.0189 17.2789 16.0607 17.5048 16.1026 17.671C15.8807 18.1995 15.9393 18.7706 15.9728 19.0902C15.9728 19.6869 16.2909 20.2708 16.3077 20.2964C16.3328 20.339 16.3579 20.3817 16.383 20.4243C16.6802 20.8633 17.0318 21.1659 17.3164 21.4088C17.421 21.4983 17.5257 21.5878 17.6345 21.6986C17.8731 21.9288 19.2334 22.9389 19.5515 23.0753C19.7566 23.1733 19.9408 23.2245 20.0873 23.25C20.1794 23.3054 20.2756 23.3608 20.3803 23.4162L20.5142 23.4759C20.5979 23.5398 20.7402 23.6464 20.916 23.7316C21.0123 23.8041 21.1086 23.868 21.1923 23.9192C21.4392 24.0641 22.1843 24.4264 22.7033 24.5713C22.7159 24.5755 22.7452 24.5841 22.7661 24.5926C22.72 24.6821 22.6824 24.7758 22.6405 24.8696C22.6112 24.8568 22.5945 24.8313 22.561 24.8185C21.6862 24.469 20.9579 24.2218 20.2338 24.1493C20.0454 24.1323 19.878 24.0769 19.7022 24.0257C19.3674 23.932 18.953 23.8126 18.4256 23.787C18.2624 23.7785 18.141 23.7615 18.028 23.7444C17.6387 23.6933 17.2997 23.6634 16.6048 23.7189L16.3202 23.7103C16.1612 23.7103 15.7175 23.7103 15.3115 23.9405C14.9599 23.9874 14.6669 24.0982 14.3697 24.226C13.7042 24.3539 13.3735 24.8227 13.1936 25.1978C13.0303 25.3427 12.8587 25.5473 12.7499 25.8371C12.7206 25.8925 12.6913 25.9522 12.6704 26.0161C12.5615 26.1013 12.4778 26.1951 12.4192 26.2676C12.1011 26.6639 11.9797 27.1924 12.0927 27.755C12.2099 28.2793 12.4946 28.6501 12.7373 28.9697C13.2103 29.5707 13.6791 29.7241 14.1186 29.8008L14.2818 29.8392C14.42 29.8861 14.5288 29.9202 14.8134 29.9585L15.0311 29.9841C15.1734 30.0011 15.3115 30.0139 15.5501 30.0523L15.7175 30.0779C15.7719 30.0906 15.8305 30.0992 15.8849 30.1034C16.0021 30.1162 16.1193 30.1205 16.2365 30.1247H16.2951C16.4918 30.1503 16.6676 30.1631 16.8476 30.1631C16.8895 30.1631 17.0067 30.1588 17.0485 30.1546C17.0946 30.1546 17.1573 30.1674 17.262 30.1887C17.1657 30.227 17.0695 30.2654 16.969 30.308C16.7137 30.4103 16.429 30.5296 16.0775 30.6618C15.8179 30.7555 15.5794 30.8791 15.3408 31.007C15.2445 31.0624 15.1441 31.1178 15.0436 31.1562C14.6711 31.3053 14.466 31.4545 14.286 31.5909L14.1688 31.6719C14.1228 31.6974 10.2008 34.0799 9.40976 36.1215L9.39302 36.1129C8.99957 37.0165 8.93678 37.7752 9.20048 38.44C9.41395 38.9685 9.82414 39.3777 10.3515 39.5951C10.5022 39.659 10.6236 39.7229 10.7408 39.7868C11.1133 39.9872 11.6156 40.2557 12.415 40.2898C13.001 40.3835 13.721 40.375 14.4744 40.2898C12.1932 41.0015 11.31 42.5828 11.31 44.0958C11.31 46.1501 12.6787 47.2156 14.1018 47.889C13.6289 47.6504 12.6494 47.7058 12.2058 47.9828C11.7579 48.2641 11.4816 48.7628 11.4816 49.2955V51.06C11.4816 51.8059 12.0048 52.4452 12.7248 52.5773L13.1015 52.6455C13.6456 52.7435 15.0897 53.0035 16.5337 53.0035C18.3335 53.0035 19.6478 52.7222 20.6314 52.3088C20.9035 52.556 21.2593 52.7009 21.6318 52.7009H23.7371C24.3315 52.7009 24.8673 52.3472 25.1142 51.7974L25.9597 49.905H27.3284L28.1739 51.7974C28.4209 52.3472 28.9566 52.7009 29.551 52.7009H32.6316C32.686 52.7009 32.7362 52.6839 32.7907 52.6796C32.799 52.6796 32.8074 52.6881 32.8158 52.6881C33.3306 52.718 33.8789 52.7308 34.4607 52.7308C35.3397 52.7308 36.0973 52.654 36.7335 52.5006C37.4744 52.3429 38.1524 52.0616 38.7259 51.6738C39.2407 51.3413 39.6258 50.9151 39.9188 50.4378C40.1448 50.7148 40.3792 50.9918 40.6638 51.2348C41.9781 52.36 43.7486 52.9268 45.921 52.9268C48.0933 52.9268 49.8596 52.3685 51.1697 51.2646C52.5719 50.084 53.2835 48.4644 53.2835 46.4485C53.2835 44.4325 52.5719 42.8172 51.1739 41.6366C50.3535 40.9376 49.3364 40.4816 48.1686 40.2216C49.0016 39.9105 49.7508 39.5013 50.1903 38.9472C50.2489 38.8662 50.3033 38.7853 50.3493 38.6958C50.973 38.4741 51.6636 38.1417 52.4798 37.5024C52.6598 37.3788 52.957 37.1657 53.2709 36.8162C53.5597 36.5178 53.7188 36.1044 53.723 35.6867C53.7816 35.6654 53.836 35.6441 53.8904 35.6228C54.0871 35.5376 54.4638 35.333 54.7401 34.9622C54.7987 34.8812 54.8489 34.796 54.8907 34.7065C55.167 34.1226 55.1042 33.2829 54.3675 32.7118L54.3257 32.699Z" fill="white"/>
<path d="M51.7309 46.4426C51.7309 47.9812 51.2119 49.1916 50.1655 50.0739C49.1274 50.9476 47.696 51.3866 45.8794 51.3866C44.0628 51.3866 42.6397 50.9476 41.5975 50.0526C40.5595 49.1575 40.0488 47.9556 40.0488 46.4426C40.0488 44.9296 40.5637 43.7149 41.5975 42.8241C42.6397 41.9376 44.0628 41.4943 45.8794 41.4943C47.696 41.4943 49.1274 41.9291 50.1655 42.8156C51.2119 43.6978 51.7309 44.8997 51.7309 46.4426ZM48.6042 46.4383C48.6042 45.8715 48.5289 45.3899 48.3866 44.9892C48.2359 44.5929 48.0392 44.2647 47.7922 44.0132C47.5285 43.7532 47.2314 43.5657 46.9091 43.4506C46.5826 43.3398 46.2435 43.2844 45.8878 43.2844C45.5111 43.2844 45.1804 43.3398 44.8749 43.4464C44.5777 43.5487 44.2805 43.7362 44.0001 44.0047C43.7573 44.2476 43.5522 44.5758 43.3973 44.985C43.2383 45.3941 43.1671 45.88 43.1671 46.4426C43.1671 47.0052 43.2341 47.5124 43.3848 47.8917C43.5271 48.2796 43.728 48.5949 43.9791 48.8592C44.2386 49.1234 44.5316 49.3152 44.8581 49.426C45.1888 49.5369 45.5278 49.5923 45.8794 49.5923C46.231 49.5923 46.5826 49.5369 46.9174 49.4133C47.2481 49.2897 47.5411 49.1064 47.788 48.8464C48.0392 48.5694 48.2443 48.254 48.3824 47.8874C48.5247 47.5166 48.5959 47.035 48.5959 46.4426L48.6042 46.4383Z" fill="#002F6A"/>
<path d="M36.2684 41.8281H34.8872V42.2288C35.8708 42.3055 35.8499 43.2474 35.8499 43.8441V47.9144C35.8499 48.055 35.8373 48.1786 35.8331 48.2979C35.8248 48.5665 35.7452 48.8009 35.6197 49.0097C35.4941 49.21 35.2806 49.3762 34.9918 49.4913C34.6904 49.5979 34.2677 49.6618 33.7068 49.6618C33.2799 49.6618 33.1711 49.6746 32.8948 49.6064L32.8613 51.145C33.3469 51.1748 33.8701 51.1876 34.4184 51.1876C35.1634 51.1876 35.8206 51.1237 36.3856 50.9873C36.9591 50.868 37.4571 50.6506 37.8757 50.3693C38.2482 50.1306 38.5287 49.828 38.7086 49.4743C38.8928 49.1205 38.9849 48.7497 38.9849 48.3406V41.8281H36.2684Z" fill="#002F6A"/>
<path d="M18.2999 45.441C17.0442 45.0276 15.9517 44.6696 15.9517 43.8811C15.9517 42.8582 17.1153 42.7815 17.4669 42.7815C18.7142 42.7815 19.6016 42.9477 20.1332 43.2674L20.535 43.5103V41.7245L20.2629 41.6904C19.7481 41.6137 18.5426 41.4432 17.266 41.4432C14.4616 41.4432 12.7832 42.432 12.7832 44.0942C12.7832 45.8757 14.5998 46.5236 16.1987 47.0947C17.4209 47.5294 18.5677 47.9386 18.5677 48.7356C18.5677 50.0099 17.1572 50.1463 16.5461 50.1463C15.1188 50.1463 13.8171 49.7457 13.3315 49.49L12.9548 49.2939V51.0584L13.3022 51.1223C13.8129 51.2161 15.1648 51.4591 16.4959 51.4591C19.8485 51.4591 21.8493 50.3594 21.8493 48.5182C21.8493 46.677 19.9699 45.9823 18.304 45.4367L18.2999 45.441Z" fill="#002F6A"/>
<path d="M29.0774 43.1523C28.6086 42.091 28.303 41.2088 26.9343 41.2599C26.1516 41.2812 25.8042 41.6947 25.3815 42.5343L21.5977 51.1607H23.703L24.9503 48.3648H28.2695L29.5169 51.1607H32.5975C32.5975 51.1607 29.0983 43.1992 29.0774 43.1523ZM25.5447 46.9455L26.5325 44.3926L27.604 46.9072L25.5447 46.9455Z" fill="#002F6A"/>
<path d="M53.2204 33.779C53.1744 33.6597 52.9944 33.5532 52.8939 33.4637C52.8019 33.3869 51.9564 33.3017 51.835 33.3145C51.1109 33.3699 50.7635 33.306 50.1607 33.404C49.4868 33.5105 48.3484 33.7109 47.4066 33.8685C46.3937 34.0433 45.6989 34.1157 44.7487 34.2138C43.3675 34.3544 42.9949 34.2308 41.6053 34.1754C41.0779 34.1541 40.1069 33.9964 38.9642 33.7151C37.9513 33.4679 37.4406 33.3401 35.7873 32.6581C35.5822 32.5771 34.247 32.1339 34.0084 32.0103C33.841 31.925 33.4894 31.8995 33.3136 31.8185C32.5267 31.4477 31.744 31.307 30.9362 31.0215C30.1744 30.753 29.9651 30.7445 28.8182 30.5868C28.5252 30.5441 28.3118 30.4674 27.8346 30.4461C27.6002 30.4333 27.3072 30.3907 27.077 30.3694C26.8929 30.3694 25.8213 30.3609 25.6079 30.3055C24.7666 30.2756 24.0759 30.2415 23.0002 30.3651C22.5817 30.412 22.5105 30.5868 21.9413 30.6038C21.3846 30.6123 20.8195 30.7743 20.2754 30.8936C18.2328 31.3326 18.0026 31.567 16.546 32.1126C16.1902 32.2404 15.9014 32.4535 15.5582 32.5899C15.1982 32.7348 15.2066 32.8243 14.8717 33.0119C12.5906 34.3118 10.6652 36.4258 10.7405 36.7369C10.4727 37.3549 10.3722 37.9559 10.8828 38.1647C11.5358 38.4332 11.8079 38.7614 12.5236 38.7486C13.298 38.8935 14.4155 38.8083 15.487 38.5526C17.5212 38.0752 18.6597 36.8094 26.3111 36.7582C28.6466 36.754 30.9822 37.1248 33.0918 37.6106C34.0461 37.8962 34.6781 37.9942 35.3394 38.1562C35.8333 38.3181 36.3984 38.5014 36.457 38.5142C38.5749 39.1876 38.8679 39.1535 39.3618 39.2174C41.3374 39.4902 41.9067 39.7246 43.6521 39.584C46.5318 39.341 48.4656 38.6122 48.9595 37.9942C49.1478 37.7513 47.9298 38.0539 47.9298 38.0539C47.9298 38.0539 46.7536 38.3906 45.5942 38.4588C44.5269 38.5185 43.4763 38.2329 43.4763 38.2329C45.205 38.1519 47.9465 37.7811 49.3864 37.372C50.031 37.1802 50.6672 36.9372 51.4666 36.3107C51.6299 36.1871 51.8559 36.055 52.1489 35.7353C52.3121 35.5649 51.5001 35.7524 51.3453 35.6373C51.0272 35.3645 51.8685 35.2836 51.4457 35.1685C51.2239 35.1003 50.4119 35.2537 50.1942 35.2793C49.897 35.3134 49.6166 35.3901 49.3152 35.3901C49.2064 35.3944 49.0515 35.5649 49.0348 35.4029C49.0222 35.1557 49.491 35.177 49.6417 35.1088C49.7882 35.0364 50.1775 34.9596 50.3323 34.8446C50.8932 34.7551 51.0146 34.7551 51.6006 34.5888C51.8894 34.6101 52.1447 34.4056 52.4419 34.4013C52.5633 34.397 53.1451 34.2649 53.2497 34.2053C53.3251 34.1712 53.4297 34.1072 53.4799 34.039C53.5218 33.9453 53.2539 33.8771 53.2162 33.779H53.2204Z" fill="#002F6A"/>
<path d="M30.2458 17.996C30.1914 17.6038 30.0742 17.2203 30.0533 16.8324C30.0282 16.5 29.9821 16.1761 29.9361 15.8649C29.911 15.639 29.7519 14.2112 29.2831 13.3247C28.9943 12.7707 28.9148 12.353 28.6092 11.8287C28.3372 11.3514 27.68 11.4835 27.2573 11.7648C27.002 11.9396 27.1526 12.1356 26.9266 12.3018C26.7424 12.4425 26.4285 12.3871 26.3574 12.6769C26.3364 12.7408 26.3825 12.8048 26.3657 12.8687C26.3574 12.9326 26.3825 12.9838 26.395 13.0477C26.4118 13.0946 26.4076 13.1457 26.4202 13.1756C26.4285 13.2054 26.4495 13.231 26.462 13.2608C26.5499 13.3844 26.6001 13.5336 26.5332 13.6614C26.529 13.6827 26.5164 13.7168 26.4913 13.7254C26.4746 13.7254 26.4495 13.7254 26.4285 13.7254C26.3783 13.7339 26.3448 13.7552 26.303 13.7765C26.2402 13.8063 26.1899 13.8191 26.1816 13.8873C26.1648 13.9768 26.1606 14.045 26.1858 14.1303C26.2067 14.224 26.1732 14.3093 26.1858 14.3988C26.1858 14.4414 26.1983 14.484 26.1983 14.5266C26.2109 14.646 26.4411 15.102 26.4913 15.2086C26.5332 15.3151 26.5332 15.4472 26.5541 15.5495C26.5876 15.7371 26.6378 15.9118 26.688 16.0908C26.7299 16.2613 26.9894 16.7003 27.0396 16.8239C27.0731 16.8921 27.1233 16.9731 27.1108 17.0455C27.094 17.1137 27.0606 17.1521 27.094 17.233C27.1359 17.3652 27.1694 17.493 27.207 17.6166C27.2489 17.7402 27.5126 17.7274 27.5503 17.8553C27.567 17.9491 27.5503 18.1153 27.6465 18.1835C27.8391 18.3071 27.7303 18.0769 27.8977 18.354C27.9563 18.4477 27.9186 18.5245 27.9898 18.6012C27.8516 18.6694 28.1195 18.7205 28.199 18.8441C28.2325 18.9336 28.199 19.0487 28.2576 19.1169C28.3037 19.1893 28.3372 19.3342 28.4167 19.3641C28.9399 19.1808 29.7896 18.9549 30.3463 18.8569C30.3128 18.6353 30.2626 18.1878 30.2333 17.9917L30.2458 17.996Z" fill="#D1232A"/>
<path d="M36.7042 19.48C36.834 19.3096 36.8465 19.1604 36.9177 18.9388C36.9595 18.8066 37.0433 18.7171 37.1186 18.6234C37.1981 18.5168 37.2902 18.3847 37.3781 18.308C37.6795 18.0863 37.7799 17.6687 37.9934 17.3959C38.0311 17.3533 38.0645 17.3021 38.098 17.2638C38.1985 17.1189 38.2989 16.9867 38.3868 16.8333C38.4915 16.7012 38.818 15.9851 38.9184 15.8488C39.0063 15.7039 39.1026 15.5589 39.1947 15.4268C39.2365 15.3501 39.2867 15.2776 39.3412 15.2095C39.3621 15.1754 39.3872 15.1455 39.4123 15.0986C39.4249 15.0816 39.4542 15.0731 39.4542 15.039C39.4709 15.0219 39.4709 15.0134 39.4751 15.0049C39.4751 14.9963 39.4793 14.9836 39.4877 14.975C39.5128 14.9452 39.5253 14.9154 39.5379 14.877C39.5714 14.8173 39.609 14.7534 39.6425 14.7023C39.7053 14.5744 39.7723 14.4764 39.8392 14.3528C39.902 14.2505 39.9606 14.1269 40.0234 14.0033C40.0695 13.8925 40.1197 13.7859 40.1532 13.6581C40.1699 13.5643 40.1908 13.4407 40.1741 13.3299C40.1657 13.2148 40.1322 13.104 40.0653 13.0145C39.9899 12.9719 39.8602 12.8738 39.7765 12.8738C39.7472 12.8738 39.7053 12.9037 39.676 12.9037C39.6342 12.9037 39.6007 12.8866 39.5672 12.8824C39.4793 12.8525 39.3956 12.8184 39.3119 12.7715C39.1821 12.7119 39.0984 12.7588 38.9812 12.8099C38.8891 12.8653 38.5626 12.6778 38.4496 12.567C38.211 12.3624 37.8971 12.4604 37.7255 12.6181C37.5246 12.7843 37.4032 13.0358 37.219 13.1978C36.8423 13.5089 36.7084 14.0203 36.4154 14.3997C36.3066 14.519 36.2689 14.8301 36.1685 14.9537C36.1015 15.0518 36.135 15.2009 36.0638 15.2862C35.9968 15.3842 35.9675 15.5121 35.9215 15.6229C35.8755 15.7039 35.8462 15.7848 35.7918 15.8573C35.6327 16.0789 35.3606 16.9058 35.2351 17.1487C35.189 17.251 35.189 17.528 35.1262 17.6175C35.0342 17.7369 35.009 17.8988 35.0132 18.0437C35.0132 18.1545 35.0007 18.1162 35.0342 18.227C35.0802 18.3549 34.9965 18.5594 34.9504 18.6703C34.9086 18.7853 34.8374 18.8919 34.8291 19.0155C34.8123 19.0965 34.7998 19.0581 34.8165 19.1092C35.2937 19.2542 36.0513 19.5482 36.4991 19.7613C36.6079 19.6889 36.6205 19.5738 36.6958 19.4843L36.7042 19.48Z" fill="#D1232A"/>
<path d="M23.7553 22.7734C23.7804 22.735 23.7762 22.7435 23.7971 22.7606C23.8599 22.6753 23.9185 22.5858 23.9897 22.5048C23.998 22.4793 24.0106 22.4665 24.0315 22.4537C24.2324 22.2108 24.5087 21.9849 24.7263 21.759C24.7347 21.6141 24.3999 21.2731 24.312 21.1879C24.1655 21.0387 24.0943 20.8299 23.9394 20.6807C23.7929 20.5315 23.7553 20.2417 23.5837 20.0968C23.4288 19.9647 23.2656 19.7856 23.0939 19.6834C22.6628 19.4319 22.3824 19.0568 21.9931 18.7627C21.5997 18.4346 21.2272 18.0766 20.8505 17.7271C20.7123 17.6461 20.637 17.5097 20.4905 17.4245C20.298 17.254 20.0677 17.1133 19.8459 16.9556C19.7413 16.8874 19.6492 16.8107 19.5362 16.7809C19.419 16.7553 19.3101 16.7084 19.2139 16.6402C19.1302 16.5635 18.8455 16.4442 18.7493 16.4911C18.6781 16.5166 18.6363 16.5422 18.5818 16.5976C18.54 16.6402 18.4981 16.6956 18.4228 16.7212C18.2847 16.7809 18.1633 16.717 18.0126 16.7084C17.8787 16.6999 17.7405 16.7809 17.6275 16.8406C17.5606 16.8832 17.5229 17.0537 17.5187 17.1133C17.5145 17.1943 17.5313 17.2625 17.5522 17.3222C17.6066 17.5054 17.728 17.6589 17.8787 17.7953C17.9582 17.872 18.0419 17.9402 18.1172 18.0126C18.3391 18.2129 17.3722 17.8677 17.5982 18.0808C17.615 18.1149 17.5857 18.1746 17.5354 18.2002C17.3262 18.3493 17.4727 18.8608 17.4601 19.0952C17.4601 19.206 17.548 19.4575 17.5982 19.5512C17.8787 19.9647 18.2889 20.2246 18.653 20.5869C18.8372 20.7659 20.0468 21.6311 20.1724 21.6865C20.3775 21.7888 20.5323 21.7249 20.7165 21.8442C20.8086 21.9167 20.9007 21.9763 21.0137 22.0318C21.1142 22.0829 21.2188 22.117 21.3109 22.1852C21.403 22.2491 21.4909 22.3301 21.5871 22.3642C21.6792 22.3983 21.8173 22.5304 21.9094 22.5816C22.2108 22.7563 22.9265 23.0674 23.1233 23.1015C23.2153 23.1271 23.3869 23.2337 23.479 23.191C23.5418 23.0887 23.6088 22.9907 23.6799 22.9012C23.6799 22.8586 23.726 22.8373 23.7553 22.7691V22.7734Z" fill="#D1232A"/>
<path d="M21.9757 26.2564C21.2139 25.9537 20.5986 25.7406 20.0671 25.6895C19.4602 25.6341 18.9788 25.3656 18.3259 25.3315C17.698 25.3059 17.5348 25.1738 16.7437 25.2676C16.5512 25.2889 16.1242 25.2079 15.9777 25.3187C15.8522 25.4082 15.7266 25.4508 15.5885 25.4636C15.3582 25.4764 15.1699 25.5403 14.9481 25.6298C14.8434 25.681 14.722 25.7321 14.6132 25.7449C14.5128 25.762 14.429 26.1796 14.3495 26.2393C14.2198 26.3331 14.1486 26.316 14.09 26.4908C14.0398 26.6229 13.9519 26.6442 14.023 26.7209C14.2407 26.9298 14.3411 27.0747 14.3621 26.934C14.3746 26.8744 14.6048 26.9852 14.7178 27.015C14.8099 27.0363 15.0527 27.0789 14.9815 27.2025C14.9313 27.2835 14.7388 27.3048 14.6634 27.3176C14.5588 27.3347 14.45 27.3304 14.3453 27.292C13.9979 27.1556 14.3453 27.1812 13.9895 27.194C13.8807 27.194 13.4538 27.096 13.5208 27.4199C13.571 27.6458 13.7552 27.8589 13.8765 28.0166C14.1109 28.3149 14.203 28.2467 14.5337 28.332C14.7304 28.3831 14.7388 28.4087 14.9481 28.4343C15.1741 28.4598 15.4085 28.4812 15.6387 28.5195C15.7601 28.5366 15.8773 28.5493 15.9945 28.5749C16.1535 28.592 16.3084 28.5877 16.4674 28.6048C16.6349 28.6303 16.7814 28.6388 16.9362 28.6261C17.1288 28.609 17.3548 28.6602 17.539 28.69C17.6394 28.707 17.7399 28.7156 17.8361 28.7369C17.9784 28.7582 18.1166 28.7369 18.2463 28.7624C18.3928 28.7923 18.5435 28.7838 18.6774 28.7838C18.9788 28.7838 19.2927 28.7838 19.5648 28.6388C19.8034 28.4982 20.0336 28.5621 20.3098 28.4939C20.5108 28.4428 20.6279 28.2297 20.8289 28.2041C20.9168 28.1999 21.0005 28.17 21.0674 28.1785C21.2349 28.2169 21.4776 28.3192 21.5781 28.2382C21.5781 28.1402 21.5948 27.9825 21.6116 27.8845C21.7539 27.2196 21.8041 26.7763 21.9673 26.2649L21.9757 26.2564Z" fill="#D1232A"/>
<path d="M42.1211 26.5322C42.8829 26.2254 43.4898 26.0591 44.0256 26.008C44.6325 25.9569 45.1096 25.6883 45.7626 25.6543C46.3862 25.6244 46.5537 25.4923 47.3489 25.5903C47.5373 25.6116 47.9684 25.5264 48.1107 25.6415C48.2363 25.7224 48.3619 25.7736 48.4958 25.7864C48.726 25.7992 48.9144 25.8674 49.1362 25.9483C49.245 25.9995 49.3622 26.0506 49.4752 26.0677C49.5757 26.0847 49.6594 26.4981 49.7431 26.5578C49.8729 26.6558 49.9398 26.6388 50.0026 26.8093C50.0487 26.9414 50.1366 26.9584 50.0654 27.0437C49.8436 27.2525 49.7473 27.3974 49.7264 27.2611C49.718 27.1929 49.4836 27.3079 49.3706 27.3335C49.2785 27.3548 49.0357 27.3974 49.1069 27.521C49.1488 27.6063 49.3539 27.6276 49.425 27.6361C49.5255 27.6532 49.6385 27.6489 49.7473 27.602C50.0905 27.4742 49.7431 27.4955 50.0989 27.5083C50.2077 27.5083 50.6347 27.4102 50.5677 27.7299C50.5175 27.96 50.3375 28.1731 50.2161 28.3308C49.9817 28.6292 49.8896 28.5652 49.5631 28.6462C49.3622 28.6974 49.358 28.7229 49.1446 28.7528C48.9144 28.7783 48.6842 28.7997 48.4539 28.838C48.3284 28.8551 48.2154 28.8721 48.094 28.8977C47.9391 28.9105 47.7801 28.9105 47.6252 28.919C47.4578 28.9446 47.3113 28.9531 47.1522 28.9403C46.9597 28.9318 46.7378 28.9829 46.5579 29.0085C46.4532 29.0255 46.3569 29.0341 46.2565 29.0554C46.1184 29.0724 45.9761 29.0554 45.8505 29.081C45.704 29.1065 45.5491 29.1023 45.4152 29.1023C45.1096 29.1023 44.7999 29.1023 44.5278 28.9531C44.2934 28.8167 44.059 28.8806 43.7828 28.8124C43.5861 28.757 43.4647 28.5439 43.2596 28.5226C43.1717 28.5141 43.0922 28.4843 43.0252 28.4928C42.8536 28.5311 42.5606 28.6164 42.4518 28.5439C42.4476 28.4459 42.4559 28.318 42.435 28.2158C42.2969 27.5509 42.2508 26.9584 42.1253 26.5365L42.1211 26.5322Z" fill="#D1232A"/>
<path d="M39.9526 22.437C40.254 22.8078 40.3753 22.9527 40.6223 23.3576C40.6432 23.3619 40.6976 23.5324 40.7228 23.558C40.7939 23.6347 40.8065 23.592 40.8944 23.5622C40.9697 23.5281 41.4008 23.3576 41.4762 23.3406C41.5306 23.3406 42.2128 23.0422 42.351 22.9698C42.4556 22.9186 42.7193 22.7908 42.8407 22.7482C43.5773 22.4669 44.2303 22.0151 44.8581 21.5505C45.0005 21.4397 45.2223 21.3971 45.3562 21.2735C45.4944 21.1755 45.5823 21.0263 45.6995 20.8984C45.8125 20.7876 45.9506 20.6811 46.0929 20.6214C46.231 20.5575 46.2603 20.4424 46.4068 20.3742C46.4864 20.3316 46.5366 20.2549 46.6077 20.1781C46.6705 20.0886 46.9342 19.8116 46.8003 19.6965C46.7291 19.6241 46.6203 19.6667 46.5533 19.5772C46.4319 19.4067 46.637 19.2533 46.7542 19.1638C46.8505 19.0998 46.9384 19.0146 47.0137 18.9336C47.0765 18.8441 47.2649 18.7376 47.1895 18.6182C47.0891 18.4563 46.838 18.5841 46.6915 18.533C46.5157 18.4776 46.3901 18.5074 46.2059 18.4776C45.8753 18.4051 45.3562 18.4861 45.0465 18.5585C44.9084 18.6054 44.7661 18.6608 44.6238 18.6992C44.4814 18.7333 44.3601 18.8143 44.2177 18.8143C44.042 18.8228 44.1089 18.9293 43.9415 18.9507C43.8117 18.9592 43.682 18.9592 43.5732 18.9805C43.276 19.0529 43.0332 19.3044 42.803 19.4834C42.6733 19.5772 42.5016 19.6496 42.3593 19.7306C42.0496 19.9096 41.7608 20.1227 41.472 20.3444C41.2669 20.5148 41.0576 20.6896 40.8232 20.843C40.7269 20.9027 40.639 20.941 40.5553 21.022C40.4716 21.1158 40.3921 21.2223 40.3042 21.3161C40.2121 21.4056 39.8563 21.6528 39.7935 21.7636C39.7182 21.8574 39.6052 21.9384 39.5801 22.0748C39.6638 22.1643 39.7726 22.2325 39.8521 22.3305C39.8982 22.2538 39.9945 22.5521 39.9484 22.437H39.9526Z" fill="#D1232A"/>
<path d="M40.5504 31.1522C40.5504 30.8922 40.9732 30.5043 40.7262 30.1378C40.8183 29.9673 40.743 29.8736 40.6928 29.7372C40.7011 29.669 40.7053 29.605 40.7053 29.5411C40.7639 29.5028 40.7639 29.426 40.7639 29.3408C40.7346 29.3237 40.722 29.3024 40.7137 29.2854C40.7095 29.1959 40.7011 29.1192 40.6886 29.0424C40.8183 28.889 40.856 28.8038 40.63 27.6701C40.63 27.6701 40.5797 26.8986 40.4123 26.7154C40.3998 26.6344 40.3788 26.5193 40.3244 26.4128C40.2742 26.2849 40.2742 26.3105 40.2658 26.1315C40.4039 25.9951 40.1235 26.0206 40.2407 25.897C40.1863 25.7649 40.0858 25.8843 40.0147 25.897C39.9352 25.8502 39.9519 25.441 39.8975 25.3813C39.9059 25.1853 39.8012 25.1725 39.4998 24.6056C39.3994 24.1922 39.2948 24.2988 39.119 23.9365C38.9432 23.7703 38.5916 23.3526 38.4409 23.3398C38.0725 22.6536 38.0977 22.8454 37.5661 22.4021C37.5912 22.3851 37.0596 21.7927 36.7834 21.7927C36.6913 21.8438 36.3816 21.6009 36.3983 21.5497C36.0342 21.4645 35.4733 21.0681 35.0924 20.9488C34.3683 20.497 34.2008 20.6888 32.9954 20.4672C32.9535 20.4288 32.9033 20.4032 32.8112 20.4331V20.4672C32.7526 20.4672 32.6898 20.4672 32.6271 20.4757L32.6354 20.5013C32.6354 20.5013 32.5978 20.4672 32.6103 20.4331L32.5099 20.3691L32.4303 20.4032L31.9992 20.3734C31.7732 20.3564 31.4007 20.4714 30.9737 20.4416C30.5635 20.5609 30.5259 20.4714 30.2371 20.5183C30.0529 20.5481 29.9273 20.5354 29.7264 20.6291C29.6134 20.6632 29.3958 20.6462 29.2869 20.6888C29.2744 20.6888 29.2618 20.6888 29.2576 20.6888C29.2493 20.6888 29.2367 20.6973 29.2283 20.7016C28.9646 20.7911 28.7135 20.9019 28.4624 21.0212C28.1903 21.1534 27.9182 21.2983 27.6629 21.4645C27.416 21.6137 27.169 21.7756 26.9388 21.9546C26.65 22.1805 26.3905 22.4235 26.1017 22.6493C24.6032 23.8299 23.222 26.4383 23.1675 28.71C23.155 28.9359 23.1801 28.9359 23.1843 29.0552C23.2764 29.0552 23.4564 28.9998 23.5317 29.0041C24.08 28.987 24.6534 28.9103 25.0385 28.8848C25.9845 28.8166 26.7128 28.8251 27.6587 28.9188C27.8638 28.9316 28.4791 28.9572 28.6382 28.9743C28.8516 28.9998 30.2287 29.2215 30.4882 29.2641C31.0449 29.3621 31.5555 29.5795 32.0243 29.7116C32.4931 29.8395 33.0247 29.9204 33.4056 30.0611C34.0418 30.2912 34.4562 30.4702 34.8496 30.6279C35.1342 30.7473 35.3979 30.8538 35.6198 30.9433C36.0802 31.1309 36.2518 31.1735 36.5071 31.2417L36.8587 31.3568C36.8587 31.3568 37.294 31.5315 37.1475 31.4718C37.3191 31.54 37.993 31.7915 38.0349 31.8043C38.0893 31.8298 38.1521 31.8597 38.219 31.8895C38.2651 31.7659 38.3069 31.638 38.3488 31.5144C38.5455 30.5555 38.6669 29.6604 38.4869 28.2795C38.4032 27.6019 38.3321 27.2652 38.0851 26.7495C37.8214 26.1869 37.8047 26.1656 38.1563 26.3105L38.4744 26.7111C38.6502 27.1671 38.9264 27.7766 39.0394 28.4287C39.0687 28.7271 39.0311 28.7356 39.1064 29.0041C39.0645 29.2215 38.9473 29.4601 39.1524 29.4942C39.1524 29.6178 39.3115 29.7627 39.1524 29.865C39.2487 30.2912 38.9725 30.7217 39.0018 31.0499C38.9808 31.1948 39.0394 31.3994 38.8929 31.4463C38.8594 31.6082 38.6753 31.7659 38.8385 31.8256L38.7339 32.141C38.9473 32.239 39.1357 32.3285 39.2236 32.3541C39.6673 32.499 40.0524 32.5757 40.2742 32.6908C40.337 32.6141 40.3244 32.499 40.4039 32.3626C40.5504 32.0046 40.63 31.638 40.63 31.5741L40.6049 31.6082C40.6132 31.5443 40.63 31.4718 40.6467 31.4079C40.7095 31.3312 40.4918 31.28 40.5588 31.1564L40.5504 31.1522Z" fill="#D1232A"/>
</g>
<defs>
<clipPath id="clip0_1160_12734">
<rect width="46" height="43" fill="white" transform="translate(9 10)"/>
</clipPath>
</defs>
</svg>
