<svg width="64" height="64" viewBox="0 0 64 64" fill="none" xmlns="http://www.w3.org/2000/svg">
<rect width="80" height="80" transform="translate(0 -8)" fill="#693199"/>
<g clip-path="url(#clip0_1160_12970)">
<path d="M27.3663 24.4017C27.2284 24.5756 27.1444 24.6775 27.0665 24.7854C24.4638 28.4544 21.8551 32.1233 19.2644 35.7983C19.0245 36.134 18.7846 36.2958 18.3588 36.2838C17.4353 36.2539 16.5117 36.2719 15.5762 36.2719C16.9375 43.0582 24.056 50.7498 34.5147 49.9345C43.6122 49.2271 49.4293 41.9251 50.4068 36.2719C49.4773 36.2719 48.5477 36.2539 47.6242 36.2778C47.2464 36.2898 47.0125 36.1699 46.7906 35.8582C44.6137 32.7708 42.4248 29.7013 40.2419 26.6259C39.7201 25.8945 39.1984 25.1691 38.6347 24.3898C37.5312 25.9724 36.4818 27.4772 35.4383 28.9879C35.1804 29.3596 34.7426 29.7493 34.7486 30.121C34.7546 30.5226 35.1864 30.9243 35.4383 31.32C36.5957 33.1545 37.8131 34.9589 38.9045 36.8354C39.948 38.6399 39.6362 40.4324 38.4368 42.045C36.3198 44.8747 32.1099 45.5221 29.1294 43.5318C26.4848 41.7633 25.7831 39.0356 27.3663 36.3018C28.3798 34.5573 29.5312 32.8847 30.6167 31.1821C31.3183 30.091 31.3243 30.085 30.5747 29.0059C29.5192 27.4832 28.4638 25.9664 27.3663 24.3838V24.4017ZM50.5027 36.086C52.092 29.7793 49.957 21.5841 42.8026 16.884C36.068 12.4597 26.9525 13.1911 20.9195 18.6525C15.0964 23.9162 14.2089 31.5238 15.5462 36.038C19.4743 30.4687 23.3843 24.9353 27.3483 19.318C29.2614 22.0577 31.1144 24.7075 33.0035 27.4172C34.8926 24.7015 36.7336 22.0577 38.6347 19.318C42.6167 24.9413 46.5327 30.4747 50.5027 36.08V36.086ZM33.0815 33.1125C33.0155 33.1125 32.9555 33.1125 32.8896 33.1185C31.8761 34.7611 30.8386 36.3978 29.8491 38.0584C29.3633 38.8737 29.5672 39.695 30.059 40.4384C31.3423 42.3808 34.4848 42.4407 35.8461 40.5583C36.3918 39.8029 36.6377 38.9396 36.1459 38.0943C35.1624 36.4097 34.1129 34.7731 33.0875 33.1125H33.0815Z" fill="white"/>
<path d="M27.3663 24.4023C28.4637 25.985 29.5252 27.5018 30.5747 29.0245C31.3183 30.1036 31.3123 30.1036 30.6167 31.2007C29.5252 32.9033 28.3798 34.5699 27.3663 36.3204C25.7771 39.0541 26.4787 41.7879 29.1294 43.5504C32.1099 45.5407 36.3198 44.8933 38.4367 42.0636C39.6421 40.451 39.948 38.6525 38.9045 36.854C37.8191 34.9775 36.6017 33.173 35.4382 31.3386C35.1864 30.9429 34.7546 30.5412 34.7486 30.1396C34.7426 29.7679 35.1804 29.3782 35.4382 29.0065C36.4817 27.4958 37.5312 25.991 38.6346 24.4083C39.1924 25.1877 39.7201 25.9131 40.2418 26.6445C42.4307 29.7199 44.6196 32.7954 46.7906 35.8768C47.0125 36.1885 47.2523 36.3084 47.6241 36.2964C48.5477 36.2725 49.4772 36.2904 50.4068 36.2904C49.4352 41.9437 43.6182 49.2396 34.5147 49.9531C24.0559 50.7564 16.9375 43.0648 15.5762 36.2784C16.5117 36.2784 17.4352 36.2605 18.3588 36.2904C18.7846 36.3024 19.0244 36.1406 19.2643 35.8048C21.855 32.1299 24.4637 28.461 27.0664 24.792C27.1444 24.6841 27.2283 24.5822 27.3663 24.4083V24.4023Z" fill="white"/>
<path d="M50.5027 36.086C46.5327 30.4807 42.6167 24.9473 38.6347 19.324C36.7336 22.0577 34.8926 24.7075 33.0035 27.4232C31.1144 24.7135 29.2614 22.0637 27.3483 19.324C23.3843 24.9353 19.4743 30.4687 15.5462 36.038C14.2089 31.5238 15.0964 23.9162 20.9195 18.6525C26.9525 13.1911 36.068 12.4597 42.8026 16.884C49.957 21.5841 52.092 29.7793 50.5027 36.086Z" fill="white"/>
<path d="M33.0824 33.1133C34.1079 34.7679 35.1633 36.4105 36.1409 38.0951C36.6386 38.9404 36.3867 39.8097 35.841 40.5591C34.4797 42.4475 31.3373 42.3816 30.0539 40.4392C29.5621 39.6958 29.3582 38.8745 29.844 38.0592C30.8335 36.3985 31.865 34.7679 32.8845 33.1193C32.9504 33.1193 33.0104 33.1193 33.0764 33.1133H33.0824Z" fill="white"/>
</g>
<defs>
<clipPath id="clip0_1160_12970">
<rect width="36" height="36" fill="white" transform="translate(15 14)"/>
</clipPath>
</defs>
</svg>
