<svg width="64" height="64" viewBox="0 0 64 64" fill="none" xmlns="http://www.w3.org/2000/svg">
<rect width="80" height="80" transform="translate(0 -8)" fill="#EFEFEF"/>
<g clip-path="url(#clip0_1160_13081)">
<path d="M42.1742 19.2676C42.1742 24.9175 37.6226 29.4961 32.006 29.4961C26.3895 29.4961 21.8379 24.9175 21.8379 19.2676C21.8379 13.6177 26.3895 9.03906 32.006 9.03906C37.6226 9.03906 42.1742 13.6177 42.1742 19.2676Z" fill="white"/>
<path d="M32.006 9.03906C26.3895 9.03906 21.8379 13.6177 21.8379 19.2676C21.8379 24.9175 26.3895 29.4961 32.006 29.4961C37.6226 29.4961 42.1742 24.9175 42.1742 19.2676C42.1742 13.6177 37.6226 9.03906 32.006 9.03906ZM31.4121 13.6022L32.0009 12.4022L32.5897 13.6022L33.9106 13.798L32.9583 14.7353L33.1836 16.0538L32.006 15.4306L30.8285 16.0538L31.0537 14.7353L30.1014 13.798L31.4224 13.6022H31.4121ZM25.3143 15.0546C25.3143 14.5963 25.6829 14.2254 26.1335 14.2254C26.5841 14.2254 26.9527 14.5963 26.9527 15.0546C26.9527 15.513 26.5892 15.8838 26.1335 15.8838C25.6778 15.8838 25.3143 15.513 25.3143 15.0546ZM26.0772 24.7115L25.7546 16.5019L28.632 18.0521L28.7447 24.6085C27.8026 24.6342 26.9066 24.6651 26.0772 24.7115ZM34.735 24.5982C33.8594 24.5776 32.943 24.5673 32.006 24.5673C31.0691 24.5673 30.1475 24.5776 29.272 24.5982L29.144 18.2015L32.006 16.8881L34.8681 18.2015L34.7401 24.5982H34.735ZM37.9349 24.7115C37.1055 24.6651 36.2095 24.6342 35.2674 24.6085L35.3801 18.0521L38.2575 16.5019L37.94 24.7115H37.9349ZM37.8735 15.8838C37.4178 15.8838 37.0492 15.513 37.0492 15.0546C37.0492 14.5963 37.4178 14.2254 37.8735 14.2254C38.3291 14.2254 38.6926 14.5963 38.6926 15.0546C38.6926 15.513 38.324 15.8838 37.8735 15.8838Z" fill="#B4121B"/>
<path d="M17.5306 36.4137H15.1959V33.4471H13.3477V41.425H15.1959V38.1442H17.5306V41.425H19.3124V33.4471H17.5306V36.4137Z" fill="#231F20"/>
<path d="M24.3496 33.2617C22.0712 33.2617 20.0488 35.054 20.0488 37.4026C20.0488 39.7511 22.0763 41.6104 24.3496 41.6104C26.6228 41.6104 28.594 39.8129 28.594 37.4026C28.594 34.9922 26.6279 33.2617 24.3496 33.2617ZM24.3496 39.7511C22.875 39.7511 21.9534 38.5768 21.9534 37.4026C21.9534 36.2283 22.875 35.1158 24.3496 35.1158C25.8241 35.1158 26.6842 36.2283 26.6842 37.4026C26.6842 38.5768 25.8241 39.7511 24.3496 39.7511Z" fill="#231F20"/>
<path d="M31.3091 33.4471H29.5273V41.425H33.2751L34.0841 39.6945H31.3091V33.4471Z" fill="#231F20"/>
<path d="M36.8384 33.4471H35.0566V41.425H38.7993L39.6082 39.6945H36.8384V33.4471Z" fill="#231F20"/>
<path d="M42.0594 36.1614L40.6667 33.4471H38.7109L41.1071 37.8352V41.425H42.0594H43.0117V37.8352L45.4078 33.4471H43.452L42.0594 36.1614Z" fill="#231F20"/>
<path d="M48.8805 36.5995C48.2559 36.378 47.8975 36.239 47.8053 36.1823C47.5545 36.0432 47.4367 35.8475 47.4367 35.5952C47.4367 35.3788 47.5135 35.2037 47.6722 35.0647C47.8361 34.9205 48.0716 34.8432 48.3634 34.8432H48.4505C48.4812 34.8432 48.5119 34.8432 48.5426 34.8432C48.6399 34.8432 48.7628 34.8432 48.9676 34.8844C49.3823 34.9617 49.7458 35.1625 49.9813 35.2964L50.0018 35.3067L50.0427 35.3325L50.0683 35.2913L50.7647 34.1943L50.7851 34.1582L50.7544 34.1325C50.6674 34.0501 50.565 33.978 50.4472 33.9162L50.3807 33.8801C49.9864 33.6586 49.3311 33.293 48.4197 33.293C47.6005 33.293 46.9247 33.5299 46.4076 33.9986C45.9059 34.4672 45.6499 35.0544 45.6499 35.7651C45.6499 36.3574 45.8291 36.8312 46.1823 37.1815C46.5049 37.4853 47.0578 37.7583 47.8156 37.9901C48.3122 38.1497 48.6655 38.3042 48.8549 38.4484C49.0956 38.6184 49.2133 38.8502 49.2133 39.154C49.2133 39.4064 49.1263 39.6124 48.9471 39.7772C48.7679 39.942 48.5426 40.0296 48.2815 40.0296C47.9948 40.0296 47.6466 39.9575 47.2319 39.8236C47.0834 39.7772 46.9042 39.7154 46.7353 39.6536C46.6124 39.6124 46.4895 39.5712 46.3871 39.5352L46.3462 39.5249L46.3257 39.5609L45.6396 40.8433L45.6191 40.8845L45.655 40.9103C45.742 40.9721 45.8342 41.0236 45.9315 41.0751C46.3718 41.3017 47.3138 41.6159 48.0255 41.6159C48.9215 41.6159 49.6485 41.3635 50.1963 40.8639C50.7288 40.3798 50.995 39.7412 50.995 38.9738C50.995 38.3969 50.8159 37.9077 50.4626 37.5317C50.1247 37.1609 49.5922 36.857 48.8754 36.6149L48.8805 36.5995Z" fill="#231F20"/>
<path d="M24.192 43.5156C21.929 43.5156 19.8555 45.344 19.8555 47.7492C19.8555 50.1544 21.929 52.0445 24.192 52.0445C26.455 52.0445 28.5849 50.211 28.5849 47.7492C28.5849 45.2873 26.5114 43.5156 24.192 43.5156ZM24.192 50.1441C22.6817 50.1441 21.8062 48.9441 21.8062 47.744C21.8062 46.544 22.6817 45.4058 24.192 45.4058C25.7024 45.4058 26.6394 46.544 26.6394 47.744C26.6394 48.9441 25.7587 50.1441 24.192 50.1441Z" fill="#231F20"/>
<path d="M29.5586 51.8541H31.4427V48.63H33.3269V46.8583H31.4427V45.4729H33.4395L34.2638 43.7012H29.5586V51.8541Z" fill="#231F20"/>
<path d="M44.4306 45.4729L45.2549 43.7012H40.4883V51.8541H45.1372V50.0824H42.3724V48.63H44.6201V46.8583H42.3724V45.4729H44.4306Z" fill="#231F20"/>
<path d="M35.2559 51.8541H37.14V48.63H39.019V46.8583H37.14V45.4729H39.1368L39.9611 43.7012H35.2559V51.8541Z" fill="#231F20"/>
<path d="M48.0658 48.63H50.3185V46.8583H48.0658V45.4729H50.124L50.9483 43.7012H46.1816V51.8541H50.8305V50.0824H48.0658V48.63Z" fill="#231F20"/>
<path d="M17.1932 50.1434C15.734 50.1434 14.8841 48.9434 14.8841 47.7433C14.8841 46.5433 15.734 45.4051 17.1932 45.4051C18.0738 45.4051 18.7292 45.7914 19.1234 46.3476L20.0501 44.6222C19.2821 43.9269 18.2633 43.5098 17.1932 43.5098C15.007 43.5098 13 45.3381 13 47.7433C13 50.1485 15.0019 52.0387 17.1932 52.0387C18.207 52.0387 19.1695 51.6679 19.9221 51.0292L19.0057 49.3193C18.6063 49.8086 17.9919 50.1485 17.1932 50.1485V50.1434Z" fill="#231F20"/>
</g>
<defs>
<clipPath id="clip0_1160_13081">
<rect width="38" height="43" fill="white" transform="translate(13 9.03906)"/>
</clipPath>
</defs>
</svg>
