<svg width="64" height="64" viewBox="0 0 64 64" fill="none" xmlns="http://www.w3.org/2000/svg">
<rect width="80" height="80" transform="translate(0 -8)" fill="#EFEFEF"/>
<g clip-path="url(#clip0_1160_12888)">
<path d="M22.8184 28.8938C22.7794 28.6967 22.7211 28.1339 22.6724 27.9749C22.6238 27.8223 22.5816 27.5838 22.3189 27.4153C21.8325 27.1037 20.4445 27.3485 19.0468 27.2786C17.6491 27.2086 15.7844 26.8207 14.7401 26.5027C14.672 26.4836 14.6137 26.4805 14.5618 26.4805C14.338 27.0528 14.1013 27.641 13.8775 28.1943C13.8678 28.2166 13.8613 28.2356 13.8516 28.2579C13.9845 28.4455 14.1759 28.5218 14.2731 28.5663C14.8796 28.8461 16.3551 29.3612 17.6361 29.641C18.0026 29.7205 18.3787 29.7937 18.7614 29.8541C18.7841 29.8541 18.8068 29.8604 18.8295 29.8636C18.8263 29.8636 19.0208 29.8922 19.0208 29.8922C19.2997 29.924 19.5948 29.9558 19.9094 29.9844H19.9224H19.9354C20.0262 29.9844 20.3602 30.029 20.7072 30.0639C20.7266 30.0639 20.7493 30.0671 20.772 30.0703H20.7785C21.119 30.1053 21.4077 30.1371 21.5244 30.1402C22.0919 30.1689 22.6594 30.1148 22.8281 29.6665C22.9156 29.4344 22.8573 29.0242 22.8281 28.8843" fill="#ED1C24"/>
<path d="M10.1439 31.7838C10.2931 31.9173 10.5298 32.1622 10.7925 32.4483C10.9254 32.4006 11.1233 32.2893 11.3113 32.1081C11.694 31.7329 12.9653 30.0127 13.4225 29.1288C13.6625 28.6709 13.789 28.407 13.8279 28.3084C13.8344 28.2925 13.8409 28.2766 13.8473 28.2607C13.8571 28.2385 13.8636 28.2194 13.8733 28.1971C14.0971 27.6471 14.337 27.0588 14.5576 26.4833C14.5608 26.4706 14.5673 26.461 14.5705 26.4452C14.7651 25.9396 14.9467 25.4499 15.0926 25.0079C15.0926 25.0079 15.2321 24.5151 15.0699 24.3434C14.8883 24.1494 14.6873 24 14.2949 24C14.003 24 13.0236 24.1017 12.7318 24.1876C12.294 24.318 11.8853 24.5564 11.7394 24.9157L11.72 25.0238C11.36 27.132 10.0206 29.6089 9.31692 30.9666C9.30071 30.9952 9.29098 31.0238 9.28125 31.0525C9.42718 31.1606 9.56339 31.2719 9.65095 31.3545C9.84228 31.5358 9.96552 31.6312 10.1406 31.787" fill="#FCAF17"/>
<path d="M12.2099 34.0642C11.9829 33.7971 11.3311 33.0404 10.7927 32.449C10.53 32.1628 10.2933 31.9148 10.1441 31.7844C9.96901 31.6286 9.84254 31.5332 9.65444 31.352C9.56688 31.2693 9.43068 31.158 9.28475 31.0499C9.11287 30.9227 8.92802 30.7955 8.79182 30.7192C8.53886 30.573 8.15944 30.5157 7.91946 30.5348C7.67948 30.5539 7.00494 30.6683 6.49256 31.0881C6.30122 31.2439 6.15853 31.3552 6.05476 31.565C5.95747 31.7558 5.97692 32.1342 6.31744 32.3345C7.17358 32.8432 10.3647 35.247 11.5127 36.7415C11.5516 36.7892 11.6164 36.8496 11.7008 36.8941C12.1904 36.6111 12.6672 36.3822 12.8909 36.2804C13.0498 36.2105 13.3157 36.0992 13.6076 35.9879C13.2898 35.3774 12.4661 34.3599 12.2164 34.0642" fill="#F58220"/>
<path d="M18.0767 35.9746C18.0605 35.7297 18.0507 35.4054 18.0475 35.1033C18.0151 35.0938 17.9859 35.0906 17.9599 35.0906C16.9319 35.0715 15.3623 35.4436 14.824 35.5739C14.5029 35.6534 14.023 35.8219 13.6014 35.9841C13.3095 36.0986 13.0436 36.2067 12.8847 36.2766C12.6609 36.3784 12.1842 36.6073 11.6945 36.8903C11.3378 37.097 10.9713 37.3323 10.6989 37.5644C10.2255 37.9682 10.0925 38.0763 10.1087 38.4483C10.112 38.5501 10.1347 38.6677 10.1801 38.8044C10.1801 38.8044 10.3228 39.2019 10.4492 39.399C10.5725 39.5962 10.7833 40 11.5972 40C11.7237 40 11.8729 39.9523 12.1096 39.806C12.3464 39.6598 14.1397 38.3561 14.5094 38.1653C14.8824 37.9714 15.2521 37.7742 15.5212 37.6661C15.946 37.4944 17.4865 37.0811 17.8367 37.0302C18.028 37.0016 18.135 36.9284 18.1934 36.8362C18.1448 36.5691 18.0961 36.2607 18.0767 35.9746Z" fill="#98384E"/>
<path d="M21.4364 37.0097V37.0033L21.4299 36.997C20.8851 35.8809 20.7456 35.0256 20.6321 33.7569C20.5608 32.9366 20.6808 31.3308 20.7229 30.7648C20.7424 30.52 20.7748 30.3229 20.7651 30.2211C20.7586 30.1575 20.7327 30.1067 20.697 30.0653C20.3532 30.0303 20.016 29.9858 19.9252 29.9858H19.9122H19.8992C19.5847 29.9572 19.2896 29.9254 19.0107 29.8936C19.0107 29.8936 18.8161 29.865 18.8193 29.865C18.7966 29.8618 18.7739 29.8586 18.7512 29.8555C18.4237 30.9365 18.148 33.4358 18.1286 33.6615C18.1059 33.8904 18.0443 34.6377 18.041 34.8475C18.041 34.927 18.041 35.0129 18.041 35.1019C18.041 35.404 18.054 35.7283 18.0702 35.9731C18.0864 36.2593 18.1351 36.5645 18.1869 36.8348C18.2518 37.1718 18.3232 37.4485 18.3523 37.5407C18.4042 37.7028 18.5145 38.0208 18.641 38.2021C18.8907 38.5582 19.5393 38.6536 20.0776 38.4946C20.5024 38.3674 20.9143 38.1162 21.1153 37.8968C21.2775 37.7187 21.4396 37.4676 21.4656 37.2831C21.4753 37.21 21.4461 37.0415 21.4332 37.0097" fill="#A7A838"/>
<path d="M51.352 31.7329C50.7358 31.7329 50.2688 31.3545 50.2688 30.7472C50.2688 30.1399 50.7358 29.6502 51.352 29.6502C51.9682 29.6502 52.4384 30.1431 52.4384 30.7472C52.4384 31.3514 51.9844 31.7329 51.352 31.7329ZM55.5808 32.8967H52.1335V32.6105C53.207 32.3466 54.0112 31.6598 54.0112 30.744C54.0112 30.3243 53.8393 29.9269 53.5507 29.5962H54.5885C55.1463 29.593 55.1463 28.6359 54.5885 28.6359H52.1595L52.1757 27.9937C52.1757 27.8855 52.0654 27.7774 51.9552 27.7774H50.5315C50.2332 27.7774 50.2137 27.9809 50.4213 28.1813C50.5023 28.2607 50.5672 28.213 50.5802 28.4738V28.6328H48.2225C47.6647 28.6328 47.6647 29.5867 48.2225 29.5867L49.1597 29.593C48.8711 29.9237 48.696 30.3212 48.696 30.744C48.696 31.6598 49.5003 32.3466 50.5737 32.6105V32.8967H47.2269C46.6691 32.8967 46.6691 33.9269 47.2269 33.9269H55.5841C56.1418 33.9269 56.1418 32.8967 55.5841 32.8967H55.5808Z" fill="#231F20"/>
<path d="M44.8348 27.8283H43.3949C43.0933 27.8283 43.0673 28.1431 43.2944 28.3275C43.4857 28.4833 43.6122 28.6073 43.6446 28.8999C43.6478 28.9507 43.6478 31.9905 43.6446 34.3275H42.3506C41.6826 34.3275 41.6826 35.4754 42.3506 35.4754H43.6446C43.6446 36.3688 43.6446 36.9857 43.6446 36.9857C43.6576 37.3704 44.0078 37.5612 44.3548 37.5612C44.7018 37.5612 45.0618 37.3704 45.0618 36.9857L45.0553 28.0477C45.0553 27.9396 44.945 27.8315 44.8348 27.8315" fill="#231F20"/>
<path d="M49.7674 35.4269H53.0396V36.6256H49.7674V35.4269ZM54.113 34.4348H48.6972C48.4475 34.4348 48.3438 34.5461 48.3438 34.7782V37.2329C48.3438 37.3951 48.4962 37.5477 48.6745 37.5477H54.1292C54.3076 37.5477 54.4632 37.3951 54.4632 37.2329L54.4697 34.7782C54.4697 34.5461 54.3659 34.4316 54.1162 34.4316L54.113 34.4348Z" fill="#231F20"/>
<path d="M39.7179 29.2366C40.36 29.2366 40.8076 29.7708 40.8076 30.4576C40.8076 31.1444 40.3633 31.6754 39.7179 31.6754C39.0726 31.6754 38.6315 31.1412 38.6315 30.4576C38.6315 29.774 39.0856 29.2366 39.7179 29.2366ZM39.7179 32.6134C41.1513 32.6134 42.3512 31.6341 42.3512 30.4576C42.3512 29.2811 41.1513 28.2891 39.7179 28.2891C38.2845 28.2891 37.0879 29.2684 37.0879 30.4576C37.0879 31.6468 38.2878 32.6134 39.7179 32.6134Z" fill="#231F20"/>
<path d="M42.6267 33.0467C42.578 33.0244 42.5261 33.0117 42.4678 33.0117H36.8769C36.3613 33.0117 36.3256 33.8957 36.7666 34.026C36.812 34.0483 36.8672 34.061 36.9256 34.061H38.9881V36.9926C38.9881 37.2788 39.1502 37.4442 39.374 37.5205C39.4778 37.5618 39.5978 37.5841 39.7242 37.5841C40.0874 37.5841 40.3988 37.4155 40.3988 37.0117V34.0642H42.5132C43.0288 34.0642 43.0677 33.1802 42.6267 33.0499" fill="#231F20"/>
<path d="M28.2508 34.7666C27.0931 34.7666 26.905 33.5138 26.905 32.4169V32.0448C26.905 30.9447 27.1579 29.6919 28.2378 29.6919C29.3956 29.6919 29.5707 30.9479 29.5707 32.0448L29.5837 32.4137C29.5837 33.5138 29.3307 34.7666 28.2508 34.7666ZM28.2378 28.7539C26.1559 28.7539 25.3613 30.4773 25.3613 32.0448V32.4137C25.3613 33.9813 26.091 35.7046 28.2508 35.7046C30.4106 35.7046 31.1273 33.9813 31.1273 32.4137V32.0448C31.1273 30.4773 30.3976 28.7539 28.2378 28.7539Z" fill="#231F20"/>
<path d="M34.8778 30.9312H33.9082V28.0346C33.9082 27.9265 33.7947 27.8184 33.6844 27.8184H32.2446C31.9462 27.8184 31.9073 28.0505 32.144 28.3176C32.3808 28.5847 32.4943 28.8072 32.4943 29.192C32.4943 29.4972 32.4943 36.9726 32.4943 36.9726C32.5072 37.3573 32.8575 37.5481 33.2045 37.5481C33.5515 37.5481 33.9114 37.3573 33.9114 36.9726V32.0759H34.8746C35.5427 32.0759 35.5427 30.9281 34.8746 30.9281" fill="#231F20"/>
</g>
<defs>
<clipPath id="clip0_1160_12888">
<rect width="50" height="16" fill="white" transform="translate(6 24)"/>
</clipPath>
</defs>
</svg>
