<svg width="64" height="64" viewBox="0 0 64 64" fill="none" xmlns="http://www.w3.org/2000/svg">
<rect width="80" height="80" transform="translate(0 -8)" fill="#EFEFEF"/>
<g clip-path="url(#clip0_1160_12807)">
<path d="M50.1169 25.9492C45.5986 24.1364 41.0371 24.3275 39.8787 26.4538C38.7107 28.5949 40.4123 33.6658 43.6231 37.8793C46.8339 42.0879 51.3714 41.9507 53.8757 37.3551C56.3415 32.7741 54.6207 27.762 50.1169 25.9541" fill="#F9A12C"/>
<path d="M27.1452 27.419C31.1539 30.2068 35.6433 31.0544 37.2343 29.2416C38.8398 27.419 38.287 22.0885 36.0711 17.2576C33.8601 12.4317 29.4043 11.54 25.9628 15.4497C22.5645 19.3595 23.1509 24.6313 27.1452 27.4141" fill="#0080C6"/>
<path d="M41.5064 42.1033C40.8624 37.199 38.4783 33.2304 36.0942 33.2304C33.6908 33.2304 30.1724 37.2137 28.1248 42.1229C26.0819 47.0272 28.4035 51.0056 33.5611 51.0007C38.6897 50.9664 42.1457 46.9978 41.5064 42.1033Z" fill="#EF4141"/>
<path d="M23.2139 29.3507C22.3967 29.3507 21.8488 29.8651 21.8488 30.6294V31.3987H23.7907C23.7907 31.3987 23.858 37.9296 23.7811 38.6106C23.709 39.2965 23.5359 40.4087 22.3391 40.9917C21.3056 41.4964 21.2816 41.9716 21.2143 42.3979C21.1278 42.9466 21.2287 43.0152 21.6229 42.9172C23.1658 42.5302 24.8097 41.903 25.6364 40.345C26.0882 39.5023 26.2661 38.5861 26.2661 37.1996V31.3938C27.088 31.384 27.684 30.8499 27.684 30.115V29.3458H23.2139V29.3507Z" fill="#231F20"/>
<path d="M21.0555 38.155C21.0555 38.155 19.4981 40.4332 16.4748 40.4332C13.4514 40.4332 11 37.9982 11 34.7695C11 31.5408 13.3504 29.0273 16.4748 29.0273C19.5991 29.0273 21.017 31.3056 21.017 31.3056C21.017 31.3056 20.1855 32.212 19.3876 32.212C18.9983 32.212 18.705 32.0307 18.3686 31.8151C17.9168 31.531 17.4073 31.2076 16.4748 31.2076C14.7011 31.2076 13.2591 32.8048 13.2591 34.7646C13.2591 36.7244 14.7011 38.2481 16.4748 38.2481C17.5274 38.2481 18.0225 37.9394 18.4599 37.6699C18.7723 37.4789 19.0655 37.2927 19.4885 37.2927C20.3874 37.2927 21.0603 38.1501 21.0603 38.1501L21.0555 38.155Z" fill="#231F20"/>
</g>
<defs>
<clipPath id="clip0_1160_12807">
<rect width="44" height="38" fill="white" transform="translate(11 13)"/>
</clipPath>
</defs>
</svg>
