<svg width="64" height="64" viewBox="0 0 64 64" fill="none" xmlns="http://www.w3.org/2000/svg">
<rect width="80" height="80" transform="translate(0 -8)" fill="#E00514"/>
<g clip-path="url(#clip0_1160_12922)">
<path d="M54.2101 31.558C54.2161 32.2987 54.829 32.9012 55.5899 32.9012C56.3507 32.9012 56.9696 32.2987 56.9696 31.558V27.8431C56.9696 27.0996 56.3507 26.5 55.5899 26.5C54.829 26.5 54.2101 27.1025 54.2101 27.8431L54.2161 30.0356C54.2161 30.0356 54.041 30.7675 53.2198 30.7968C52.3986 30.8262 50.1704 29.7035 49.3552 27.6286C49.0624 26.935 48.6578 26.6587 48.0298 26.6587C47.4018 26.6587 46.8795 27.0437 46.7074 27.6109C45.9345 30.0856 44.12 30.8497 43.5494 30.888C43.1055 30.9291 42.8066 31.2112 42.8066 31.5904C42.8066 31.9695 43.1055 32.2223 43.5645 32.2223C44.5608 32.2223 46.5504 31.6227 48.051 30.0533C49.6451 31.5757 52.9269 32.96 54.204 31.5522L54.2101 31.558Z" fill="white"/>
<path d="M28.2694 30.2547C27.8709 30.2547 27.5478 29.9402 27.5478 29.5523V27.6595C27.5508 26.916 28.1698 26.3164 28.9336 26.3164C29.6975 26.3164 30.2983 26.9189 30.2983 27.6595V28.8587H38.2085C39.0962 28.8587 39.3679 28.6706 39.6487 28.5824C40.0442 28.4589 40.482 28.5412 40.6511 28.9086C40.8171 29.276 40.6239 29.6404 40.3008 29.8432C39.9808 30.046 39.2622 30.2459 38.2055 30.2459H35.1833V30.9836L40.6571 30.9953C41.0556 30.9953 41.3787 31.3098 41.3787 31.6977C41.3787 32.0857 41.0556 32.4002 40.6571 32.4002H27.3153C26.9168 32.4002 26.5938 32.0857 26.5938 31.6977C26.5938 31.3098 26.9168 30.9953 27.3153 30.9953L32.4812 30.9836V30.2459L28.2634 30.2576L28.2694 30.2547Z" fill="white"/>
<path d="M27.2637 35.4101C27.2637 33.8877 30.2496 32.6504 33.933 32.6504C37.6164 32.6504 40.6024 33.8848 40.6024 35.4101C40.6024 36.9355 37.6164 38.1699 33.933 38.1699C30.2496 38.1699 27.2637 36.9355 27.2637 35.4101ZM33.933 36.8444C36.0797 36.8444 37.8217 36.2007 37.8217 35.4101C37.8217 34.6195 36.0827 33.9759 33.933 33.9759C31.7834 33.9759 30.0443 34.6195 30.0443 35.4101C30.0443 36.2007 31.7834 36.8444 33.933 36.8444Z" fill="white"/>
<path d="M44.1348 33.679C44.1348 33.291 44.4578 32.9766 44.8563 32.9766H56.2779C56.6764 32.9766 56.9995 33.291 56.9995 33.679V36.7943C56.9995 37.1823 56.6764 37.4968 56.2779 37.4968H44.8563C44.4578 37.4968 44.1348 37.1823 44.1348 36.7943V33.679ZM46.8701 34.3491V36.1037H54.2158V34.3491H46.8701Z" fill="white"/>
<path d="M15.6402 40.2402C20.9631 40.2402 25.2805 36.6576 25.2805 32.2402C25.2805 27.8229 20.9631 24.2402 15.6402 24.2402C10.3174 24.2402 6 27.8229 6 32.2402C6 36.6576 10.3144 40.2402 15.6402 40.2402Z" fill="white"/>
<path d="M6.69141 32.2394C6.69141 28.1365 10.6979 24.8125 15.6403 24.8125C20.5827 24.8125 24.5891 28.1365 24.5891 32.2394C24.5891 36.3423 20.5827 39.6663 15.6403 39.6663C10.6979 39.6663 6.69141 36.3423 6.69141 32.2394ZM15.6403 33.5002C17.2102 33.5002 18.4813 31.7162 18.4813 29.5179C18.4813 27.3195 17.2072 25.5355 15.6403 25.5355C14.0733 25.5355 12.7992 27.3195 12.7992 29.5179C12.7992 31.7162 14.0733 33.5002 15.6403 33.5002Z" fill="#E00514"/>
</g>
<defs>
<clipPath id="clip0_1160_12922">
<rect width="51" height="16" fill="white" transform="translate(6 24.2402)"/>
</clipPath>
</defs>
</svg>
