<svg width="64" height="64" viewBox="0 0 64 64" fill="none" xmlns="http://www.w3.org/2000/svg">
<rect width="80" height="80" transform="translate(0 -8)" fill="#EFEFEF"/>
<g clip-path="url(#clip0_1160_13103)">
<path d="M10.1016 27.3185H11.741V29.7627H13.2648V27.3185H14.9083V33.786H13.2648V31.2221H11.741V33.786H10.1016V27.3185Z" fill="black"/>
<path d="M34.1137 29.2639V29.6626H34.1496C34.5525 29.1523 35.2546 29.1921 35.2546 29.1921C36.1122 29.1921 36.5949 29.858 36.5949 30.7273V33.7856H35.1628V31.0383C35.1628 30.8549 35.0432 30.5478 34.7041 30.5478C34.3969 30.5478 34.2174 30.8429 34.2174 31.0463V33.7816H32.7734V29.2559H34.1137V29.2639Z" fill="black"/>
<path d="M39.1758 27.2188H41.2261C43.0491 27.2347 44.0902 28.6024 44.0902 30.5402C44.0902 32.4781 43.0491 33.8019 41.2261 33.7859H39.1758V27.2188ZM40.8831 32.2189H41.1144C42.0797 32.2189 42.4986 31.4852 42.4986 30.4605C42.4986 29.4357 42.0797 28.7579 41.1144 28.7579H40.8831V32.2189Z" fill="black"/>
<path d="M52.2286 32.3585C52.5198 32.5499 52.791 32.6854 53.1181 32.7373C53.4053 32.7811 53.7922 32.7453 53.7922 32.514C53.7922 32.1472 52.0371 32.6854 52.0371 30.5921C52.0371 29.9182 52.787 29.2364 53.8521 29.2364C54.3627 29.2364 55.0847 29.3919 55.3519 29.5634L55.1724 30.7117C54.9211 30.6519 54.5781 30.5682 54.2909 30.5682C54.1193 30.5682 53.7723 30.5642 53.7723 30.7795C53.7723 31.1822 55.5274 30.624 55.5274 32.4183C55.5274 33.451 54.5501 33.9415 53.4452 33.9415C52.9825 33.9415 52.5198 33.8258 52.0969 33.5946L52.2326 32.3625L52.2286 32.3585Z" fill="black"/>
<path d="M28.358 33.7859V29.336H26.9459V29.7029C26.5829 29.1805 25.829 29.2603 25.829 29.2603C23.998 29.2603 23.998 31.541 23.998 31.541C23.998 32.7452 24.6044 33.9335 25.8489 33.9335C26.2877 33.9335 26.6667 33.8138 26.9259 33.463H26.9419L26.8501 33.7899C26.8501 33.7899 26.559 34.8306 24.728 34.2923V35.5244C24.728 35.5244 24.7679 35.9311 26.3116 35.8912C27.8155 35.8514 28.354 34.408 28.354 33.7899L28.358 33.7859ZM26.2159 32.5259C25.805 32.5259 25.474 32.0953 25.474 31.569C25.474 31.0426 25.805 30.612 26.2159 30.612C26.6268 30.612 26.9579 31.0426 26.9579 31.569C26.9579 32.0953 26.6268 32.5259 26.2159 32.5259Z" fill="black"/>
<path d="M16.6144 29.021C17.113 29.021 17.5159 28.6183 17.5159 28.1199C17.5159 27.6215 17.113 27.2188 16.6144 27.2188C16.1158 27.2188 15.7129 27.6215 15.7129 28.1199C15.7129 28.6183 16.1158 29.021 16.6144 29.021Z" fill="black"/>
<path d="M18.5617 29.021C19.0603 29.021 19.4632 28.6183 19.4632 28.1199C19.4632 27.6215 19.0603 27.2188 18.5617 27.2188C18.063 27.2188 17.6602 27.6215 17.6602 28.1199C17.6602 28.6183 18.063 29.021 18.5617 29.021Z" fill="black"/>
<path d="M38.6327 30.3927H37.1289V31.8959H38.6327V30.3927Z" fill="black"/>
<path d="M22.5064 29.336V29.7029C22.1434 29.1805 21.3895 29.2603 21.3895 29.2603C19.5586 29.2603 19.5586 31.541 19.5586 31.541C19.5586 32.7452 20.1649 33.9335 21.4095 33.9335C21.8483 33.9335 22.2312 33.8138 22.4905 33.463H22.5064V33.7899H23.9145V29.34H22.5064V29.336ZM21.7765 32.514C21.3656 32.514 21.0345 32.0833 21.0345 31.557C21.0345 31.0307 21.3696 30.596 21.7765 30.596C22.1833 30.596 22.5184 31.0267 22.5184 31.557C22.5184 32.0873 22.1833 32.514 21.7765 32.514Z" fill="black"/>
<path d="M18.0181 29.336V29.7029C17.6551 29.1805 16.9051 29.2603 16.9051 29.2603C15.0742 29.2603 15.0742 31.541 15.0742 31.541C15.0742 32.7452 15.6805 33.9335 16.9251 33.9335C17.3639 33.9335 17.7428 33.8138 18.0061 33.463H18.0221V33.7899H19.4341V29.34H18.0221L18.0181 29.336ZM17.1724 32.5339C16.7615 32.5339 16.4305 32.1073 16.4305 31.5769C16.4305 31.0466 16.7655 30.62 17.1724 30.62C17.5793 30.62 17.9144 31.0506 17.9144 31.5769C17.9144 32.1033 17.5793 32.5339 17.1724 32.5339Z" fill="black"/>
<path d="M47.2095 29.3165V29.6833C46.8465 29.1609 46.0966 29.2407 46.0966 29.2407C44.2656 29.2407 44.2656 31.5215 44.2656 31.5215C44.2656 32.7256 44.8719 33.9139 46.1165 33.9139C46.5553 33.9139 46.9342 33.7942 47.1935 33.4434H47.2095V33.7703H48.6216V29.3204H47.2095V29.3165ZM46.4715 32.5023C46.0607 32.5023 45.7296 32.0717 45.7296 31.5454C45.7296 31.0191 46.0607 30.5884 46.4715 30.5884C46.8824 30.5884 47.2135 31.0191 47.2135 31.5454C47.2135 32.0717 46.8784 32.5023 46.4715 32.5023Z" fill="black"/>
<path d="M50.8353 32.4549L52.2514 29.293H52.1756L48.8608 29.297V30.7045H50.0296L48.6973 33.7508H51.9562V32.4948H50.8593" fill="black"/>
<path d="M32.008 46.0391H31.992C31.5413 46.0351 30.7036 45.728 30.6637 44.5797C30.6358 43.842 30.8592 43.2399 31.3139 42.8173C31.0387 42.7455 30.7355 42.7056 30.4244 42.7056C30.3246 42.7056 30.2289 42.7096 30.1332 42.7176C29.7064 42.7535 29.2436 43.0166 28.7091 43.3277C27.9353 43.7742 26.9739 44.3285 25.7453 44.3285C24.7361 44.3285 23.687 43.6546 23.3081 43.3835C22.9211 43.523 22.5143 43.5948 22.0954 43.5948C20.5796 43.5948 19.3072 42.6897 18.8803 42.3508C18.645 42.4305 18.3937 42.4664 18.1384 42.4664C16.7024 42.4664 15.3621 41.2503 14.9432 40.8316C14.7438 40.8715 14.5483 40.8914 14.3529 40.8914C12.5738 40.8914 11.4768 39.2486 11.1657 38.7103C9.03161 38.5269 8.12612 36.0149 7.92667 35.3649C6.05585 34.4797 6.05984 32.2309 6.35103 31.0307C5.13839 28.8895 7.40811 26.7881 8.01842 26.2778C7.89875 24.4157 10.4916 23.4667 11.1737 23.2514C11.8478 21.6006 13.9659 21.4172 14.8635 21.4172C14.9193 21.4172 14.9672 21.4172 15.0111 21.4172C15.5097 20.4921 16.491 20.0017 17.8632 20.0017C18.3338 20.0017 18.7327 20.0615 18.9481 20.1013C19.9813 19.1524 21.2817 18.949 22.2031 18.949C22.6898 18.949 23.0847 19.0048 23.3041 19.0447C23.5793 18.7895 24.2734 18.311 25.5578 18.311C27.0058 18.311 27.664 18.8972 28.2424 19.4115C28.745 19.8621 29.1798 20.2489 30.1292 20.2489C30.568 20.2489 30.9469 20.213 31.27 20.1452C30.8911 19.7784 30.7036 19.276 30.7036 18.626C30.7036 17.4617 31.4775 17.0391 31.996 17.0391C32.5146 17.0391 33.2525 17.4617 33.2525 18.626C33.2525 19.264 33.0611 19.7744 32.6821 20.1412C33.0132 20.213 33.4081 20.2489 33.8628 20.2489C34.8122 20.2489 35.247 19.8621 35.7496 19.4115C36.328 18.8972 36.9862 18.311 38.4342 18.311C39.7186 18.311 40.4087 18.7895 40.6879 19.0447C40.9073 19.0048 41.2983 18.949 41.7889 18.949C42.7143 18.949 44.0107 19.1524 45.0439 20.1013C45.2593 20.0615 45.6582 20.0017 46.1289 20.0017C47.5051 20.0017 48.4824 20.4881 48.981 21.4172C49.0249 21.4172 49.0767 21.4172 49.1286 21.4172C50.0301 21.4172 52.1442 21.6006 52.8184 23.2514C53.5005 23.4667 56.0933 24.4157 55.9736 26.2778C56.5839 26.7881 58.8536 28.8895 57.641 31.0307C57.9322 32.2349 57.9362 34.4837 56.0574 35.3649C55.8579 36.0188 54.9564 38.5269 52.8184 38.7103C52.5072 39.2446 51.4103 40.8914 49.6312 40.8914C49.4357 40.8914 49.2403 40.8715 49.0408 40.8316C48.622 41.2503 47.2817 42.4664 45.8457 42.4664C45.5864 42.4664 45.3391 42.4265 45.1037 42.3508C44.6769 42.6937 43.4044 43.5948 41.8886 43.5948C41.4698 43.5948 41.0629 43.523 40.676 43.3835C40.293 43.6546 39.2479 44.3285 38.2387 44.3285C37.0261 44.3285 36.0767 43.7742 35.3148 43.3316C34.7683 43.0127 34.2976 42.7375 33.8628 42.7216C33.791 42.7216 33.7192 42.7176 33.6474 42.7176C33.2765 42.7176 32.9374 42.7575 32.6422 42.8292C33.093 43.2479 33.3243 43.8261 33.3243 44.5199C33.3243 45.7241 32.4906 46.043 31.996 46.043L32.008 46.0391ZM31.9801 43.1004C31.4974 43.4074 31.274 43.8859 31.2979 44.5598C31.3259 45.3652 31.8883 45.4091 31.996 45.4091H32.008C32.1715 45.4091 32.7021 45.3453 32.7021 44.5159C32.7021 43.8859 32.4587 43.4074 31.9761 43.1004H31.9801ZM33.6594 42.0836C33.7392 42.0836 33.819 42.0836 33.8987 42.0876C34.4891 42.1115 35.0516 42.4385 35.6459 42.7854C36.3799 43.212 37.2096 43.6985 38.2507 43.6985C39.2918 43.6985 40.4327 42.7894 40.4446 42.7814L40.5922 42.6658L40.7637 42.7375C41.1227 42.8891 41.5057 42.9648 41.9046 42.9648C43.4842 42.9648 44.8325 41.7686 44.8444 41.7566L44.996 41.6211L45.1795 41.7008C45.3909 41.7925 45.6183 41.8364 45.8576 41.8364C47.2737 41.8364 48.7018 40.2893 48.7177 40.2734L48.8454 40.1338L49.0289 40.1816C49.2363 40.2375 49.4397 40.2654 49.6392 40.2654C51.3265 40.2654 52.3397 38.2877 52.3516 38.2677L52.4354 38.1002H52.6269C54.7011 38.0484 55.487 35.0938 55.4949 35.0619L55.5348 34.9064L55.6824 34.8466C57.7806 33.9813 57.0387 31.1902 57.0028 31.0705L56.9669 30.935L57.0387 30.8154C58.2752 28.8496 55.483 26.6884 55.4551 26.6645L55.3035 26.5489L55.3354 26.3615C55.5987 24.6868 52.5311 23.8176 52.4992 23.8096L52.3357 23.7657L52.2838 23.6062C51.8131 22.1987 49.9224 22.0432 49.1326 22.0432C48.9371 22.0432 48.8174 22.0551 48.8174 22.0551L48.5941 22.0711L48.5023 21.8638C48.0555 20.843 46.9666 20.6277 46.1329 20.6277C45.5146 20.6277 45.0279 20.7433 45.0239 20.7473L44.8524 20.7912L44.7248 20.6636C43.8273 19.7664 42.6346 19.579 41.7929 19.579C41.1387 19.579 40.668 19.6946 40.664 19.6946L40.4606 19.7425L40.3369 19.575C40.317 19.5511 39.8184 18.937 38.4422 18.937C37.2335 18.937 36.7229 19.3956 36.1764 19.8781C35.626 20.3685 35.0595 20.8749 33.8708 20.8749C33.089 20.8749 32.4747 20.7792 31.988 20.5878H31.984H31.9801C31.5014 20.7832 30.8951 20.8749 30.1332 20.8749C28.9445 20.8749 28.378 20.3685 27.8276 19.8781C27.2851 19.3916 26.7705 18.937 25.5618 18.937C24.1856 18.937 23.687 19.5511 23.6631 19.575L23.5354 19.7345L23.336 19.6907C23.336 19.6907 22.8613 19.575 22.2071 19.575C21.3655 19.575 20.1728 19.7624 19.2752 20.6596L19.1476 20.7872L18.9761 20.7433C18.9761 20.7433 18.4854 20.6237 17.8671 20.6237C17.0295 20.6237 15.9405 20.839 15.4977 21.8598L15.406 22.0671L15.1826 22.0472C15.1826 22.0472 15.0629 22.0352 14.8674 22.0352C14.0776 22.0352 12.1869 22.1867 11.7162 23.5983L11.6643 23.7577L11.5008 23.8016C11.4689 23.8096 8.40136 24.6828 8.66463 26.3535L8.69654 26.5409L8.54496 26.6566C8.51704 26.6765 5.72876 28.8456 6.95735 30.8074L7.03314 30.927L6.99724 31.0626C6.96533 31.1822 6.2194 33.9733 8.32158 34.8386L8.46917 34.8984L8.50906 35.0539C8.51704 35.0818 9.31084 38.0404 11.3771 38.0883H11.5686L11.6524 38.2637C11.6643 38.2837 12.6775 40.2574 14.3648 40.2574C14.5643 40.2574 14.7717 40.2295 14.9752 40.1737L15.1586 40.1258L15.2863 40.2654C15.2863 40.2654 16.7303 41.8284 18.1464 41.8284C18.3857 41.8284 18.6131 41.7846 18.8245 41.6929L19.008 41.6131L19.1596 41.7487C19.1596 41.7487 20.5198 42.9568 22.0994 42.9568C22.4943 42.9568 22.8813 42.8811 23.2403 42.7296L23.4118 42.6578L23.5594 42.7734C23.5594 42.7734 24.7361 43.6905 25.7533 43.6905C26.7705 43.6905 27.66 43.2041 28.402 42.7734C28.9764 42.4425 29.5189 42.1275 30.0893 42.0796C30.201 42.0716 30.3167 42.0677 30.4323 42.0677C30.9948 42.0677 31.5413 42.1753 31.984 42.3787H31.988H31.992C32.4508 42.1793 33.0092 42.0796 33.6594 42.0796V42.0836ZM32 17.6691C31.9721 17.6691 31.3378 17.681 31.3378 18.626C31.3378 19.2401 31.5373 19.6348 31.9801 19.89C32.4268 19.6308 32.6263 19.2361 32.6263 18.626C32.6263 17.681 32.004 17.6691 32 17.6691Z" fill="#C99640"/>
<path d="M52.7818 36.68C52.1915 36.68 51.7168 36.2015 51.7168 35.6154C51.7168 35.0293 52.1955 34.5508 52.7818 34.5508C53.3682 34.5508 53.8469 35.0293 53.8469 35.6154C53.8469 36.2015 53.3682 36.68 52.7818 36.68ZM52.7818 34.6624C52.2553 34.6624 51.8285 35.0891 51.8285 35.6154C51.8285 36.1417 52.2553 36.5684 52.7818 36.5684C53.3084 36.5684 53.7352 36.1417 53.7352 35.6154C53.7352 35.0891 53.3084 34.6624 52.7818 34.6624Z" fill="black"/>
<path d="M52.6059 36.2328H52.3945V34.9648H52.8014C53.0567 34.9648 53.2522 35.0845 53.2522 35.3357C53.2522 35.4952 53.1564 35.6387 52.9729 35.6706L53.3359 36.2368H53.0926L52.7735 35.7105H52.6059V36.2368V36.2328ZM52.7615 35.531C52.933 35.531 53.0368 35.4952 53.0368 35.3277C53.0368 35.1602 52.9091 35.1403 52.7575 35.1403H52.602V35.531H52.7575H52.7615Z" fill="black"/>
<path d="M32.2625 33.4271C31.7399 33.7899 31.0538 33.9614 30.272 33.8457C28.816 33.6264 28.3055 32.2309 28.4889 31.0028C28.7123 29.4995 29.909 28.8496 31.1256 29.1526C32.2106 29.4238 32.6095 30.3847 32.6694 31.4254L30.0925 32.3944C30.3119 32.7173 30.8105 32.6575 30.9621 32.6535C31.4448 32.6376 32.0152 32.3026 32.3383 32.1392L32.2625 33.4311V33.4271ZM31.1217 30.6838C31.0419 30.4844 30.9023 30.3847 30.7028 30.3409C30.2521 30.2492 29.9688 30.5123 29.8651 30.8632C29.8173 31.0347 29.8332 31.0905 29.8452 31.1702L31.1217 30.6798V30.6838Z" fill="black"/>
</g>
<defs>
<clipPath id="clip0_1160_13103">
<rect width="52" height="29" fill="white" transform="translate(6 17.0391)"/>
</clipPath>
</defs>
</svg>
