<svg width="64" height="64" viewBox="0 0 64 64" fill="none" xmlns="http://www.w3.org/2000/svg">
<rect width="80" height="80" transform="translate(0 -8)" fill="#EFEFEF"/>
<g clip-path="url(#clip0_1160_13059)">
<path d="M44.0309 28.7832H43.0273V34.0645H44.0309V28.7832Z" fill="black"/>
<path d="M37.4112 30.8095H36.6002V28.7832H35.5918V35.7535H36.6002V31.6516H37.4112V30.8095Z" fill="black"/>
<path d="M44.032 34.7969H38.7422V38.1454H44.032V34.7969ZM43.0332 37.3058H39.7433V35.6389H43.0332V37.3058Z" fill="black"/>
<path d="M38.1425 28.7818V29.6213H40.963C40.9558 29.8922 40.9269 30.3033 40.8018 30.7539H38.1425V31.596H40.448C40.0244 32.3198 39.2591 32.9871 37.8633 33.2062L38.1425 34.0162C41.247 33.642 42.0171 31.1282 42.0171 28.7793H38.1425V28.7818Z" fill="black"/>
<path d="M57.9992 28.7832H56.998V38.1491H57.9992V28.7832Z" fill="black"/>
<path d="M49.9924 28.7818V30.2713H48.7073V28.7793H47.7109V30.2713H46.0094V28.7793H45.0059V33.3613H48.7048V31.1109H49.99V33.3638H50.9935V28.7818H50.0862M47.7133 31.106V32.5143H46.0118V31.106H47.7133Z" fill="black"/>
<path d="M29.5543 34.418H23.6172V35.2601H24.5943V38.1457H25.593V35.2601H27.5713V38.1457H28.5772V35.2601H29.5543V34.418Z" fill="black"/>
<path d="M36.4819 37.3061H32.1114V35.3906H31.1055V38.1457H31.1127H36.4819V37.3061Z" fill="black"/>
<path d="M50.9968 34.041H45.707V34.8831H50.0005V35.666H45.707V38.1454H50.9968V37.3058H46.7058V36.5081H50.9968V34.041Z" fill="black"/>
<path d="M55.8625 28.7832H51.9902V29.6179H54.8613V32.0751H51.9902V36.5216H55.4871C55.4871 36.5216 56.0213 36.502 56.1489 36.4823C56.8203 36.3838 57.2559 36.0218 57.2559 36.0218L57.2439 35.0419C57.2439 35.0419 56.7674 35.522 56.0141 35.6648C55.9179 35.6821 55.4678 35.6796 55.4678 35.6796H52.9914V32.9171H55.8625V28.7832Z" fill="black"/>
<path d="M34.7634 32.9129C34.7634 34.0504 33.7912 34.9761 32.5927 34.9761C31.3942 34.9761 30.4219 34.0528 30.4219 32.9129C30.4219 31.7729 31.3942 30.8496 32.5927 30.8496C33.7912 30.8496 34.7634 31.7754 34.7634 32.9129ZM32.5927 31.6646C31.8683 31.6646 31.2786 32.2259 31.2786 32.9153C31.2786 33.6047 31.8683 34.1636 32.5927 34.1636C33.317 34.1636 33.9091 33.6047 33.9091 32.9153C33.9091 32.2259 33.3195 31.6646 32.5927 31.6646Z" fill="black"/>
<path d="M29.2486 31.2452C29.2486 32.6634 28.0646 33.8107 26.5989 33.8107C25.1333 33.8107 23.9492 32.6634 23.9492 31.2452C23.9492 29.827 25.1357 28.6797 26.5989 28.6797C28.0621 28.6797 29.2486 29.8295 29.2486 31.2452ZM26.5989 29.6596C25.694 29.6596 24.9624 30.3712 24.9624 31.2452C24.9624 32.1193 25.6964 32.8308 26.5989 32.8308C27.5014 32.8308 28.2354 32.1217 28.2354 31.2452C28.2354 30.3687 27.5038 29.6596 26.5989 29.6596Z" fill="black"/>
<path d="M14.197 40.0391C18.6565 40.0391 22.2736 37.1288 22.2736 33.5391C22.2736 29.9493 18.6565 27.0391 14.197 27.0391C9.73749 27.0391 6 29.9493 6 33.5391C6 37.1288 9.73509 40.0391 14.197 40.0391Z" fill="#009EE2"/>
<path d="M15.4458 31.3876C16.678 30.0138 18.5383 29.5386 19.5684 29.9621C20.3193 30.2698 20.7597 31.006 20.8174 31.7742C20.9257 33.2121 20.0401 34.6204 18.7477 35.2901C18.1749 35.5855 17.3495 35.4501 16.7719 34.9257C16.5047 34.6844 16.1221 33.9778 16.2809 33.3573C15.3544 34.0639 15.494 35.4797 16.1052 36.2478C16.9018 37.2549 18.4276 36.9742 19.4384 36.2872C19.4697 36.2651 19.294 36.5605 19.2194 36.6566C18.3434 37.7596 17.3013 38.3603 16.0571 38.0747C14.7455 37.7719 14.2281 35.977 14.7094 34.7804C15.4266 32.5005 16.9211 32.1164 17.477 32.0352C17.6286 32.013 18.0763 32.0376 18.0017 32.1312C17.6166 32.6064 17.8404 33.2219 18.2953 33.3155C19.5058 33.5641 20.2807 31.9465 19.7826 30.9321C19.3205 29.9916 17.8428 30.1836 17.0775 30.7031C16.317 31.2202 15.2244 32.1706 14.565 33.4632C14.1679 34.1156 13.4363 35.8244 12.9189 38.1314H10.1079C10.724 37.2327 11.4244 36.2232 11.9562 34.7829C13.3304 31.1636 11.0682 30.196 10.0718 30.617C9.14769 31.0725 9.0442 32.434 9.79748 33.1702C10.0983 33.4656 10.6494 33.5444 10.9912 33.3746C11.2294 33.2564 11.434 32.9289 11.3834 32.4094C11.9418 32.9289 11.7444 33.9605 11.0658 34.3225C9.65308 35.0783 8.15375 34.3077 7.66521 33.185C7.35957 32.4783 7.3716 31.6855 7.76388 30.9641C8.25002 30.0704 9.22951 29.5853 10.1729 29.5238C11.4316 29.4401 13.0753 30.649 13.0079 32.5867C13.8358 30.6342 14.1655 28.7852 14.1655 28.7852H17.0438C17.0438 28.7852 16.589 29.1889 15.4482 31.3852L15.4458 31.3876Z" fill="white"/>
<path d="M33.7429 28.7832H31.4277V29.4898H33.7429V28.7832Z" fill="black"/>
<path d="M34.7359 29.7676H30.416V30.6096H34.7359V29.7676Z" fill="black"/>
</g>
<defs>
<clipPath id="clip0_1160_13059">
<rect width="52" height="13" fill="white" transform="translate(6 27.0391)"/>
</clipPath>
</defs>
</svg>
