<svg width="64" height="64" viewBox="0 0 64 64" fill="none" xmlns="http://www.w3.org/2000/svg">
<rect width="80" height="80" transform="translate(0 -8)" fill="#EFEFEF"/>
<g clip-path="url(#clip0_1160_12842)">
<path d="M49.637 27.0814C47.481 27.0814 45.9633 27.6811 45.0991 28.8716C45.069 28.1362 44.9997 27.4039 44.9305 26.6715C44.8913 26.2767 44.6564 25.1374 44.2349 24.4262C43.8344 23.7511 43.3586 23.1212 42.7473 22.6148C42.4793 22.3948 42.1571 22.1869 41.8199 22.0874C41.6151 22.0271 41.4073 22 41.2056 22C40.5702 22 40.0101 22.2893 39.6668 22.7957C39.2483 23.4135 39.2603 24.2966 39.697 24.8993C39.7843 25.0229 39.8897 25.1254 39.9951 25.2098V25.7432C39.9951 25.7432 39.9951 25.7432 39.9951 25.7462V27.2321C39.6819 27.1688 39.3748 27.1417 39.0375 27.1417C37.4084 27.1417 36.1678 27.7625 35.4301 28.8837C35.4301 28.1543 35.4301 27.3376 35.4301 26.4244C35.4301 26.3942 35.4301 26.3671 35.4301 26.34C35.409 26.0989 35.3457 25.8728 35.2434 25.6739C34.7405 24.7095 33.6414 24.3689 32.8555 24.3689C32.0695 24.3689 30.9644 24.7125 30.4676 25.6709C30.314 25.9602 30.2929 26.2405 30.2809 26.4093V26.4424C30.2809 26.4424 30.2748 26.4635 30.2748 26.4756C30.2748 26.5027 30.2748 26.5178 30.2748 29.0585C29.4558 27.7294 27.911 27.0753 25.6135 27.0753C25.5834 27.0753 25.5532 27.0753 25.5231 27.0784H25.493C23.2527 27.0784 22.2891 27.7746 21.9699 28.0036L21.9458 28.0217C21.9458 28.0217 21.9307 28.0307 21.9217 28.0398C21.6055 28.2749 20.9852 28.8174 20.8226 29.5226C20.0397 28.1453 18.5491 27.1326 16.2546 27.1326H16.2245C12.7104 27.1417 11 28.6486 11 31.7318V33.5883C11 33.7631 11.0151 34.3116 11.0391 34.7426C11.0602 35.6046 11.1415 36.4665 11.2228 37.3255C11.262 37.7233 11.4969 38.8596 11.9184 39.5678C12.3189 40.2459 12.7977 40.8758 13.406 41.3791C13.674 41.6022 13.9962 41.8101 14.3334 41.9096C14.5382 41.9668 14.746 41.997 14.9477 41.997C15.5831 41.997 16.1432 41.7077 16.4864 41.2013C16.905 40.5865 16.893 39.7004 16.4563 39.0976C16.369 38.9741 16.2636 38.8746 16.1552 38.7902V38.2568C16.1552 38.2568 16.1552 38.2568 16.1552 38.2538V36.7649C16.4684 36.8282 16.7755 36.8583 17.1098 36.8583C18.8744 36.8583 20.1812 36.129 20.8889 34.827C21.4249 35.8336 22.6745 36.8312 25.5412 36.8312C25.6496 36.8312 26.3783 36.8101 26.7005 36.777C28.4079 36.6082 29.5883 35.9813 30.2718 34.8903V35.1133C30.2718 35.1525 30.2718 35.1947 30.2779 35.2339C30.308 35.5051 30.4103 35.7462 30.576 35.9542C31.2294 36.774 32.4821 36.8373 32.8524 36.8373C33.2228 36.8373 34.4815 36.7709 35.1319 35.9451C35.3698 35.6438 35.406 35.3243 35.424 35.1736C35.427 35.1163 35.4301 34.9898 35.4331 34.6432C36.2401 35.9331 37.7005 36.8644 39.8987 36.8644H39.9288C42.4462 36.8553 44.0391 36.0808 44.7408 34.5075C45.4936 36.0597 47.1076 36.8222 49.6189 36.8222C53.2926 36.8222 55.003 35.2881 55.003 31.991C55.003 28.6938 53.2505 27.0784 49.643 27.0784" fill="#171714"/>
<path d="M34.3518 26.4248C34.3458 26.3374 34.3247 26.253 34.2856 26.1747C34.0236 25.6714 33.3852 25.4453 32.8522 25.4453C32.3192 25.4453 31.6778 25.6714 31.4189 26.1747C31.3647 26.2802 31.3586 26.4188 31.3496 26.5333C31.3496 26.5574 31.3526 35.1168 31.3526 35.1168C31.3586 35.1741 31.3767 35.2313 31.4189 35.2796C31.6778 35.6111 32.3222 35.7618 32.8522 35.7618C33.3822 35.7618 34.0236 35.6111 34.2856 35.2796C34.3398 35.2132 34.3428 35.1198 34.3548 35.0445C34.3548 35.0294 34.3548 26.4248 34.3548 26.4248" fill="#7AC143"/>
<path d="M45.3184 31.9977C45.3184 29.4389 46.4957 28.1641 49.6365 28.1641C52.7772 28.1641 53.9184 29.4389 53.9184 31.9977C53.9184 34.5565 52.7772 35.75 49.6154 35.75C46.4536 35.75 45.3184 34.5715 45.3184 31.9977ZM50.8259 31.4371C50.8259 31.2201 50.8169 30.9941 50.7566 30.7952C50.6482 30.3672 50.3652 29.9483 49.6365 29.9483C48.9077 29.9483 48.6036 30.3672 48.4952 30.7952C48.435 30.9971 48.4229 31.2231 48.4229 31.4371C48.4109 31.639 48.4229 31.8289 48.4229 31.9947C48.4229 32.1604 48.4109 32.3503 48.4229 32.5522C48.4229 32.7662 48.435 32.9923 48.4952 33.1972C48.6036 33.6252 48.9017 34.0411 49.6365 34.0411C50.3712 34.0411 50.6482 33.6252 50.7566 33.1972C50.8169 32.9953 50.8259 32.7662 50.8259 32.5522C50.8379 32.3503 50.8259 32.1484 50.8259 31.9947C50.8259 31.841 50.8379 31.636 50.8259 31.4371Z" fill="#7AC143"/>
<path d="M25.6107 28.1529C23.53 28.1318 22.7741 28.7587 22.5664 28.9033C22.5664 28.9033 21.7744 29.494 21.8738 29.9371C21.9792 30.3982 22.5483 30.2083 22.9488 30.1269C23.6866 29.9793 24.4966 29.8828 25.2253 29.8828C25.7613 29.8828 26.9688 30.0546 26.9688 30.8503V31.2089C24.4002 30.8292 21.5938 31.2993 21.5938 33.2493C21.5938 34.9763 23.0964 35.7568 25.5475 35.7568C25.6469 35.7568 26.3304 35.7357 26.5984 35.7086C28.9983 35.4705 29.8957 34.2921 29.8957 32.0046C29.8957 29.4458 28.7544 28.1559 25.6137 28.1559M26.4298 34.0299C26.2852 34.0721 26.1196 34.0811 25.96 34.0932H25.5957C25.4481 34.0811 25.2855 34.0721 25.141 34.0299C24.8338 33.9546 24.5327 33.7496 24.5327 33.2252C24.5327 32.7008 24.8338 32.4808 25.141 32.4024C25.2855 32.3602 25.4481 32.3512 25.5957 32.3391H25.96C26.1196 32.3512 26.2852 32.3602 26.4298 32.4024C26.7369 32.4808 27.038 32.6948 27.038 33.2252C27.038 33.7556 26.7369 33.9546 26.4298 34.0299Z" fill="#7AC143"/>
<path d="M34.3518 26.4248C34.3458 26.3374 34.3247 26.253 34.2856 26.1747C34.0236 25.6714 33.3852 25.4453 32.8522 25.4453C32.3192 25.4453 31.6778 25.6714 31.4189 26.1747C31.3647 26.2802 31.3586 26.4188 31.3496 26.5333C31.3496 26.5574 31.3526 35.1168 31.3526 35.1168C31.3586 35.1741 31.3767 35.2313 31.4189 35.2796C31.6778 35.6111 32.3222 35.7618 32.8522 35.7618C33.3822 35.7618 34.0236 35.6111 34.2856 35.2796C34.3398 35.2132 34.3428 35.1198 34.3548 35.0445C34.3548 35.0294 34.3548 26.4248 34.3548 26.4248" fill="white"/>
<path d="M45.3184 31.9977C45.3184 29.4389 46.4957 28.1641 49.6365 28.1641C52.7772 28.1641 53.9184 29.4389 53.9184 31.9977C53.9184 34.5565 52.7772 35.75 49.6154 35.75C46.4536 35.75 45.3184 34.5715 45.3184 31.9977ZM50.8259 31.4371C50.8259 31.2201 50.8169 30.9941 50.7566 30.7952C50.6482 30.3672 50.3652 29.9483 49.6365 29.9483C48.9077 29.9483 48.6036 30.3672 48.4952 30.7952C48.435 30.9971 48.4229 31.2231 48.4229 31.4371C48.4109 31.639 48.4229 31.8289 48.4229 31.9947C48.4229 32.1604 48.4109 32.3503 48.4229 32.5522C48.4229 32.7662 48.435 32.9923 48.4952 33.1972C48.6036 33.6252 48.9017 34.0411 49.6365 34.0411C50.3712 34.0411 50.6482 33.6252 50.7566 33.1972C50.8169 32.9953 50.8259 32.7662 50.8259 32.5522C50.8379 32.3503 50.8259 32.1484 50.8259 31.9947C50.8259 31.841 50.8379 31.636 50.8259 31.4371Z" fill="white"/>
<path d="M25.6107 28.1529C23.53 28.1318 22.7741 28.7587 22.5664 28.9033C22.5664 28.9033 21.7744 29.494 21.8738 29.9371C21.9792 30.3982 22.5483 30.2083 22.9488 30.1269C23.6866 29.9793 24.4966 29.8828 25.2253 29.8828C25.7613 29.8828 26.9688 30.0546 26.9688 30.8503V31.2089C24.4002 30.8292 21.5938 31.2993 21.5938 33.2493C21.5938 34.9763 23.0964 35.7568 25.5475 35.7568C25.6469 35.7568 26.3304 35.7357 26.5984 35.7086C28.9983 35.4705 29.8957 34.2921 29.8957 32.0046C29.8957 29.4458 28.7544 28.1559 25.6137 28.1559M26.4298 34.0299C26.2852 34.0721 26.1196 34.0811 25.96 34.0932H25.5957C25.4481 34.0811 25.2855 34.0721 25.141 34.0299C24.8338 33.9546 24.5327 33.7496 24.5327 33.2252C24.5327 32.7008 24.8338 32.4808 25.141 32.4024C25.2855 32.3602 25.4481 32.3512 25.5957 32.3391H25.96C26.1196 32.3512 26.2852 32.3602 26.4298 32.4024C26.7369 32.4808 27.038 32.6948 27.038 33.2252C27.038 33.7556 26.7369 33.9546 26.4298 34.0299Z" fill="white"/>
<path d="M14.6279 40.872C14.9832 40.9714 15.3717 40.9232 15.5945 40.5977C15.7541 40.3657 15.7571 39.9769 15.5824 39.7328C15.5192 39.6453 15.3807 39.564 15.2843 39.5218C15.1368 39.4585 15.1308 39.4585 15.0193 39.4253C14.7935 39.356 14.5737 39.2777 14.3569 39.1782C13.8118 38.928 13.2909 38.6176 12.8452 38.2168C12.7097 38.0932 12.5772 37.9636 12.4478 37.834C12.4177 37.8069 12.2912 37.6622 12.2852 37.623C12.3936 38.6628 13.7697 40.6249 14.6279 40.872Z" fill="#F15D22"/>
<path d="M16.2311 28.209C12.7562 28.2211 12.0786 29.719 12.0786 31.7323V33.5978C12.0726 33.848 12.1208 34.9571 12.1449 35.1018C12.2653 35.8432 12.6478 36.5665 13.1747 37.118C13.795 37.76 14.3943 38.0644 15.0778 38.2573V35.2374C15.9932 35.6774 16.5051 35.7799 17.1134 35.7799C19.6218 35.7799 20.4197 34.065 20.4197 32.1482C20.4197 30.0174 19.1129 28.197 16.2341 28.209M17.4778 32.5882C17.4778 32.8052 17.4657 33.0312 17.4055 33.2332C17.3001 33.6611 17.014 34.077 16.2883 34.077C15.5626 34.077 15.2525 33.6611 15.1471 33.2332C15.0869 33.0312 15.0748 32.8052 15.0748 32.5882C15.0628 32.3863 15.0748 32.1964 15.0748 32.0306C15.0748 31.8649 15.0628 31.672 15.0748 31.47C15.0748 31.2561 15.0869 31.03 15.1471 30.8251C15.2555 30.3971 15.5506 29.9812 16.2883 29.9812C17.0261 29.9812 17.3001 30.4001 17.4055 30.8251C17.4657 31.027 17.4778 31.253 17.4778 31.47C17.4898 31.672 17.4778 31.8739 17.4778 32.0306C17.4778 32.1873 17.4898 32.3863 17.4778 32.5882Z" fill="white"/>
<path d="M41.5282 23.1275C41.1728 23.025 40.7814 23.0762 40.5616 23.4047C40.405 23.6368 40.399 24.0256 40.5736 24.2697C40.6368 24.3571 40.7754 24.4385 40.8747 24.4837C41.0193 24.547 41.0283 24.544 41.1397 24.5802C41.3686 24.6495 41.5854 24.7278 41.8022 24.8273C42.3472 25.0774 42.8682 25.3879 43.3168 25.7887C43.4523 25.9123 43.5848 26.0389 43.7143 26.1685C43.7444 26.1956 43.8739 26.3402 43.8769 26.3794C43.7685 25.3396 42.3924 23.3776 41.5312 23.1305" fill="#7AC143"/>
<path d="M39.923 35.7924C43.3979 35.7803 44.0755 34.2794 44.0755 32.2661V30.4036C44.0815 30.1504 44.0333 29.0443 44.0122 28.8966C43.8918 28.1552 43.5094 27.4319 42.9794 26.8834C42.3621 26.2414 41.7598 25.937 41.0763 25.7441V28.761C40.1609 28.321 39.649 28.2155 39.0407 28.2155C36.5324 28.2155 35.7344 29.9304 35.7344 31.8502C35.7344 33.981 37.0443 35.8014 39.92 35.7893M38.6763 31.4102C38.6763 31.1932 38.6884 30.9672 38.7486 30.7683C38.854 30.3403 39.1401 29.9214 39.8658 29.9214C40.5915 29.9214 40.9016 30.3403 41.007 30.7683C41.0673 30.9702 41.0793 31.1962 41.0793 31.4102C41.0883 31.6121 41.0793 31.802 41.0793 31.9678C41.0793 32.1335 41.0883 32.3264 41.0793 32.5283C41.0793 32.7423 41.0673 32.9684 41.007 33.1703C40.8986 33.5983 40.6035 34.0172 39.8658 34.0172C39.128 34.0172 38.854 33.5983 38.7486 33.1703C38.6884 32.9684 38.6763 32.7423 38.6763 32.5283C38.6673 32.3264 38.6763 32.1215 38.6763 31.9678C38.6763 31.8141 38.6673 31.6121 38.6763 31.4102Z" fill="white"/>
</g>
<defs>
<clipPath id="clip0_1160_12842">
<rect width="44" height="20" fill="white" transform="translate(11 22)"/>
</clipPath>
</defs>
</svg>
