<svg width="64" height="64" viewBox="0 0 64 64" fill="none" xmlns="http://www.w3.org/2000/svg">
<rect width="80" height="80" transform="translate(0 -8)" fill="#9F4363"/>
<g clip-path="url(#clip0_1160_13175)">
<path d="M31.6959 35.3875C31.4275 36.7325 30.7603 37.6318 29.8516 37.6636C28.8738 37.6995 28.2105 36.8598 27.8309 35.5109C27.4321 34.0903 27.2136 31.9336 27.6047 29.9719C27.9498 28.233 28.5709 27.5287 29.4643 27.4729C30.5111 27.4053 31.2396 28.3683 31.623 29.9241C32.0525 31.659 32.018 33.772 31.692 35.3915L31.6959 35.3875ZM28.8777 26.9437C26.5502 27.2143 24.4184 29.0726 24.5296 32.8329C24.5986 35.1329 25.3271 36.6529 26.8915 37.592C28.5402 38.5749 32.2442 38.738 33.9581 35.9327C34.886 34.4087 34.9589 32.3833 34.6483 30.7279C34.3914 29.3471 33.8009 28.2608 32.804 27.6043C31.9796 27.0591 30.5264 26.7527 28.8738 26.9437H28.8777Z" fill="white"/>
<path d="M14.6523 27.2055V27.1816H20.3731C21.811 27.1816 22.5548 27.7109 22.9306 28.3953C23.2067 28.8967 23.4099 30.0546 22.7005 31.0653C22.1676 31.8254 21.2013 32.1039 20.8217 32.2153C21.4966 33.4051 23.709 36.871 24.587 37.9414C24.587 37.9414 23.8317 38.0249 22.459 37.9891C21.7305 37.9692 21.2013 37.7703 20.6569 36.9187C20.0472 35.9677 18.8049 33.421 18.2489 32.1835C18.502 32.1437 18.8471 32.0681 19.1538 31.9487C19.6599 31.7497 20.3425 31.3001 20.3731 30.0785C20.4 29.0757 19.9859 28.4271 19.4797 28.1526C18.9353 27.8621 18.0035 27.87 17.6891 28.0411C17.6508 28.9444 17.6738 35.339 17.6738 35.339C17.6738 36.0314 17.7121 37.2928 17.9729 37.9254V37.9453H14.7597V37.9254C15.0511 37.2848 15.0396 36.3815 15.0818 35.5578C15.1393 34.4118 15.1278 30.7629 15.0741 29.2588C15.0473 28.5186 14.9284 27.5358 14.66 27.2135L14.6523 27.2055Z" fill="white"/>
<path d="M9.57227 25.2402V25.3755C10.9795 26.1873 12.3675 28.6623 12.9465 30.0113H13.165V25.2402H9.57227Z" fill="#FF7F00"/>
<path d="M8.55161 25.4074V25.2402C7.56619 25.2402 6.73798 25.4273 5.88293 25.8411C2.03713 27.6954 1.86842 35.0927 6.41207 37.4245C9.16893 38.8411 12.267 38.1129 13.2256 37.4921L13.54 36.7242C13.54 36.7242 12.4664 37.1619 10.5838 36.5013C8.22186 35.6697 6.72264 32.9201 6.72264 29.7566C6.72264 27.4248 7.47033 25.7973 8.55544 25.4074H8.55161Z" fill="white"/>
<path d="M46.1313 37.9374H43.4397C43.4397 37.9374 42.4619 34.0617 42.2012 33.0947C41.7717 34.4994 40.7748 37.9374 40.7748 37.9374H38.3975C37.6805 34.3999 37.0939 32.3188 36.4382 30.0427C36.0164 28.5823 35.5678 27.6751 35.123 27.2095V27.1816C35.123 27.1816 37.8339 27.1816 38.0256 27.1816C38.2173 27.1816 38.3247 27.305 38.3707 27.4403C38.7848 28.7614 39.8507 32.9873 40.4757 35.8205C40.6329 35.331 41.8292 31.7776 41.5992 30.7987C41.2081 29.1314 40.725 27.6671 40.3109 27.2055V27.1816H43.4665C43.5125 27.5875 43.6199 28.073 43.7579 28.7892C44.2027 31.137 45.1459 34.8615 46.1313 37.9374Z" fill="white"/>
<path d="M45.4688 27.2055V27.1816H48.7969C48.1949 28.6141 47.2019 31.1648 46.8069 32.4819L46.6804 32.458C46.5884 30.2735 45.9595 27.7467 45.4688 27.2015V27.2055Z" fill="white"/>
<path d="M58.6354 37.9414C58.5703 36.29 58.5664 30.8624 58.6661 29.2707C58.7083 28.5982 58.8272 27.8422 58.9997 27.2015V27.1816H56.9637V27.2055C57.1592 27.7228 57.3126 28.5266 57.3586 29.2747C57.4008 30.0108 57.4085 32.9475 57.4085 34.5352C55.6447 31.6542 53.1332 27.1816 53.1332 27.1816H49.8242V27.2095C50.2345 27.7905 50.3879 28.7972 50.4147 29.788C50.4377 30.6992 50.4799 33.8428 50.3303 35.721C50.2767 36.3895 50.131 37.2888 49.9392 37.9175V37.9414H52.0673V37.9215C51.8832 37.3206 51.7299 36.477 51.6877 35.7647C51.6378 34.8893 51.634 29.788 51.634 29.788C52.5887 31.4274 56.2773 37.9414 56.2773 37.9414H58.6239H58.6354Z" fill="white"/>
</g>
<defs>
<clipPath id="clip0_1160_13175">
<rect width="56" height="13" fill="white" transform="translate(3 25.2402)"/>
</clipPath>
</defs>
</svg>
