<svg width="64" height="64" viewBox="0 0 64 64" fill="none" xmlns="http://www.w3.org/2000/svg">
<rect width="80" height="80" transform="translate(0 -8)" fill="#C70039"/>
<g clip-path="url(#clip0_1160_13037)">
<path d="M9.59515 38.5195C12.6864 38.5195 15.1932 36.056 15.1932 33.0181C15.1932 29.9802 12.6864 27.5195 9.59515 27.5195C6.50392 27.5195 4 29.9831 4 33.0181C4 36.0532 6.50679 38.5195 9.59515 38.5195Z" fill="#C70039"/>
<path d="M9.375 30.6053V35.4282H10.9364V34.9974H9.82192V30.6053H9.375Z" fill="white"/>
<path d="M7.81101 31.9229C8.18058 31.9229 8.4814 31.6273 8.4814 31.2641C8.4814 30.9009 8.18058 30.6053 7.81101 30.6053C7.44144 30.6053 7.14062 30.9009 7.14062 31.2641C7.14062 31.6273 7.44144 31.9229 7.81101 31.9229Z" fill="white"/>
<path d="M9.82059 28.4186C9.76329 28.4158 9.65156 28.413 9.59426 28.413C7.01299 28.413 4.91016 30.4823 4.91016 33.0191C4.91016 34.2494 5.39719 35.4066 6.28244 36.2737C7.1677 37.1437 8.34517 37.6223 9.59426 37.6223C10.8434 37.6223 12.0237 37.1437 12.909 36.2737C13.7913 35.4038 14.2812 34.2466 14.2812 33.0191V32.8079H14.0922H10.935V33.2359H13.8343V33.2978C13.6853 35.4685 11.8432 37.1888 9.59426 37.1888C8.46263 37.1888 7.39402 36.7524 6.59185 35.964C5.78968 35.1757 5.34849 34.1284 5.34849 33.0134C5.34849 31.8985 5.78968 30.8512 6.59185 30.06C7.39402 29.2717 8.45976 28.8381 9.59426 28.8381C9.64583 28.8381 9.76616 28.8381 9.82059 28.8409V28.4102V28.4186Z" fill="white"/>
<path d="M19.2978 29.3672H17.6133V36.5325H22.7873V35.1361H19.2978V29.3672Z" fill="white"/>
<path d="M26.496 33.8011H27.8682V35.054C27.6161 35.1469 27.1234 35.2426 26.6535 35.2426C25.138 35.2426 24.6309 34.4881 24.6309 32.948C24.6309 31.408 25.1122 30.6196 26.6277 30.6196C27.47 30.6196 27.9513 30.8787 28.3495 31.377L29.3952 30.431C28.7564 29.5329 27.6391 29.2598 26.5905 29.2598C24.2327 29.2598 22.9922 30.5239 22.9922 32.9368C22.9922 35.3496 24.1124 36.6391 26.579 36.6391C27.7107 36.6391 28.8165 36.3547 29.4182 35.9409V32.4638H26.4931V33.8011H26.496Z" fill="white"/>
<path d="M59.7629 30.7565V29.2559H58.4766V33.251H59.6655C59.7457 32.8878 59.7629 32.4542 59.7629 32.1136V31.8067H61.0005V30.7565H59.7629Z" fill="white"/>
<path d="M36.6502 30.5464H36.1202V29.2682H34.9141V33.0888H35.9913C36.0801 32.8354 36.1202 32.354 36.1202 32.0696V31.5487H36.6502V33.3563H37.7503C37.8534 33.0719 37.8878 32.4947 37.8878 32.1343V29.2598H36.6502V30.5464Z" fill="white"/>
<path d="M35.2871 33.4062C33.3934 33.4062 32.8262 34.1805 32.8262 35.0561C32.8262 35.9317 33.3934 36.706 35.2871 36.706C37.1808 36.706 37.7996 35.9571 37.7996 35.0561C37.7996 34.1552 37.2152 33.4062 35.2871 33.4062ZM35.2957 35.7712C34.5222 35.7712 34.1813 35.5066 34.1813 35.0533C34.1813 34.6338 34.5222 34.3522 35.2957 34.3522C36.0692 34.3522 36.4188 34.6338 36.4188 35.0533C36.4188 35.5038 36.0864 35.7712 35.2957 35.7712Z" fill="white"/>
<path d="M42.144 29.9935V29.1545H41.296C40.8749 29.1545 40.2417 29.0587 39.8378 28.918L39.6602 29.8133C40.1415 29.9569 40.6973 29.9963 41.2015 29.9963H42.1412L42.144 29.9935Z" fill="white"/>
<path d="M34.2256 33.1679L34.8444 32.1825C33.8245 31.7404 33.4378 31.1633 33.4378 29.9639V29.3867H32.1772V29.9723C32.1772 31.3294 31.9681 31.946 30.8594 32.4696L31.3092 33.3143C31.9767 33.0862 32.5955 32.6583 32.9164 32.098C33.157 32.5794 33.7271 33.013 34.2256 33.1707" fill="white"/>
<path d="M57.3452 30.7271V29.3926H53.7555V30.4033H56.0216V30.8454C56.0216 31.5408 55.2596 32.1714 53.5234 32.8753L53.956 33.7678C56.3597 32.788 57.3452 32.0391 57.3452 30.7271Z" fill="white"/>
<path d="M49.1279 35.4254V33.7811H47.7871V35.9631C47.7871 36.4136 48.0192 36.6276 48.4776 36.6276H53.0127V35.5605H49.2625C49.1594 35.5605 49.125 35.538 49.125 35.4254" fill="white"/>
<path d="M49.8374 31.8162H51.4589V34.5416H52.6478C52.7452 34.1558 52.7997 33.483 52.7997 33.0269V29.2598H51.4589V30.7604H50.1095V29.3696H46.494V30.3803H48.8003V30.8702C48.8003 31.5487 47.9752 32.2357 46.2734 32.9283L46.7232 33.7955C48.382 33.1085 49.3933 32.5764 49.8402 31.8134" fill="white"/>
<path d="M41.3442 35.6922V35.5289H44.7075C44.8451 35.3234 44.8766 34.9123 44.8766 34.5238V33.7383H40.0664V34.521H43.5988V34.7941H40.0664V36.1568C40.0664 36.4805 40.2182 36.6467 40.6279 36.6467H45.1058V35.802H41.4788C41.3757 35.802 41.3413 35.7851 41.3413 35.6922" fill="white"/>
<path d="M57.4098 33.3398C55.6507 33.3398 55.1035 34.1282 55.1035 35.0291C55.1035 35.9301 55.6507 36.7099 57.4098 36.7099C59.1688 36.7099 59.7647 35.9526 59.7647 35.0291C59.7647 34.1056 59.2089 33.3398 57.4098 33.3398ZM57.4184 35.7949C56.7594 35.7949 56.4156 35.5275 56.4156 35.0291C56.4156 34.5646 56.7594 34.2718 57.4184 34.2718C58.0773 34.2718 58.4297 34.5646 58.4297 35.0291C58.4297 35.5275 58.0916 35.7949 57.4184 35.7949Z" fill="white"/>
<path d="M44.8754 29.2587H43.5977V32.3275C43.0677 32.5894 42.3113 32.6738 41.6753 32.6738V32.4767C42.3514 32.3444 42.6551 31.9981 42.6551 31.4998C42.6551 31.3646 42.6208 31.2408 42.5606 31.1281H43.3055V30.2835H38.6328V31.1281H39.4407C39.3777 31.2408 39.3462 31.3646 39.3462 31.4998C39.3462 32.0094 39.6728 32.3613 40.3833 32.4852V32.671H38.6328V33.4988H41.3C42.1824 33.4988 43.1307 33.403 43.5977 33.1525V33.4453H44.8754V31.9474H46.0242V30.8888H44.8754V29.2559V29.2587ZM40.495 31.4604C40.495 31.2239 40.6583 31.1056 40.9935 31.1056C41.3287 31.1056 41.4748 31.2239 41.4748 31.4604C41.4748 31.6969 41.2943 31.8236 40.9677 31.8236C40.6411 31.8236 40.495 31.6969 40.495 31.4604Z" fill="white"/>
</g>
<defs>
<clipPath id="clip0_1160_13037">
<rect width="57" height="11" fill="white" transform="translate(4 27.5195)"/>
</clipPath>
</defs>
</svg>
