<svg width="64" height="64" viewBox="0 0 64 64" fill="none" xmlns="http://www.w3.org/2000/svg">
<rect width="80" height="80" transform="translate(0 -8)" fill="#EFEFEF"/>
<g clip-path="url(#clip0_1160_12858)">
<path d="M46.9367 27.3407C46.9367 27.3407 45.0969 25.027 41.9246 24.6121C41.9246 24.6121 41.3366 14.0098 31.0184 14H31.0089H30.9852C20.6622 14.0049 20.079 24.6121 20.079 24.6121C16.9019 25.027 15.0668 27.3407 15.0668 27.3407C11.7618 30.8212 13.4119 36.0393 13.4119 36.0393C15.4936 43.2052 20.5294 46.378 20.5294 46.378C24.5742 49.1653 28.5052 49.7169 30.9947 49.7559H31.0042C33.4936 49.7169 37.4246 49.1653 41.4741 46.378C41.4741 46.378 46.5052 43.2052 48.5869 36.0393C48.5869 36.0393 50.2418 30.8212 46.932 27.3407H46.9367Z" fill="#E03A3E"/>
<path d="M45.6281 28.1456C45.6281 28.1456 44.0396 26.3102 40.5022 25.9344C40.5022 25.9344 40.3078 15.415 31.0043 15.4102C21.6961 15.415 21.5111 25.9344 21.5111 25.9344C17.9737 26.3053 16.3805 28.1456 16.3805 28.1456C13.3741 31.3136 14.9579 35.824 14.9579 35.824C16.8784 42.448 21.5064 45.2645 21.5064 45.2645C25.2382 47.8321 28.7709 48.3495 31.0043 48.3495H31.009C33.2424 48.3495 36.7798 47.8272 40.5069 45.2645C40.5069 45.2645 45.1349 42.4529 47.0601 35.824C47.0601 35.824 48.6439 31.3136 45.6328 28.1456H45.6281Z" fill="white"/>
<path d="M45.6945 32.1821C45.6945 32.1821 45.0069 28.2721 41.1992 28.1062H38.008C38.4205 27.1397 38.5628 26.344 38.5533 24.9187C38.5248 20.7012 35.234 17.4062 31.0375 17.4062H30.9663C26.7698 17.4062 23.4553 20.6572 23.4221 24.8796C23.4126 26.305 23.5975 27.1982 24.0385 28.1062H20.6576C16.8499 28.3649 16.3093 32.1821 16.3093 32.1821C15.9869 34.9645 16.9305 36.7706 16.9305 36.7706C16.9305 36.7706 19.3299 43.6435 26.9642 45.7865C26.9642 45.7865 28.6144 46.3234 30.9995 46.3478C33.3799 46.3234 35.0348 45.7865 35.0348 45.7865C42.6644 43.6484 45.0638 36.7706 45.0638 36.7706C45.0638 36.7706 46.0122 34.9596 45.6897 32.1821H45.6945ZM44.7935 36.6778C44.7935 36.6778 42.4416 43.419 34.959 45.5131C34.959 45.5131 33.3325 46.0403 30.9995 46.0647C28.6618 46.0403 27.0448 45.5131 27.0448 45.5131C19.5575 43.4141 17.2103 36.6778 17.2103 36.6778C17.2103 36.6778 16.2809 34.9059 16.5986 32.1772C16.5986 32.1772 17.2719 28.4918 21.0037 28.3844H24.4605C23.9484 27.3056 23.7208 26.5149 23.7303 25.1188C23.7588 20.9843 26.8504 17.6845 30.9663 17.6845H31.0375C35.1486 17.6845 38.2403 20.9794 38.2688 25.1188C38.2782 26.5149 38.0554 27.3056 37.5433 28.3844H41.0001C44.7319 28.4869 45.4052 32.1772 45.4052 32.1772C45.7229 34.901 44.7888 36.6778 44.7888 36.6778H44.7935Z" fill="#E03A3E"/>
<path d="M44.1254 30.5767C42.8926 28.8291 40.8109 28.8535 40.8109 28.8535H35.647L35.5949 28.9609C34.5944 30.4888 32.9157 31.4992 31.0048 31.5383C29.0938 31.4992 27.4105 30.4839 26.4099 28.9609L26.3625 28.8535H21.1939C21.1939 28.8535 19.1123 28.8291 17.8841 30.5767C17.8841 30.5767 16.2197 32.3535 17.6802 36.3952C17.6802 36.3952 19.8425 42.7752 27.1544 44.9181C27.1544 44.9181 28.7097 45.4257 30.9574 45.455C30.9574 45.455 30.9858 45.455 31 45.455C31.0143 45.455 31.0285 45.455 31.0427 45.455C33.2903 45.4257 34.8457 44.9181 34.8457 44.9181C42.1576 42.7752 44.3199 36.3952 44.3199 36.3952C45.7851 32.3535 44.1254 30.5767 44.1254 30.5767Z" fill="#E03A3E"/>
<path d="M24.6883 37.5735C26.1346 37.2074 27.1873 36.1091 27.1873 34.8058C27.1873 33.2047 25.5987 31.9062 23.6356 31.9062C21.6725 31.9062 20.084 33.2047 20.084 34.8058C20.084 36.1042 21.1319 37.2025 22.5687 37.5686V39.3064H20.2452V40.229H27.0308V39.3064H24.6836V37.5686L24.6883 37.5735ZM23.6167 36.8267C22.7442 36.8267 22.0376 35.8846 22.0376 34.7277C22.0376 33.5708 22.7442 32.6287 23.6167 32.6287C24.4891 32.6287 25.1957 33.5708 25.1957 34.7277C25.1957 35.8846 24.4891 36.8267 23.6167 36.8267Z" fill="white"/>
<path d="M27.7653 35.6493V35.6591C27.7701 35.991 28.0309 36.2595 28.3533 36.2595C28.3533 36.2595 28.3533 36.2595 28.3628 36.2595H30.7859V35.3516H29.7379V32.9597H30.7859V32.0469H27.7559V35.6396L27.7606 35.6493H27.7653Z" fill="white"/>
<path d="M31.9248 36.2595H34.5565V35.3564H33.2952V32.9548H34.5565V32.0469H31.332V35.6542L31.3415 35.664C31.3463 35.991 31.6071 36.2497 31.9248 36.2546V36.2595Z" fill="white"/>
<path d="M34.6368 36.9238H27.6758V37.8757H30.004V39.7697C30.004 39.7989 29.9993 39.8331 29.9993 39.8575C29.9993 40.3261 30.4735 40.702 31.0567 40.702C31.64 40.702 32.1094 40.3261 32.1141 39.8624V37.8708H34.6368V36.9238Z" fill="white"/>
<path d="M39.9297 31.9004V39.7008C39.9297 40.1645 40.3659 40.5404 40.9444 40.5404C41.5229 40.5404 41.9165 40.1645 41.9165 39.7008V31.9004H39.9297Z" fill="white"/>
<path d="M35.2826 32.9841H37.1983V37.9386C37.1983 37.9386 37.1983 38.8856 35.7995 39.159C35.4486 39.2127 35.2637 39.4079 35.2637 39.7106C35.2637 40.0132 35.4439 40.2524 35.7426 40.2524C35.7426 40.2524 39.0714 40.3988 39.0714 38.1485V32.0371H35.2732V32.9841H35.2826Z" fill="white"/>
<path d="M36.5329 25.2508C36.5329 25.2508 36.8838 23.1176 34.7311 20.4963C34.7311 20.4963 32.5119 17.0648 29.662 19.2174C29.662 19.2174 28.3153 18.1582 27.2295 19.3004C27.2295 19.3004 26.319 19.8081 26.8169 21.3701C26.8169 21.3701 24.1568 24.5283 26.0677 27.3351C26.0677 27.3351 26.8074 28.082 26.8691 28.7702C26.8691 28.7702 27.5519 30.1419 29.7521 30.8839C29.7521 30.8839 33.2943 32.1725 35.7031 28.1357C35.7031 28.1357 38.3159 27.2375 36.5329 25.2459V25.2508ZM35.5988 26.8568C35.4755 26.6713 35.1104 26.7054 35.1104 26.7054C34.622 26.7054 34.7168 27.1155 34.7168 27.1155C34.6599 27.6817 33.9012 28.3163 33.9012 28.3163C33.6594 28.3797 33.8159 28.6921 33.8159 28.6921C33.8775 29.0045 33.6357 29.1656 33.6357 29.1656C32.6684 30.2395 30.6578 30.1273 30.6578 30.1273C29.534 30.2298 28.0261 28.9216 28.0261 28.9216C27.6562 28.7702 27.7511 28.453 27.7511 28.453C27.7795 28.1064 27.5329 27.9843 27.5329 27.9843C26.2764 26.9885 26.3285 25.5144 26.3285 25.5144C26.1626 23.7571 27.5804 22.117 27.5804 22.117C28.9555 22.2976 29.6525 21.7557 29.6525 21.7557C31.6394 22.9614 31.8765 21.5165 31.8765 21.5165C30.9044 21.6191 31.3264 21.0479 31.3264 21.0479C31.5682 20.7014 32.1515 20.8234 32.1515 20.8234C35.1673 21.3359 34.2094 23.4105 34.2094 23.4105C35.1294 23.9377 34.7026 24.3819 34.7026 24.3819C33.4839 24.0402 34.4039 25.324 34.4039 25.324C34.8022 25.3533 34.9919 26.1685 34.9919 26.1685C34.9634 26.8275 35.6035 26.3491 35.6035 26.3491C36.1109 25.6852 36.2105 26.5004 36.2105 26.5004C36.1583 27.2521 35.6035 26.8519 35.6035 26.8519L35.5988 26.8568Z" fill="#E03A3E"/>
<path d="M27.529 23.0632C27.529 23.0632 28.4679 22.492 28.8377 22.9899C28.8377 22.9899 29.1128 23.1754 29.0464 22.7068C29.0464 22.7068 28.558 21.6769 27.4341 22.8142C27.4341 22.8142 26.8604 23.4439 27.529 23.0632Z" fill="#E03A3E"/>
<path d="M32.7631 21.814L32.0186 22.1459C31.5207 22.3998 31.8147 22.7512 31.8147 22.7512C32.2273 23.1808 32.5687 22.8342 32.5687 22.8342C33.1187 22.1947 33.7209 22.4974 33.7209 22.4974C33.5455 21.2966 32.7583 21.814 32.7583 21.814H32.7631Z" fill="#E03A3E"/>
<path d="M31.4585 25.442C31.8853 25.442 32.2267 25.0807 32.222 24.6414C32.222 24.207 31.8711 23.8506 31.449 23.8555C31.0223 23.8555 30.6809 24.2167 30.6856 24.6512C30.6856 25.0954 31.0365 25.442 31.4585 25.442Z" fill="#E03A3E"/>
<path d="M29.183 24.4304C29.183 24.4304 28.5144 24.5915 29.2779 25.0552C29.2779 25.0552 29.9844 25.4604 29.9797 25.0162C29.9797 25.0162 29.496 25.0796 29.8848 24.4499C29.8848 24.4499 29.9085 23.664 29.3632 23.6055C29.3632 23.6055 29.8232 24.4207 29.183 24.4255V24.4304Z" fill="#E03A3E"/>
<path d="M28.5477 24.3081C28.5477 24.3081 29.2162 24.1422 28.486 24.1227C28.486 24.1227 27.7842 24.2203 27.5092 23.6589C27.5092 23.6589 26.9259 23.1024 27.2674 23.7858C27.2674 23.7858 27.5187 24.6596 28.5524 24.3081H28.5477Z" fill="#E03A3E"/>
<path d="M32.9471 26.6904L32.4634 27.0077C32.4634 27.0077 32.0366 27.198 32.1884 26.7001C32.1884 26.7001 32.269 25.4115 31.4818 25.9533C31.4818 25.9533 30.9365 26.5537 30.543 26.6806C30.543 26.6806 29.8175 27.0955 29.0493 26.5342C29.0493 26.5342 28.2479 25.6311 27.7927 25.6995C27.7927 25.6995 27.1194 25.4847 27.7026 25.8898C27.7026 25.8898 28.191 25.9191 28.4044 26.2315C28.4044 26.2315 28.8359 26.7294 29.1726 26.8807C29.1726 26.8807 29.6657 27.4421 30.7611 27.4323C30.7611 27.4323 32.2548 27.6081 33.132 26.8173C33.132 26.8173 33.4639 26.3438 32.9471 26.6953V26.6904ZM31.1926 27.0418L30.8275 26.9784C30.8275 26.9784 31.3728 26.7929 31.5577 26.5391C31.5577 26.5391 31.4392 26.9784 31.1926 27.0418Z" fill="#E03A3E"/>
<path d="M33.6028 26.2219C33.6028 26.2219 33.2471 26.0608 33.5174 26.4171C33.5174 26.4171 33.6691 26.5343 33.6691 26.7051C33.6691 26.7051 33.783 26.6124 33.7213 26.3829C33.7213 26.3829 33.6597 26.2463 33.598 26.2219H33.6028Z" fill="#E03A3E"/>
<path d="M29.8554 28.7071C29.7179 28.6144 29.5187 28.8194 29.5187 28.8194C29.1062 28.961 28.6652 28.6827 28.6652 28.6827C28.3617 28.6632 28.2432 28.4631 28.2052 28.3703C28.2052 28.1995 28.1104 28.1214 28.1104 28.1214C27.8211 27.7797 27.8401 28.1848 27.8401 28.1848C27.9634 28.3069 27.9634 28.4338 27.9634 28.4338C27.9349 28.6046 28.1199 28.7608 28.1199 28.7608C29.0777 29.5174 29.22 29.2392 29.22 29.2392C29.2769 29.2246 29.5092 29.1269 29.5092 29.1269C29.5092 29.0928 29.8127 28.8585 29.8127 28.8585C30.192 28.6534 29.8554 28.7023 29.8554 28.7023V28.7071Z" fill="#E03A3E"/>
<path d="M45.4953 46.9101C44.6655 46.9101 43.9922 47.6032 43.9922 48.4575C43.9922 49.3117 44.6655 50.0049 45.4953 50.0049C46.3252 50.0049 46.9985 49.3117 46.9985 48.4575C46.9985 47.6032 46.3252 46.9101 45.4953 46.9101ZM45.4953 49.7266C44.8125 49.7266 44.2577 49.1555 44.2577 48.4526C44.2577 47.7497 44.8125 47.1786 45.4953 47.1786C46.1782 47.1786 46.733 47.7497 46.733 48.4526C46.733 49.1555 46.1782 49.7266 45.4953 49.7266Z" fill="#E03A3E"/>
<path d="M46.1927 49.1653L46.1784 48.8236C46.169 48.56 46.0694 48.5161 45.9745 48.4721C46.0836 48.3989 46.2116 48.3013 46.2116 48.023C46.2116 47.6276 45.9319 47.5154 45.6474 47.5154H44.8555V49.3947H45.0878V48.5893H45.6521C45.9271 48.5893 45.9556 48.7699 45.9556 48.9261C45.9556 48.9993 45.9651 49.2824 45.9935 49.3947H46.278V49.3508C46.2069 49.3068 46.1974 49.2678 46.1927 49.1653ZM45.6236 48.3696H45.0878V47.7302H45.6663C45.7801 47.7302 45.9745 47.7546 45.9745 48.0426C45.9745 48.3306 45.7944 48.3696 45.6236 48.3696Z" fill="#E03A3E"/>
</g>
<defs>
<clipPath id="clip0_1160_12858">
<rect width="36" height="36" fill="white" transform="translate(13 14)"/>
</clipPath>
</defs>
</svg>
