<svg width="64" height="64" viewBox="0 0 64 64" fill="none" xmlns="http://www.w3.org/2000/svg">
<rect width="80" height="80" transform="translate(0 -8)" fill="#EFEFEF"/>
<g clip-path="url(#clip0_1160_12960)">
<path d="M28.5797 37.6738V34.2883C28.5797 32.1975 27.6895 31.076 25.5144 31.076C23.6994 31.076 22.5322 32.0937 22.3521 33.596C22.3417 33.6687 22.3105 33.8972 22.3694 33.9214C22.4456 33.9387 22.553 33.7518 22.6396 33.6549C23.1383 33.101 23.7722 32.4779 24.9879 32.4641C25.601 32.4571 26.2106 32.6718 26.3803 33.1979C26.4946 33.5545 26.4703 33.6826 26.1621 33.8003C25.691 33.9803 25.2373 34.0322 24.8563 34.1568C23.1176 34.7072 22.127 35.853 22.127 37.3692C22.127 38.8854 23.1002 39.9965 24.316 39.9965C25.1022 39.9965 25.7083 39.7854 26.1136 39.3665C26.2348 39.235 26.3526 39.0965 26.453 38.9442C26.453 39.3388 26.5223 39.8373 27.0176 39.8408C27.3363 39.8477 28.9365 39.8408 28.9365 39.8408L28.8464 39.6642C28.5797 39.1519 28.5866 38.1342 28.5866 37.6669M25.9023 37.8226C25.6425 38.1446 25.2719 38.3419 24.9429 38.3211C24.503 38.2969 24.1601 37.8226 24.1601 37.1892C24.1601 36.2926 24.6658 35.6003 25.5802 35.2818C25.5802 35.2818 26.2764 35.0187 26.5431 34.9218C26.5535 35.0326 26.5569 35.1468 26.5569 35.2507C26.5569 36.6665 26.1725 37.5007 25.9058 37.8192" fill="#EC1C24"/>
<path d="M38.5082 31.6719C38.1826 31.8069 37.9609 32.0631 37.9609 32.4681V39.8448H39.9837V31.125C39.9837 31.125 38.9342 31.4954 38.5082 31.6719Z" fill="#EC1C24"/>
<path d="M49.6546 30.8535C48.6605 30.857 48.0959 31.3174 47.5071 31.9924C47.1019 31.2724 46.4126 30.8535 45.5848 30.8535C44.8055 30.8535 44.1058 31.262 43.5967 31.8712C43.6105 31.1962 43.2087 31.0543 42.6234 31.0543H41.709V39.8641H43.6071V34.5609C43.6071 33.2524 44.0435 32.5359 44.847 32.5359C45.5155 32.5359 45.9069 33.2316 45.9069 34.3982V39.8676H47.805V34.5159C47.805 33.204 48.2275 32.5393 49.0727 32.5393C50.0044 32.5393 50.1048 33.8444 50.1048 34.4017V39.8641H52.0029V34.0036C51.9787 31.9924 51.1231 30.857 49.658 30.8639" fill="#EC1C24"/>
<path d="M18.6141 28.5879C18.6141 28.5879 16.3627 35.7984 16.2796 36.0719C16.2311 35.7881 15.3236 30.2287 15.3236 30.2287C15.1192 29.0241 14.1252 28.5879 13.5087 28.5879H12.7328L10 39.9766H10.8105C11.2504 39.9766 12.2375 39.5231 12.5423 38.4708C12.8021 37.5742 13.6992 33.3718 13.9243 32.3091C14.0109 32.773 15.3167 39.9766 15.3167 39.9766H16.5324C16.5324 39.9766 18.8046 32.7003 18.9362 32.2849C18.9362 32.7245 18.9292 39.9766 18.9292 39.9766H21.1113V28.5879H18.6106H18.6141Z" fill="#EC1C24"/>
<path d="M34.5664 23.3106C33.7144 23.591 31.5392 23.7468 31.5773 24.8545C31.6189 26.1907 34.9405 26.6753 37.1572 27.4334C38.9722 28.0496 39.9039 28.6034 39.7099 29.6765C39.5749 30.4173 38.47 30.8673 37.7426 31.0854C37.4967 31.1581 37.0256 31.3 36.6515 31.8331C36.2186 32.4597 35.2973 33.9412 34.3448 35.492L37.0603 39.8502H34.7604L33.2018 37.3578C32.8069 37.9982 32.4467 38.5175 32.1627 38.9744C31.6951 39.7221 31.4838 39.8571 30.6075 39.8571L29.319 39.8467L32.038 35.4851L29.2913 31.0612L31.5981 31.0542L33.1948 33.6366L34.1681 32.0719C34.5664 31.4246 35.086 31.0958 35.7545 31.1027C36.2359 31.1096 36.8524 31.1927 37.2958 30.9608C38.1201 30.5211 38.5704 30.2234 38.6224 29.5173C38.7159 28.2019 36.7208 28.2399 34.1404 27.8038C31.4249 27.3503 29.1562 26.5957 29.1562 25.1868C29.1562 23.5564 32.7203 22.7637 34.5664 23.0648C34.7569 23.0994 34.75 23.2587 34.5699 23.3141" fill="#EC1C24"/>
</g>
<defs>
<clipPath id="clip0_1160_12960">
<rect width="42" height="17" fill="white" transform="translate(10 23)"/>
</clipPath>
</defs>
</svg>
