<svg width="64" height="64" viewBox="0 0 64 64" fill="none" xmlns="http://www.w3.org/2000/svg">
<rect width="80" height="80" transform="translate(0 -8)" fill="#5C9ABD"/>
<g clip-path="url(#clip0_1160_12700)">
<path d="M58.1491 22.7875C56.9533 21.6335 55.3665 21 53.6734 21C51.9803 21 50.3936 21.6335 49.1978 22.7875C48.0049 23.9415 47.3438 25.4791 47.3438 27.109C47.3438 28.7388 48.002 30.2735 49.1978 31.4245C50.3936 32.5815 51.9832 33.2179 53.6734 33.2179C55.3637 33.2179 56.9561 32.5815 58.1491 31.4245C59.342 30.2735 60.0002 28.7388 60.0002 27.109C60.0002 25.4791 59.342 23.9415 58.1491 22.7875ZM53.2796 32.5279C52.9433 32.5041 52.6127 32.4476 52.285 32.3584C51.8337 32.2067 51.4054 31.9836 51.0088 31.6951C51.7418 31.4334 52.5035 31.2847 53.2796 31.249V32.5279ZM53.2796 30.6155C52.308 30.6542 51.3566 30.8594 50.454 31.2223C50.3649 31.139 50.2815 31.0498 50.1981 30.9576C49.8877 30.6125 49.6261 30.2289 49.4105 29.8184C50.6782 29.5597 51.9775 29.4169 53.2796 29.3991V30.6155ZM53.2796 28.6496C51.8711 28.6704 50.4683 28.831 49.1001 29.1195C48.9046 28.5842 48.7839 28.0161 48.7494 27.4272H53.2796V28.6466V28.6496ZM53.2796 26.7402H48.7523C48.7954 26.1543 48.919 25.5862 49.1202 25.0538C50.4827 25.3423 51.8769 25.4999 53.2796 25.5208V26.7431V26.7402ZM53.2796 24.7683C51.9861 24.7475 50.6954 24.6077 49.4364 24.3519C49.6462 23.9623 49.9021 23.5965 50.1981 23.2663C50.2959 23.1593 50.3965 23.0581 50.4971 22.96C51.3882 23.3139 52.3195 23.5132 53.2796 23.5518V24.7713V24.7683ZM53.2796 22.9213C52.5236 22.8886 51.782 22.7429 51.0663 22.496C51.7331 22.0261 52.4863 21.7406 53.2796 21.6632V22.9243V22.9213ZM54.0644 21.6603C54.8577 21.7376 55.6137 22.0261 56.2777 22.493C55.5649 22.7399 54.8204 22.8856 54.0644 22.9183V21.6603ZM54.0644 23.5518C55.0216 23.5132 55.9558 23.3139 56.8469 22.96C56.9504 23.0581 57.051 23.1593 57.1459 23.2663C57.4419 23.5965 57.6978 23.9623 57.9047 24.3519C56.6457 24.6077 55.355 24.7475 54.0615 24.7683V23.5489L54.0644 23.5518ZM54.0644 25.5178C55.4671 25.497 56.8641 25.3393 58.2238 25.0508C58.425 25.5832 58.5486 26.1513 58.5917 26.7372H54.0644V25.5148V25.5178ZM55.059 32.3554C54.7341 32.4446 54.4036 32.5011 54.0672 32.5249V31.246C54.8434 31.2817 55.608 31.4304 56.3381 31.6922C55.9414 31.9807 55.5131 32.2037 55.059 32.3554ZM57.1487 30.9605C57.0654 31.0527 56.9791 31.1419 56.8929 31.2252C55.9903 30.8624 55.0388 30.6572 54.0672 30.6185V29.4021C55.3723 29.4229 56.6687 29.5656 57.9363 29.8214C57.7208 30.2319 57.4592 30.6155 57.1487 30.9605ZM58.2468 29.1195C56.8785 28.831 55.4758 28.6704 54.0672 28.6496V27.4302H58.5975C58.5601 28.0161 58.4423 28.5871 58.2468 29.1225V29.1195Z" fill="white"/>
<path d="M17.9023 40.5076C16.1575 40.5076 15.1572 39.3418 15.1543 37.3044C15.1543 36.2694 15.4446 35.4188 15.9994 34.8478C16.4881 34.3422 17.1722 34.0626 17.9282 34.0626C19.604 34.0626 20.6446 35.2909 20.6446 37.2658C20.6446 38.3365 20.3687 39.1633 19.8225 39.7284C19.1441 40.4303 18.253 40.5047 17.8995 40.5047M17.9167 35.2374C17.7299 35.2374 17.5689 35.3088 17.4338 35.4456C17.0716 35.8233 16.994 36.6442 16.994 37.2658C16.994 38.6458 17.3073 39.318 17.9455 39.318C18.1036 39.318 18.2415 39.2585 18.3565 39.1365C18.7158 38.7648 18.7906 37.9142 18.7906 37.2628C18.7906 36.6531 18.7043 35.2374 17.9138 35.2374H17.9167Z" fill="white"/>
<path d="M25.8015 40.464C25.2812 40.4283 24.7379 40.2201 24.7379 39.4795C24.7379 38.7389 24.7379 36.5113 24.7379 36.4875C24.7379 35.7648 24.4648 35.3811 23.9618 35.3811C23.6025 35.3811 23.0707 35.6666 23.0707 36.5886V40.4045H21.2166V36.0205C21.2166 35.5833 21.162 34.3728 21.1562 34.1676H22.7459L22.835 34.8933H22.8637L22.881 34.8695C23.2776 34.355 23.9819 34.0605 24.6919 34.0605C25.9481 34.0605 26.592 34.8428 26.592 36.3834V40.4015C26.592 40.4015 26.224 40.4907 25.7986 40.461" fill="white"/>
<path d="M52.4822 40.464C51.9619 40.4283 51.4186 40.2201 51.4186 39.4795C51.4186 38.7389 51.4186 36.5113 51.4186 36.4875C51.4186 35.7648 51.1455 35.3811 50.6425 35.3811C50.2832 35.3811 49.7543 35.6666 49.7543 36.5886V40.4045H47.9002V36.0205C47.9002 35.5833 47.8456 34.3728 47.8398 34.1676H49.4295L49.5186 34.8933H49.5473L49.5646 34.8695C49.9584 34.355 50.6655 34.0605 51.3755 34.0605C52.6317 34.0605 53.2756 34.8428 53.2756 36.3834V40.4015C53.2756 40.4015 52.9076 40.4907 52.4822 40.461" fill="white"/>
<path d="M29.4525 43C28.8115 43 27.6933 42.7234 27.6933 42.7234C27.6933 42.7234 27.7709 42.3249 27.8859 42.0185C27.9808 41.7657 28.2165 41.6349 28.6045 41.6914C28.9897 41.7449 29.1248 41.7746 29.3921 41.7746C29.8521 41.7746 30.2028 41.6527 30.4385 41.4058C30.6972 41.1382 30.8208 40.7337 30.8208 40.1745V39.7314H30.792L30.7748 39.7552C30.5362 40.1329 29.967 40.3649 29.4209 40.3649C27.7709 40.3649 27.1816 38.8034 27.1816 37.3431C27.1816 36.2427 27.4921 35.3117 28.0612 34.7258C28.478 34.2916 29.0098 34.0626 29.5962 34.0626C30.1826 34.0626 30.7029 34.3184 30.9789 34.7764L30.9932 34.8032H31.0191L31.1226 34.1667H32.7266C32.7266 34.1667 32.6605 35.2077 32.6605 36.1237V39.7462C32.6633 41.046 32.4018 41.8133 31.7952 42.313C31.229 42.7769 30.4643 43.003 29.4496 43.003M30.0619 35.3802C29.8319 35.3802 29.6336 35.4634 29.4726 35.63C29.0961 36.0196 29.0185 36.7542 29.0185 37.3074C29.0185 38.4525 29.3921 39.1395 30.0159 39.1395C30.2401 39.1395 30.5448 39.0533 30.723 38.6517C30.7834 38.512 30.8179 38.3127 30.8179 38.1223V36.4211C30.8179 36.2546 30.7892 36.0791 30.7403 35.9363C30.6253 35.5883 30.3724 35.3802 30.0619 35.3802Z" fill="white"/>
<path d="M35.8731 40.4783C35.396 40.4783 34.6716 40.4278 34.3554 39.4284C34.2289 39.0269 33.0446 34.7768 32.875 34.1671H34.7291L35.7208 38.1852H35.7639C35.7639 38.1852 36.3244 35.6304 36.5199 34.8363C36.7067 34.0809 37.1494 34.0957 37.5748 34.0957C37.8163 34.0957 38.1009 34.1552 38.1009 34.1552L39.0955 38.1703H39.1472L40.0527 34.1671H41.9096L40.1763 40.4099C40.1044 40.4248 40.0613 40.4605 39.8256 40.4605C39.334 40.4605 38.4573 40.52 38.1727 39.3452C37.8623 38.0722 37.4024 36.3591 37.4024 36.3591H37.3477L36.4078 40.4099C36.4078 40.4099 36.1232 40.4753 35.8702 40.4753" fill="white"/>
<path d="M44.5586 40.5076C42.8138 40.5076 41.8105 39.3418 41.8105 37.3044C41.8105 36.2694 42.1009 35.4188 42.6557 34.8478C43.1443 34.3422 43.8285 34.0626 44.5845 34.0626C46.2603 34.0626 47.3009 35.2909 47.3009 37.2658C47.3009 38.3365 47.0249 39.1633 46.4788 39.7284C45.8004 40.4303 44.9064 40.5047 44.5557 40.5047M44.5701 35.2374C44.3832 35.2374 44.2223 35.3088 44.09 35.4456C43.725 35.8233 43.6502 36.6442 43.6502 37.2658C43.6502 38.6458 43.9636 39.318 44.6017 39.318C44.7598 39.318 44.8978 39.2585 45.0128 39.1365C45.3893 38.7439 45.4468 37.7952 45.4468 37.2628C45.4468 36.6531 45.3606 35.2374 44.5701 35.2374Z" fill="white"/>
<path d="M8 39.2829V31.8831C8 31.8831 9.32803 31.6898 10.5123 31.7761C13.2977 31.9783 14.7235 33.9234 14.7235 36.3504C14.7235 37.9534 13.9905 40.5023 10.1818 40.5023C8.47142 40.5023 8.00287 39.967 8.00287 39.2859M9.85406 33.2364C9.85406 33.2364 9.85406 38.1646 9.85406 38.3817C9.85406 38.5988 9.82819 39.0777 10.5037 39.0777C11.435 39.0777 12.6797 38.4174 12.6797 36.3474C12.6797 35.3124 12.1566 33.4 10.5842 33.2185C10.1444 33.168 9.85694 33.2364 9.85694 33.2364H9.85406Z" fill="white"/>
</g>
<defs>
<clipPath id="clip0_1160_12700">
<rect width="52" height="22" fill="white" transform="translate(8 21)"/>
</clipPath>
</defs>
</svg>
