<svg width="64" height="64" viewBox="0 0 64 64" fill="none" xmlns="http://www.w3.org/2000/svg">
<rect width="80" height="80" transform="translate(0 -8)" fill="#EFEFEF"/>
<g clip-path="url(#clip0_1160_13022)">
<path d="M17.0144 38.9008L16.3366 42.2763H7L9.84644 27.6197H13.3108L11.1261 38.9008H17.0183H17.0144ZM21.5671 42.2803L24.4095 27.6197H20.8455L18.003 42.2803H21.5671ZM56.7887 27.6197H53.2247L51.4786 36.6278L47.5398 27.6197H43.9758L41.1333 42.2803H44.6934L46.3677 33.8215L50.0035 42.2803H53.9463L56.7847 27.6197H56.7887ZM32.6658 27.3809C28.4758 27.3809 25.0832 30.7723 25.0832 34.952C25.0832 39.1316 28.4798 42.5191 32.6658 42.5191C36.8517 42.5191 40.2483 39.1316 40.2483 34.952C40.2483 30.7723 36.8517 27.3809 32.6658 27.3809ZM36.9115 34.952C36.9115 37.2926 35.0099 39.1913 32.6658 39.1913C30.3216 39.1913 28.416 37.2926 28.416 34.952C28.416 32.6114 30.3177 30.7087 32.6658 30.7087C35.0139 30.7087 36.9115 32.6074 36.9115 34.952Z" fill="#00AC5B"/>
<path d="M15.1529 24.5342H9.79492V23.8893H12.0912V22.7708C10.959 22.6673 10.381 22.0423 10.381 21.286C10.381 20.4103 11.1783 19.7773 12.4739 19.7773C13.7696 19.7773 14.5669 20.4103 14.5669 21.286C14.5669 22.0145 13.9888 22.6752 12.8447 22.7747V23.8893H15.1529V24.5342ZM13.8134 21.29C13.8134 20.7526 13.1915 20.4182 12.4739 20.4182C11.7563 20.4182 11.1344 20.7526 11.1344 21.29C11.1344 21.7637 11.6886 22.1458 12.4739 22.1458C13.2593 22.1458 13.8134 21.7477 13.8134 21.29Z" fill="#231F20"/>
<path d="M20.8131 22.2657H15.4551V21.6368H20.8131V22.2657ZM20.1433 22.6359V24.1645H16.9421V24.5426H20.2709V25.1238H16.1169V23.5952H19.3261V23.2171H16.1169V22.6359H20.1393H20.1433ZM20.2031 21.2586H16.1248V19.543H16.8305V20.6297H20.2031V21.2586Z" fill="#231F20"/>
<path d="M26.4752 22.4294H21.1172V21.8203H26.4752V22.4294ZM25.8892 20.5107C25.8892 21.1436 25.0719 21.4979 23.7962 21.4979C22.5205 21.4979 21.7032 21.1396 21.7032 20.5107C21.7032 19.9216 22.5125 19.5195 23.7962 19.5195C25.0799 19.5195 25.8892 19.9415 25.8892 20.5107ZM25.8054 22.7876V24.2127H22.5603V24.5311H25.933V25.1203H21.7869V23.6952H25.0241V23.3767H21.7869V22.7876H25.8054ZM25.1038 20.5226C25.1038 20.2599 24.5138 20.049 23.7962 20.049C23.0786 20.049 22.4886 20.248 22.4886 20.5107C22.4886 20.7336 22.9749 20.9725 23.7962 20.9725C24.6174 20.9725 25.1038 20.7535 25.1038 20.5226Z" fill="#231F20"/>
<path d="M32.5306 23.575L32.0722 24.1045C31.821 23.9492 31.518 23.7542 31.215 23.3999C30.9758 23.1252 30.8243 22.8864 30.6968 22.6197C30.5612 22.9342 30.3818 23.1889 30.0948 23.5273C29.8556 23.8099 29.6124 23.993 29.3174 24.204L28.7832 23.7223C29.2656 23.4078 29.6523 23.0456 29.9234 22.5719C30.2343 22.0266 30.326 21.4335 30.326 20.7926V19.8691H31.0635V20.7966C31.0635 21.2822 31.1552 22.1141 31.526 22.6396C31.8529 23.1013 32.2037 23.376 32.5346 23.575H32.5306ZM34.4242 22.4445H33.6508V25.1912H32.9452V19.5586H33.6508V21.7599H34.4242V22.4445Z" fill="#231F20"/>
<path d="M38.1908 22.6675C37.7842 22.7232 36.8991 22.8028 36.1696 22.8068L34.9258 22.8147V21.0036H36.9231V20.4582H34.9258V19.8253H37.6287V21.6245H35.6314V22.1898L36.4606 22.1818C36.9789 22.1739 37.8001 22.1062 38.1908 22.0544V22.6675ZM39.4386 24.1721C39.4386 24.817 38.721 25.2668 37.3696 25.2668C36.0181 25.2668 35.3005 24.821 35.3005 24.1721C35.3005 23.5233 36.0261 23.0775 37.3696 23.0775C38.7131 23.0775 39.4386 23.5312 39.4386 24.1721ZM38.6692 24.1761C38.6692 23.8497 38.147 23.6785 37.3736 23.6785C36.6002 23.6785 36.054 23.8497 36.054 24.1761C36.054 24.5025 36.5882 24.6697 37.3736 24.6697C38.1589 24.6697 38.6692 24.4985 38.6692 24.1761ZM40.0605 21.5728H39.311V22.9819H38.6054V19.5586H39.311V20.916H40.0605V21.5768V21.5728Z" fill="#231F20"/>
<path d="M43.8323 20.9526H40.4277V20.3714H43.8323V20.9526ZM43.6569 21.9716C43.6569 22.4572 43.0709 22.8274 42.13 22.8274C41.249 22.8274 40.6031 22.4493 40.6031 21.9716C40.6031 21.4939 41.237 21.1396 42.142 21.1396C43.0469 21.1396 43.6569 21.4899 43.6569 21.9716ZM43.023 20.0967H41.233V19.5275H43.023V20.0967ZM45.0163 25.1242H41.241V23.0464H41.9466V23.5081H44.3107V23.0464H45.0163V25.1242ZM42.9154 21.9636C42.9154 21.7845 42.6283 21.6571 42.142 21.6571C41.6556 21.6571 41.3486 21.7726 41.3486 21.9716C41.3486 22.1706 41.6516 22.2861 42.142 22.2861C42.6323 22.2861 42.9154 22.1786 42.9154 21.9676V21.9636ZM44.3067 24.5311V24.0893H41.9426V24.5311H44.3067ZM45.7459 21.5496H45.0163V22.7518H44.3107V19.5593H45.0163V20.9048H45.7459V21.5496Z" fill="#231F20"/>
<path d="M49.6969 23.7343C49.3381 23.79 48.7162 23.8815 48.1501 23.8935C47.5282 23.9174 46.4757 23.9134 46.4199 23.9134V20.0482H47.1256V23.2486L48.1661 23.2407C48.6484 23.2287 49.2983 23.1571 49.6929 23.0854V23.7303L49.6969 23.7343ZM50.7932 25.1872H50.0876V19.5586H50.7932V25.1912V25.1872Z" fill="#231F20"/>
<path d="M55.0988 23.7741C55.0031 23.786 54.0862 23.9333 53.1733 23.9413L51.9414 23.9492V20.1636H54.5885V20.8045H52.647V23.2805H53.4882C54.0304 23.2685 54.9991 23.1531 55.0948 23.1332V23.7741H55.0988ZM56.2031 21.7758H57.0004V22.4485H56.2031V25.1872H55.4975V19.5586H56.2031V21.7798V21.7758Z" fill="#231F20"/>
</g>
<defs>
<clipPath id="clip0_1160_13022">
<rect width="50" height="23" fill="white" transform="translate(7 19.5195)"/>
</clipPath>
</defs>
</svg>
