<svg width="64" height="64" viewBox="0 0 64 64" fill="none" xmlns="http://www.w3.org/2000/svg">
<rect width="80" height="80" transform="translate(0 -8)" fill="#EFEFEF"/>
<g clip-path="url(#clip0_1160_12981)">
<path d="M56.9963 22.9562C56.9963 22.9562 57.0753 21.9196 56.4313 21.3833C55.9453 20.9831 55.2894 20.891 54.428 21.1392L33.3676 26.9343C33.2648 26.9704 32.9013 27.0344 32.5022 27.0384C32.1032 27.0384 31.7357 26.9704 31.6369 26.9343L10.5726 21.1352C9.71118 20.887 9.05527 20.9791 8.56926 21.3833C7.92519 21.9156 8.00422 22.9602 8.00027 22.9562V41.9585C8.00027 42.2747 7.96471 42.5789 8.17808 42.811C8.37564 42.9991 8.65618 43.0031 9.02761 43.0031H55.965C56.3364 43.0031 56.617 43.0031 56.8146 42.811C57.0319 42.5829 56.9924 42.2747 56.9924 41.9585V22.9562H56.9963Z" fill="#204E8A"/>
<path d="M23.9748 29.8057H25.3815V28.0527H22.2955L18.8263 34.4322L15.3531 28.0527H12.2553V29.8057H13.6659L13.3063 37.754H11.9629V39.515H16.5741V37.754H15.2148L15.44 31.8468L18.6722 37.5939H18.929L22.1651 31.8468L22.3864 37.754H21.0272V39.515H25.6739V37.754H24.3344L23.9748 29.8057Z" fill="white"/>
<path d="M33.5048 34.6918C33.5048 33.9234 33.3151 33.263 32.92 32.7748C32.3826 32.1104 31.5015 31.7422 30.2173 31.7422C28.1705 31.7422 27.2262 32.7387 27.2262 33.6792C27.2262 34.3036 27.6568 34.7038 28.2219 34.7038C28.7869 34.7038 29.2413 34.2876 29.2413 33.7113C29.2413 33.6072 29.2018 33.4311 29.1702 33.3351C29.344 33.259 29.5772 33.203 29.9051 33.203C30.5769 33.203 31.0747 33.3631 31.3869 33.7593C31.5765 34.0074 31.6793 34.3556 31.6793 34.8079V35.4202C31.2644 35.3121 30.5492 35.2121 29.7708 35.2121C27.9848 35.2121 26.748 36.0806 26.748 37.5053C26.748 38.9301 27.8939 39.6505 29.186 39.6505C30.2015 39.6505 31.1142 39.1943 31.7109 38.674V39.5064H34.623V37.9376H33.5087V34.6878L33.5048 34.6918ZM31.6753 37.5934C31.1103 38.0096 30.4544 38.2737 29.7826 38.2737C29.1109 38.2737 28.6684 37.9416 28.6684 37.3332C28.6684 36.6409 29.2216 36.2206 30.1304 36.2206C30.7112 36.2206 31.2486 36.2927 31.6753 36.3927V37.5934Z" fill="white"/>
<path d="M39.1782 31.7424C36.8588 31.7424 35.3652 33.5594 35.3652 35.7125C35.3652 38.0818 37.0643 39.6507 39.5259 39.6507C40.6244 39.6507 41.5885 39.4226 42.3827 38.9503L42.5329 37.2454C41.6557 37.7457 40.7113 38.0418 39.8025 38.0418C38.546 38.0418 37.5859 37.5255 37.3251 36.3369H42.7621C42.8095 36.0767 42.845 35.6925 42.845 35.4004C42.845 33.3753 41.5885 31.7344 39.1822 31.7344M37.3014 35.0242C37.5068 33.7635 38.3327 33.2792 39.1585 33.2792C40.2609 33.2792 40.9287 33.9796 40.9642 35.0242H37.3014Z" fill="white"/>
<path d="M45.8168 30.7124C46.4886 30.7124 47.0891 30.1521 47.0891 29.4597C47.0891 28.7673 46.5202 28.207 45.8524 28.207C45.1846 28.207 44.5801 28.7633 44.5801 29.4597C44.5801 30.1561 45.1491 30.7124 45.8208 30.7124" fill="white"/>
<path d="M46.9564 31.8828H43.9297V33.4877H45.0795V37.9421H43.9297V39.515H48.0706V37.9421H46.9564V31.8828Z" fill="white"/>
<path d="M52.1128 27.1994H49.0703V28.8042H50.2399V37.9412H49.0703V39.5141H53.231V37.9412H52.1128V27.1994Z" fill="white"/>
</g>
<defs>
<clipPath id="clip0_1160_12981">
<rect width="49" height="22" fill="white" transform="translate(8 21)"/>
</clipPath>
</defs>
</svg>
