<svg width="16" height="16" viewBox="0 0 16 16" fill="none" xmlns="http://www.w3.org/2000/svg">
<path d="M4.27962 15.5557H11.2717C12.5604 15.5557 13.6051 14.5111 13.6051 13.2224V4.5447L9.39496 0.0107422H4.27962C2.99096 0.0107422 1.94629 1.05541 1.94629 2.34407V13.2224C1.94629 14.5111 2.99096 15.5557 4.27962 15.5557Z" fill="#00733B"/>
<path d="M9.43965 3.77611L9.39587 0L13.6132 4.54487H10.2174C9.79134 4.54487 9.44459 4.20212 9.43965 3.77611Z" fill="#4D9D76"/>
<path d="M4.9168 9.57033H4.26739L5.11429 10.9451L4.2522 12.3199H4.90921L5.47887 11.3743H5.49786L6.06752 12.3199H6.72833L5.87004 10.9451L6.70934 9.57033H6.06372L5.49786 10.516H5.47887L4.9168 9.57033Z" fill="white"/>
<path d="M7.05493 12.3199H8.80949V11.849H7.62459V9.57033H7.05493V12.3199Z" fill="white"/>
<path d="M10.6704 10.3565H11.2173C11.2097 9.87035 10.809 9.53235 10.1995 9.53235C9.59752 9.53235 9.15698 9.86465 9.15888 10.3641C9.15888 10.7666 9.44371 10.9983 9.90704 11.1122L10.2071 11.1844C10.5071 11.2584 10.678 11.3458 10.678 11.5338C10.678 11.7388 10.4843 11.8794 10.1843 11.8794C9.88045 11.8794 9.66018 11.7388 9.6412 11.4616H9.08672C9.10381 12.0522 9.52726 12.3598 10.1919 12.3579C10.8622 12.3598 11.2533 12.037 11.2552 11.5338C11.2533 11.0761 10.902 10.8369 10.4311 10.7286L10.1843 10.6679C9.94691 10.6147 9.74184 10.5255 9.74373 10.3261C9.74563 10.1438 9.90704 10.0109 10.1957 10.0109C10.4748 10.0109 10.6476 10.1381 10.6704 10.3565Z" fill="white"/>
</svg>
