<svg width="24" height="24" viewBox="0 0 24 24" fill="none" xmlns="http://www.w3.org/2000/svg">
<g clip-path="url(#clip0_1129_361)">
<path d="M17.5002 0.917175C16.3742 0.93469 15.2727 1.24903 14.307 1.82845C13.3413 2.40786 12.5456 3.23184 12.0002 4.21718C11.4548 3.23184 10.6591 2.40786 9.69344 1.82845C8.72774 1.24903 7.62625 0.93469 6.5002 0.917175C4.70514 0.995166 3.01391 1.78043 1.79599 3.10141C0.578062 4.42239 -0.0675481 6.1717 0.000202431 7.96718C0.000202431 14.7422 10.9562 22.5672 11.4222 22.8992L12.0002 23.3082L12.5782 22.8992C13.0442 22.5692 24.0002 14.7422 24.0002 7.96718C24.068 6.1717 23.4223 4.42239 22.2044 3.10141C20.9865 1.78043 19.2953 0.995166 17.5002 0.917175ZM12.0002 20.8462C8.7472 18.4162 2.0002 12.4462 2.0002 7.96718C1.93184 6.70189 2.36657 5.46091 3.20957 4.51488C4.05256 3.56885 5.23544 2.99453 6.5002 2.91718C7.76497 2.99453 8.94784 3.56885 9.79084 4.51488C10.6338 5.46091 11.0686 6.70189 11.0002 7.96718H13.0002C12.9318 6.70189 13.3666 5.46091 14.2096 4.51488C15.0526 3.56885 16.2354 2.99453 17.5002 2.91718C18.765 2.99453 19.9478 3.56885 20.7908 4.51488C21.6338 5.46091 22.0686 6.70189 22.0002 7.96718C22.0002 12.4482 15.2532 18.4162 12.0002 20.8462Z" fill="#666666"/>
</g>
<defs>
<clipPath id="clip0_1129_361">
<rect width="24" height="24" fill="white"/>
</clipPath>
</defs>
</svg>
