<svg width="14" height="17" viewBox="0 0 14 17" fill="none" xmlns="http://www.w3.org/2000/svg">
<path d="M13.661 5.52423L8.64495 0.6595C8.20782 0.237094 7.6165 0 7.00013 0C6.38377 0 5.79245 0.237094 5.35532 0.6595L0.33922 5.52423C0.121951 5.73669 0 6.0241 0 6.32368C0 6.62326 0.121951 6.91066 0.33922 7.12313C0.447664 7.22941 0.576684 7.31377 0.718837 7.37134C0.86099 7.42891 1.01346 7.45855 1.16746 7.45855C1.32146 7.45855 1.47393 7.42891 1.61608 7.37134C1.75823 7.31377 1.88725 7.22941 1.9957 7.12313L5.8336 3.39237V15.866C5.8336 16.1668 5.9565 16.4552 6.17527 16.6679C6.39404 16.8805 6.69075 17 7.00013 17C7.30952 17 7.60623 16.8805 7.825 16.6679C8.04377 16.4552 8.16667 16.1668 8.16667 15.866V3.39237L12.0046 7.12313C12.2227 7.33666 12.5191 7.45721 12.8287 7.45828C13.1382 7.45934 13.4356 7.34082 13.6552 7.1288C13.8749 6.91677 13.9989 6.6286 14 6.32769C14.0011 6.02677 13.8792 5.73776 13.661 5.52423Z" fill="#666666"/>
</svg>
