<svg width="12" height="6" viewBox="0 0 12 6" fill="none" xmlns="http://www.w3.org/2000/svg">
<path d="M0.90723 0H11.0928C11.2729 0.000655882 11.4489 0.0476818 11.5983 0.135132C11.7477 0.222582 11.8638 0.346528 11.9321 0.491298C12.0004 0.636068 12.0176 0.795159 11.9818 0.948456C11.9459 1.10175 11.8584 1.24237 11.7305 1.35253L6.64685 5.76604C6.56215 5.84017 6.46139 5.89902 6.35037 5.93917C6.23935 5.97933 6.12027 6 6 6C5.87973 6 5.76065 5.97933 5.64963 5.93917C5.53861 5.89902 5.43785 5.84017 5.35315 5.76604L0.269496 1.35253C0.141564 1.24237 0.05413 1.10175 0.0182482 0.948456C-0.0176337 0.795159 -0.000351772 0.636068 0.0679092 0.491298C0.13617 0.346528 0.252344 0.222582 0.401742 0.135132C0.551139 0.0476818 0.727049 0.000655882 0.90723 0Z" fill="#222222"/>
</svg>
