<svg width="16" height="16" viewBox="0 0 16 16" fill="none" xmlns="http://www.w3.org/2000/svg">
<path d="M16 8C15.9986 6.03034 15.2689 4.13075 13.9513 2.66667L15.3333 2.66667C15.5101 2.66667 15.6797 2.59643 15.8047 2.4714C15.9298 2.34638 16 2.17681 16 2C16 1.82319 15.9298 1.65362 15.8047 1.5286C15.6797 1.40357 15.5101 1.33333 15.3333 1.33333L13.3333 1.33333C12.8029 1.33333 12.2942 1.54405 11.9191 1.91912C11.544 2.29419 11.3333 2.8029 11.3333 3.33333L11.3333 5.33333C11.3333 5.51014 11.4036 5.67971 11.5286 5.80474C11.6536 5.92976 11.8232 6 12 6C12.1768 6 12.3464 5.92976 12.4714 5.80474C12.5964 5.67971 12.6667 5.51015 12.6667 5.33333L12.6667 3.33333C12.67 3.31085 12.6747 3.28859 12.6807 3.26667C13.7748 4.35301 14.4579 5.78542 14.6136 7.31938C14.7692 8.85333 14.3876 10.3938 13.5339 11.6777C12.6802 12.9616 11.4074 13.9095 9.9327 14.3595C8.45799 14.8094 6.87283 14.7337 5.44777 14.1451C4.02272 13.5564 2.84613 12.4915 2.11883 11.132C1.39154 9.77246 1.15862 8.20266 1.45985 6.69054C1.76108 5.17843 2.57778 3.81772 3.77054 2.8407C4.96329 1.86368 6.45817 1.33091 8 1.33333C8.17681 1.33333 8.34638 1.2631 8.4714 1.13807C8.59643 1.01305 8.66667 0.843477 8.66667 0.666666C8.66667 0.489855 8.59643 0.320286 8.4714 0.195262C8.34638 0.0702376 8.17681 -3.41962e-07 8 -3.49691e-07C6.41775 -4.18854e-07 4.87103 0.469191 3.55544 1.34824C2.23984 2.22729 1.21446 3.47672 0.608962 4.93853C0.0034606 6.40034 -0.154965 8.00887 0.153716 9.56072C0.462398 11.1126 1.22432 12.538 2.34314 13.6569C3.46196 14.7757 4.88743 15.5376 6.43928 15.8463C7.99112 16.155 9.59966 15.9965 11.0615 15.391C12.5233 14.7855 13.7727 13.7602 14.6518 12.4446C15.5308 11.129 16 9.58225 16 8H16Z" fill="#666666"/>
</svg>
