<svg width="14" height="14" viewBox="0 0 14 14" fill="none" xmlns="http://www.w3.org/2000/svg">
<path d="M6.41669 10.5001H7.58335V9.33342H6.41669V10.5001ZM7.00002 1.16675C3.78002 1.16675 1.16669 3.78008 1.16669 7.00008C1.16669 10.2201 3.78002 12.8334 7.00002 12.8334C10.22 12.8334 12.8334 10.2201 12.8334 7.00008C12.8334 3.78008 10.22 1.16675 7.00002 1.16675ZM7.00002 11.6667C4.42752 11.6667 2.33335 9.57258 2.33335 7.00008C2.33335 4.42758 4.42752 2.33341 7.00002 2.33341C9.57252 2.33341 11.6667 4.42758 11.6667 7.00008C11.6667 9.57258 9.57252 11.6667 7.00002 11.6667ZM7.00002 3.50008C5.71085 3.50008 4.66669 4.54425 4.66669 5.83342H5.83335C5.83335 5.19175 6.35835 4.66675 7.00002 4.66675C7.64169 4.66675 8.16669 5.19175 8.16669 5.83342C8.16669 7.00008 6.41669 6.85425 6.41669 8.75008H7.58335C7.58335 7.43758 9.33335 7.29175 9.33335 5.83342C9.33335 4.54425 8.28919 3.50008 7.00002 3.50008Z" fill="#AAAAAA"/>
</svg>
