<svg width="17" height="17" viewBox="0 0 17 17" fill="none" xmlns="http://www.w3.org/2000/svg">
<path d="M16.1785 9.51185C16.4911 9.19928 16.6667 8.77536 16.6667 8.33333C16.6667 7.89131 16.4911 7.46738 16.1785 7.15482C15.866 6.84226 15.442 6.66667 15 6.66667H10V1.66667C10 1.22464 9.82441 0.800717 9.51184 0.488156C9.19928 0.175596 8.77536 0 8.33333 0C7.89131 0 7.46738 0.175596 7.15482 0.488156C6.84226 0.800717 6.66667 1.22464 6.66667 1.66667V6.66667H1.66667C1.22464 6.66667 0.800716 6.84226 0.488155 7.15482C0.175595 7.46738 0 7.89131 0 8.33333C0 8.77536 0.175595 9.19928 0.488155 9.51185C0.800716 9.82441 1.22464 10 1.66667 10H6.66667V15C6.66667 15.442 6.84226 15.866 7.15482 16.1785C7.46738 16.4911 7.89131 16.6667 8.33333 16.6667C8.77536 16.6667 9.19928 16.4911 9.51184 16.1785C9.82441 15.866 10 15.442 10 15V10H15C15.442 10 15.866 9.82441 16.1785 9.51185Z" fill="#666666"/>
</svg>
