<svg preserveAspectRatio="none" width="100%" height="100%" overflow="visible" style="display: block;" viewBox="0 0 18 24" fill="none" xmlns="http://www.w3.org/2000/svg">
<g id="01 align center">
<path id="Vector" d="M15 0H11V1C11 1.53043 10.7893 2.03914 10.4142 2.41421C10.0391 2.78929 9.53043 3 9 3C8.46957 3 7.96086 2.78929 7.58579 2.41421C7.21071 2.03914 7 1.53043 7 1V0H3C2.20435 0 1.44129 0.31607 0.87868 0.87868C0.316071 1.44129 0 2.20435 0 3V24H7V23C7 22.4696 7.21071 21.9609 7.58579 21.5858C7.96086 21.2107 8.46957 21 9 21C9.53043 21 10.0391 21.2107 10.4142 21.5858C10.7893 21.9609 11 22.4696 11 23V24H18V3C18 2.20435 17.6839 1.44129 17.1213 0.87868C16.5587 0.31607 15.7956 0 15 0V0ZM12.874 22C12.653 21.1405 12.1524 20.3789 11.4511 19.835C10.7498 19.2912 9.88748 18.9961 9 18.9961C8.11252 18.9961 7.25024 19.2912 6.5489 19.835C5.84756 20.3789 5.347 21.1405 5.126 22H2V17H5V15H2V3C2 2.73478 2.10536 2.48043 2.29289 2.29289C2.48043 2.10536 2.73478 2 3 2H5.126C5.347 2.85953 5.84756 3.62115 6.5489 4.16498C7.25024 4.7088 8.11252 5.00395 9 5.00395C9.88748 5.00395 10.7498 4.7088 11.4511 4.16498C12.1524 3.62115 12.653 2.85953 12.874 2H15C15.2652 2 15.5196 2.10536 15.7071 2.29289C15.8946 2.48043 16 2.73478 16 3V15H13V17H16V22H12.874Z" fill="var(--fill-0, #666666)"/>
<path id="Vector_2" d="M10.9998 15H6.99986V17H10.9998V15Z" fill="var(--fill-0, #666666)"/>
</g>
</svg>
