<svg preserveAspectRatio="none" width="100%" height="100%" overflow="visible" style="display: block;" viewBox="0 0 11.6667 11.6667" fill="none" xmlns="http://www.w3.org/2000/svg">
<path id="Vector" d="M5.25 9.33333H6.41667V8.16667H5.25V9.33333ZM5.83333 0C2.61333 0 0 2.61333 0 5.83333C0 9.05333 2.61333 11.6667 5.83333 11.6667C9.05333 11.6667 11.6667 9.05333 11.6667 5.83333C11.6667 2.61333 9.05333 0 5.83333 0ZM5.83333 10.5C3.26083 10.5 1.16667 8.40583 1.16667 5.83333C1.16667 3.26083 3.26083 1.16667 5.83333 1.16667C8.40583 1.16667 10.5 3.26083 10.5 5.83333C10.5 8.40583 8.40583 10.5 5.83333 10.5ZM5.83333 2.33333C4.54417 2.33333 3.5 3.3775 3.5 4.66667H4.66667C4.66667 4.025 5.19167 3.5 5.83333 3.5C6.475 3.5 7 4.025 7 4.66667C7 5.83333 5.25 5.6875 5.25 7.58333H6.41667C6.41667 6.27083 8.16667 6.125 8.16667 4.66667C8.16667 3.3775 7.1225 2.33333 5.83333 2.33333Z" fill="var(--fill-0, #AAAAAA)"/>
</svg>
