<svg width="24" height="24" viewBox="0 0 24 24" fill="none" xmlns="http://www.w3.org/2000/svg">
<g clip-path="url(#clip0_1129_362)">
<path d="M21 24.0006H19V18.9576C18.9992 18.1736 18.6874 17.4219 18.133 16.8676C17.5787 16.3132 16.827 16.0014 16.043 16.0006H7.957C7.173 16.0014 6.42134 16.3132 5.86696 16.8676C5.31259 17.4219 5.00079 18.1736 5 18.9576V24.0006H3V18.9576C3.00159 17.6434 3.52435 16.3835 4.45363 15.4542C5.3829 14.525 6.64281 14.0022 7.957 14.0006H16.043C17.3572 14.0022 18.6171 14.525 19.5464 15.4542C20.4756 16.3835 20.9984 17.6434 21 18.9576V24.0006Z" fill="#666666"/>
<path d="M12 11.9999C10.8133 11.9999 9.65328 11.648 8.66658 10.9888C7.67989 10.3295 6.91085 9.3924 6.45673 8.29604C6.0026 7.19969 5.88378 5.99329 6.11529 4.8294C6.3468 3.66551 6.91825 2.59642 7.75736 1.7573C8.59648 0.918186 9.66558 0.346741 10.8295 0.11523C11.9933 -0.116281 13.1997 0.00253868 14.2961 0.456664C15.3925 0.91079 16.3295 1.67983 16.9888 2.66652C17.6481 3.65321 18 4.81325 18 5.99994C17.9984 7.59075 17.3658 9.11595 16.2409 10.2408C15.116 11.3657 13.5908 11.9984 12 11.9999ZM12 1.99994C11.2089 1.99994 10.4355 2.23454 9.77772 2.67406C9.11993 3.11359 8.60724 3.7383 8.30448 4.46921C8.00173 5.20011 7.92252 6.00438 8.07686 6.7803C8.2312 7.55623 8.61217 8.26896 9.17158 8.82837C9.73099 9.38778 10.4437 9.76874 11.2196 9.92308C11.9956 10.0774 12.7998 9.99821 13.5307 9.69546C14.2616 9.39271 14.8864 8.88002 15.3259 8.22222C15.7654 7.56443 16 6.79107 16 5.99994C16 4.93908 15.5786 3.92166 14.8284 3.17151C14.0783 2.42137 13.0609 1.99994 12 1.99994Z" fill="#666666"/>
</g>
<defs>
<clipPath id="clip0_1129_362">
<rect width="24" height="24" fill="white"/>
</clipPath>
</defs>
</svg>
